M48
METRIC,LZ,000.000
;FILE_FORMAT=3:3
;TYPE=PLATED
;Layer: PTH_Through
;EasyEDA v6.5.12, 2022-08-14 18:20:48
;2a177721641841d29097ea14f7d9b4fa,85f94b3334f644aba6dda46b10c31569,10
;Gerber Generator version 0.2
;Holesize 1 = 0.400 mm
T01C0.400
;Holesize 2 = 0.901 mm
T02C0.901
;Holesize 3 = 0.915 mm
T03C0.915
;Holesize 4 = 1.000 mm
T04C1.000
;Holesize 5 = 1.016 mm
T05C1.016
;Holesize 6 = 1.200 mm
T06C1.200
;Holesize 7 = 1.501 mm
T07C1.501
;Holesize 8 = 1.751 mm
T08C1.751
%
G05
G90
T01
X053467Y-067691
X017780Y-039116
X013462Y-037020
X045339Y-017145
T02
X021844Y-034671
X021844Y-025019
X025944Y-034671
X025944Y-025019
X030045Y-034671
X030045Y-025019
X034145Y-034671
X034145Y-025019
X038245Y-034671
X038245Y-025019
X042345Y-034671
X042345Y-025019
X046446Y-034671
X046446Y-025019
X050546Y-034671
X050546Y-025019
X049911Y-069088
X049911Y-059436
X045974Y-069088
X045974Y-059436
X042037Y-069088
X042037Y-059436
X038100Y-069088
X038100Y-059436
X034163Y-069088
X034163Y-059436
X030226Y-069088
X030226Y-059436
X026289Y-069088
X026289Y-059436
T03
X058547Y-092329
X058547Y-089789
X058547Y-087249
X058547Y-084709
X058547Y-082169
X058547Y-079629
X058547Y-077089
X030607Y-085979
X030607Y-083439
T04
X045212Y-004953G85X045212Y-004953
X042672Y-004953G85X042672Y-004953
X040132Y-004953G85X040132Y-004953
X037592Y-004953G85X037592Y-004953
X035052Y-004953G85X035052Y-004953
X032512Y-004953G85X032512Y-004953
X029972Y-004953G85X029972Y-004953
X027432Y-004953G85X027432Y-004953
X024892Y-004953G85X024892Y-004953
X022352Y-004953G85X022352Y-004953
X019812Y-004953G85X019812Y-004953
X017272Y-004953G85X017272Y-004953
X045212Y-020193G85X045212Y-020193
X042672Y-020193G85X042672Y-020193
X040132Y-020193G85X040132Y-020193
X037592Y-020193G85X037592Y-020193
X035052Y-020193G85X035052Y-020193
X032512Y-020193G85X032512Y-020193
X027432Y-020193G85X027432Y-020193
X024892Y-020193G85X024892Y-020193
X019812Y-020193G85X019812Y-020193
X017272Y-020193G85X017272Y-020193
X022352Y-020193G85X022352Y-020193
X029972Y-020193G85X029972Y-020193
X014732Y-004953G85X014732Y-004953
X012192Y-004953G85X012192Y-004953
X009652Y-004953G85X009652Y-004953
X014732Y-020193G85X014732Y-020193
X012192Y-020193G85X012192Y-020193
X009652Y-020193G85X009652Y-020193
T05
X071885Y-047371G85X071879Y-047371
X071885Y-049911G85X071879Y-049911
X071885Y-052451G85X071879Y-052451
X071885Y-044831G85X071879Y-044831
T06
X079883Y-021209
X079883Y-018669
X079883Y-009779
X079883Y-007239
X054483Y-007239
X054483Y-009779
X054483Y-018669
X054483Y-021209
T07
X067818Y-073660G85X067818Y-073660
X067818Y-095160G85X067818Y-095160
T08
X022198Y-043498G85X022192Y-043498
X026198Y-043498G85X026192Y-043498
X030198Y-043498G85X030192Y-043498
X034198Y-043498G85X034192Y-043498
X038198Y-043498G85X038192Y-043498
X042198Y-043498G85X042192Y-043498
X046198Y-043498G85X046192Y-043498
X050198Y-043498G85X050192Y-043498
X024198Y-047498G85X024192Y-047498
X028198Y-047498G85X028192Y-047498
X032198Y-047498G85X032192Y-047498
X036198Y-047498G85X036192Y-047498
X040198Y-047498G85X040192Y-047498
X044198Y-047498G85X044192Y-047498
X048198Y-047498G85X048192Y-047498
X022198Y-051498G85X022192Y-051498
X026198Y-051498G85X026192Y-051498
X030198Y-051498G85X030192Y-051498
X034198Y-051498G85X034192Y-051498
X038198Y-051498G85X038192Y-051498
X042198Y-051498G85X042192Y-051498
X046198Y-051498G85X046192Y-051498
X050198Y-051498G85X050192Y-051498
M30
