G04 Layer: TopLayer*
G04 EasyEDA v6.5.12, 2022-08-14 18:20:48*
G04 2a177721641841d29097ea14f7d9b4fa,85f94b3334f644aba6dda46b10c31569,10*
G04 Gerber Generator version 0.2*
G04 Scale: 100 percent, Rotated: No, Reflected: No *
G04 Dimensions in millimeters *
G04 leading zeros omitted , absolute positions ,4 integer and 5 decimal *
%FSLAX45Y45*%
%MOMM*%

%ADD10C,0.7000*%
%ADD11C,0.2540*%
%ADD12C,0.4000*%
%ADD13C,0.6000*%
%ADD14C,3.0000*%
%ADD15C,2.5000*%
%ADD16R,2.0000X2.0000*%
%ADD17C,2.0000*%
%ADD18C,2.4000*%
%ADD19R,2.4999X2.4999*%
%ADD20C,2.4999*%
%ADD21R,1.5080X1.5080*%
%ADD22C,1.5080*%
%ADD23O,2.032X1.524*%
%ADD24R,1.5240X1.5240*%
%ADD25C,1.5240*%
%ADD26O,3.048X1.524*%
%ADD27C,0.8000*%
%ADD28C,0.0130*%

%LPD*%
G36*
X8166100Y-9968992D02*
G01*
X36068Y-9965232D01*
X32156Y-9964420D01*
X28905Y-9962235D01*
X26670Y-9958933D01*
X25908Y-9955072D01*
X25908Y-36068D01*
X26670Y-32156D01*
X28905Y-28905D01*
X32156Y-26670D01*
X36068Y-25908D01*
X8193531Y-25908D01*
X8197443Y-26670D01*
X8200694Y-28905D01*
X8202930Y-32156D01*
X8203692Y-36068D01*
X8203692Y-9958832D01*
X8202930Y-9962743D01*
X8200694Y-9965994D01*
X8197443Y-9968230D01*
X8193531Y-9968992D01*
G37*

%LPC*%
G36*
X7980121Y-442518D02*
G01*
X7998206Y-441147D01*
X8015986Y-437896D01*
X8033410Y-432816D01*
X8050174Y-426008D01*
X8066125Y-417474D01*
X8081162Y-407365D01*
X8095081Y-395782D01*
X8107730Y-382828D01*
X8118957Y-368604D01*
X8128660Y-353314D01*
X8136788Y-337159D01*
X8143138Y-320192D01*
X8147761Y-302666D01*
X8150555Y-284784D01*
X8151469Y-266700D01*
X8150555Y-248615D01*
X8147761Y-230733D01*
X8143138Y-213207D01*
X8136788Y-196240D01*
X8128660Y-180086D01*
X8118957Y-164795D01*
X8107730Y-150571D01*
X8095081Y-137617D01*
X8081162Y-126034D01*
X8066125Y-115925D01*
X8050174Y-107391D01*
X8033410Y-100584D01*
X8015986Y-95504D01*
X7998206Y-92252D01*
X7980121Y-90881D01*
X7962036Y-91338D01*
X7944053Y-93675D01*
X7926425Y-97790D01*
X7909356Y-103784D01*
X7892948Y-111455D01*
X7877403Y-120751D01*
X7862925Y-131622D01*
X7849616Y-143916D01*
X7837678Y-157530D01*
X7827162Y-172313D01*
X7818272Y-188061D01*
X7811008Y-204673D01*
X7805521Y-221894D01*
X7801813Y-239623D01*
X7799933Y-257657D01*
X7799933Y-275742D01*
X7801813Y-293776D01*
X7805521Y-311505D01*
X7811008Y-328726D01*
X7818272Y-345338D01*
X7827162Y-361086D01*
X7837678Y-375869D01*
X7849616Y-389483D01*
X7862925Y-401777D01*
X7877403Y-412648D01*
X7892948Y-421944D01*
X7909356Y-429615D01*
X7926425Y-435609D01*
X7944053Y-439724D01*
X7962036Y-442061D01*
G37*
G36*
X309321Y-9853218D02*
G01*
X327406Y-9851847D01*
X345186Y-9848596D01*
X362610Y-9843516D01*
X379374Y-9836708D01*
X395325Y-9828174D01*
X410362Y-9818065D01*
X424281Y-9806482D01*
X436930Y-9793528D01*
X448157Y-9779304D01*
X457860Y-9764014D01*
X465988Y-9747859D01*
X472338Y-9730892D01*
X476961Y-9713366D01*
X479755Y-9695484D01*
X480669Y-9677400D01*
X479755Y-9659315D01*
X476961Y-9641433D01*
X472338Y-9623907D01*
X465988Y-9606940D01*
X457860Y-9590786D01*
X448157Y-9575495D01*
X436930Y-9561271D01*
X424281Y-9548317D01*
X410362Y-9536734D01*
X395325Y-9526625D01*
X379374Y-9518091D01*
X362610Y-9511284D01*
X345186Y-9506204D01*
X327406Y-9502952D01*
X309321Y-9501581D01*
X291236Y-9502038D01*
X273253Y-9504375D01*
X255625Y-9508490D01*
X238556Y-9514484D01*
X222148Y-9522155D01*
X206603Y-9531451D01*
X192125Y-9542322D01*
X178816Y-9554616D01*
X166878Y-9568230D01*
X156362Y-9583013D01*
X147472Y-9598761D01*
X140208Y-9615373D01*
X134721Y-9632594D01*
X131013Y-9650323D01*
X129133Y-9668357D01*
X129133Y-9686442D01*
X131013Y-9704476D01*
X134721Y-9722205D01*
X140208Y-9739426D01*
X147472Y-9756038D01*
X156362Y-9771786D01*
X166878Y-9786569D01*
X178816Y-9800183D01*
X192125Y-9812477D01*
X206603Y-9823348D01*
X222148Y-9832644D01*
X238556Y-9840315D01*
X255625Y-9846310D01*
X273253Y-9850424D01*
X291236Y-9852761D01*
G37*
G36*
X6781800Y-9666884D02*
G01*
X6798716Y-9665919D01*
X6815378Y-9663074D01*
X6831634Y-9658400D01*
X6847281Y-9651949D01*
X6862064Y-9643719D01*
X6875881Y-9633966D01*
X6888480Y-9622688D01*
X6899757Y-9610039D01*
X6909562Y-9596272D01*
X6917740Y-9581438D01*
X6924243Y-9565792D01*
X6928916Y-9549536D01*
X6931761Y-9532874D01*
X6932675Y-9516008D01*
X6931761Y-9499092D01*
X6928916Y-9482429D01*
X6924243Y-9466173D01*
X6917740Y-9450527D01*
X6909562Y-9435693D01*
X6899757Y-9421926D01*
X6888480Y-9409277D01*
X6875881Y-9398000D01*
X6862064Y-9388246D01*
X6847281Y-9380016D01*
X6831634Y-9373565D01*
X6815378Y-9368891D01*
X6798716Y-9366046D01*
X6781800Y-9365081D01*
X6764883Y-9366046D01*
X6748221Y-9368891D01*
X6731965Y-9373565D01*
X6716318Y-9380016D01*
X6701536Y-9388246D01*
X6687718Y-9398000D01*
X6675120Y-9409277D01*
X6663842Y-9421926D01*
X6654038Y-9435693D01*
X6645859Y-9450527D01*
X6639356Y-9466173D01*
X6634683Y-9482429D01*
X6631838Y-9499092D01*
X6630924Y-9516008D01*
X6631838Y-9532874D01*
X6634683Y-9549536D01*
X6639356Y-9565792D01*
X6645859Y-9581438D01*
X6654038Y-9596272D01*
X6663842Y-9610039D01*
X6675120Y-9622688D01*
X6687718Y-9633966D01*
X6701536Y-9643719D01*
X6716318Y-9651949D01*
X6731965Y-9658400D01*
X6748221Y-9663074D01*
X6764883Y-9665919D01*
G37*
G36*
X5779058Y-9335008D02*
G01*
X5930341Y-9335008D01*
X5936640Y-9334296D01*
X5942126Y-9332366D01*
X5947003Y-9329318D01*
X5951118Y-9325203D01*
X5954166Y-9320326D01*
X5956096Y-9314840D01*
X5956808Y-9308541D01*
X5956808Y-9157258D01*
X5956096Y-9150959D01*
X5954166Y-9145473D01*
X5951118Y-9140596D01*
X5947003Y-9136481D01*
X5942126Y-9133433D01*
X5936640Y-9131503D01*
X5930341Y-9130792D01*
X5823153Y-9130792D01*
X5819292Y-9130030D01*
X5815990Y-9127794D01*
X5583377Y-8895232D01*
X5581192Y-8891930D01*
X5580430Y-8888018D01*
X5580430Y-3861104D01*
X5579973Y-3853891D01*
X5579567Y-3851249D01*
X5577941Y-3844340D01*
X5577078Y-3841851D01*
X5574284Y-3835349D01*
X5573014Y-3833012D01*
X5569102Y-3827068D01*
X5567426Y-3824986D01*
X5562549Y-3819855D01*
X5560568Y-3818077D01*
X5554878Y-3813860D01*
X5552592Y-3812489D01*
X5546140Y-3809237D01*
X5028387Y-3588715D01*
X5025085Y-3586479D01*
X5022951Y-3583178D01*
X5022189Y-3579317D01*
X5022951Y-3575456D01*
X5025186Y-3572154D01*
X5028488Y-3569970D01*
X5032349Y-3569208D01*
X5079644Y-3569208D01*
X5093309Y-3568293D01*
X5106416Y-3565702D01*
X5119065Y-3561435D01*
X5131054Y-3555492D01*
X5142128Y-3548075D01*
X5152186Y-3539286D01*
X5160975Y-3529228D01*
X5168392Y-3518154D01*
X5174335Y-3506165D01*
X5178602Y-3493515D01*
X5181193Y-3480409D01*
X5182108Y-3467100D01*
X5181193Y-3453790D01*
X5178602Y-3440684D01*
X5174335Y-3428034D01*
X5168392Y-3416046D01*
X5160975Y-3404971D01*
X5152186Y-3394913D01*
X5142128Y-3386124D01*
X5131054Y-3378708D01*
X5119065Y-3372764D01*
X5106416Y-3368497D01*
X5093309Y-3365906D01*
X5079644Y-3364992D01*
X5029555Y-3364992D01*
X5015890Y-3365906D01*
X5002784Y-3368497D01*
X4990134Y-3372764D01*
X4978146Y-3378708D01*
X4967071Y-3386124D01*
X4957013Y-3394913D01*
X4948224Y-3404971D01*
X4940808Y-3416046D01*
X4934864Y-3428034D01*
X4930597Y-3440684D01*
X4928006Y-3453790D01*
X4927092Y-3467100D01*
X4928006Y-3480409D01*
X4930597Y-3493515D01*
X4934864Y-3506165D01*
X4940808Y-3518154D01*
X4948224Y-3529228D01*
X4954270Y-3536187D01*
X4956251Y-3539540D01*
X4956759Y-3543350D01*
X4955844Y-3547160D01*
X4953558Y-3550259D01*
X4950256Y-3552342D01*
X4946446Y-3553002D01*
X4942636Y-3552190D01*
X4900777Y-3534359D01*
X4897526Y-3532174D01*
X4895392Y-3528872D01*
X4894630Y-3525012D01*
X4894630Y-2464257D01*
X4893716Y-2454097D01*
X4891176Y-2444699D01*
X4887061Y-2435860D01*
X4881473Y-2427884D01*
X4874310Y-2420721D01*
X4749139Y-2316429D01*
X4743704Y-2312873D01*
X4740859Y-2311349D01*
X4734864Y-2308809D01*
X4731766Y-2307793D01*
X4725466Y-2306320D01*
X4047591Y-2232152D01*
X4043121Y-2230577D01*
X3949039Y-2169566D01*
X3946601Y-2167331D01*
X3944975Y-2164384D01*
X3944416Y-2161082D01*
X3944061Y-2113889D01*
X3944924Y-2109774D01*
X3947363Y-2106371D01*
X3950919Y-2104186D01*
X3955084Y-2103678D01*
X3959098Y-2104898D01*
X3970578Y-2111197D01*
X3983177Y-2116023D01*
X3996334Y-2119172D01*
X4009796Y-2120544D01*
X4023360Y-2120087D01*
X4036669Y-2117801D01*
X4049623Y-2113838D01*
X4061866Y-2108098D01*
X4073296Y-2100834D01*
X4083608Y-2092096D01*
X4092701Y-2082088D01*
X4100322Y-2070912D01*
X4106468Y-2058822D01*
X4110888Y-2046071D01*
X4113580Y-2032812D01*
X4114495Y-2019300D01*
X4113580Y-2005787D01*
X4110888Y-1992528D01*
X4106468Y-1979777D01*
X4100322Y-1967687D01*
X4092701Y-1956511D01*
X4083608Y-1946503D01*
X4073296Y-1937766D01*
X4061866Y-1930501D01*
X4049623Y-1924761D01*
X4036669Y-1920798D01*
X4023360Y-1918512D01*
X4009796Y-1918055D01*
X3996334Y-1919427D01*
X3983177Y-1922576D01*
X3970578Y-1927402D01*
X3957878Y-1934464D01*
X3953865Y-1935683D01*
X3949700Y-1935175D01*
X3946144Y-1933092D01*
X3943654Y-1929688D01*
X3942791Y-1925624D01*
X3942130Y-1827326D01*
X3941876Y-1822754D01*
X3941165Y-1817420D01*
X3940200Y-1813153D01*
X3938574Y-1808022D01*
X3936898Y-1803958D01*
X3934409Y-1799234D01*
X3932021Y-1795525D01*
X3928770Y-1791258D01*
X3925620Y-1787855D01*
X3755593Y-1617624D01*
X3753408Y-1614322D01*
X3752646Y-1610461D01*
X3752646Y-686765D01*
X3752392Y-681634D01*
X3751783Y-676859D01*
X3750716Y-672033D01*
X3749243Y-667461D01*
X3747363Y-662889D01*
X3745128Y-658622D01*
X3742486Y-654456D01*
X3739540Y-650646D01*
X3736086Y-646836D01*
X3608120Y-519074D01*
X3606190Y-516382D01*
X3605225Y-513181D01*
X3606495Y-495300D01*
X3605580Y-481787D01*
X3602888Y-468528D01*
X3598468Y-455777D01*
X3592322Y-443687D01*
X3584701Y-432511D01*
X3575608Y-422503D01*
X3565296Y-413766D01*
X3553866Y-406501D01*
X3541623Y-400761D01*
X3528669Y-396798D01*
X3515360Y-394512D01*
X3501796Y-394055D01*
X3488334Y-395427D01*
X3475177Y-398576D01*
X3462578Y-403402D01*
X3450691Y-409905D01*
X3439820Y-417931D01*
X3430066Y-427380D01*
X3421684Y-437997D01*
X3414776Y-449630D01*
X3409543Y-462076D01*
X3405936Y-475132D01*
X3404158Y-488543D01*
X3404158Y-502056D01*
X3405936Y-515467D01*
X3409543Y-528523D01*
X3414776Y-540969D01*
X3421684Y-552602D01*
X3430066Y-563219D01*
X3439820Y-572668D01*
X3450691Y-580694D01*
X3462578Y-587197D01*
X3475177Y-592023D01*
X3488334Y-595172D01*
X3501796Y-596544D01*
X3515360Y-596087D01*
X3520135Y-595274D01*
X3523335Y-595223D01*
X3526434Y-596239D01*
X3529025Y-598119D01*
X3637838Y-706780D01*
X3640023Y-710082D01*
X3640785Y-713943D01*
X3640785Y-1637588D01*
X3641039Y-1642618D01*
X3641648Y-1647494D01*
X3642715Y-1652219D01*
X3644188Y-1656892D01*
X3646017Y-1661363D01*
X3648303Y-1665732D01*
X3650894Y-1669796D01*
X3653891Y-1673707D01*
X3657295Y-1677466D01*
X3827526Y-1847900D01*
X3829710Y-1851152D01*
X3830472Y-1855012D01*
X3830980Y-1926589D01*
X3830065Y-1930857D01*
X3827526Y-1934311D01*
X3823715Y-1936394D01*
X3819398Y-1936750D01*
X3815334Y-1935225D01*
X3807866Y-1930501D01*
X3795623Y-1924761D01*
X3782669Y-1920798D01*
X3769360Y-1918512D01*
X3755796Y-1918055D01*
X3742334Y-1919427D01*
X3729177Y-1922576D01*
X3716578Y-1927402D01*
X3704691Y-1933905D01*
X3693820Y-1941931D01*
X3684066Y-1951380D01*
X3675684Y-1961997D01*
X3668776Y-1973630D01*
X3663543Y-1986076D01*
X3659936Y-1999132D01*
X3658158Y-2012543D01*
X3658158Y-2026056D01*
X3659936Y-2039467D01*
X3663543Y-2052523D01*
X3668776Y-2064969D01*
X3675684Y-2076602D01*
X3684066Y-2087219D01*
X3693820Y-2096668D01*
X3699154Y-2100580D01*
X3701389Y-2102815D01*
X3702812Y-2105660D01*
X3703269Y-2108758D01*
X3703269Y-2245868D01*
X3703523Y-2251354D01*
X3704132Y-2255774D01*
X3705301Y-2260904D01*
X3706672Y-2265222D01*
X3708704Y-2270048D01*
X3710787Y-2274062D01*
X3713632Y-2278481D01*
X3716375Y-2282037D01*
X3719931Y-2285898D01*
X3723233Y-2288946D01*
X3727602Y-2292248D01*
X3856431Y-2381300D01*
X3859377Y-2384501D01*
X3860749Y-2388666D01*
X3860241Y-2393035D01*
X3857904Y-2396744D01*
X3854297Y-2399182D01*
X3849573Y-2399792D01*
X3799433Y-2399792D01*
X3785768Y-2400706D01*
X3772712Y-2403297D01*
X3760063Y-2407564D01*
X3748074Y-2413508D01*
X3736949Y-2420924D01*
X3726942Y-2429713D01*
X3718102Y-2439771D01*
X3713327Y-2446934D01*
X3710432Y-2449779D01*
X3706672Y-2451303D01*
X3702608Y-2451201D01*
X3698900Y-2449525D01*
X3696157Y-2446528D01*
X3694836Y-2442667D01*
X3670452Y-2268220D01*
X3669741Y-2264257D01*
X3668674Y-2260600D01*
X3667251Y-2257145D01*
X3665474Y-2253742D01*
X3663442Y-2250592D01*
X3661003Y-2247646D01*
X3658412Y-2244953D01*
X3655466Y-2242515D01*
X3652367Y-2240381D01*
X3649014Y-2238552D01*
X3645306Y-2236978D01*
X3433419Y-2158898D01*
X3430168Y-2156968D01*
X3427831Y-2153920D01*
X3426815Y-2150211D01*
X3423107Y-2105253D01*
X3423513Y-2101443D01*
X3425342Y-2098040D01*
X3428288Y-2095550D01*
X3431946Y-2094331D01*
X3435807Y-2094585D01*
X3439261Y-2096262D01*
X3450691Y-2104694D01*
X3462578Y-2111197D01*
X3475177Y-2116023D01*
X3488334Y-2119172D01*
X3501796Y-2120544D01*
X3515360Y-2120087D01*
X3528669Y-2117801D01*
X3541623Y-2113838D01*
X3553866Y-2108098D01*
X3565296Y-2100834D01*
X3575608Y-2092096D01*
X3584701Y-2082088D01*
X3592322Y-2070912D01*
X3598468Y-2058822D01*
X3602888Y-2046071D01*
X3605580Y-2032812D01*
X3606495Y-2019300D01*
X3605580Y-2005787D01*
X3602888Y-1992528D01*
X3598468Y-1979777D01*
X3592322Y-1967687D01*
X3584701Y-1956511D01*
X3575608Y-1946503D01*
X3565296Y-1937766D01*
X3553866Y-1930501D01*
X3541623Y-1924761D01*
X3528669Y-1920798D01*
X3515360Y-1918512D01*
X3501796Y-1918055D01*
X3488334Y-1919427D01*
X3475177Y-1922576D01*
X3462578Y-1927402D01*
X3450691Y-1933905D01*
X3439820Y-1941931D01*
X3430066Y-1951380D01*
X3428187Y-1953717D01*
X3425139Y-1956307D01*
X3421329Y-1957527D01*
X3417315Y-1957171D01*
X3413760Y-1955241D01*
X3411220Y-1952142D01*
X3410102Y-1948281D01*
X3297936Y-591820D01*
X3298291Y-588162D01*
X3299917Y-584860D01*
X3302558Y-582371D01*
X3311296Y-576834D01*
X3321608Y-568096D01*
X3330701Y-558088D01*
X3338322Y-546912D01*
X3344468Y-534822D01*
X3348888Y-522071D01*
X3351580Y-508812D01*
X3352495Y-495300D01*
X3351580Y-481787D01*
X3348888Y-468528D01*
X3344468Y-455777D01*
X3338322Y-443687D01*
X3330701Y-432511D01*
X3321608Y-422503D01*
X3311296Y-413766D01*
X3299866Y-406501D01*
X3287623Y-400761D01*
X3274669Y-396798D01*
X3261360Y-394512D01*
X3247796Y-394055D01*
X3234334Y-395427D01*
X3221177Y-398576D01*
X3208578Y-403402D01*
X3196691Y-409905D01*
X3185820Y-417931D01*
X3176066Y-427380D01*
X3167684Y-437997D01*
X3160776Y-449630D01*
X3155543Y-462076D01*
X3151936Y-475132D01*
X3150158Y-488543D01*
X3150158Y-502056D01*
X3151936Y-515467D01*
X3155543Y-528523D01*
X3160776Y-540969D01*
X3167684Y-552602D01*
X3176066Y-563219D01*
X3185820Y-572668D01*
X3196691Y-580694D01*
X3208578Y-587197D01*
X3214471Y-589432D01*
X3217672Y-591464D01*
X3219958Y-594461D01*
X3220974Y-598119D01*
X3331260Y-1931974D01*
X3330854Y-1935886D01*
X3328924Y-1939391D01*
X3325825Y-1941830D01*
X3322015Y-1942947D01*
X3318052Y-1942490D01*
X3314598Y-1940560D01*
X3311296Y-1937766D01*
X3299866Y-1930501D01*
X3287623Y-1924761D01*
X3274669Y-1920798D01*
X3261360Y-1918512D01*
X3247796Y-1918055D01*
X3234334Y-1919427D01*
X3221177Y-1922576D01*
X3208578Y-1927402D01*
X3196691Y-1933905D01*
X3185820Y-1941931D01*
X3180029Y-1947519D01*
X3176727Y-1949653D01*
X3172866Y-1950415D01*
X3169005Y-1949602D01*
X3165754Y-1947367D01*
X3163570Y-1944116D01*
X3162808Y-1940255D01*
X3162808Y-622808D01*
X3161995Y-614781D01*
X3159810Y-607568D01*
X3156254Y-600862D01*
X3151124Y-594664D01*
X3095193Y-538683D01*
X3093059Y-535584D01*
X3092196Y-531876D01*
X3092754Y-528167D01*
X3094888Y-522071D01*
X3097580Y-508812D01*
X3098495Y-495300D01*
X3097580Y-481787D01*
X3094888Y-468528D01*
X3090468Y-455777D01*
X3084322Y-443687D01*
X3076702Y-432511D01*
X3067608Y-422503D01*
X3057296Y-413766D01*
X3045866Y-406501D01*
X3033623Y-400761D01*
X3020669Y-396798D01*
X3007360Y-394512D01*
X2993796Y-394055D01*
X2980334Y-395427D01*
X2967177Y-398576D01*
X2954578Y-403402D01*
X2942691Y-409905D01*
X2931820Y-417931D01*
X2922066Y-427380D01*
X2913684Y-437997D01*
X2906776Y-449630D01*
X2901543Y-462076D01*
X2897936Y-475132D01*
X2896158Y-488543D01*
X2896158Y-502056D01*
X2897936Y-515467D01*
X2901543Y-528523D01*
X2906776Y-540969D01*
X2913684Y-552602D01*
X2922066Y-563219D01*
X2931820Y-572668D01*
X2942691Y-580694D01*
X2954578Y-587197D01*
X2967177Y-592023D01*
X2980334Y-595172D01*
X2993796Y-596544D01*
X3007360Y-596087D01*
X3020669Y-593801D01*
X3030423Y-590804D01*
X3034080Y-590346D01*
X3037636Y-591261D01*
X3040634Y-593344D01*
X3082594Y-635304D01*
X3084830Y-638606D01*
X3085592Y-642518D01*
X3085592Y-1940001D01*
X3084779Y-1943963D01*
X3082493Y-1947316D01*
X3079089Y-1949450D01*
X3075076Y-1950161D01*
X3071164Y-1949196D01*
X3067608Y-1946503D01*
X3057296Y-1937766D01*
X3045866Y-1930501D01*
X3033623Y-1924761D01*
X3020669Y-1920798D01*
X3007360Y-1918512D01*
X2993796Y-1918055D01*
X2980334Y-1919427D01*
X2967177Y-1922576D01*
X2954578Y-1927402D01*
X2942691Y-1933905D01*
X2931820Y-1941931D01*
X2926029Y-1947519D01*
X2922727Y-1949653D01*
X2918866Y-1950415D01*
X2915005Y-1949602D01*
X2911754Y-1947367D01*
X2909570Y-1944116D01*
X2908808Y-1940255D01*
X2908808Y-870051D01*
X2908096Y-862330D01*
X2906674Y-856996D01*
X2811932Y-577748D01*
X2811373Y-574192D01*
X2812135Y-570687D01*
X2814015Y-567639D01*
X2822702Y-558088D01*
X2830322Y-546912D01*
X2836468Y-534822D01*
X2840888Y-522071D01*
X2843580Y-508812D01*
X2844495Y-495300D01*
X2843580Y-481787D01*
X2840888Y-468528D01*
X2836468Y-455777D01*
X2830322Y-443687D01*
X2822702Y-432511D01*
X2813608Y-422503D01*
X2803296Y-413766D01*
X2791866Y-406501D01*
X2779623Y-400761D01*
X2766669Y-396798D01*
X2753360Y-394512D01*
X2739796Y-394055D01*
X2726334Y-395427D01*
X2713177Y-398576D01*
X2700578Y-403402D01*
X2688691Y-409905D01*
X2677820Y-417931D01*
X2668066Y-427380D01*
X2659684Y-437997D01*
X2652776Y-449630D01*
X2647543Y-462076D01*
X2643936Y-475132D01*
X2642158Y-488543D01*
X2642158Y-502056D01*
X2643936Y-515467D01*
X2647543Y-528523D01*
X2652776Y-540969D01*
X2659684Y-552602D01*
X2668066Y-563219D01*
X2677820Y-572668D01*
X2688691Y-580694D01*
X2700578Y-587197D01*
X2713177Y-592023D01*
X2726334Y-595172D01*
X2730144Y-595579D01*
X2733852Y-596646D01*
X2736850Y-599033D01*
X2738780Y-602386D01*
X2831033Y-874471D01*
X2831592Y-877722D01*
X2831592Y-1940001D01*
X2830779Y-1943963D01*
X2828493Y-1947316D01*
X2825089Y-1949450D01*
X2821076Y-1950161D01*
X2817164Y-1949196D01*
X2813608Y-1946503D01*
X2803296Y-1937766D01*
X2791866Y-1930501D01*
X2779623Y-1924761D01*
X2766669Y-1920798D01*
X2753360Y-1918512D01*
X2739796Y-1918055D01*
X2726334Y-1919427D01*
X2713177Y-1922576D01*
X2700578Y-1927402D01*
X2688691Y-1933905D01*
X2677820Y-1941931D01*
X2672029Y-1947519D01*
X2668727Y-1949653D01*
X2664866Y-1950415D01*
X2661005Y-1949602D01*
X2657754Y-1947367D01*
X2655570Y-1944116D01*
X2654808Y-1940255D01*
X2654808Y-622808D01*
X2653995Y-614781D01*
X2651810Y-607568D01*
X2648254Y-600862D01*
X2643124Y-594664D01*
X2587193Y-538683D01*
X2585059Y-535584D01*
X2584196Y-531876D01*
X2584754Y-528167D01*
X2586888Y-522071D01*
X2589580Y-508812D01*
X2590495Y-495300D01*
X2589580Y-481787D01*
X2586888Y-468528D01*
X2582468Y-455777D01*
X2576322Y-443687D01*
X2568702Y-432511D01*
X2559608Y-422503D01*
X2549296Y-413766D01*
X2537866Y-406501D01*
X2525623Y-400761D01*
X2512669Y-396798D01*
X2499360Y-394512D01*
X2485796Y-394055D01*
X2472334Y-395427D01*
X2459177Y-398576D01*
X2446578Y-403402D01*
X2434691Y-409905D01*
X2423820Y-417931D01*
X2414066Y-427380D01*
X2405684Y-437997D01*
X2398776Y-449630D01*
X2393543Y-462076D01*
X2389936Y-475132D01*
X2388158Y-488543D01*
X2388158Y-502056D01*
X2389936Y-515467D01*
X2393543Y-528523D01*
X2398776Y-540969D01*
X2405684Y-552602D01*
X2414066Y-563219D01*
X2423820Y-572668D01*
X2434691Y-580694D01*
X2446578Y-587197D01*
X2459177Y-592023D01*
X2472334Y-595172D01*
X2485796Y-596544D01*
X2499360Y-596087D01*
X2512669Y-593801D01*
X2522423Y-590804D01*
X2526080Y-590346D01*
X2529636Y-591261D01*
X2532634Y-593344D01*
X2574594Y-635304D01*
X2576830Y-638606D01*
X2577592Y-642518D01*
X2577592Y-1940001D01*
X2576779Y-1943963D01*
X2574493Y-1947316D01*
X2571089Y-1949450D01*
X2567076Y-1950161D01*
X2563164Y-1949196D01*
X2559608Y-1946503D01*
X2549296Y-1937766D01*
X2537866Y-1930501D01*
X2525623Y-1924761D01*
X2512669Y-1920798D01*
X2499360Y-1918512D01*
X2485796Y-1918055D01*
X2472334Y-1919427D01*
X2459177Y-1922576D01*
X2446578Y-1927402D01*
X2439314Y-1931416D01*
X2435301Y-1932635D01*
X2431135Y-1932127D01*
X2427528Y-1929993D01*
X2425090Y-1926589D01*
X2424226Y-1922525D01*
X2424226Y-646226D01*
X2423464Y-638200D01*
X2421280Y-630986D01*
X2417724Y-624332D01*
X2412593Y-618083D01*
X2333193Y-538683D01*
X2331059Y-535584D01*
X2330196Y-531876D01*
X2330754Y-528167D01*
X2332888Y-522071D01*
X2335580Y-508812D01*
X2336495Y-495300D01*
X2335580Y-481787D01*
X2332888Y-468528D01*
X2328468Y-455777D01*
X2322322Y-443687D01*
X2314702Y-432511D01*
X2305608Y-422503D01*
X2295296Y-413766D01*
X2283866Y-406501D01*
X2271623Y-400761D01*
X2258669Y-396798D01*
X2245360Y-394512D01*
X2231796Y-394055D01*
X2218334Y-395427D01*
X2205177Y-398576D01*
X2192578Y-403402D01*
X2180691Y-409905D01*
X2169820Y-417931D01*
X2160066Y-427380D01*
X2151684Y-437997D01*
X2144776Y-449630D01*
X2139543Y-462076D01*
X2135936Y-475132D01*
X2134158Y-488543D01*
X2134158Y-502056D01*
X2135936Y-515467D01*
X2139543Y-528523D01*
X2144776Y-540969D01*
X2151684Y-552602D01*
X2160066Y-563219D01*
X2169820Y-572668D01*
X2180691Y-580694D01*
X2192578Y-587197D01*
X2205177Y-592023D01*
X2218334Y-595172D01*
X2231796Y-596544D01*
X2245360Y-596087D01*
X2258669Y-593801D01*
X2268423Y-590804D01*
X2272080Y-590346D01*
X2275586Y-591261D01*
X2278634Y-593344D01*
X2344064Y-658774D01*
X2346248Y-662076D01*
X2347010Y-665937D01*
X2347010Y-1973884D01*
X2346045Y-1978304D01*
X2343251Y-1981809D01*
X2339238Y-1983790D01*
X2334717Y-1983841D01*
X2330653Y-1981962D01*
X2327808Y-1978507D01*
X2322322Y-1967687D01*
X2314702Y-1956511D01*
X2305608Y-1946503D01*
X2295296Y-1937766D01*
X2283866Y-1930501D01*
X2271623Y-1924761D01*
X2258669Y-1920798D01*
X2245360Y-1918512D01*
X2231796Y-1918055D01*
X2218334Y-1919427D01*
X2205177Y-1922576D01*
X2192578Y-1927402D01*
X2180691Y-1933905D01*
X2170277Y-1941575D01*
X2166213Y-1943404D01*
X2161794Y-1943252D01*
X2157831Y-1941271D01*
X2155088Y-1937766D01*
X2154123Y-1933397D01*
X2154072Y-620522D01*
X2152853Y-611784D01*
X2150160Y-603758D01*
X2146046Y-596392D01*
X2140305Y-589483D01*
X2081733Y-530910D01*
X2079802Y-528218D01*
X2078837Y-525018D01*
X2078939Y-521716D01*
X2081580Y-508812D01*
X2082495Y-495300D01*
X2081580Y-481787D01*
X2078888Y-468528D01*
X2074468Y-455777D01*
X2068322Y-443687D01*
X2060702Y-432511D01*
X2051608Y-422503D01*
X2041296Y-413766D01*
X2029866Y-406501D01*
X2017623Y-400761D01*
X2004669Y-396798D01*
X1991360Y-394512D01*
X1977796Y-394055D01*
X1964334Y-395427D01*
X1951177Y-398576D01*
X1938578Y-403402D01*
X1926691Y-409905D01*
X1915820Y-417931D01*
X1906066Y-427380D01*
X1897684Y-437997D01*
X1890775Y-449630D01*
X1885543Y-462076D01*
X1881936Y-475132D01*
X1880158Y-488543D01*
X1880158Y-502056D01*
X1881936Y-515467D01*
X1885543Y-528523D01*
X1890775Y-540969D01*
X1897684Y-552602D01*
X1906066Y-563219D01*
X1915820Y-572668D01*
X1926691Y-580694D01*
X1938578Y-587197D01*
X1951177Y-592023D01*
X1964334Y-595172D01*
X1977796Y-596544D01*
X1991360Y-596087D01*
X2010156Y-592785D01*
X2013712Y-593699D01*
X2016760Y-595782D01*
X2059330Y-638352D01*
X2061514Y-641654D01*
X2062276Y-645515D01*
X2062276Y-1933651D01*
X2061565Y-1937410D01*
X2059533Y-1940610D01*
X2056384Y-1942846D01*
X2052675Y-1943760D01*
X2048916Y-1943252D01*
X2045563Y-1941372D01*
X2041296Y-1937766D01*
X2029866Y-1930501D01*
X2017623Y-1924761D01*
X2004669Y-1920798D01*
X1991360Y-1918512D01*
X1977796Y-1918055D01*
X1964334Y-1919427D01*
X1951177Y-1922576D01*
X1938578Y-1927402D01*
X1926691Y-1933905D01*
X1915820Y-1941931D01*
X1906066Y-1951380D01*
X1897684Y-1961997D01*
X1890775Y-1973630D01*
X1885543Y-1986076D01*
X1881936Y-1999132D01*
X1880158Y-2012543D01*
X1880158Y-2026056D01*
X1881936Y-2039467D01*
X1885543Y-2052523D01*
X1890775Y-2064969D01*
X1897684Y-2076602D01*
X1906066Y-2087219D01*
X1915820Y-2096668D01*
X1926691Y-2104694D01*
X1938578Y-2111197D01*
X1951177Y-2116023D01*
X1964334Y-2119172D01*
X1977796Y-2120544D01*
X1991360Y-2120087D01*
X2004669Y-2117801D01*
X2017623Y-2113838D01*
X2029866Y-2108098D01*
X2041296Y-2100834D01*
X2045563Y-2097227D01*
X2048916Y-2095347D01*
X2052675Y-2094839D01*
X2056384Y-2095754D01*
X2059533Y-2097989D01*
X2061565Y-2101189D01*
X2062276Y-2104948D01*
X2062327Y-2214372D01*
X2063546Y-2223109D01*
X2066239Y-2231136D01*
X2070354Y-2238552D01*
X2076094Y-2245410D01*
X2213254Y-2382469D01*
X2215438Y-2385720D01*
X2216200Y-2389632D01*
X2215438Y-2393492D01*
X2213254Y-2396794D01*
X2209952Y-2399030D01*
X2206040Y-2399792D01*
X2159355Y-2399792D01*
X2145690Y-2400706D01*
X2132584Y-2403297D01*
X2119934Y-2407564D01*
X2107946Y-2413508D01*
X2096871Y-2420924D01*
X2086813Y-2429713D01*
X2078024Y-2439771D01*
X2070607Y-2450846D01*
X2064664Y-2462834D01*
X2060397Y-2475484D01*
X2057806Y-2488590D01*
X2056892Y-2501900D01*
X2057806Y-2515209D01*
X2060397Y-2528316D01*
X2064664Y-2540965D01*
X2070607Y-2552954D01*
X2078024Y-2564028D01*
X2086813Y-2574086D01*
X2096871Y-2582875D01*
X2107946Y-2590292D01*
X2119934Y-2596235D01*
X2132584Y-2600502D01*
X2145690Y-2603093D01*
X2159355Y-2604008D01*
X2209444Y-2604008D01*
X2223109Y-2603093D01*
X2236216Y-2600502D01*
X2248865Y-2596235D01*
X2260854Y-2590292D01*
X2271928Y-2582875D01*
X2281986Y-2574086D01*
X2290775Y-2564028D01*
X2298192Y-2552954D01*
X2304135Y-2540965D01*
X2308402Y-2528316D01*
X2310993Y-2515209D01*
X2311704Y-2504643D01*
X2312670Y-2500934D01*
X2314956Y-2497836D01*
X2318258Y-2495804D01*
X2322068Y-2495143D01*
X2325827Y-2495956D01*
X2329027Y-2498140D01*
X2356002Y-2525064D01*
X2358186Y-2528366D01*
X2358948Y-2532227D01*
X2358999Y-2660650D01*
X2360218Y-2669387D01*
X2362911Y-2677414D01*
X2367026Y-2684780D01*
X2372766Y-2691638D01*
X2770530Y-3089452D01*
X2772714Y-3092754D01*
X2773476Y-3096615D01*
X2773476Y-4289856D01*
X2772714Y-4293717D01*
X2770530Y-4297019D01*
X2767228Y-4299254D01*
X2763316Y-4300016D01*
X2759456Y-4299254D01*
X2756154Y-4297019D01*
X2753969Y-4293717D01*
X2750972Y-4286504D01*
X2743047Y-4272178D01*
X2733548Y-4258818D01*
X2722676Y-4246626D01*
X2710484Y-4235754D01*
X2697124Y-4226255D01*
X2685643Y-4219905D01*
X2682849Y-4217670D01*
X2681020Y-4214571D01*
X2680411Y-4211015D01*
X2680411Y-3554069D01*
X2681325Y-3549853D01*
X2683865Y-3546449D01*
X2691993Y-3539286D01*
X2700832Y-3529228D01*
X2708249Y-3518154D01*
X2714142Y-3506165D01*
X2718460Y-3493515D01*
X2721051Y-3480409D01*
X2721914Y-3467100D01*
X2721051Y-3453790D01*
X2718460Y-3440684D01*
X2714142Y-3428034D01*
X2708249Y-3416046D01*
X2700832Y-3404971D01*
X2691993Y-3394913D01*
X2681986Y-3386124D01*
X2670860Y-3378708D01*
X2658872Y-3372764D01*
X2646273Y-3368497D01*
X2633167Y-3365906D01*
X2619502Y-3364992D01*
X2569362Y-3364992D01*
X2555697Y-3365906D01*
X2542590Y-3368497D01*
X2529941Y-3372764D01*
X2518003Y-3378708D01*
X2506878Y-3386124D01*
X2496820Y-3394913D01*
X2488031Y-3404971D01*
X2480614Y-3416046D01*
X2474722Y-3428034D01*
X2473045Y-3432911D01*
X2471013Y-3436416D01*
X2467711Y-3438855D01*
X2463698Y-3439769D01*
X2459685Y-3439058D01*
X2456281Y-3436823D01*
X1649069Y-2629865D01*
X1646885Y-2626563D01*
X1646123Y-2622702D01*
X1646123Y-2105202D01*
X1647088Y-2100834D01*
X1649831Y-2097328D01*
X1653793Y-2095347D01*
X1658213Y-2095195D01*
X1662277Y-2097024D01*
X1672691Y-2104694D01*
X1684578Y-2111197D01*
X1697177Y-2116023D01*
X1710334Y-2119172D01*
X1723796Y-2120544D01*
X1737360Y-2120087D01*
X1750669Y-2117801D01*
X1763623Y-2113838D01*
X1775866Y-2108098D01*
X1787296Y-2100834D01*
X1797608Y-2092096D01*
X1806702Y-2082088D01*
X1814322Y-2070912D01*
X1820468Y-2058822D01*
X1824888Y-2046071D01*
X1827580Y-2032812D01*
X1828495Y-2019300D01*
X1827580Y-2005787D01*
X1824888Y-1992528D01*
X1820468Y-1979777D01*
X1814322Y-1967687D01*
X1806702Y-1956511D01*
X1797608Y-1946503D01*
X1787296Y-1937766D01*
X1775866Y-1930501D01*
X1763623Y-1924761D01*
X1750669Y-1920798D01*
X1737360Y-1918512D01*
X1723796Y-1918055D01*
X1710334Y-1919427D01*
X1697177Y-1922576D01*
X1684578Y-1927402D01*
X1672691Y-1933905D01*
X1662277Y-1941575D01*
X1658213Y-1943404D01*
X1653793Y-1943252D01*
X1649831Y-1941271D01*
X1647088Y-1937766D01*
X1646123Y-1933397D01*
X1646123Y-645515D01*
X1646885Y-641654D01*
X1649069Y-638352D01*
X1691741Y-595680D01*
X1694535Y-593699D01*
X1697837Y-592785D01*
X1701241Y-592988D01*
X1710334Y-595172D01*
X1723796Y-596544D01*
X1737360Y-596087D01*
X1750669Y-593801D01*
X1763623Y-589838D01*
X1775866Y-584098D01*
X1787296Y-576834D01*
X1797608Y-568096D01*
X1806702Y-558088D01*
X1814322Y-546912D01*
X1820468Y-534822D01*
X1824888Y-522071D01*
X1827580Y-508812D01*
X1828495Y-495300D01*
X1827580Y-481787D01*
X1824888Y-468528D01*
X1820468Y-455777D01*
X1814322Y-443687D01*
X1806702Y-432511D01*
X1797608Y-422503D01*
X1787296Y-413766D01*
X1775866Y-406501D01*
X1763623Y-400761D01*
X1750669Y-396798D01*
X1737360Y-394512D01*
X1723796Y-394055D01*
X1710334Y-395427D01*
X1697177Y-398576D01*
X1684578Y-403402D01*
X1672691Y-409905D01*
X1661820Y-417931D01*
X1652066Y-427380D01*
X1643684Y-437997D01*
X1636776Y-449630D01*
X1631543Y-462076D01*
X1627936Y-475132D01*
X1626158Y-488543D01*
X1626158Y-502056D01*
X1627936Y-515467D01*
X1629410Y-520903D01*
X1629765Y-524408D01*
X1628851Y-527862D01*
X1626819Y-530758D01*
X1566519Y-591108D01*
X1561185Y-598170D01*
X1557426Y-605739D01*
X1555140Y-613867D01*
X1554276Y-622757D01*
X1554276Y-1933651D01*
X1553565Y-1937410D01*
X1551533Y-1940610D01*
X1548384Y-1942846D01*
X1544675Y-1943760D01*
X1540916Y-1943252D01*
X1537563Y-1941372D01*
X1533296Y-1937766D01*
X1521866Y-1930501D01*
X1509623Y-1924761D01*
X1496669Y-1920798D01*
X1483360Y-1918512D01*
X1469796Y-1918055D01*
X1456334Y-1919427D01*
X1443177Y-1922576D01*
X1430578Y-1927402D01*
X1419860Y-1933295D01*
X1415846Y-1934514D01*
X1411681Y-1934006D01*
X1408125Y-1931873D01*
X1405686Y-1928469D01*
X1404823Y-1924405D01*
X1404823Y-632815D01*
X1405585Y-628954D01*
X1407769Y-625652D01*
X1437741Y-595680D01*
X1440535Y-593699D01*
X1443837Y-592785D01*
X1447241Y-592988D01*
X1456334Y-595172D01*
X1469796Y-596544D01*
X1483360Y-596087D01*
X1496669Y-593801D01*
X1509623Y-589838D01*
X1521866Y-584098D01*
X1533296Y-576834D01*
X1543608Y-568096D01*
X1552702Y-558088D01*
X1560322Y-546912D01*
X1566468Y-534822D01*
X1570888Y-522071D01*
X1573580Y-508812D01*
X1574495Y-495300D01*
X1573580Y-481787D01*
X1570888Y-468528D01*
X1566468Y-455777D01*
X1560322Y-443687D01*
X1552702Y-432511D01*
X1543608Y-422503D01*
X1533296Y-413766D01*
X1521866Y-406501D01*
X1509623Y-400761D01*
X1496669Y-396798D01*
X1483360Y-394512D01*
X1469796Y-394055D01*
X1456334Y-395427D01*
X1443177Y-398576D01*
X1430578Y-403402D01*
X1418691Y-409905D01*
X1407820Y-417931D01*
X1398066Y-427380D01*
X1389684Y-437997D01*
X1382776Y-449630D01*
X1377543Y-462076D01*
X1373936Y-475132D01*
X1372158Y-488543D01*
X1372158Y-502056D01*
X1373936Y-515467D01*
X1375410Y-520903D01*
X1375765Y-524408D01*
X1374851Y-527862D01*
X1372819Y-530758D01*
X1325219Y-578408D01*
X1319885Y-585470D01*
X1316126Y-593039D01*
X1313840Y-601167D01*
X1312976Y-610057D01*
X1312976Y-1945944D01*
X1312164Y-1949907D01*
X1309878Y-1953260D01*
X1306474Y-1955444D01*
X1302512Y-1956104D01*
X1298549Y-1955190D01*
X1295298Y-1952802D01*
X1289608Y-1946503D01*
X1279296Y-1937766D01*
X1267866Y-1930501D01*
X1255623Y-1924761D01*
X1242669Y-1920798D01*
X1229360Y-1918512D01*
X1215796Y-1918055D01*
X1202334Y-1919427D01*
X1189177Y-1922576D01*
X1176578Y-1927402D01*
X1164691Y-1933905D01*
X1154277Y-1941575D01*
X1150213Y-1943404D01*
X1145794Y-1943252D01*
X1141831Y-1941271D01*
X1139088Y-1937766D01*
X1138123Y-1933397D01*
X1138123Y-645515D01*
X1138885Y-641654D01*
X1141069Y-638352D01*
X1183741Y-595680D01*
X1186535Y-593699D01*
X1189837Y-592785D01*
X1193241Y-592988D01*
X1202334Y-595172D01*
X1215796Y-596544D01*
X1229360Y-596087D01*
X1242669Y-593801D01*
X1255623Y-589838D01*
X1267866Y-584098D01*
X1279296Y-576834D01*
X1289608Y-568096D01*
X1298702Y-558088D01*
X1306322Y-546912D01*
X1312468Y-534822D01*
X1316888Y-522071D01*
X1319580Y-508812D01*
X1320495Y-495300D01*
X1319580Y-481787D01*
X1316888Y-468528D01*
X1312468Y-455777D01*
X1306322Y-443687D01*
X1298702Y-432511D01*
X1289608Y-422503D01*
X1279296Y-413766D01*
X1267866Y-406501D01*
X1255623Y-400761D01*
X1242669Y-396798D01*
X1229360Y-394512D01*
X1215796Y-394055D01*
X1202334Y-395427D01*
X1189177Y-398576D01*
X1176578Y-403402D01*
X1164691Y-409905D01*
X1153820Y-417931D01*
X1144066Y-427380D01*
X1135684Y-437997D01*
X1128776Y-449630D01*
X1123543Y-462076D01*
X1119936Y-475132D01*
X1118158Y-488543D01*
X1118158Y-502056D01*
X1119936Y-515467D01*
X1121410Y-520903D01*
X1121765Y-524408D01*
X1120851Y-527862D01*
X1118819Y-530758D01*
X1058519Y-591108D01*
X1053185Y-598170D01*
X1049426Y-605739D01*
X1047140Y-613867D01*
X1046276Y-622757D01*
X1046276Y-1933651D01*
X1045565Y-1937410D01*
X1043533Y-1940610D01*
X1040384Y-1942846D01*
X1036675Y-1943760D01*
X1032916Y-1943252D01*
X1029563Y-1941372D01*
X1025296Y-1937766D01*
X1013866Y-1930501D01*
X1001623Y-1924761D01*
X988669Y-1920798D01*
X975360Y-1918512D01*
X961796Y-1918055D01*
X948334Y-1919427D01*
X935177Y-1922576D01*
X922578Y-1927402D01*
X910691Y-1933905D01*
X899820Y-1941931D01*
X890066Y-1951380D01*
X881684Y-1961997D01*
X874776Y-1973630D01*
X869543Y-1986076D01*
X865936Y-1999132D01*
X864158Y-2012543D01*
X864158Y-2026056D01*
X865936Y-2039467D01*
X869543Y-2052523D01*
X874776Y-2064969D01*
X881684Y-2076602D01*
X890066Y-2087219D01*
X899820Y-2096668D01*
X910691Y-2104694D01*
X922578Y-2111197D01*
X935177Y-2116023D01*
X948334Y-2119172D01*
X961796Y-2120544D01*
X975360Y-2120087D01*
X988669Y-2117801D01*
X1001623Y-2113838D01*
X1013866Y-2108098D01*
X1025296Y-2100834D01*
X1029563Y-2097227D01*
X1032916Y-2095347D01*
X1036675Y-2094839D01*
X1040384Y-2095754D01*
X1043533Y-2097989D01*
X1045565Y-2101189D01*
X1046276Y-2104948D01*
X1046276Y-3403142D01*
X1047140Y-3412032D01*
X1049426Y-3420160D01*
X1053236Y-3427831D01*
X1057503Y-3433622D01*
X1278128Y-3692906D01*
X1279906Y-3695954D01*
X1280515Y-3699459D01*
X1280515Y-3707282D01*
X1282242Y-3717747D01*
X1285595Y-3727805D01*
X1290523Y-3737203D01*
X1296873Y-3745636D01*
X1304544Y-3753002D01*
X1313281Y-3759047D01*
X1322832Y-3763568D01*
X1333042Y-3766515D01*
X1343558Y-3767785D01*
X1354124Y-3767378D01*
X1364538Y-3765245D01*
X1374444Y-3761486D01*
X1383639Y-3756202D01*
X1391818Y-3749497D01*
X1398879Y-3741572D01*
X1404518Y-3732580D01*
X1408684Y-3722827D01*
X1411224Y-3712565D01*
X1412087Y-3701999D01*
X1411224Y-3691382D01*
X1408684Y-3681120D01*
X1404518Y-3671366D01*
X1398879Y-3662375D01*
X1391818Y-3654450D01*
X1383639Y-3647744D01*
X1374444Y-3642461D01*
X1364538Y-3638702D01*
X1353464Y-3636467D01*
X1350365Y-3635248D01*
X1347774Y-3633063D01*
X1140510Y-3389579D01*
X1138732Y-3386480D01*
X1138123Y-3382975D01*
X1138123Y-2105202D01*
X1139088Y-2100834D01*
X1141831Y-2097328D01*
X1145794Y-2095347D01*
X1150213Y-2095195D01*
X1154277Y-2097024D01*
X1164691Y-2104694D01*
X1176578Y-2111197D01*
X1189177Y-2116023D01*
X1202334Y-2119172D01*
X1215796Y-2120544D01*
X1229360Y-2120087D01*
X1242669Y-2117801D01*
X1255623Y-2113838D01*
X1267866Y-2108098D01*
X1279296Y-2100834D01*
X1289608Y-2092096D01*
X1295298Y-2085797D01*
X1298549Y-2083409D01*
X1302512Y-2082495D01*
X1306474Y-2083155D01*
X1309878Y-2085339D01*
X1312164Y-2088692D01*
X1312976Y-2092655D01*
X1313027Y-3494278D01*
X1314246Y-3503015D01*
X1316939Y-3511042D01*
X1321054Y-3518408D01*
X1326794Y-3525316D01*
X1709369Y-3907891D01*
X1711553Y-3911193D01*
X1712315Y-3915054D01*
X1712315Y-3916883D01*
X1714042Y-3927348D01*
X1717395Y-3937406D01*
X1722323Y-3946804D01*
X1728673Y-3955287D01*
X1736343Y-3962603D01*
X1745081Y-3968648D01*
X1754632Y-3973169D01*
X1764842Y-3976166D01*
X1775358Y-3977436D01*
X1785924Y-3976979D01*
X1796338Y-3974896D01*
X1806244Y-3971137D01*
X1815439Y-3965803D01*
X1823618Y-3959098D01*
X1830679Y-3951173D01*
X1836318Y-3942232D01*
X1840484Y-3932478D01*
X1843024Y-3922166D01*
X1843887Y-3911600D01*
X1843024Y-3901033D01*
X1840484Y-3890721D01*
X1836318Y-3880967D01*
X1830679Y-3872026D01*
X1823618Y-3864101D01*
X1815439Y-3857396D01*
X1806244Y-3852062D01*
X1796338Y-3848303D01*
X1785924Y-3846220D01*
X1781149Y-3846017D01*
X1777492Y-3845153D01*
X1774393Y-3843020D01*
X1407769Y-3476447D01*
X1405585Y-3473145D01*
X1404823Y-3469284D01*
X1404823Y-2114194D01*
X1405686Y-2110130D01*
X1408125Y-2106726D01*
X1411681Y-2104593D01*
X1415846Y-2104085D01*
X1419860Y-2105304D01*
X1430578Y-2111197D01*
X1443177Y-2116023D01*
X1456334Y-2119172D01*
X1469796Y-2120544D01*
X1483360Y-2120087D01*
X1496669Y-2117801D01*
X1509623Y-2113838D01*
X1521866Y-2108098D01*
X1533296Y-2100834D01*
X1537563Y-2097227D01*
X1540916Y-2095347D01*
X1544675Y-2094839D01*
X1548384Y-2095754D01*
X1551533Y-2097989D01*
X1553565Y-2101189D01*
X1554276Y-2104948D01*
X1554327Y-2647696D01*
X1555546Y-2656433D01*
X1558239Y-2664460D01*
X1562354Y-2671826D01*
X1568094Y-2678734D01*
X2239772Y-3350209D01*
X2242108Y-3353815D01*
X2242769Y-3358083D01*
X2241550Y-3362198D01*
X2238806Y-3365500D01*
X2234895Y-3367328D01*
X2230628Y-3367379D01*
X2223109Y-3365906D01*
X2209444Y-3364992D01*
X2159355Y-3364992D01*
X2145690Y-3365906D01*
X2132584Y-3368497D01*
X2119934Y-3372764D01*
X2107946Y-3378708D01*
X2096871Y-3386124D01*
X2086813Y-3394913D01*
X2078024Y-3404971D01*
X2070607Y-3416046D01*
X2064664Y-3428034D01*
X2060397Y-3440684D01*
X2057806Y-3453790D01*
X2056892Y-3467100D01*
X2057806Y-3480409D01*
X2060397Y-3493515D01*
X2064664Y-3506165D01*
X2070607Y-3518154D01*
X2078024Y-3529228D01*
X2086813Y-3539286D01*
X2096871Y-3548075D01*
X2107946Y-3555492D01*
X2119934Y-3561435D01*
X2132584Y-3565702D01*
X2145690Y-3568293D01*
X2149094Y-3568547D01*
X2152751Y-3569512D01*
X2155850Y-3571748D01*
X2157882Y-3574948D01*
X2158593Y-3578656D01*
X2158593Y-4211066D01*
X2157933Y-4214571D01*
X2156155Y-4217670D01*
X2153361Y-4219956D01*
X2141880Y-4226255D01*
X2128520Y-4235754D01*
X2116328Y-4246626D01*
X2105456Y-4258818D01*
X2095957Y-4272178D01*
X2088032Y-4286504D01*
X2081784Y-4301591D01*
X2077262Y-4317339D01*
X2074519Y-4333443D01*
X2073605Y-4349800D01*
X2074519Y-4366158D01*
X2077262Y-4382262D01*
X2081784Y-4398010D01*
X2088032Y-4413097D01*
X2095957Y-4427423D01*
X2105456Y-4440783D01*
X2116328Y-4452975D01*
X2128520Y-4463846D01*
X2141880Y-4473346D01*
X2156206Y-4481271D01*
X2171293Y-4487519D01*
X2187041Y-4492040D01*
X2203145Y-4494784D01*
X2219502Y-4495698D01*
X2235860Y-4494784D01*
X2251964Y-4492040D01*
X2267712Y-4487519D01*
X2282799Y-4481271D01*
X2297125Y-4473346D01*
X2310485Y-4463846D01*
X2322677Y-4452975D01*
X2333548Y-4440783D01*
X2343048Y-4427423D01*
X2350973Y-4413097D01*
X2357221Y-4398010D01*
X2361742Y-4382262D01*
X2364486Y-4366158D01*
X2365400Y-4349800D01*
X2364486Y-4333443D01*
X2361742Y-4317339D01*
X2357221Y-4301591D01*
X2350973Y-4286504D01*
X2343048Y-4272178D01*
X2333548Y-4258818D01*
X2322677Y-4246626D01*
X2310485Y-4235754D01*
X2297125Y-4226255D01*
X2285644Y-4219905D01*
X2282850Y-4217670D01*
X2281021Y-4214571D01*
X2280412Y-4211015D01*
X2280412Y-3544925D01*
X2281072Y-3541318D01*
X2282952Y-3538220D01*
X2290775Y-3529228D01*
X2298192Y-3518154D01*
X2304135Y-3506165D01*
X2308402Y-3493515D01*
X2310993Y-3480409D01*
X2311908Y-3467100D01*
X2310993Y-3453790D01*
X2309520Y-3446221D01*
X2309571Y-3441954D01*
X2311400Y-3438093D01*
X2314702Y-3435299D01*
X2318816Y-3434130D01*
X2323033Y-3434740D01*
X2326640Y-3437077D01*
X2393594Y-3503980D01*
X2395778Y-3507282D01*
X2396540Y-3511143D01*
X2396591Y-4476242D01*
X2397810Y-4484979D01*
X2400503Y-4493006D01*
X2404618Y-4500372D01*
X2410358Y-4507230D01*
X2522880Y-4619802D01*
X2525217Y-4623409D01*
X2525826Y-4627626D01*
X2524658Y-4631791D01*
X2521915Y-4635042D01*
X2518054Y-4636871D01*
X2513787Y-4636973D01*
X2509824Y-4635296D01*
X2497124Y-4626254D01*
X2482799Y-4618329D01*
X2467711Y-4612081D01*
X2451963Y-4607560D01*
X2435860Y-4604816D01*
X2419502Y-4603902D01*
X2403144Y-4604816D01*
X2387041Y-4607560D01*
X2371293Y-4612081D01*
X2356205Y-4618329D01*
X2341880Y-4626254D01*
X2328519Y-4635754D01*
X2316327Y-4646625D01*
X2305456Y-4658817D01*
X2295956Y-4672177D01*
X2288032Y-4686503D01*
X2283460Y-4697628D01*
X2281224Y-4700930D01*
X2277973Y-4703114D01*
X2274062Y-4703876D01*
X1835099Y-4703876D01*
X1826209Y-4704740D01*
X1818081Y-4707026D01*
X1810512Y-4710785D01*
X1803755Y-4715916D01*
X1797557Y-4722723D01*
X1665173Y-4899964D01*
X1662785Y-4903419D01*
X1660601Y-4907381D01*
X1659026Y-4910988D01*
X1657604Y-4915306D01*
X1656689Y-4919116D01*
X1656080Y-4923637D01*
X1655876Y-4927803D01*
X1655927Y-7723378D01*
X1657146Y-7732115D01*
X1659839Y-7740142D01*
X1663954Y-7747508D01*
X1669694Y-7754416D01*
X2292908Y-8377580D01*
X2299970Y-8382914D01*
X2307539Y-8386673D01*
X2315667Y-8388959D01*
X2324557Y-8389823D01*
X2948432Y-8389823D01*
X2952343Y-8390585D01*
X2955594Y-8392769D01*
X2957830Y-8396071D01*
X2958592Y-8399983D01*
X2958592Y-8419541D01*
X2959303Y-8425840D01*
X2961233Y-8431326D01*
X2964281Y-8436203D01*
X2968396Y-8440318D01*
X2973273Y-8443366D01*
X2978759Y-8445296D01*
X2985058Y-8446008D01*
X3136341Y-8446008D01*
X3142640Y-8445296D01*
X3148126Y-8443366D01*
X3153003Y-8440318D01*
X3157118Y-8436203D01*
X3160166Y-8431326D01*
X3162096Y-8425840D01*
X3162808Y-8419541D01*
X3162808Y-8268258D01*
X3162096Y-8261959D01*
X3160166Y-8256473D01*
X3157118Y-8251596D01*
X3153003Y-8247481D01*
X3148126Y-8244433D01*
X3142640Y-8242503D01*
X3136341Y-8241792D01*
X3079648Y-8241792D01*
X3076905Y-8241385D01*
X3074314Y-8240268D01*
X3068421Y-8236610D01*
X3060547Y-8233562D01*
X3052216Y-8232038D01*
X3043783Y-8232038D01*
X3035452Y-8233562D01*
X3027578Y-8236610D01*
X3021685Y-8240268D01*
X3019094Y-8241385D01*
X3016351Y-8241792D01*
X2985058Y-8241792D01*
X2978759Y-8242503D01*
X2973273Y-8244433D01*
X2968396Y-8247481D01*
X2964281Y-8251596D01*
X2961233Y-8256473D01*
X2959303Y-8261959D01*
X2958592Y-8268258D01*
X2958592Y-8287816D01*
X2957830Y-8291728D01*
X2955594Y-8295030D01*
X2952343Y-8297214D01*
X2948432Y-8297976D01*
X2347315Y-8297976D01*
X2343454Y-8297214D01*
X2340152Y-8295030D01*
X1750669Y-7705547D01*
X1748485Y-7702245D01*
X1747723Y-7698384D01*
X1747723Y-4946243D01*
X1748231Y-4943043D01*
X1749704Y-4940147D01*
X1854606Y-4799787D01*
X1856841Y-4797602D01*
X1859635Y-4796180D01*
X1862734Y-4795723D01*
X2274062Y-4795723D01*
X2277973Y-4796485D01*
X2281224Y-4798669D01*
X2283460Y-4801971D01*
X2288032Y-4813096D01*
X2295956Y-4827422D01*
X2305456Y-4840782D01*
X2316327Y-4852974D01*
X2328519Y-4863846D01*
X2341880Y-4873345D01*
X2356205Y-4881270D01*
X2371293Y-4887518D01*
X2387041Y-4892040D01*
X2403144Y-4894783D01*
X2419502Y-4895697D01*
X2435860Y-4894783D01*
X2451963Y-4892040D01*
X2467711Y-4887518D01*
X2482037Y-4881575D01*
X2485948Y-4880813D01*
X2489809Y-4881575D01*
X2493111Y-4883759D01*
X2495296Y-4887061D01*
X2496108Y-4890973D01*
X2495296Y-4894834D01*
X2493111Y-4898136D01*
X2417419Y-4973878D01*
X2412085Y-4980940D01*
X2408326Y-4988509D01*
X2406040Y-4996637D01*
X2405176Y-5005527D01*
X2405227Y-6732778D01*
X2406446Y-6741515D01*
X2409139Y-6749542D01*
X2413254Y-6756908D01*
X2418994Y-6763816D01*
X2509215Y-6854037D01*
X2511501Y-6857542D01*
X2512212Y-6861657D01*
X2511145Y-6865721D01*
X2509164Y-6869734D01*
X2504897Y-6882384D01*
X2502306Y-6895490D01*
X2501392Y-6908800D01*
X2502306Y-6922109D01*
X2504897Y-6935216D01*
X2509164Y-6947865D01*
X2515108Y-6959853D01*
X2522524Y-6970928D01*
X2531313Y-6980986D01*
X2541371Y-6989775D01*
X2552446Y-6997192D01*
X2564434Y-7003135D01*
X2577084Y-7007402D01*
X2590190Y-7009993D01*
X2603855Y-7010908D01*
X2653944Y-7010908D01*
X2667609Y-7009993D01*
X2680716Y-7007402D01*
X2693365Y-7003135D01*
X2705354Y-6997192D01*
X2716428Y-6989775D01*
X2726486Y-6980986D01*
X2735275Y-6970928D01*
X2742692Y-6959853D01*
X2748635Y-6947865D01*
X2752902Y-6935216D01*
X2754630Y-6926427D01*
X2756103Y-6922871D01*
X2758795Y-6920077D01*
X2762300Y-6918502D01*
X2766161Y-6918401D01*
X2769819Y-6919671D01*
X2772664Y-6922262D01*
X3304794Y-7616850D01*
X3306368Y-7619746D01*
X3306876Y-7622997D01*
X3306876Y-8434984D01*
X3306114Y-8438845D01*
X3303930Y-8442147D01*
X3197047Y-8549030D01*
X3193745Y-8551214D01*
X3189884Y-8551976D01*
X3172968Y-8551976D01*
X3169056Y-8551214D01*
X3165805Y-8549030D01*
X3163570Y-8545728D01*
X3162808Y-8541816D01*
X3162808Y-8522258D01*
X3162096Y-8515959D01*
X3160166Y-8510473D01*
X3157118Y-8505596D01*
X3153003Y-8501481D01*
X3148126Y-8498433D01*
X3142640Y-8496503D01*
X3136341Y-8495792D01*
X2985058Y-8495792D01*
X2978759Y-8496503D01*
X2973273Y-8498433D01*
X2968396Y-8501481D01*
X2964281Y-8505596D01*
X2961233Y-8510473D01*
X2959303Y-8515959D01*
X2958592Y-8522258D01*
X2958592Y-8673541D01*
X2959303Y-8679840D01*
X2961233Y-8685326D01*
X2964281Y-8690203D01*
X2968396Y-8694318D01*
X2973273Y-8697366D01*
X2978759Y-8699296D01*
X2985058Y-8700008D01*
X3136341Y-8700008D01*
X3142640Y-8699296D01*
X3148126Y-8697366D01*
X3153003Y-8694318D01*
X3157118Y-8690203D01*
X3160166Y-8685326D01*
X3162096Y-8679840D01*
X3162808Y-8673541D01*
X3162808Y-8653983D01*
X3163570Y-8650071D01*
X3165805Y-8646769D01*
X3169056Y-8644585D01*
X3172968Y-8643823D01*
X3214878Y-8643772D01*
X3223615Y-8642553D01*
X3231642Y-8639860D01*
X3239008Y-8635746D01*
X3245916Y-8630005D01*
X3386480Y-8489391D01*
X3391814Y-8482330D01*
X3395573Y-8474760D01*
X3397859Y-8466632D01*
X3398723Y-8457742D01*
X3398723Y-7604252D01*
X3398469Y-7599425D01*
X3397910Y-7595616D01*
X3396843Y-7591094D01*
X3395624Y-7587437D01*
X3393744Y-7583220D01*
X3391865Y-7579868D01*
X3389071Y-7575905D01*
X2966872Y-7024776D01*
X2965094Y-7021118D01*
X2964942Y-7017054D01*
X2966313Y-7013244D01*
X2969158Y-7010298D01*
X2972866Y-7008672D01*
X2976930Y-7008622D01*
X2983890Y-7009993D01*
X2997555Y-7010908D01*
X3047644Y-7010908D01*
X3061309Y-7009993D01*
X3074416Y-7007402D01*
X3087065Y-7003135D01*
X3099054Y-6997192D01*
X3110128Y-6989775D01*
X3120186Y-6980986D01*
X3128975Y-6970928D01*
X3136392Y-6959853D01*
X3142335Y-6947865D01*
X3146602Y-6935216D01*
X3149193Y-6922109D01*
X3150108Y-6908800D01*
X3149193Y-6895490D01*
X3146602Y-6882384D01*
X3142335Y-6869734D01*
X3136392Y-6857746D01*
X3128975Y-6846671D01*
X3120186Y-6836613D01*
X3110128Y-6827824D01*
X3099054Y-6820408D01*
X3087065Y-6814464D01*
X3074416Y-6810197D01*
X3061309Y-6807606D01*
X3047644Y-6806692D01*
X2997555Y-6806692D01*
X2990748Y-6807149D01*
X2986532Y-6806488D01*
X2982925Y-6804202D01*
X2918917Y-6740194D01*
X2916732Y-6736943D01*
X2915920Y-6733082D01*
X2910840Y-6025845D01*
X2911500Y-6022035D01*
X2913583Y-6018784D01*
X2916732Y-6016498D01*
X2920492Y-6015583D01*
X2924352Y-6016193D01*
X2927654Y-6018123D01*
X2935071Y-6024575D01*
X2946146Y-6031992D01*
X2958134Y-6037935D01*
X2970784Y-6042202D01*
X2983890Y-6044793D01*
X2997555Y-6045708D01*
X3047644Y-6045708D01*
X3061309Y-6044793D01*
X3074416Y-6042202D01*
X3087065Y-6037935D01*
X3099054Y-6031992D01*
X3110128Y-6024575D01*
X3120186Y-6015786D01*
X3128975Y-6005728D01*
X3136392Y-5994654D01*
X3142335Y-5982665D01*
X3146602Y-5970016D01*
X3149193Y-5956909D01*
X3150108Y-5943600D01*
X3149193Y-5930290D01*
X3146602Y-5917184D01*
X3142335Y-5904534D01*
X3136392Y-5892546D01*
X3128975Y-5881471D01*
X3120186Y-5871413D01*
X3110128Y-5862624D01*
X3099054Y-5855208D01*
X3086100Y-5848858D01*
X3083102Y-5846622D01*
X3081121Y-5843422D01*
X3080410Y-5839764D01*
X3080410Y-5288584D01*
X3081020Y-5285028D01*
X3082848Y-5281930D01*
X3085642Y-5279694D01*
X3097123Y-5273344D01*
X3110484Y-5263845D01*
X3122676Y-5252974D01*
X3133547Y-5240782D01*
X3143046Y-5227421D01*
X3150971Y-5213096D01*
X3157220Y-5198008D01*
X3161741Y-5182260D01*
X3162706Y-5176469D01*
X3164332Y-5172456D01*
X3167430Y-5169509D01*
X3171444Y-5168087D01*
X3175711Y-5168442D01*
X3179470Y-5170525D01*
X3182010Y-5173980D01*
X3182924Y-5178145D01*
X3182924Y-6713524D01*
X3183686Y-6721551D01*
X3185871Y-6728764D01*
X3189427Y-6735419D01*
X3194558Y-6741668D01*
X3300018Y-6847128D01*
X3302304Y-6850634D01*
X3303015Y-6854748D01*
X3301949Y-6858812D01*
X3296564Y-6869734D01*
X3292297Y-6882384D01*
X3289706Y-6895490D01*
X3288792Y-6908800D01*
X3289706Y-6922109D01*
X3292297Y-6935216D01*
X3296564Y-6947865D01*
X3302508Y-6959853D01*
X3309924Y-6970928D01*
X3318713Y-6980986D01*
X3328771Y-6989775D01*
X3339846Y-6997192D01*
X3351834Y-7003135D01*
X3364484Y-7007402D01*
X3377590Y-7009993D01*
X3391255Y-7010908D01*
X3441344Y-7010908D01*
X3455009Y-7009993D01*
X3468115Y-7007402D01*
X3480765Y-7003135D01*
X3492754Y-6997192D01*
X3503828Y-6989775D01*
X3513886Y-6980986D01*
X3522675Y-6970928D01*
X3530092Y-6959853D01*
X3536035Y-6947865D01*
X3540302Y-6935216D01*
X3542893Y-6922109D01*
X3543808Y-6908800D01*
X3542893Y-6895490D01*
X3540302Y-6882384D01*
X3536035Y-6869734D01*
X3530092Y-6857746D01*
X3522675Y-6846671D01*
X3513886Y-6836613D01*
X3503828Y-6827824D01*
X3492754Y-6820408D01*
X3480765Y-6814464D01*
X3468115Y-6810197D01*
X3455009Y-6807606D01*
X3441344Y-6806692D01*
X3391255Y-6806692D01*
X3373018Y-6807962D01*
X3369868Y-6806996D01*
X3367176Y-6805066D01*
X3263087Y-6700977D01*
X3260902Y-6697675D01*
X3260140Y-6693814D01*
X3260140Y-6438036D01*
X3260902Y-6434175D01*
X3263087Y-6430873D01*
X3266389Y-6428638D01*
X3270300Y-6427876D01*
X3274161Y-6428638D01*
X3277463Y-6430873D01*
X3693718Y-6847128D01*
X3696004Y-6850634D01*
X3696715Y-6854748D01*
X3695649Y-6858812D01*
X3690264Y-6869734D01*
X3685997Y-6882384D01*
X3683406Y-6895490D01*
X3682492Y-6908800D01*
X3683406Y-6922109D01*
X3685997Y-6935216D01*
X3690264Y-6947865D01*
X3696208Y-6959853D01*
X3703624Y-6970928D01*
X3712413Y-6980986D01*
X3722471Y-6989775D01*
X3733546Y-6997192D01*
X3745534Y-7003135D01*
X3758184Y-7007402D01*
X3771290Y-7009993D01*
X3784955Y-7010908D01*
X3835044Y-7010908D01*
X3848709Y-7009993D01*
X3861815Y-7007402D01*
X3874465Y-7003135D01*
X3886454Y-6997192D01*
X3897528Y-6989775D01*
X3907586Y-6980986D01*
X3916375Y-6970928D01*
X3923792Y-6959853D01*
X3929735Y-6947865D01*
X3934002Y-6935216D01*
X3936593Y-6922109D01*
X3937508Y-6908800D01*
X3936593Y-6895490D01*
X3934002Y-6882384D01*
X3929735Y-6869734D01*
X3923792Y-6857746D01*
X3916375Y-6846671D01*
X3907586Y-6836613D01*
X3897528Y-6827824D01*
X3886454Y-6820408D01*
X3874465Y-6814464D01*
X3861815Y-6810197D01*
X3848709Y-6807606D01*
X3835044Y-6806692D01*
X3784955Y-6806692D01*
X3766718Y-6807962D01*
X3763568Y-6806996D01*
X3760876Y-6805066D01*
X3303981Y-6348171D01*
X3301746Y-6344869D01*
X3300984Y-6340957D01*
X3300984Y-6022543D01*
X3301695Y-6018784D01*
X3303828Y-6015532D01*
X3306978Y-6013297D01*
X3310737Y-6012383D01*
X3314547Y-6012992D01*
X3317900Y-6014974D01*
X3328771Y-6024626D01*
X3339846Y-6031992D01*
X3351834Y-6037935D01*
X3364484Y-6042202D01*
X3377590Y-6044793D01*
X3391255Y-6045708D01*
X3441344Y-6045708D01*
X3455009Y-6044793D01*
X3468115Y-6042202D01*
X3480765Y-6037935D01*
X3492754Y-6031992D01*
X3503828Y-6024575D01*
X3513886Y-6015786D01*
X3522675Y-6005728D01*
X3530092Y-5994654D01*
X3536035Y-5982665D01*
X3540302Y-5970016D01*
X3542893Y-5956909D01*
X3543808Y-5943600D01*
X3542893Y-5930290D01*
X3540302Y-5917184D01*
X3536035Y-5904534D01*
X3530092Y-5892546D01*
X3522675Y-5881471D01*
X3513886Y-5871413D01*
X3503828Y-5862624D01*
X3492754Y-5855208D01*
X3486099Y-5851906D01*
X3483101Y-5849670D01*
X3481120Y-5846470D01*
X3480409Y-5842812D01*
X3480409Y-5288584D01*
X3481019Y-5285028D01*
X3482848Y-5281930D01*
X3485642Y-5279644D01*
X3497122Y-5273344D01*
X3510483Y-5263845D01*
X3522675Y-5252974D01*
X3533546Y-5240782D01*
X3543046Y-5227421D01*
X3550970Y-5213096D01*
X3557219Y-5198008D01*
X3561740Y-5182260D01*
X3564483Y-5166156D01*
X3565398Y-5149799D01*
X3564483Y-5133441D01*
X3561740Y-5117338D01*
X3557219Y-5101590D01*
X3550970Y-5086502D01*
X3543046Y-5072176D01*
X3533546Y-5058816D01*
X3522675Y-5046624D01*
X3510483Y-5035753D01*
X3497122Y-5026253D01*
X3482797Y-5018328D01*
X3467709Y-5012080D01*
X3451961Y-5007559D01*
X3435858Y-5004816D01*
X3419500Y-5003901D01*
X3415741Y-5004104D01*
X3411728Y-5003546D01*
X3408273Y-5001412D01*
X3405936Y-4998110D01*
X3405022Y-4994148D01*
X3405784Y-4990185D01*
X3408019Y-4986782D01*
X3488740Y-4905959D01*
X3493820Y-4899761D01*
X3497376Y-4893106D01*
X3499561Y-4885842D01*
X3500374Y-4877816D01*
X3500374Y-4861407D01*
X3501136Y-4857597D01*
X3503218Y-4854346D01*
X3506368Y-4852111D01*
X3510178Y-4851247D01*
X3513988Y-4851857D01*
X3517290Y-4853838D01*
X3528517Y-4863846D01*
X3541877Y-4873345D01*
X3553155Y-4879543D01*
X3553155Y-4816144D01*
X3510534Y-4816144D01*
X3506622Y-4815382D01*
X3503371Y-4813198D01*
X3501136Y-4809896D01*
X3500374Y-4805984D01*
X3500374Y-4693615D01*
X3501136Y-4689703D01*
X3503371Y-4686401D01*
X3506622Y-4684217D01*
X3510534Y-4683455D01*
X3553155Y-4683455D01*
X3553155Y-4620056D01*
X3541877Y-4626254D01*
X3528517Y-4635754D01*
X3517290Y-4645761D01*
X3513988Y-4647742D01*
X3510178Y-4648352D01*
X3506368Y-4647488D01*
X3503218Y-4645253D01*
X3501136Y-4642002D01*
X3500374Y-4638192D01*
X3500374Y-4608322D01*
X3499561Y-4600295D01*
X3497376Y-4593031D01*
X3493820Y-4586376D01*
X3488690Y-4580178D01*
X3421126Y-4512564D01*
X3418941Y-4509363D01*
X3418128Y-4505553D01*
X3418789Y-4501743D01*
X3420872Y-4498441D01*
X3423970Y-4496206D01*
X3427729Y-4495241D01*
X3435858Y-4494784D01*
X3451961Y-4492040D01*
X3467709Y-4487519D01*
X3482797Y-4481271D01*
X3497122Y-4473346D01*
X3510483Y-4463846D01*
X3522675Y-4452975D01*
X3533546Y-4440783D01*
X3543046Y-4427423D01*
X3550970Y-4413097D01*
X3557219Y-4398010D01*
X3561740Y-4382262D01*
X3564483Y-4366158D01*
X3565398Y-4349800D01*
X3564483Y-4333443D01*
X3561740Y-4317339D01*
X3557219Y-4301591D01*
X3550970Y-4286504D01*
X3543046Y-4272178D01*
X3533546Y-4258818D01*
X3522675Y-4246626D01*
X3510483Y-4235754D01*
X3497122Y-4226255D01*
X3485642Y-4219956D01*
X3482848Y-4217670D01*
X3481019Y-4214571D01*
X3480409Y-4211015D01*
X3480409Y-3567023D01*
X3481120Y-3563315D01*
X3483101Y-3560165D01*
X3486099Y-3557879D01*
X3490925Y-3555492D01*
X3502050Y-3548075D01*
X3512058Y-3539286D01*
X3520897Y-3529228D01*
X3528314Y-3518154D01*
X3534206Y-3506165D01*
X3538474Y-3493515D01*
X3541115Y-3480409D01*
X3541979Y-3467100D01*
X3541115Y-3453790D01*
X3538474Y-3440684D01*
X3534206Y-3428034D01*
X3528314Y-3416046D01*
X3520897Y-3404971D01*
X3512058Y-3394913D01*
X3502050Y-3386124D01*
X3490925Y-3378708D01*
X3478936Y-3372764D01*
X3466287Y-3368497D01*
X3453231Y-3365906D01*
X3439566Y-3364992D01*
X3389426Y-3364992D01*
X3375761Y-3365906D01*
X3362655Y-3368497D01*
X3350006Y-3372764D01*
X3338068Y-3378708D01*
X3326739Y-3386277D01*
X3323386Y-3388258D01*
X3319576Y-3388817D01*
X3315817Y-3387902D01*
X3312718Y-3385667D01*
X3310585Y-3382416D01*
X3309874Y-3378657D01*
X3309874Y-3078226D01*
X3309670Y-3074009D01*
X3309112Y-3070453D01*
X3308146Y-3066592D01*
X3306927Y-3063240D01*
X3305200Y-3059633D01*
X3303371Y-3056534D01*
X3300831Y-3053181D01*
X2939084Y-2615742D01*
X2937052Y-2611882D01*
X2936900Y-2607564D01*
X2938526Y-2603500D01*
X2941726Y-2600553D01*
X2945841Y-2599182D01*
X2950159Y-2599690D01*
X2952648Y-2600502D01*
X2965754Y-2603093D01*
X2979369Y-2604008D01*
X3029508Y-2604008D01*
X3043174Y-2603093D01*
X3056280Y-2600502D01*
X3068929Y-2596235D01*
X3080918Y-2590292D01*
X3091992Y-2582875D01*
X3102051Y-2574086D01*
X3110839Y-2564028D01*
X3118256Y-2552954D01*
X3124149Y-2540965D01*
X3128670Y-2527604D01*
X3130905Y-2523896D01*
X3134461Y-2521458D01*
X3138728Y-2520696D01*
X3142894Y-2521813D01*
X3146247Y-2524506D01*
X3148177Y-2528366D01*
X3226308Y-2840990D01*
X3229051Y-2848559D01*
X3232912Y-2855061D01*
X3238093Y-2860751D01*
X3242411Y-2864154D01*
X3942994Y-3342995D01*
X3945382Y-3345230D01*
X3946906Y-3348126D01*
X3947414Y-3351377D01*
X3947414Y-3396792D01*
X3946601Y-3400806D01*
X3944264Y-3404108D01*
X3940860Y-3406292D01*
X3936796Y-3406952D01*
X3932885Y-3405936D01*
X3929634Y-3403498D01*
X3922115Y-3394913D01*
X3912057Y-3386124D01*
X3900932Y-3378708D01*
X3888994Y-3372764D01*
X3876344Y-3368497D01*
X3863238Y-3365906D01*
X3849573Y-3364992D01*
X3799433Y-3364992D01*
X3785768Y-3365906D01*
X3772712Y-3368497D01*
X3760063Y-3372764D01*
X3748074Y-3378708D01*
X3736949Y-3386124D01*
X3726942Y-3394913D01*
X3718102Y-3404971D01*
X3710686Y-3416046D01*
X3704793Y-3428034D01*
X3700526Y-3440684D01*
X3697884Y-3453790D01*
X3697020Y-3467100D01*
X3697884Y-3480409D01*
X3700526Y-3493515D01*
X3704793Y-3506165D01*
X3710686Y-3518154D01*
X3718102Y-3529228D01*
X3726942Y-3539286D01*
X3736949Y-3548075D01*
X3748074Y-3555492D01*
X3752900Y-3557879D01*
X3755898Y-3560165D01*
X3757879Y-3563315D01*
X3758590Y-3567023D01*
X3758590Y-4211015D01*
X3757980Y-4214571D01*
X3756151Y-4217670D01*
X3753358Y-4219956D01*
X3741877Y-4226255D01*
X3728516Y-4235754D01*
X3716324Y-4246626D01*
X3705453Y-4258818D01*
X3695954Y-4272178D01*
X3688029Y-4286504D01*
X3681780Y-4301591D01*
X3677259Y-4317339D01*
X3674516Y-4333443D01*
X3673601Y-4349800D01*
X3674516Y-4366158D01*
X3677259Y-4382262D01*
X3681780Y-4398010D01*
X3688029Y-4413097D01*
X3695954Y-4427423D01*
X3705453Y-4440783D01*
X3716324Y-4452975D01*
X3728516Y-4463846D01*
X3741877Y-4473346D01*
X3756202Y-4481271D01*
X3771290Y-4487519D01*
X3787038Y-4492040D01*
X3803142Y-4494784D01*
X3819499Y-4495698D01*
X3835857Y-4494784D01*
X3851960Y-4492040D01*
X3867708Y-4487519D01*
X3882796Y-4481271D01*
X3897122Y-4473346D01*
X3910482Y-4463846D01*
X3922674Y-4452975D01*
X3929735Y-4445050D01*
X3932834Y-4442663D01*
X3936593Y-4441647D01*
X3940505Y-4442155D01*
X3943858Y-4444034D01*
X3946347Y-4447082D01*
X3947464Y-4450791D01*
X3948226Y-4458614D01*
X3950411Y-4465828D01*
X3953967Y-4472533D01*
X3959098Y-4478731D01*
X4082897Y-4602530D01*
X4085082Y-4605832D01*
X4085844Y-4609744D01*
X4085844Y-4683455D01*
X4129532Y-4683455D01*
X4133443Y-4684217D01*
X4136694Y-4686401D01*
X4138929Y-4689703D01*
X4139692Y-4693615D01*
X4139692Y-4805984D01*
X4138929Y-4809896D01*
X4136694Y-4813198D01*
X4133443Y-4815382D01*
X4129532Y-4816144D01*
X4085844Y-4816144D01*
X4085844Y-4880051D01*
X4085082Y-4883962D01*
X4082897Y-4887264D01*
X3994607Y-4975656D01*
X3989527Y-4981854D01*
X3985971Y-4988560D01*
X3983786Y-4995773D01*
X3982974Y-5003800D01*
X3982974Y-5121910D01*
X3982059Y-5126075D01*
X3979519Y-5129530D01*
X3975760Y-5131612D01*
X3971493Y-5131968D01*
X3967479Y-5130546D01*
X3964381Y-5127548D01*
X3962806Y-5123586D01*
X3961739Y-5117338D01*
X3957218Y-5101590D01*
X3950970Y-5086502D01*
X3943045Y-5072176D01*
X3933545Y-5058816D01*
X3922674Y-5046624D01*
X3910482Y-5035753D01*
X3897122Y-5026253D01*
X3882796Y-5018328D01*
X3867708Y-5012080D01*
X3851960Y-5007559D01*
X3835857Y-5004816D01*
X3819499Y-5003901D01*
X3803142Y-5004816D01*
X3787038Y-5007559D01*
X3771290Y-5012080D01*
X3756202Y-5018328D01*
X3741877Y-5026253D01*
X3728516Y-5035753D01*
X3716324Y-5046624D01*
X3705453Y-5058816D01*
X3695954Y-5072176D01*
X3688029Y-5086502D01*
X3681780Y-5101590D01*
X3677259Y-5117338D01*
X3674516Y-5133441D01*
X3673601Y-5149799D01*
X3674516Y-5166156D01*
X3677259Y-5182260D01*
X3681780Y-5198008D01*
X3688029Y-5213096D01*
X3695954Y-5227421D01*
X3705453Y-5240782D01*
X3716324Y-5252974D01*
X3728516Y-5263845D01*
X3741877Y-5273344D01*
X3753358Y-5279644D01*
X3756151Y-5281930D01*
X3757980Y-5285028D01*
X3758590Y-5288584D01*
X3758590Y-5837580D01*
X3757726Y-5841644D01*
X3755288Y-5845048D01*
X3751681Y-5847181D01*
X3745534Y-5849264D01*
X3733546Y-5855208D01*
X3722471Y-5862624D01*
X3712413Y-5871413D01*
X3703624Y-5881471D01*
X3696208Y-5892546D01*
X3690264Y-5904534D01*
X3685997Y-5917184D01*
X3683406Y-5930290D01*
X3682492Y-5943600D01*
X3683406Y-5956909D01*
X3685997Y-5970016D01*
X3690264Y-5982665D01*
X3696208Y-5994654D01*
X3703624Y-6005728D01*
X3712413Y-6015786D01*
X3722471Y-6024575D01*
X3733546Y-6031992D01*
X3745534Y-6037935D01*
X3758184Y-6042202D01*
X3771290Y-6044793D01*
X3784955Y-6045708D01*
X3835044Y-6045708D01*
X3848709Y-6044793D01*
X3861815Y-6042202D01*
X3874465Y-6037935D01*
X3886454Y-6031992D01*
X3897528Y-6024575D01*
X3907586Y-6015786D01*
X3916375Y-6005728D01*
X3923792Y-5994654D01*
X3929735Y-5982665D01*
X3934002Y-5970016D01*
X3936593Y-5956909D01*
X3937508Y-5943600D01*
X3936593Y-5930290D01*
X3934002Y-5917184D01*
X3929735Y-5904534D01*
X3923792Y-5892546D01*
X3916375Y-5881471D01*
X3907586Y-5871413D01*
X3897528Y-5862624D01*
X3886098Y-5855004D01*
X3883101Y-5852769D01*
X3881120Y-5849569D01*
X3880408Y-5845911D01*
X3880408Y-5288584D01*
X3881018Y-5285028D01*
X3882847Y-5281930D01*
X3885641Y-5279644D01*
X3897122Y-5273344D01*
X3910482Y-5263845D01*
X3922674Y-5252974D01*
X3933545Y-5240782D01*
X3943045Y-5227421D01*
X3950970Y-5213096D01*
X3957218Y-5198008D01*
X3961739Y-5182260D01*
X3962806Y-5176012D01*
X3964381Y-5172049D01*
X3967479Y-5169052D01*
X3971493Y-5167630D01*
X3975760Y-5167985D01*
X3979519Y-5170068D01*
X3982059Y-5173522D01*
X3982974Y-5177688D01*
X3982974Y-6726174D01*
X3983786Y-6734200D01*
X3985971Y-6741464D01*
X3989527Y-6748119D01*
X3994658Y-6754317D01*
X4087418Y-6847128D01*
X4089704Y-6850634D01*
X4090415Y-6854748D01*
X4089349Y-6858812D01*
X4083964Y-6869734D01*
X4079697Y-6882384D01*
X4077106Y-6895490D01*
X4076192Y-6908800D01*
X4077106Y-6922109D01*
X4079697Y-6935216D01*
X4083964Y-6947865D01*
X4089908Y-6959853D01*
X4097324Y-6970928D01*
X4106113Y-6980986D01*
X4116171Y-6989775D01*
X4127246Y-6997192D01*
X4139234Y-7003135D01*
X4151884Y-7007402D01*
X4164990Y-7009993D01*
X4178655Y-7010908D01*
X4228744Y-7010908D01*
X4242409Y-7009993D01*
X4255516Y-7007402D01*
X4268165Y-7003135D01*
X4280154Y-6997192D01*
X4291228Y-6989775D01*
X4301286Y-6980986D01*
X4310075Y-6970928D01*
X4317492Y-6959853D01*
X4323435Y-6947865D01*
X4327702Y-6935216D01*
X4330293Y-6922109D01*
X4331208Y-6908800D01*
X4330293Y-6895490D01*
X4327702Y-6882384D01*
X4323435Y-6869734D01*
X4317492Y-6857746D01*
X4310075Y-6846671D01*
X4301286Y-6836613D01*
X4291228Y-6827824D01*
X4280154Y-6820408D01*
X4268165Y-6814464D01*
X4255516Y-6810197D01*
X4242409Y-6807606D01*
X4228744Y-6806692D01*
X4178655Y-6806692D01*
X4160418Y-6807962D01*
X4157268Y-6806996D01*
X4154576Y-6805066D01*
X4063187Y-6713677D01*
X4060951Y-6710375D01*
X4060190Y-6706463D01*
X4060190Y-6450736D01*
X4060951Y-6446824D01*
X4063187Y-6443522D01*
X4066489Y-6441338D01*
X4070350Y-6440576D01*
X4074261Y-6441338D01*
X4077512Y-6443522D01*
X4481118Y-6847128D01*
X4483404Y-6850634D01*
X4484116Y-6854748D01*
X4483049Y-6858812D01*
X4477664Y-6869734D01*
X4473397Y-6882384D01*
X4470806Y-6895490D01*
X4469892Y-6908800D01*
X4470806Y-6922109D01*
X4473397Y-6935216D01*
X4477664Y-6947865D01*
X4483608Y-6959853D01*
X4491024Y-6970928D01*
X4499813Y-6980986D01*
X4509871Y-6989775D01*
X4520946Y-6997192D01*
X4532934Y-7003135D01*
X4545584Y-7007402D01*
X4558690Y-7009993D01*
X4572355Y-7010908D01*
X4622444Y-7010908D01*
X4636109Y-7009993D01*
X4649216Y-7007402D01*
X4661865Y-7003135D01*
X4673854Y-6997192D01*
X4684928Y-6989775D01*
X4694986Y-6980986D01*
X4703775Y-6970928D01*
X4711192Y-6959853D01*
X4717135Y-6947865D01*
X4721402Y-6935216D01*
X4723993Y-6922109D01*
X4724908Y-6908800D01*
X4723993Y-6895490D01*
X4721402Y-6882384D01*
X4717135Y-6869734D01*
X4711192Y-6857746D01*
X4703775Y-6846671D01*
X4694986Y-6836613D01*
X4684928Y-6827824D01*
X4673854Y-6820408D01*
X4661865Y-6814464D01*
X4649216Y-6810197D01*
X4636109Y-6807606D01*
X4622444Y-6806692D01*
X4572355Y-6806692D01*
X4554118Y-6807962D01*
X4550968Y-6806996D01*
X4548276Y-6805066D01*
X4104081Y-6360871D01*
X4101846Y-6357569D01*
X4101084Y-6353657D01*
X4101084Y-6033516D01*
X4101998Y-6029248D01*
X4104640Y-6025794D01*
X4108500Y-6023762D01*
X4112818Y-6023508D01*
X4116882Y-6025083D01*
X4127246Y-6031992D01*
X4139234Y-6037935D01*
X4151884Y-6042202D01*
X4164990Y-6044793D01*
X4178655Y-6045708D01*
X4228744Y-6045708D01*
X4242409Y-6044793D01*
X4255516Y-6042202D01*
X4268165Y-6037935D01*
X4280154Y-6031992D01*
X4291228Y-6024575D01*
X4301286Y-6015786D01*
X4310075Y-6005728D01*
X4317492Y-5994654D01*
X4323435Y-5982665D01*
X4327702Y-5970016D01*
X4330293Y-5956909D01*
X4331208Y-5943600D01*
X4330293Y-5930290D01*
X4327702Y-5917184D01*
X4323435Y-5904534D01*
X4317492Y-5892546D01*
X4310075Y-5881471D01*
X4301286Y-5871413D01*
X4291228Y-5862624D01*
X4284929Y-5858408D01*
X4282490Y-5856122D01*
X4280966Y-5853226D01*
X4280408Y-5849924D01*
X4280408Y-5288584D01*
X4281068Y-5285028D01*
X4282846Y-5281930D01*
X4285640Y-5279644D01*
X4297121Y-5273344D01*
X4310481Y-5263845D01*
X4322673Y-5252974D01*
X4333544Y-5240782D01*
X4343044Y-5227421D01*
X4347464Y-5219395D01*
X4350410Y-5216093D01*
X4354474Y-5214315D01*
X4358894Y-5214467D01*
X4362856Y-5216499D01*
X4365548Y-5220004D01*
X4366514Y-5224322D01*
X4366514Y-6322314D01*
X4367326Y-6330340D01*
X4369511Y-6337554D01*
X4373067Y-6344259D01*
X4378198Y-6350457D01*
X4874818Y-6847128D01*
X4877104Y-6850634D01*
X4877816Y-6854748D01*
X4876749Y-6858812D01*
X4871364Y-6869734D01*
X4867097Y-6882384D01*
X4864506Y-6895490D01*
X4863592Y-6908800D01*
X4864506Y-6922109D01*
X4867097Y-6935216D01*
X4871364Y-6947865D01*
X4877308Y-6959853D01*
X4884724Y-6970928D01*
X4893513Y-6980986D01*
X4903571Y-6989775D01*
X4914646Y-6997192D01*
X4926634Y-7003135D01*
X4939284Y-7007402D01*
X4952390Y-7009993D01*
X4966055Y-7010908D01*
X5016144Y-7010908D01*
X5029809Y-7009993D01*
X5042916Y-7007402D01*
X5055565Y-7003135D01*
X5067554Y-6997192D01*
X5078628Y-6989775D01*
X5088686Y-6980986D01*
X5097475Y-6970928D01*
X5104892Y-6959853D01*
X5110835Y-6947865D01*
X5115102Y-6935216D01*
X5117693Y-6922109D01*
X5118608Y-6908800D01*
X5117693Y-6895490D01*
X5115102Y-6882384D01*
X5110835Y-6869734D01*
X5104892Y-6857746D01*
X5097475Y-6846671D01*
X5088686Y-6836613D01*
X5078628Y-6827824D01*
X5067554Y-6820408D01*
X5055565Y-6814464D01*
X5042916Y-6810197D01*
X5029809Y-6807606D01*
X5016144Y-6806692D01*
X4966055Y-6806692D01*
X4947818Y-6807962D01*
X4944668Y-6806996D01*
X4941976Y-6805066D01*
X4446727Y-6309817D01*
X4444492Y-6306515D01*
X4443730Y-6302603D01*
X4443730Y-5068722D01*
X4444492Y-5064810D01*
X4446727Y-5061508D01*
X4659985Y-4848199D01*
X4664760Y-4841798D01*
X4667961Y-4834991D01*
X4669840Y-4827625D01*
X4670247Y-4819700D01*
X4671364Y-4815535D01*
X4674158Y-4812182D01*
X4678070Y-4810302D01*
X4682439Y-4810252D01*
X4686401Y-4812030D01*
X4689246Y-4815281D01*
X4695952Y-4827422D01*
X4705451Y-4840782D01*
X4716322Y-4852974D01*
X4728514Y-4863846D01*
X4741875Y-4873345D01*
X4756200Y-4881270D01*
X4771288Y-4887518D01*
X4787036Y-4892040D01*
X4803140Y-4894783D01*
X4819497Y-4895697D01*
X4835855Y-4894783D01*
X4851958Y-4892040D01*
X4867706Y-4887518D01*
X4882794Y-4881270D01*
X4897120Y-4873345D01*
X4910480Y-4863846D01*
X4922672Y-4852974D01*
X4933543Y-4840782D01*
X4943043Y-4827422D01*
X4950968Y-4813096D01*
X4957216Y-4798009D01*
X4961737Y-4782261D01*
X4964480Y-4766157D01*
X4965395Y-4749800D01*
X4964480Y-4733442D01*
X4961737Y-4717338D01*
X4957216Y-4701590D01*
X4950968Y-4686503D01*
X4943043Y-4672177D01*
X4933543Y-4658817D01*
X4922672Y-4646625D01*
X4910480Y-4635754D01*
X4897120Y-4626254D01*
X4882794Y-4618329D01*
X4867706Y-4612081D01*
X4851958Y-4607560D01*
X4835855Y-4604816D01*
X4819497Y-4603902D01*
X4803140Y-4604816D01*
X4787036Y-4607560D01*
X4771288Y-4612081D01*
X4756200Y-4618329D01*
X4741875Y-4626254D01*
X4728514Y-4635754D01*
X4716322Y-4646625D01*
X4705451Y-4658817D01*
X4695952Y-4672177D01*
X4688027Y-4686503D01*
X4683760Y-4696866D01*
X4681575Y-4700117D01*
X4678375Y-4702302D01*
X4674565Y-4703165D01*
X4670755Y-4702454D01*
X4667453Y-4700422D01*
X4665167Y-4697272D01*
X4664202Y-4693462D01*
X4661204Y-4631893D01*
X4659630Y-4624120D01*
X4656734Y-4617161D01*
X4652467Y-4610912D01*
X4646777Y-4605223D01*
X4459579Y-4453128D01*
X4457039Y-4450080D01*
X4455871Y-4446320D01*
X4432655Y-4225544D01*
X4431030Y-4217670D01*
X4428083Y-4210710D01*
X4423867Y-4204462D01*
X4417974Y-4198670D01*
X4113784Y-3954322D01*
X4110990Y-3950766D01*
X4109974Y-3946398D01*
X4109974Y-3535527D01*
X4110786Y-3531514D01*
X4113123Y-3528161D01*
X4116578Y-3526028D01*
X4120591Y-3525367D01*
X4124502Y-3526332D01*
X4127754Y-3528822D01*
X4136948Y-3539286D01*
X4147007Y-3548075D01*
X4158081Y-3555492D01*
X4170070Y-3561435D01*
X4182719Y-3565702D01*
X4195826Y-3568293D01*
X4209491Y-3569208D01*
X4259630Y-3569208D01*
X4273245Y-3568293D01*
X4286351Y-3565702D01*
X4299000Y-3561435D01*
X4310989Y-3555492D01*
X4322114Y-3548075D01*
X4332122Y-3539286D01*
X4340910Y-3529228D01*
X4348327Y-3518154D01*
X4354271Y-3506165D01*
X4356100Y-3500729D01*
X4358233Y-3497122D01*
X4361637Y-3494684D01*
X4365701Y-3493820D01*
X4369816Y-3494684D01*
X4373219Y-3497122D01*
X4375353Y-3500678D01*
X4404715Y-3586632D01*
X4406392Y-3590848D01*
X4408779Y-3595725D01*
X4411014Y-3599434D01*
X4414215Y-3603802D01*
X4417060Y-3607054D01*
X4420971Y-3610864D01*
X4424527Y-3613708D01*
X5286705Y-4254144D01*
X5288889Y-4256430D01*
X5290312Y-4259224D01*
X5290769Y-4262323D01*
X5290769Y-6731812D01*
X5290515Y-6734251D01*
X5289651Y-6736537D01*
X5286095Y-6743293D01*
X5282742Y-6753352D01*
X5281015Y-6763816D01*
X5281015Y-6774383D01*
X5282742Y-6784848D01*
X5286095Y-6794906D01*
X5291023Y-6804304D01*
X5297373Y-6812788D01*
X5305044Y-6820103D01*
X5313781Y-6826148D01*
X5323332Y-6830669D01*
X5333542Y-6833666D01*
X5344058Y-6834936D01*
X5354624Y-6834479D01*
X5365038Y-6832396D01*
X5374944Y-6828637D01*
X5384139Y-6823303D01*
X5392318Y-6816598D01*
X5399379Y-6808673D01*
X5405018Y-6799732D01*
X5409184Y-6789978D01*
X5411724Y-6779666D01*
X5412587Y-6769100D01*
X5411724Y-6758533D01*
X5409184Y-6748221D01*
X5405018Y-6738467D01*
X5402986Y-6734556D01*
X5402630Y-6731711D01*
X5402529Y-4225950D01*
X5401716Y-4219244D01*
X5401106Y-4216298D01*
X5399176Y-4209846D01*
X5398058Y-4207052D01*
X5395061Y-4201007D01*
X5393436Y-4198467D01*
X5389422Y-4193082D01*
X5387441Y-4190796D01*
X5382514Y-4186174D01*
X4552696Y-3569614D01*
X4549800Y-3566261D01*
X4548682Y-3562197D01*
X4544364Y-3562248D01*
X4540351Y-3560470D01*
X4507534Y-3536035D01*
X4505350Y-3533901D01*
X4503978Y-3531209D01*
X4345584Y-3068218D01*
X4343806Y-3063646D01*
X4144060Y-2603347D01*
X4143197Y-2599334D01*
X4144010Y-2595321D01*
X4146346Y-2591968D01*
X4149851Y-2589784D01*
X4153915Y-2589174D01*
X4157878Y-2590190D01*
X4170070Y-2596235D01*
X4182719Y-2600502D01*
X4195826Y-2603093D01*
X4209491Y-2604008D01*
X4259630Y-2604008D01*
X4273245Y-2603093D01*
X4286351Y-2600502D01*
X4299000Y-2596235D01*
X4310989Y-2590292D01*
X4322114Y-2582875D01*
X4332122Y-2574086D01*
X4340910Y-2564028D01*
X4348327Y-2552954D01*
X4354271Y-2540965D01*
X4358538Y-2528316D01*
X4361180Y-2515209D01*
X4362043Y-2501900D01*
X4361180Y-2488590D01*
X4358538Y-2475484D01*
X4354271Y-2462834D01*
X4348327Y-2450846D01*
X4340910Y-2439771D01*
X4332122Y-2429713D01*
X4322114Y-2420924D01*
X4310989Y-2413508D01*
X4299000Y-2407564D01*
X4286351Y-2403297D01*
X4273245Y-2400706D01*
X4259630Y-2399792D01*
X4209491Y-2399792D01*
X4195826Y-2400706D01*
X4182719Y-2403297D01*
X4170070Y-2407564D01*
X4158081Y-2413508D01*
X4147007Y-2420924D01*
X4136948Y-2429713D01*
X4128160Y-2439771D01*
X4120743Y-2450846D01*
X4114850Y-2462834D01*
X4110532Y-2475484D01*
X4109974Y-2478328D01*
X4108297Y-2482240D01*
X4105148Y-2485085D01*
X4101084Y-2486456D01*
X4096867Y-2485999D01*
X4093159Y-2483866D01*
X4090670Y-2480360D01*
X4051198Y-2389428D01*
X4046067Y-2380691D01*
X4039768Y-2373274D01*
X4031945Y-2366772D01*
X4023918Y-2361234D01*
X4020921Y-2357983D01*
X4019600Y-2353716D01*
X4020210Y-2349347D01*
X4022648Y-2345588D01*
X4026408Y-2343251D01*
X4030827Y-2342794D01*
X4555794Y-2400147D01*
X4559706Y-2401417D01*
X4562754Y-2404110D01*
X4564532Y-2407869D01*
X4564684Y-2411933D01*
X4563211Y-2415794D01*
X4560316Y-2418689D01*
X4557014Y-2420924D01*
X4547006Y-2429713D01*
X4538167Y-2439771D01*
X4530750Y-2450846D01*
X4524857Y-2462834D01*
X4520539Y-2475484D01*
X4517948Y-2488590D01*
X4517085Y-2501900D01*
X4517948Y-2515209D01*
X4520539Y-2528316D01*
X4524857Y-2540965D01*
X4530750Y-2552954D01*
X4538167Y-2564028D01*
X4547006Y-2574086D01*
X4557014Y-2582875D01*
X4568139Y-2590292D01*
X4580128Y-2596235D01*
X4592726Y-2600502D01*
X4605832Y-2603093D01*
X4619498Y-2604008D01*
X4669637Y-2604008D01*
X4683302Y-2603093D01*
X4696409Y-2600502D01*
X4709058Y-2596235D01*
X4720996Y-2590292D01*
X4732121Y-2582875D01*
X4742180Y-2574086D01*
X4750968Y-2564028D01*
X4758385Y-2552954D01*
X4763516Y-2542540D01*
X4766360Y-2539034D01*
X4770424Y-2537104D01*
X4774946Y-2537104D01*
X4779010Y-2539085D01*
X4781804Y-2542641D01*
X4782769Y-2547010D01*
X4782769Y-3421989D01*
X4781804Y-3426358D01*
X4779010Y-3429914D01*
X4774946Y-3431895D01*
X4770424Y-3431895D01*
X4766360Y-3429965D01*
X4763516Y-3426460D01*
X4758385Y-3416046D01*
X4750968Y-3404971D01*
X4742180Y-3394913D01*
X4732121Y-3386124D01*
X4720996Y-3378708D01*
X4709058Y-3372764D01*
X4696409Y-3368497D01*
X4683302Y-3365906D01*
X4669637Y-3364992D01*
X4619498Y-3364992D01*
X4605832Y-3365906D01*
X4592726Y-3368497D01*
X4580128Y-3372764D01*
X4568139Y-3378708D01*
X4557014Y-3386124D01*
X4547006Y-3394913D01*
X4538167Y-3404971D01*
X4530750Y-3416046D01*
X4524857Y-3428034D01*
X4520539Y-3440684D01*
X4517948Y-3453790D01*
X4517085Y-3467100D01*
X4517948Y-3480409D01*
X4520539Y-3493515D01*
X4524857Y-3506165D01*
X4530750Y-3518154D01*
X4538167Y-3529228D01*
X4547006Y-3539286D01*
X4553102Y-3544671D01*
X4555693Y-3548227D01*
X4556404Y-3551682D01*
X4560214Y-3551428D01*
X4564380Y-3553002D01*
X4568139Y-3555492D01*
X4580128Y-3561435D01*
X4592726Y-3565702D01*
X4605832Y-3568293D01*
X4619498Y-3569208D01*
X4669637Y-3569208D01*
X4683302Y-3568293D01*
X4696409Y-3565702D01*
X4709058Y-3561435D01*
X4720996Y-3555492D01*
X4732121Y-3548075D01*
X4742180Y-3539286D01*
X4750968Y-3529228D01*
X4758385Y-3518154D01*
X4763516Y-3507740D01*
X4766360Y-3504234D01*
X4770424Y-3502304D01*
X4774946Y-3502304D01*
X4779010Y-3504285D01*
X4781804Y-3507841D01*
X4782769Y-3512210D01*
X4782769Y-3568395D01*
X4783226Y-3575608D01*
X4783632Y-3578250D01*
X4785258Y-3585159D01*
X4786122Y-3587648D01*
X4788916Y-3594150D01*
X4790186Y-3596487D01*
X4794097Y-3602431D01*
X4795774Y-3604514D01*
X4800650Y-3609644D01*
X4802632Y-3611422D01*
X4808321Y-3615639D01*
X4810607Y-3617010D01*
X4817059Y-3620262D01*
X5462422Y-3895140D01*
X5465673Y-3897325D01*
X5467807Y-3900627D01*
X5468569Y-3904487D01*
X5468569Y-8915196D01*
X5468823Y-8920276D01*
X5469432Y-8925102D01*
X5470499Y-8929878D01*
X5471972Y-8934500D01*
X5473852Y-8939022D01*
X5476087Y-8943340D01*
X5478729Y-8947454D01*
X5481675Y-8951315D01*
X5485130Y-8955074D01*
X5749594Y-9219590D01*
X5751830Y-9222892D01*
X5752592Y-9226753D01*
X5752592Y-9308541D01*
X5753303Y-9314840D01*
X5755233Y-9320326D01*
X5758281Y-9325203D01*
X5762396Y-9329318D01*
X5767273Y-9332366D01*
X5772759Y-9334296D01*
G37*
G36*
X5851296Y-9080906D02*
G01*
X5864910Y-9080449D01*
X5878372Y-9078214D01*
X5891377Y-9074150D01*
X5903772Y-9068409D01*
X5915253Y-9061094D01*
X5925667Y-9052306D01*
X5934811Y-9042146D01*
X5942533Y-9030919D01*
X5948680Y-9018778D01*
X5953150Y-9005874D01*
X5955893Y-8992514D01*
X5956808Y-8978900D01*
X5955893Y-8965285D01*
X5953150Y-8951925D01*
X5948680Y-8939022D01*
X5942533Y-8926880D01*
X5934811Y-8915654D01*
X5925667Y-8905494D01*
X5915253Y-8896705D01*
X5903772Y-8889390D01*
X5891377Y-8883650D01*
X5878372Y-8879586D01*
X5864910Y-8877350D01*
X5851296Y-8876893D01*
X5837732Y-8878214D01*
X5824474Y-8881414D01*
X5811723Y-8886291D01*
X5799785Y-8892844D01*
X5788812Y-8900922D01*
X5779008Y-8910421D01*
X5770524Y-8921140D01*
X5763564Y-8932875D01*
X5758281Y-8945422D01*
X5754674Y-8958580D01*
X5752846Y-8972092D01*
X5752846Y-8985707D01*
X5754674Y-8999220D01*
X5758281Y-9012377D01*
X5763564Y-9024924D01*
X5770524Y-9036659D01*
X5779008Y-9047378D01*
X5788812Y-9056878D01*
X5799785Y-9064955D01*
X5811723Y-9071508D01*
X5824474Y-9076385D01*
X5837732Y-9079585D01*
G37*
G36*
X5851296Y-8826906D02*
G01*
X5864910Y-8826449D01*
X5878372Y-8824214D01*
X5891377Y-8820150D01*
X5903772Y-8814409D01*
X5915253Y-8807094D01*
X5925667Y-8798306D01*
X5934811Y-8788146D01*
X5942533Y-8776919D01*
X5948680Y-8764778D01*
X5953150Y-8751874D01*
X5955893Y-8738514D01*
X5956808Y-8724900D01*
X5955893Y-8711285D01*
X5953150Y-8697925D01*
X5948680Y-8685022D01*
X5942533Y-8672880D01*
X5934811Y-8661654D01*
X5925667Y-8651494D01*
X5915253Y-8642705D01*
X5903772Y-8635390D01*
X5891377Y-8629650D01*
X5878372Y-8625586D01*
X5864910Y-8623350D01*
X5851296Y-8622893D01*
X5837732Y-8624214D01*
X5824474Y-8627414D01*
X5811723Y-8632291D01*
X5799785Y-8638844D01*
X5788812Y-8646922D01*
X5779008Y-8656421D01*
X5770524Y-8667140D01*
X5763564Y-8678875D01*
X5758281Y-8691422D01*
X5754674Y-8704580D01*
X5752846Y-8718092D01*
X5752846Y-8731707D01*
X5754674Y-8745220D01*
X5758281Y-8758377D01*
X5763564Y-8770924D01*
X5770524Y-8782659D01*
X5779008Y-8793378D01*
X5788812Y-8802878D01*
X5799785Y-8810955D01*
X5811723Y-8817508D01*
X5824474Y-8822385D01*
X5837732Y-8825585D01*
G37*
G36*
X271221Y-442518D02*
G01*
X289306Y-441147D01*
X307086Y-437896D01*
X324510Y-432816D01*
X341274Y-426008D01*
X357225Y-417474D01*
X372262Y-407365D01*
X386181Y-395782D01*
X398830Y-382828D01*
X410057Y-368604D01*
X419760Y-353314D01*
X427888Y-337159D01*
X434238Y-320192D01*
X438861Y-302666D01*
X441655Y-284784D01*
X442569Y-266700D01*
X441655Y-248615D01*
X438861Y-230733D01*
X434238Y-213207D01*
X427888Y-196240D01*
X419760Y-180086D01*
X410057Y-164795D01*
X398830Y-150571D01*
X386181Y-137617D01*
X372262Y-126034D01*
X357225Y-115925D01*
X341274Y-107391D01*
X324510Y-100584D01*
X307086Y-95504D01*
X289306Y-92252D01*
X271221Y-90881D01*
X253136Y-91338D01*
X235153Y-93675D01*
X217525Y-97790D01*
X200456Y-103784D01*
X184048Y-111455D01*
X168503Y-120751D01*
X154025Y-131622D01*
X140716Y-143916D01*
X128778Y-157530D01*
X118262Y-172313D01*
X109372Y-188061D01*
X102108Y-204673D01*
X96621Y-221894D01*
X92913Y-239623D01*
X91033Y-257657D01*
X91033Y-275742D01*
X92913Y-293776D01*
X96621Y-311505D01*
X102108Y-328726D01*
X109372Y-345338D01*
X118262Y-361086D01*
X128778Y-375869D01*
X140716Y-389483D01*
X154025Y-401777D01*
X168503Y-412648D01*
X184048Y-421944D01*
X200456Y-429615D01*
X217525Y-435609D01*
X235153Y-439724D01*
X253136Y-442061D01*
G37*
G36*
X5851296Y-8572906D02*
G01*
X5864910Y-8572449D01*
X5878372Y-8570214D01*
X5891377Y-8566150D01*
X5903772Y-8560409D01*
X5915253Y-8553094D01*
X5925667Y-8544306D01*
X5934811Y-8534146D01*
X5942533Y-8522919D01*
X5948680Y-8510778D01*
X5953150Y-8497874D01*
X5955893Y-8484514D01*
X5956808Y-8470900D01*
X5955385Y-8452256D01*
X5956350Y-8449056D01*
X5958281Y-8446363D01*
X6516370Y-7888274D01*
X6519824Y-7884515D01*
X6522770Y-7880654D01*
X6525412Y-7876540D01*
X6527647Y-7872222D01*
X6529527Y-7867700D01*
X6531000Y-7863078D01*
X6532067Y-7858302D01*
X6532676Y-7853476D01*
X6532930Y-7848396D01*
X6532930Y-3671773D01*
X6533692Y-3667861D01*
X6535877Y-3664610D01*
X6539179Y-3662375D01*
X6543090Y-3661613D01*
X6546951Y-3662375D01*
X6550253Y-3664610D01*
X6616293Y-3730650D01*
X6618528Y-3733952D01*
X6619290Y-3737813D01*
X6619290Y-4800295D01*
X6619798Y-4808321D01*
X6620103Y-4810404D01*
X6621881Y-4818176D01*
X6625590Y-4827524D01*
X6626555Y-4829403D01*
X6631990Y-4837836D01*
X6637375Y-4843881D01*
X7009333Y-5215890D01*
X7011263Y-5218582D01*
X7012228Y-5221732D01*
X7012127Y-5225034D01*
X7010806Y-5231790D01*
X7009892Y-5245100D01*
X7010806Y-5258409D01*
X7013397Y-5271516D01*
X7017664Y-5284165D01*
X7023608Y-5296154D01*
X7031024Y-5307228D01*
X7039813Y-5317286D01*
X7049871Y-5326075D01*
X7060946Y-5333492D01*
X7072934Y-5339435D01*
X7085584Y-5343702D01*
X7098690Y-5346293D01*
X7112355Y-5347208D01*
X7264044Y-5347208D01*
X7277709Y-5346293D01*
X7290816Y-5343702D01*
X7303465Y-5339435D01*
X7315453Y-5333492D01*
X7326528Y-5326075D01*
X7336586Y-5317286D01*
X7345375Y-5307228D01*
X7352792Y-5296154D01*
X7358735Y-5284165D01*
X7363002Y-5271516D01*
X7365593Y-5258409D01*
X7366508Y-5245100D01*
X7365593Y-5231790D01*
X7363002Y-5218684D01*
X7358735Y-5206034D01*
X7352792Y-5194046D01*
X7345375Y-5182971D01*
X7336586Y-5172913D01*
X7326528Y-5164124D01*
X7315453Y-5156708D01*
X7303465Y-5150764D01*
X7290816Y-5146497D01*
X7277709Y-5143906D01*
X7264044Y-5142992D01*
X7112914Y-5142992D01*
X7109053Y-5142230D01*
X7105751Y-5139994D01*
X7070750Y-5105044D01*
X7068362Y-5101234D01*
X7067854Y-5096764D01*
X7069328Y-5092496D01*
X7072477Y-5089296D01*
X7076744Y-5087772D01*
X7081215Y-5088229D01*
X7085584Y-5089702D01*
X7098690Y-5092293D01*
X7112355Y-5093208D01*
X7264044Y-5093208D01*
X7277709Y-5092293D01*
X7290816Y-5089702D01*
X7303465Y-5085435D01*
X7315453Y-5079492D01*
X7326528Y-5072075D01*
X7336586Y-5063286D01*
X7345375Y-5053228D01*
X7352792Y-5042154D01*
X7358735Y-5030165D01*
X7363002Y-5017516D01*
X7365746Y-5003698D01*
X7366762Y-5000904D01*
X7368540Y-4998516D01*
X7523124Y-4843881D01*
X7528509Y-4837836D01*
X7533944Y-4829403D01*
X7534909Y-4827524D01*
X7538618Y-4818176D01*
X7540396Y-4810404D01*
X7540701Y-4808321D01*
X7541209Y-4800295D01*
X7541209Y-2324506D01*
X7540345Y-2314092D01*
X7537856Y-2304338D01*
X7533843Y-2295144D01*
X7528356Y-2286711D01*
X7521549Y-2279294D01*
X7513624Y-2273147D01*
X7504023Y-2268016D01*
X4576622Y-1004468D01*
X4573371Y-1002182D01*
X4571187Y-998829D01*
X4570526Y-994918D01*
X4579518Y-606552D01*
X4580382Y-602742D01*
X4582617Y-599490D01*
X4585868Y-597357D01*
X4589678Y-596595D01*
X4596028Y-596595D01*
X4602327Y-595884D01*
X4607814Y-594004D01*
X4612690Y-590905D01*
X4616805Y-586790D01*
X4619904Y-581914D01*
X4621784Y-576427D01*
X4622495Y-570128D01*
X4622495Y-420471D01*
X4621784Y-414172D01*
X4619904Y-408686D01*
X4616805Y-403809D01*
X4612690Y-399694D01*
X4607814Y-396595D01*
X4602327Y-394716D01*
X4596028Y-394004D01*
X4446371Y-394004D01*
X4440072Y-394716D01*
X4434586Y-396595D01*
X4429709Y-399694D01*
X4425594Y-403809D01*
X4422495Y-408686D01*
X4420616Y-414172D01*
X4419904Y-420471D01*
X4419904Y-570128D01*
X4420616Y-576427D01*
X4422495Y-581914D01*
X4425594Y-586790D01*
X4429709Y-590905D01*
X4434586Y-594004D01*
X4440072Y-595884D01*
X4447540Y-596595D01*
X4451451Y-597408D01*
X4454804Y-599643D01*
X4456988Y-603046D01*
X4457700Y-607009D01*
X4447590Y-1041400D01*
X4448505Y-1051763D01*
X4451045Y-1061516D01*
X4455160Y-1070711D01*
X4460697Y-1079093D01*
X4467555Y-1086408D01*
X4475530Y-1092555D01*
X4484725Y-1097483D01*
X7413244Y-2361488D01*
X7416495Y-2363724D01*
X7418628Y-2366975D01*
X7419390Y-2370836D01*
X7419390Y-4771186D01*
X7418628Y-4775047D01*
X7416393Y-4778349D01*
X7303820Y-4890922D01*
X7300722Y-4893056D01*
X7297115Y-4893868D01*
X7293406Y-4893360D01*
X7290816Y-4892497D01*
X7277709Y-4889906D01*
X7264044Y-4888992D01*
X7112355Y-4888992D01*
X7098690Y-4889906D01*
X7085584Y-4892497D01*
X7072934Y-4896764D01*
X7060946Y-4902708D01*
X7049871Y-4910124D01*
X7039813Y-4918913D01*
X7031024Y-4928971D01*
X7023608Y-4940046D01*
X7017664Y-4952034D01*
X7013397Y-4964684D01*
X7010806Y-4977790D01*
X7009892Y-4991100D01*
X7010806Y-5004409D01*
X7013397Y-5017516D01*
X7014870Y-5021884D01*
X7015327Y-5026355D01*
X7013803Y-5030622D01*
X7010603Y-5033772D01*
X7006336Y-5035245D01*
X7001865Y-5034737D01*
X6998055Y-5032349D01*
X6744106Y-4778349D01*
X6741871Y-4775047D01*
X6741109Y-4771186D01*
X6741109Y-3708704D01*
X6740601Y-3700678D01*
X6740296Y-3698595D01*
X6738518Y-3690823D01*
X6734809Y-3681476D01*
X6733844Y-3679596D01*
X6728409Y-3671163D01*
X6723024Y-3665118D01*
X5345684Y-2287778D01*
X5343398Y-2284272D01*
X5342737Y-2280158D01*
X5343753Y-2276144D01*
X5346293Y-2272842D01*
X5349951Y-2270861D01*
X5354066Y-2270506D01*
X5358028Y-2271826D01*
X5362956Y-2274722D01*
X5370830Y-2278837D01*
X5378907Y-2282545D01*
X5387187Y-2285847D01*
X5395620Y-2288743D01*
X5404205Y-2291181D01*
X5412892Y-2293213D01*
X5421680Y-2294788D01*
X5430520Y-2295906D01*
X5439410Y-2296566D01*
X5448452Y-2296820D01*
X6044336Y-2296820D01*
X6048197Y-2297582D01*
X6051499Y-2299766D01*
X7009333Y-3257600D01*
X7011517Y-3260902D01*
X7012279Y-3264763D01*
X7012279Y-4381246D01*
X7013194Y-4399280D01*
X7015886Y-4416907D01*
X7020153Y-4433417D01*
X7020458Y-4436973D01*
X7019442Y-4440428D01*
X7017664Y-4444034D01*
X7013397Y-4456684D01*
X7010806Y-4469790D01*
X7009892Y-4483100D01*
X7010806Y-4496409D01*
X7013397Y-4509516D01*
X7017664Y-4522165D01*
X7023608Y-4534154D01*
X7031024Y-4545228D01*
X7039813Y-4555286D01*
X7049871Y-4564075D01*
X7060946Y-4571492D01*
X7072934Y-4577435D01*
X7085584Y-4581702D01*
X7098690Y-4584293D01*
X7112355Y-4585208D01*
X7264044Y-4585208D01*
X7277709Y-4584293D01*
X7290816Y-4581702D01*
X7303465Y-4577435D01*
X7315453Y-4571492D01*
X7326528Y-4564075D01*
X7336586Y-4555286D01*
X7345375Y-4545228D01*
X7352792Y-4534154D01*
X7358735Y-4522165D01*
X7363002Y-4509516D01*
X7365593Y-4496409D01*
X7366508Y-4483100D01*
X7365593Y-4469790D01*
X7363002Y-4456684D01*
X7358735Y-4444034D01*
X7356957Y-4440428D01*
X7355941Y-4436973D01*
X7356246Y-4433417D01*
X7360513Y-4416907D01*
X7363206Y-4399280D01*
X7364120Y-4381246D01*
X7364120Y-3187903D01*
X7363612Y-3174238D01*
X7363206Y-3170021D01*
X7361326Y-3156559D01*
X7360513Y-3152394D01*
X7357262Y-3139186D01*
X7356094Y-3135172D01*
X7351522Y-3122320D01*
X7349896Y-3118459D01*
X7344054Y-3106166D01*
X7342073Y-3102457D01*
X7335012Y-3090773D01*
X7332675Y-3087319D01*
X7324445Y-3076448D01*
X7321753Y-3073196D01*
X7312456Y-3063189D01*
X6245910Y-1996643D01*
X6235903Y-1987346D01*
X6232652Y-1984654D01*
X6221780Y-1976424D01*
X6218326Y-1974088D01*
X6206642Y-1967026D01*
X6202934Y-1965045D01*
X6190640Y-1959203D01*
X6186779Y-1957578D01*
X6173927Y-1953006D01*
X6169914Y-1951837D01*
X6156706Y-1948586D01*
X6152540Y-1947773D01*
X6139078Y-1945893D01*
X6134862Y-1945487D01*
X6121196Y-1944979D01*
X5634380Y-1944979D01*
X5630468Y-1944217D01*
X5627166Y-1942033D01*
X5624982Y-1938731D01*
X5624220Y-1934819D01*
X5624220Y-1867052D01*
X5623966Y-1858010D01*
X5623306Y-1849120D01*
X5622188Y-1840280D01*
X5620613Y-1831492D01*
X5618581Y-1822805D01*
X5616143Y-1814220D01*
X5613247Y-1805787D01*
X5609945Y-1797507D01*
X5606237Y-1789430D01*
X5602122Y-1781556D01*
X5597601Y-1773834D01*
X5592673Y-1766417D01*
X5587390Y-1759204D01*
X5581751Y-1752346D01*
X5575808Y-1745691D01*
X5569508Y-1739392D01*
X5562904Y-1733448D01*
X5555996Y-1727809D01*
X5548782Y-1722526D01*
X5541365Y-1717598D01*
X5533644Y-1713077D01*
X5525770Y-1708962D01*
X5517692Y-1705254D01*
X5509412Y-1701952D01*
X5500979Y-1699056D01*
X5492394Y-1696618D01*
X5483707Y-1694586D01*
X5474919Y-1693011D01*
X5466080Y-1691893D01*
X5457190Y-1691233D01*
X5448300Y-1690979D01*
X5439410Y-1691233D01*
X5430520Y-1691893D01*
X5421680Y-1693011D01*
X5412892Y-1694586D01*
X5404205Y-1696618D01*
X5395620Y-1699056D01*
X5387187Y-1701952D01*
X5378907Y-1705254D01*
X5370830Y-1708962D01*
X5362956Y-1713077D01*
X5355234Y-1717598D01*
X5347817Y-1722526D01*
X5340604Y-1727809D01*
X5333746Y-1733448D01*
X5327091Y-1739392D01*
X5320792Y-1745691D01*
X5314848Y-1752346D01*
X5309209Y-1759204D01*
X5303926Y-1766417D01*
X5298998Y-1773834D01*
X5294477Y-1781556D01*
X5290362Y-1789430D01*
X5286654Y-1797507D01*
X5283352Y-1805787D01*
X5280456Y-1814220D01*
X5278018Y-1822805D01*
X5275986Y-1831492D01*
X5274411Y-1840280D01*
X5273294Y-1849120D01*
X5272633Y-1858010D01*
X5272379Y-1867052D01*
X5272379Y-2120747D01*
X5272633Y-2129790D01*
X5273294Y-2138680D01*
X5274411Y-2147519D01*
X5275986Y-2156307D01*
X5278018Y-2164994D01*
X5280456Y-2173579D01*
X5283352Y-2182012D01*
X5286654Y-2190292D01*
X5290362Y-2198370D01*
X5294477Y-2206244D01*
X5297373Y-2211171D01*
X5298694Y-2215134D01*
X5298338Y-2219248D01*
X5296357Y-2222906D01*
X5293055Y-2225446D01*
X5289042Y-2226462D01*
X5284927Y-2225802D01*
X5281422Y-2223516D01*
X4331106Y-1273149D01*
X4328871Y-1269847D01*
X4328109Y-1265986D01*
X4328109Y-580847D01*
X4329074Y-576580D01*
X4331716Y-573074D01*
X4337608Y-568096D01*
X4346702Y-558088D01*
X4354322Y-546912D01*
X4360468Y-534822D01*
X4364888Y-522071D01*
X4367580Y-508812D01*
X4368495Y-495300D01*
X4367580Y-481787D01*
X4364888Y-468528D01*
X4360468Y-455777D01*
X4354322Y-443687D01*
X4346702Y-432511D01*
X4337608Y-422503D01*
X4327296Y-413766D01*
X4315866Y-406501D01*
X4303623Y-400761D01*
X4290669Y-396798D01*
X4277360Y-394512D01*
X4263796Y-394055D01*
X4250334Y-395427D01*
X4237177Y-398576D01*
X4224578Y-403402D01*
X4212691Y-409905D01*
X4201820Y-417931D01*
X4192066Y-427380D01*
X4183684Y-437997D01*
X4176776Y-449630D01*
X4171543Y-462076D01*
X4167936Y-475132D01*
X4166158Y-488543D01*
X4166158Y-502056D01*
X4167936Y-515467D01*
X4171543Y-528523D01*
X4176776Y-540969D01*
X4183684Y-552602D01*
X4192066Y-563219D01*
X4204360Y-575157D01*
X4205782Y-577951D01*
X4206290Y-581101D01*
X4206290Y-1295095D01*
X4206798Y-1303121D01*
X4207103Y-1305204D01*
X4208881Y-1312976D01*
X4212590Y-1322324D01*
X4213555Y-1324203D01*
X4218990Y-1332636D01*
X4224375Y-1338681D01*
X4520133Y-1634439D01*
X4522419Y-1637944D01*
X4523079Y-1642110D01*
X4522063Y-1646123D01*
X4519472Y-1649425D01*
X4515764Y-1651406D01*
X4510532Y-1652930D01*
X4500981Y-1657451D01*
X4492244Y-1663496D01*
X4484573Y-1670812D01*
X4478223Y-1679295D01*
X4473295Y-1688693D01*
X4469942Y-1698752D01*
X4468215Y-1709216D01*
X4468215Y-1719783D01*
X4469942Y-1730248D01*
X4473295Y-1740306D01*
X4478223Y-1749704D01*
X4484573Y-1758188D01*
X4492244Y-1765503D01*
X4500981Y-1771548D01*
X4510532Y-1776069D01*
X4516323Y-1777746D01*
X4518660Y-1778762D01*
X4520692Y-1780336D01*
X5132476Y-2392121D01*
X5134711Y-2395524D01*
X5135473Y-2399538D01*
X5134559Y-2403500D01*
X5132222Y-2406751D01*
X5128717Y-2408885D01*
X5124704Y-2409494D01*
X5120792Y-2408428D01*
X5119065Y-2407564D01*
X5106416Y-2403297D01*
X5093309Y-2400706D01*
X5079644Y-2399792D01*
X5029555Y-2399792D01*
X5015890Y-2400706D01*
X5002784Y-2403297D01*
X4990134Y-2407564D01*
X4978146Y-2413508D01*
X4967071Y-2420924D01*
X4957013Y-2429713D01*
X4948224Y-2439771D01*
X4940808Y-2450846D01*
X4934864Y-2462834D01*
X4930597Y-2475484D01*
X4928006Y-2488590D01*
X4927092Y-2501900D01*
X4928006Y-2515209D01*
X4930597Y-2528316D01*
X4934864Y-2540965D01*
X4940808Y-2552954D01*
X4948224Y-2564028D01*
X4957013Y-2574086D01*
X4967071Y-2582875D01*
X4978146Y-2590292D01*
X4990134Y-2596235D01*
X5002784Y-2600502D01*
X5015890Y-2603093D01*
X5029555Y-2604008D01*
X5079644Y-2604008D01*
X5093309Y-2603093D01*
X5106416Y-2600502D01*
X5119065Y-2596235D01*
X5131054Y-2590292D01*
X5142128Y-2582875D01*
X5152186Y-2574086D01*
X5160975Y-2564028D01*
X5168392Y-2552954D01*
X5174335Y-2540965D01*
X5178602Y-2528316D01*
X5181193Y-2515209D01*
X5182108Y-2501900D01*
X5181193Y-2488590D01*
X5178602Y-2475484D01*
X5174335Y-2462834D01*
X5173472Y-2461107D01*
X5172405Y-2457196D01*
X5173014Y-2453182D01*
X5175148Y-2449677D01*
X5178399Y-2447340D01*
X5182362Y-2446426D01*
X5186375Y-2447188D01*
X5189778Y-2449423D01*
X6418122Y-3677767D01*
X6420307Y-3681069D01*
X6421069Y-3684981D01*
X6421069Y-7821218D01*
X6420307Y-7825130D01*
X6418122Y-7828432D01*
X5879134Y-8367420D01*
X5876544Y-8369300D01*
X5873496Y-8370265D01*
X5870244Y-8370214D01*
X5864910Y-8369350D01*
X5851296Y-8368893D01*
X5837732Y-8370214D01*
X5824474Y-8373414D01*
X5811723Y-8378291D01*
X5799785Y-8384844D01*
X5788812Y-8392922D01*
X5779008Y-8402421D01*
X5770524Y-8413140D01*
X5763564Y-8424875D01*
X5758281Y-8437422D01*
X5754674Y-8450580D01*
X5752846Y-8464092D01*
X5752846Y-8477707D01*
X5754674Y-8491220D01*
X5758281Y-8504377D01*
X5763564Y-8516924D01*
X5770524Y-8528659D01*
X5779008Y-8539378D01*
X5788812Y-8548878D01*
X5799785Y-8556955D01*
X5811723Y-8563508D01*
X5824474Y-8568385D01*
X5837732Y-8571585D01*
G37*
G36*
X3668115Y-451256D02*
G01*
X3715156Y-451256D01*
X3715156Y-404215D01*
X3704691Y-409905D01*
X3693820Y-417931D01*
X3684066Y-427380D01*
X3675684Y-437997D01*
X3668776Y-449630D01*
G37*
G36*
X3803243Y-451256D02*
G01*
X3850182Y-451256D01*
X3846322Y-443687D01*
X3838701Y-432511D01*
X3829608Y-422503D01*
X3819296Y-413766D01*
X3807866Y-406501D01*
X3803243Y-404317D01*
G37*
G36*
X3803243Y-586282D02*
G01*
X3807866Y-584098D01*
X3819296Y-576834D01*
X3829608Y-568096D01*
X3838701Y-558088D01*
X3846322Y-546912D01*
X3850182Y-539343D01*
X3803243Y-539343D01*
G37*
G36*
X5851296Y-8318906D02*
G01*
X5864910Y-8318449D01*
X5878372Y-8316214D01*
X5891377Y-8312150D01*
X5903772Y-8306409D01*
X5915253Y-8299094D01*
X5925667Y-8290306D01*
X5934811Y-8280146D01*
X5942533Y-8268919D01*
X5948680Y-8256778D01*
X5953150Y-8243874D01*
X5955893Y-8230514D01*
X5956808Y-8216900D01*
X5955893Y-8203285D01*
X5953150Y-8189925D01*
X5948680Y-8177022D01*
X5942533Y-8164880D01*
X5934811Y-8153653D01*
X5925667Y-8143494D01*
X5915253Y-8134705D01*
X5903772Y-8127390D01*
X5891377Y-8121650D01*
X5878372Y-8117586D01*
X5864910Y-8115350D01*
X5851296Y-8114893D01*
X5837732Y-8116214D01*
X5824474Y-8119414D01*
X5811723Y-8124291D01*
X5799785Y-8130844D01*
X5788812Y-8138922D01*
X5779008Y-8148421D01*
X5770524Y-8159140D01*
X5763564Y-8170875D01*
X5758281Y-8183422D01*
X5754674Y-8196580D01*
X5752846Y-8210092D01*
X5752846Y-8223707D01*
X5754674Y-8237220D01*
X5758281Y-8250377D01*
X5763564Y-8262924D01*
X5770524Y-8274659D01*
X5779008Y-8285378D01*
X5788812Y-8294878D01*
X5799785Y-8302955D01*
X5811723Y-8309508D01*
X5824474Y-8314385D01*
X5837732Y-8317585D01*
G37*
G36*
X3715156Y-586384D02*
G01*
X3715156Y-539343D01*
X3668115Y-539343D01*
X3668776Y-540969D01*
X3675684Y-552602D01*
X3684066Y-563219D01*
X3693820Y-572668D01*
X3704691Y-580694D01*
G37*
G36*
X5810250Y-8054695D02*
G01*
X5810250Y-8007350D01*
X5762904Y-8007350D01*
X5763564Y-8008924D01*
X5770524Y-8020659D01*
X5779008Y-8031378D01*
X5788812Y-8040878D01*
X5799785Y-8048955D01*
G37*
G36*
X5899150Y-8054543D02*
G01*
X5903772Y-8052409D01*
X5915253Y-8045094D01*
X5925667Y-8036306D01*
X5934811Y-8026146D01*
X5942533Y-8014919D01*
X5946343Y-8007350D01*
X5899150Y-8007350D01*
G37*
G36*
X5899150Y-7918450D02*
G01*
X5946343Y-7918450D01*
X5942533Y-7910880D01*
X5934811Y-7899653D01*
X5925667Y-7889494D01*
X5915253Y-7880705D01*
X5903772Y-7873390D01*
X5899150Y-7871256D01*
G37*
G36*
X5762904Y-7918450D02*
G01*
X5810250Y-7918450D01*
X5810250Y-7871104D01*
X5799785Y-7876844D01*
X5788812Y-7884922D01*
X5779008Y-7894421D01*
X5770524Y-7905140D01*
X5763564Y-7916875D01*
G37*
G36*
X5851296Y-7810906D02*
G01*
X5864910Y-7810449D01*
X5878372Y-7808214D01*
X5891377Y-7804150D01*
X5903772Y-7798409D01*
X5915253Y-7791094D01*
X5925667Y-7782306D01*
X5934811Y-7772146D01*
X5942533Y-7760919D01*
X5948680Y-7748778D01*
X5953150Y-7735874D01*
X5955893Y-7722514D01*
X5956808Y-7708900D01*
X5955893Y-7695285D01*
X5953150Y-7681925D01*
X5948680Y-7669022D01*
X5942533Y-7656880D01*
X5934811Y-7645653D01*
X5925667Y-7635494D01*
X5915253Y-7626705D01*
X5903772Y-7619390D01*
X5891377Y-7613650D01*
X5878372Y-7609586D01*
X5864910Y-7607350D01*
X5851296Y-7606893D01*
X5837732Y-7608214D01*
X5824474Y-7611414D01*
X5811723Y-7616291D01*
X5799785Y-7622844D01*
X5788812Y-7630922D01*
X5779008Y-7640421D01*
X5770524Y-7651140D01*
X5763564Y-7662875D01*
X5758281Y-7675422D01*
X5754674Y-7688580D01*
X5752846Y-7702092D01*
X5752846Y-7715707D01*
X5754674Y-7729220D01*
X5758281Y-7742377D01*
X5763564Y-7754924D01*
X5770524Y-7766659D01*
X5779008Y-7777378D01*
X5788812Y-7786878D01*
X5799785Y-7794955D01*
X5811723Y-7801508D01*
X5824474Y-7806385D01*
X5837732Y-7809585D01*
G37*
G36*
X6657390Y-7516926D02*
G01*
X7086295Y-7516926D01*
X7103516Y-7515961D01*
X7120178Y-7513116D01*
X7136434Y-7508443D01*
X7152081Y-7501940D01*
X7166864Y-7493762D01*
X7180681Y-7483957D01*
X7193534Y-7472527D01*
X7967827Y-6698234D01*
X7979257Y-6685381D01*
X7989062Y-6671564D01*
X7997240Y-6656781D01*
X8003743Y-6641134D01*
X8008416Y-6624878D01*
X8011261Y-6608216D01*
X8012226Y-6590995D01*
X8012226Y-2314600D01*
X8012988Y-2310739D01*
X8015173Y-2307437D01*
X8072831Y-2249779D01*
X8076133Y-2247595D01*
X8079994Y-2246833D01*
X8087715Y-2246833D01*
X8094065Y-2246071D01*
X8099501Y-2244191D01*
X8104428Y-2241092D01*
X8108492Y-2237028D01*
X8111591Y-2232101D01*
X8113471Y-2226665D01*
X8114233Y-2220315D01*
X8114233Y-2207056D01*
X8114538Y-2204466D01*
X8115503Y-2202078D01*
X8124240Y-2186330D01*
X8130743Y-2170734D01*
X8135416Y-2154478D01*
X8138261Y-2137816D01*
X8139226Y-2120595D01*
X8139226Y-1867204D01*
X8138261Y-1849983D01*
X8135416Y-1833321D01*
X8130743Y-1817065D01*
X8124240Y-1801469D01*
X8115503Y-1785721D01*
X8114538Y-1783334D01*
X8114233Y-1780743D01*
X8114233Y-1767484D01*
X8113471Y-1761134D01*
X8111591Y-1755698D01*
X8108492Y-1750771D01*
X8104428Y-1746707D01*
X8099501Y-1743608D01*
X8094065Y-1741728D01*
X8087715Y-1741017D01*
X8074456Y-1741017D01*
X8071866Y-1740662D01*
X8069478Y-1739696D01*
X8053730Y-1730959D01*
X8038134Y-1724456D01*
X8021878Y-1719783D01*
X8005216Y-1716938D01*
X7988300Y-1716024D01*
X7971383Y-1716938D01*
X7954721Y-1719783D01*
X7938465Y-1724456D01*
X7922869Y-1730959D01*
X7907121Y-1739696D01*
X7904734Y-1740662D01*
X7902143Y-1741017D01*
X7888884Y-1741017D01*
X7882534Y-1741728D01*
X7877098Y-1743608D01*
X7872171Y-1746707D01*
X7868107Y-1750771D01*
X7865008Y-1755698D01*
X7863128Y-1761134D01*
X7862417Y-1767484D01*
X7862417Y-1780743D01*
X7862062Y-1783334D01*
X7861096Y-1785721D01*
X7852359Y-1801469D01*
X7845856Y-1817065D01*
X7841183Y-1833321D01*
X7838338Y-1849983D01*
X7837373Y-1867204D01*
X7837373Y-2054199D01*
X7836611Y-2058060D01*
X7834426Y-2061362D01*
X7754772Y-2140966D01*
X7743342Y-2153818D01*
X7733538Y-2167636D01*
X7725359Y-2182418D01*
X7718856Y-2198065D01*
X7714183Y-2214321D01*
X7711338Y-2230983D01*
X7710373Y-2248204D01*
X7710373Y-6524599D01*
X7709611Y-6528460D01*
X7707426Y-6531762D01*
X7027062Y-7212126D01*
X7023760Y-7214311D01*
X7019899Y-7215073D01*
X6657390Y-7215124D01*
X6651040Y-7215835D01*
X6645605Y-7217714D01*
X6640677Y-7220813D01*
X6636613Y-7224877D01*
X6633514Y-7229805D01*
X6631635Y-7235240D01*
X6630924Y-7241590D01*
X6630924Y-7490409D01*
X6631635Y-7496759D01*
X6633514Y-7502194D01*
X6636613Y-7507122D01*
X6640677Y-7511186D01*
X6645605Y-7514285D01*
X6651040Y-7516164D01*
G37*
G36*
X4009796Y-596544D02*
G01*
X4023360Y-596087D01*
X4036669Y-593801D01*
X4049623Y-589838D01*
X4061866Y-584098D01*
X4073296Y-576834D01*
X4083608Y-568096D01*
X4092701Y-558088D01*
X4100322Y-546912D01*
X4106468Y-534822D01*
X4110888Y-522071D01*
X4113580Y-508812D01*
X4114495Y-495300D01*
X4113580Y-481787D01*
X4110888Y-468528D01*
X4106468Y-455777D01*
X4100322Y-443687D01*
X4092701Y-432511D01*
X4083608Y-422503D01*
X4073296Y-413766D01*
X4061866Y-406501D01*
X4049623Y-400761D01*
X4036669Y-396798D01*
X4023360Y-394512D01*
X4009796Y-394055D01*
X3996334Y-395427D01*
X3983177Y-398576D01*
X3970578Y-403402D01*
X3958691Y-409905D01*
X3947820Y-417931D01*
X3938066Y-427380D01*
X3929684Y-437997D01*
X3922776Y-449630D01*
X3917543Y-462076D01*
X3913936Y-475132D01*
X3912158Y-488543D01*
X3912158Y-502056D01*
X3913936Y-515467D01*
X3917543Y-528523D01*
X3922776Y-540969D01*
X3929684Y-552602D01*
X3938066Y-563219D01*
X3947820Y-572668D01*
X3958691Y-580694D01*
X3970578Y-587197D01*
X3983177Y-592023D01*
X3996334Y-595172D01*
G37*
G36*
X961796Y-596544D02*
G01*
X975360Y-596087D01*
X988669Y-593801D01*
X1001623Y-589838D01*
X1013866Y-584098D01*
X1025296Y-576834D01*
X1035608Y-568096D01*
X1044702Y-558088D01*
X1052322Y-546912D01*
X1058468Y-534822D01*
X1062888Y-522071D01*
X1065580Y-508812D01*
X1066495Y-495300D01*
X1065580Y-481787D01*
X1062888Y-468528D01*
X1058468Y-455777D01*
X1052322Y-443687D01*
X1044702Y-432511D01*
X1035608Y-422503D01*
X1025296Y-413766D01*
X1013866Y-406501D01*
X1001623Y-400761D01*
X988669Y-396798D01*
X975360Y-394512D01*
X961796Y-394055D01*
X948334Y-395427D01*
X935177Y-398576D01*
X922578Y-403402D01*
X910691Y-409905D01*
X899820Y-417931D01*
X890066Y-427380D01*
X881684Y-437997D01*
X874776Y-449630D01*
X869543Y-462076D01*
X865936Y-475132D01*
X864158Y-488543D01*
X864158Y-502056D01*
X865936Y-515467D01*
X869543Y-528523D01*
X874776Y-540969D01*
X881684Y-552602D01*
X890066Y-563219D01*
X899820Y-572668D01*
X910691Y-580694D01*
X922578Y-587197D01*
X935177Y-592023D01*
X948334Y-595172D01*
G37*
G36*
X8044637Y-667562D02*
G01*
X8100720Y-667562D01*
X8099755Y-665378D01*
X8091881Y-652373D01*
X8082534Y-640435D01*
X8071764Y-629666D01*
X8059826Y-620268D01*
X8046821Y-612444D01*
X8044637Y-611479D01*
G37*
G36*
X5504637Y-667562D02*
G01*
X5560720Y-667562D01*
X5559755Y-665378D01*
X5551881Y-652373D01*
X5542534Y-640435D01*
X5531764Y-629666D01*
X5519826Y-620268D01*
X5506821Y-612444D01*
X5504637Y-611479D01*
G37*
G36*
X7875879Y-667562D02*
G01*
X7931962Y-667562D01*
X7931962Y-611479D01*
X7929778Y-612444D01*
X7916773Y-620268D01*
X7904835Y-629666D01*
X7894066Y-640435D01*
X7884718Y-652373D01*
X7876844Y-665378D01*
G37*
G36*
X5335879Y-667562D02*
G01*
X5391962Y-667562D01*
X5391962Y-611479D01*
X5389778Y-612444D01*
X5376773Y-620268D01*
X5364835Y-629666D01*
X5354066Y-640435D01*
X5344668Y-652373D01*
X5336844Y-665378D01*
G37*
G36*
X5391962Y-836320D02*
G01*
X5391962Y-780237D01*
X5335879Y-780237D01*
X5336844Y-782421D01*
X5344668Y-795426D01*
X5354066Y-807364D01*
X5364835Y-818134D01*
X5376773Y-827481D01*
X5389778Y-835355D01*
G37*
G36*
X7931962Y-836320D02*
G01*
X7931962Y-780237D01*
X7875879Y-780237D01*
X7876844Y-782421D01*
X7884718Y-795426D01*
X7894066Y-807364D01*
X7904835Y-818134D01*
X7916773Y-827481D01*
X7929778Y-835355D01*
G37*
G36*
X8044637Y-836320D02*
G01*
X8046821Y-835355D01*
X8059826Y-827481D01*
X8071764Y-818134D01*
X8082534Y-807364D01*
X8091881Y-795426D01*
X8099755Y-782421D01*
X8100720Y-780237D01*
X8044637Y-780237D01*
G37*
G36*
X5504637Y-836320D02*
G01*
X5506821Y-835355D01*
X5519826Y-827481D01*
X5531764Y-818134D01*
X5542534Y-807364D01*
X5551881Y-795426D01*
X5559755Y-782421D01*
X5560720Y-780237D01*
X5504637Y-780237D01*
G37*
G36*
X8044637Y-921562D02*
G01*
X8100720Y-921562D01*
X8099755Y-919378D01*
X8091881Y-906373D01*
X8082534Y-894435D01*
X8071764Y-883666D01*
X8059826Y-874268D01*
X8046821Y-866444D01*
X8044637Y-865479D01*
G37*
G36*
X5504637Y-921562D02*
G01*
X5560720Y-921562D01*
X5559755Y-919378D01*
X5551881Y-906373D01*
X5542534Y-894435D01*
X5531764Y-883666D01*
X5519826Y-874268D01*
X5506821Y-866444D01*
X5504637Y-865479D01*
G37*
G36*
X5335879Y-921562D02*
G01*
X5391962Y-921562D01*
X5391962Y-865479D01*
X5389778Y-866444D01*
X5376773Y-874268D01*
X5364835Y-883666D01*
X5354066Y-894435D01*
X5344668Y-906373D01*
X5336844Y-919378D01*
G37*
G36*
X7875879Y-921562D02*
G01*
X7931962Y-921562D01*
X7931962Y-865479D01*
X7929778Y-866444D01*
X7916773Y-874268D01*
X7904835Y-883666D01*
X7894066Y-894435D01*
X7884718Y-906373D01*
X7876844Y-919378D01*
G37*
G36*
X4572355Y-6045708D02*
G01*
X4622444Y-6045708D01*
X4636109Y-6044793D01*
X4649216Y-6042202D01*
X4661865Y-6037935D01*
X4673854Y-6031992D01*
X4684928Y-6024575D01*
X4694986Y-6015786D01*
X4703775Y-6005728D01*
X4711192Y-5994654D01*
X4717135Y-5982665D01*
X4721402Y-5970016D01*
X4723993Y-5956909D01*
X4724908Y-5943600D01*
X4723993Y-5930290D01*
X4721402Y-5917184D01*
X4717135Y-5904534D01*
X4711192Y-5892546D01*
X4703775Y-5881471D01*
X4694986Y-5871413D01*
X4682490Y-5860338D01*
X4680966Y-5857392D01*
X4680407Y-5854141D01*
X4680407Y-5288584D01*
X4681067Y-5285028D01*
X4682845Y-5281930D01*
X4685639Y-5279644D01*
X4697120Y-5273344D01*
X4710480Y-5263845D01*
X4722672Y-5252974D01*
X4733544Y-5240782D01*
X4743043Y-5227421D01*
X4750968Y-5213096D01*
X4757216Y-5198008D01*
X4761738Y-5182260D01*
X4764481Y-5166156D01*
X4765395Y-5149799D01*
X4764481Y-5133441D01*
X4761738Y-5117338D01*
X4757216Y-5101590D01*
X4750968Y-5086502D01*
X4743043Y-5072176D01*
X4733544Y-5058816D01*
X4722672Y-5046624D01*
X4710480Y-5035753D01*
X4697120Y-5026253D01*
X4682794Y-5018328D01*
X4667707Y-5012080D01*
X4651959Y-5007559D01*
X4635855Y-5004816D01*
X4619498Y-5003901D01*
X4603140Y-5004816D01*
X4587036Y-5007559D01*
X4571288Y-5012080D01*
X4556201Y-5018328D01*
X4541875Y-5026253D01*
X4528515Y-5035753D01*
X4516323Y-5046624D01*
X4505452Y-5058816D01*
X4495952Y-5072176D01*
X4488027Y-5086502D01*
X4481779Y-5101590D01*
X4477258Y-5117338D01*
X4474514Y-5133441D01*
X4473600Y-5149799D01*
X4474514Y-5166156D01*
X4477258Y-5182260D01*
X4481779Y-5198008D01*
X4488027Y-5213096D01*
X4495952Y-5227421D01*
X4505452Y-5240782D01*
X4516323Y-5252974D01*
X4528515Y-5263845D01*
X4541875Y-5273344D01*
X4553356Y-5279694D01*
X4556150Y-5281930D01*
X4557979Y-5285028D01*
X4558588Y-5288584D01*
X4558588Y-5834075D01*
X4557979Y-5837478D01*
X4556302Y-5840526D01*
X4553661Y-5842762D01*
X4550410Y-5844032D01*
X4545584Y-5844997D01*
X4532934Y-5849264D01*
X4520946Y-5855208D01*
X4509871Y-5862624D01*
X4499813Y-5871413D01*
X4491024Y-5881471D01*
X4483608Y-5892546D01*
X4477664Y-5904534D01*
X4473397Y-5917184D01*
X4470806Y-5930290D01*
X4469892Y-5943600D01*
X4470806Y-5956909D01*
X4473397Y-5970016D01*
X4477664Y-5982665D01*
X4483608Y-5994654D01*
X4491024Y-6005728D01*
X4499813Y-6015786D01*
X4509871Y-6024575D01*
X4520946Y-6031992D01*
X4532934Y-6037935D01*
X4545584Y-6042202D01*
X4558690Y-6044793D01*
G37*
G36*
X4966055Y-6045708D02*
G01*
X5016144Y-6045708D01*
X5029809Y-6044793D01*
X5042916Y-6042202D01*
X5055565Y-6037935D01*
X5067554Y-6031992D01*
X5078628Y-6024575D01*
X5088686Y-6015786D01*
X5097475Y-6005728D01*
X5104892Y-5994654D01*
X5110835Y-5982665D01*
X5115102Y-5970016D01*
X5117693Y-5956909D01*
X5118608Y-5943600D01*
X5117693Y-5930290D01*
X5115102Y-5917184D01*
X5110835Y-5904534D01*
X5104892Y-5892546D01*
X5097475Y-5881471D01*
X5088686Y-5871413D01*
X5083860Y-5867196D01*
X5081320Y-5863742D01*
X5080406Y-5859576D01*
X5080406Y-5288534D01*
X5081066Y-5285028D01*
X5082844Y-5281930D01*
X5085638Y-5279644D01*
X5097119Y-5273344D01*
X5110480Y-5263845D01*
X5122672Y-5252974D01*
X5133543Y-5240782D01*
X5143042Y-5227421D01*
X5150967Y-5213096D01*
X5157216Y-5198008D01*
X5161737Y-5182260D01*
X5164480Y-5166156D01*
X5165394Y-5149799D01*
X5164480Y-5133441D01*
X5161737Y-5117338D01*
X5157216Y-5101590D01*
X5150967Y-5086502D01*
X5143042Y-5072176D01*
X5133543Y-5058816D01*
X5122672Y-5046624D01*
X5110480Y-5035753D01*
X5097119Y-5026253D01*
X5082794Y-5018328D01*
X5067706Y-5012080D01*
X5051958Y-5007559D01*
X5035854Y-5004816D01*
X5019497Y-5003901D01*
X5003139Y-5004816D01*
X4987036Y-5007559D01*
X4971288Y-5012080D01*
X4956200Y-5018328D01*
X4941874Y-5026253D01*
X4928514Y-5035753D01*
X4916322Y-5046624D01*
X4905451Y-5058816D01*
X4895951Y-5072176D01*
X4888026Y-5086502D01*
X4881778Y-5101590D01*
X4877257Y-5117338D01*
X4874514Y-5133441D01*
X4873599Y-5149799D01*
X4874514Y-5166156D01*
X4877257Y-5182260D01*
X4881778Y-5198008D01*
X4888026Y-5213096D01*
X4895951Y-5227421D01*
X4905451Y-5240782D01*
X4916322Y-5252974D01*
X4928514Y-5263845D01*
X4941874Y-5273344D01*
X4953355Y-5279694D01*
X4956149Y-5281930D01*
X4957978Y-5285028D01*
X4958588Y-5288584D01*
X4958588Y-5832805D01*
X4957978Y-5836259D01*
X4956302Y-5839256D01*
X4953660Y-5841542D01*
X4950409Y-5842762D01*
X4939284Y-5844997D01*
X4926634Y-5849264D01*
X4914646Y-5855208D01*
X4903571Y-5862624D01*
X4893513Y-5871413D01*
X4884724Y-5881471D01*
X4877308Y-5892546D01*
X4871364Y-5904534D01*
X4867097Y-5917184D01*
X4864506Y-5930290D01*
X4863592Y-5943600D01*
X4864506Y-5956909D01*
X4867097Y-5970016D01*
X4871364Y-5982665D01*
X4877308Y-5994654D01*
X4884724Y-6005728D01*
X4893513Y-6015786D01*
X4903571Y-6024575D01*
X4914646Y-6031992D01*
X4926634Y-6037935D01*
X4939284Y-6042202D01*
X4952390Y-6044793D01*
G37*
G36*
X7931962Y-1090320D02*
G01*
X7931962Y-1034237D01*
X7875879Y-1034237D01*
X7876844Y-1036421D01*
X7884718Y-1049426D01*
X7894066Y-1061364D01*
X7904835Y-1072134D01*
X7916773Y-1081481D01*
X7929778Y-1089355D01*
G37*
G36*
X5391962Y-1090320D02*
G01*
X5391962Y-1034237D01*
X5335879Y-1034237D01*
X5336844Y-1036421D01*
X5344668Y-1049426D01*
X5354066Y-1061364D01*
X5364835Y-1072134D01*
X5376773Y-1081481D01*
X5389778Y-1089355D01*
G37*
G36*
X5504637Y-1090320D02*
G01*
X5506821Y-1089355D01*
X5519826Y-1081481D01*
X5531764Y-1072134D01*
X5542534Y-1061364D01*
X5551881Y-1049426D01*
X5559755Y-1036421D01*
X5560720Y-1034237D01*
X5504637Y-1034237D01*
G37*
G36*
X8044637Y-1090320D02*
G01*
X8046821Y-1089355D01*
X8059826Y-1081481D01*
X8071764Y-1072134D01*
X8082534Y-1061364D01*
X8091881Y-1049426D01*
X8099755Y-1036421D01*
X8100720Y-1034237D01*
X8044637Y-1034237D01*
G37*
G36*
X1249527Y-5955690D02*
G01*
X1264666Y-5954776D01*
X1279652Y-5952032D01*
X1294130Y-5947511D01*
X1307998Y-5941263D01*
X1321003Y-5933389D01*
X1332992Y-5924042D01*
X1343710Y-5913272D01*
X1353108Y-5901334D01*
X1360982Y-5888329D01*
X1367231Y-5874461D01*
X1371752Y-5859932D01*
X1374495Y-5844997D01*
X1375410Y-5829808D01*
X1374495Y-5814618D01*
X1371752Y-5799683D01*
X1367231Y-5785154D01*
X1360982Y-5771286D01*
X1353108Y-5758281D01*
X1343710Y-5746343D01*
X1332992Y-5735574D01*
X1321003Y-5726226D01*
X1307998Y-5718352D01*
X1294130Y-5712104D01*
X1279652Y-5707583D01*
X1264666Y-5704840D01*
X1249527Y-5703925D01*
X1234338Y-5704840D01*
X1219352Y-5707583D01*
X1204874Y-5712104D01*
X1191006Y-5718352D01*
X1178001Y-5726226D01*
X1166012Y-5735574D01*
X1155293Y-5746343D01*
X1145895Y-5758281D01*
X1138021Y-5771286D01*
X1131773Y-5785154D01*
X1127252Y-5799683D01*
X1124508Y-5814618D01*
X1123594Y-5829808D01*
X1124508Y-5844997D01*
X1127252Y-5859932D01*
X1131773Y-5874461D01*
X1138021Y-5888329D01*
X1145895Y-5901334D01*
X1155293Y-5913272D01*
X1166012Y-5924042D01*
X1178001Y-5933389D01*
X1191006Y-5941263D01*
X1204874Y-5947511D01*
X1219352Y-5952032D01*
X1234338Y-5954776D01*
G37*
G36*
X5989523Y-5955690D02*
G01*
X6004661Y-5954776D01*
X6019647Y-5952032D01*
X6034125Y-5947511D01*
X6047994Y-5941263D01*
X6060998Y-5933389D01*
X6072987Y-5924042D01*
X6083706Y-5913272D01*
X6093104Y-5901334D01*
X6100978Y-5888329D01*
X6107226Y-5874461D01*
X6111748Y-5859932D01*
X6114491Y-5844997D01*
X6115405Y-5829808D01*
X6114491Y-5814618D01*
X6111748Y-5799683D01*
X6107226Y-5785154D01*
X6100978Y-5771286D01*
X6093104Y-5758281D01*
X6083706Y-5746343D01*
X6072987Y-5735574D01*
X6060998Y-5726226D01*
X6047994Y-5718352D01*
X6034125Y-5712104D01*
X6019647Y-5707583D01*
X6004661Y-5704840D01*
X5989523Y-5703925D01*
X5974334Y-5704840D01*
X5959348Y-5707583D01*
X5944870Y-5712104D01*
X5931001Y-5718352D01*
X5917996Y-5726226D01*
X5906008Y-5735574D01*
X5895289Y-5746343D01*
X5885891Y-5758281D01*
X5878017Y-5771286D01*
X5871768Y-5785154D01*
X5867247Y-5799683D01*
X5864504Y-5814618D01*
X5863590Y-5829808D01*
X5864504Y-5844997D01*
X5867247Y-5859932D01*
X5871768Y-5874461D01*
X5878017Y-5888329D01*
X5885891Y-5901334D01*
X5895289Y-5913272D01*
X5906008Y-5924042D01*
X5917996Y-5933389D01*
X5931001Y-5941263D01*
X5944870Y-5947511D01*
X5959348Y-5952032D01*
X5974334Y-5954776D01*
G37*
G36*
X4176115Y-1975256D02*
G01*
X4223156Y-1975256D01*
X4223156Y-1928215D01*
X4212691Y-1933905D01*
X4201820Y-1941931D01*
X4192066Y-1951380D01*
X4183684Y-1961997D01*
X4176776Y-1973630D01*
G37*
G36*
X2219502Y-5295696D02*
G01*
X2235860Y-5294782D01*
X2251964Y-5292039D01*
X2267712Y-5287518D01*
X2282799Y-5281269D01*
X2297125Y-5273344D01*
X2310485Y-5263845D01*
X2322677Y-5252974D01*
X2333548Y-5240782D01*
X2343048Y-5227421D01*
X2350973Y-5213096D01*
X2357221Y-5198008D01*
X2361742Y-5182260D01*
X2364486Y-5166156D01*
X2365400Y-5149799D01*
X2364486Y-5133441D01*
X2361742Y-5117338D01*
X2357221Y-5101590D01*
X2350973Y-5086502D01*
X2343048Y-5072176D01*
X2333548Y-5058816D01*
X2322677Y-5046624D01*
X2310485Y-5035753D01*
X2297125Y-5026253D01*
X2282799Y-5018328D01*
X2267712Y-5012080D01*
X2251964Y-5007559D01*
X2235860Y-5004816D01*
X2219502Y-5003901D01*
X2203145Y-5004816D01*
X2187041Y-5007559D01*
X2171293Y-5012080D01*
X2156206Y-5018328D01*
X2141880Y-5026253D01*
X2128520Y-5035753D01*
X2116328Y-5046624D01*
X2105456Y-5058816D01*
X2095957Y-5072176D01*
X2088032Y-5086502D01*
X2081784Y-5101590D01*
X2077262Y-5117338D01*
X2074519Y-5133441D01*
X2073605Y-5149799D01*
X2074519Y-5166156D01*
X2077262Y-5182260D01*
X2081784Y-5198008D01*
X2088032Y-5213096D01*
X2095957Y-5227421D01*
X2105456Y-5240782D01*
X2116328Y-5252974D01*
X2128520Y-5263845D01*
X2141880Y-5273344D01*
X2156206Y-5281269D01*
X2171293Y-5287518D01*
X2187041Y-5292039D01*
X2203145Y-5294782D01*
G37*
G36*
X4311243Y-1975256D02*
G01*
X4358182Y-1975256D01*
X4354322Y-1967687D01*
X4346702Y-1956511D01*
X4337608Y-1946503D01*
X4327296Y-1937766D01*
X4315866Y-1930501D01*
X4311243Y-1928317D01*
G37*
G36*
X4311243Y-2110282D02*
G01*
X4315866Y-2108098D01*
X4327296Y-2100834D01*
X4337608Y-2092096D01*
X4346702Y-2082088D01*
X4354322Y-2070912D01*
X4358182Y-2063343D01*
X4311243Y-2063343D01*
G37*
G36*
X4223156Y-2110384D02*
G01*
X4223156Y-2063343D01*
X4176115Y-2063343D01*
X4176776Y-2064969D01*
X4183684Y-2076602D01*
X4192066Y-2087219D01*
X4201820Y-2096668D01*
X4212691Y-2104694D01*
G37*
G36*
X4517796Y-2120544D02*
G01*
X4531360Y-2120087D01*
X4544669Y-2117801D01*
X4557623Y-2113838D01*
X4569866Y-2108098D01*
X4581296Y-2100834D01*
X4591608Y-2092096D01*
X4600702Y-2082088D01*
X4608322Y-2070912D01*
X4614468Y-2058822D01*
X4618888Y-2046071D01*
X4621580Y-2032812D01*
X4622495Y-2019300D01*
X4621580Y-2005787D01*
X4618888Y-1992528D01*
X4614468Y-1979777D01*
X4608322Y-1967687D01*
X4600702Y-1956511D01*
X4591608Y-1946503D01*
X4581296Y-1937766D01*
X4569866Y-1930501D01*
X4557623Y-1924761D01*
X4544669Y-1920798D01*
X4531360Y-1918512D01*
X4517796Y-1918055D01*
X4504334Y-1919427D01*
X4491177Y-1922576D01*
X4478578Y-1927402D01*
X4466691Y-1933905D01*
X4455820Y-1941931D01*
X4446066Y-1951380D01*
X4437684Y-1961997D01*
X4430776Y-1973630D01*
X4425543Y-1986076D01*
X4421936Y-1999132D01*
X4420158Y-2012543D01*
X4420158Y-2026056D01*
X4421936Y-2039467D01*
X4425543Y-2052523D01*
X4430776Y-2064969D01*
X4437684Y-2076602D01*
X4446066Y-2087219D01*
X4455820Y-2096668D01*
X4466691Y-2104694D01*
X4478578Y-2111197D01*
X4491177Y-2116023D01*
X4504334Y-2119172D01*
G37*
G36*
X7942021Y-9904018D02*
G01*
X7960106Y-9902647D01*
X7977886Y-9899396D01*
X7995310Y-9894316D01*
X8012074Y-9887508D01*
X8028025Y-9878974D01*
X8043062Y-9868865D01*
X8056981Y-9857282D01*
X8069630Y-9844328D01*
X8080857Y-9830104D01*
X8090560Y-9814814D01*
X8098688Y-9798659D01*
X8105038Y-9781692D01*
X8109661Y-9764166D01*
X8112455Y-9746284D01*
X8113369Y-9728200D01*
X8112455Y-9710115D01*
X8109661Y-9692233D01*
X8105038Y-9674707D01*
X8098688Y-9657740D01*
X8090560Y-9641586D01*
X8080857Y-9626295D01*
X8069630Y-9612071D01*
X8056981Y-9599117D01*
X8043062Y-9587534D01*
X8028025Y-9577425D01*
X8012074Y-9568891D01*
X7995310Y-9562084D01*
X7977886Y-9557004D01*
X7960106Y-9553752D01*
X7942021Y-9552381D01*
X7923936Y-9552838D01*
X7905953Y-9555175D01*
X7888325Y-9559290D01*
X7871256Y-9565284D01*
X7854848Y-9572955D01*
X7839303Y-9582251D01*
X7824825Y-9593122D01*
X7811516Y-9605416D01*
X7799578Y-9619030D01*
X7789062Y-9633813D01*
X7780172Y-9649561D01*
X7772908Y-9666173D01*
X7767421Y-9683394D01*
X7763713Y-9701123D01*
X7761833Y-9719157D01*
X7761833Y-9737242D01*
X7763713Y-9755276D01*
X7767421Y-9773005D01*
X7772908Y-9790226D01*
X7780172Y-9806838D01*
X7789062Y-9822586D01*
X7799578Y-9837369D01*
X7811516Y-9850983D01*
X7824825Y-9863277D01*
X7839303Y-9874148D01*
X7854848Y-9883444D01*
X7871256Y-9891115D01*
X7888325Y-9897110D01*
X7905953Y-9901224D01*
X7923936Y-9903561D01*
G37*
G36*
X6139484Y-4145686D02*
G01*
X6154674Y-4144772D01*
X6169609Y-4142028D01*
X6184138Y-4137507D01*
X6198006Y-4131259D01*
X6211011Y-4123385D01*
X6222949Y-4114037D01*
X6233718Y-4103268D01*
X6243066Y-4091330D01*
X6250940Y-4078325D01*
X6257188Y-4064457D01*
X6261709Y-4049928D01*
X6264452Y-4034993D01*
X6265367Y-4019804D01*
X6264452Y-4004614D01*
X6261709Y-3989679D01*
X6257188Y-3975150D01*
X6250940Y-3961282D01*
X6243066Y-3948277D01*
X6233718Y-3936339D01*
X6222949Y-3925570D01*
X6211011Y-3916222D01*
X6198006Y-3908348D01*
X6184138Y-3902100D01*
X6169609Y-3897579D01*
X6154674Y-3894836D01*
X6139484Y-3893921D01*
X6124295Y-3894836D01*
X6109360Y-3897579D01*
X6094831Y-3902100D01*
X6080963Y-3908348D01*
X6067958Y-3916222D01*
X6056020Y-3925570D01*
X6045250Y-3936339D01*
X6035903Y-3948277D01*
X6028029Y-3961282D01*
X6021781Y-3975150D01*
X6017260Y-3989679D01*
X6014516Y-4004614D01*
X6013602Y-4019804D01*
X6014516Y-4034993D01*
X6017260Y-4049928D01*
X6021781Y-4064457D01*
X6028029Y-4078325D01*
X6035903Y-4091330D01*
X6045250Y-4103268D01*
X6056020Y-4114037D01*
X6067958Y-4123385D01*
X6080963Y-4131259D01*
X6094831Y-4137507D01*
X6109360Y-4142028D01*
X6124295Y-4144772D01*
G37*
G36*
X1099515Y-4145686D02*
G01*
X1114704Y-4144772D01*
X1129639Y-4142028D01*
X1144168Y-4137507D01*
X1158036Y-4131259D01*
X1171041Y-4123385D01*
X1182979Y-4114037D01*
X1193749Y-4103268D01*
X1203096Y-4091330D01*
X1210970Y-4078325D01*
X1217218Y-4064457D01*
X1221740Y-4049928D01*
X1224483Y-4034993D01*
X1225397Y-4019804D01*
X1224483Y-4004614D01*
X1221740Y-3989679D01*
X1217218Y-3975150D01*
X1210970Y-3961282D01*
X1203096Y-3948277D01*
X1193749Y-3936339D01*
X1182979Y-3925570D01*
X1171041Y-3916222D01*
X1158036Y-3908348D01*
X1144168Y-3902100D01*
X1129639Y-3897579D01*
X1114704Y-3894836D01*
X1099515Y-3893921D01*
X1084326Y-3894836D01*
X1069390Y-3897579D01*
X1054862Y-3902100D01*
X1040993Y-3908348D01*
X1027988Y-3916222D01*
X1016050Y-3925570D01*
X1005281Y-3936339D01*
X995934Y-3948277D01*
X988060Y-3961282D01*
X981811Y-3975150D01*
X977290Y-3989679D01*
X974547Y-4004614D01*
X973632Y-4019804D01*
X974547Y-4034993D01*
X977290Y-4049928D01*
X981811Y-4064457D01*
X988060Y-4078325D01*
X995934Y-4091330D01*
X1005281Y-4103268D01*
X1016050Y-4114037D01*
X1027988Y-4123385D01*
X1040993Y-4131259D01*
X1054862Y-4137507D01*
X1069390Y-4142028D01*
X1084326Y-4144772D01*
G37*
G36*
X4619498Y-4495698D02*
G01*
X4635855Y-4494784D01*
X4651959Y-4492040D01*
X4667707Y-4487519D01*
X4682794Y-4481271D01*
X4697120Y-4473346D01*
X4710480Y-4463846D01*
X4722672Y-4452975D01*
X4733544Y-4440783D01*
X4743043Y-4427423D01*
X4750968Y-4413097D01*
X4757216Y-4398010D01*
X4761738Y-4382262D01*
X4764481Y-4366158D01*
X4765395Y-4349800D01*
X4764481Y-4333443D01*
X4761738Y-4317339D01*
X4757216Y-4301591D01*
X4750968Y-4286504D01*
X4743043Y-4272178D01*
X4733544Y-4258818D01*
X4722672Y-4246626D01*
X4710480Y-4235754D01*
X4697120Y-4226255D01*
X4682794Y-4218330D01*
X4667707Y-4212082D01*
X4651959Y-4207560D01*
X4635855Y-4204817D01*
X4619498Y-4203903D01*
X4603140Y-4204817D01*
X4587036Y-4207560D01*
X4571288Y-4212082D01*
X4556201Y-4218330D01*
X4541875Y-4226255D01*
X4528515Y-4235754D01*
X4516323Y-4246626D01*
X4505452Y-4258818D01*
X4495952Y-4272178D01*
X4488027Y-4286504D01*
X4481779Y-4301591D01*
X4477258Y-4317339D01*
X4474514Y-4333443D01*
X4473600Y-4349800D01*
X4474514Y-4366158D01*
X4477258Y-4382262D01*
X4481779Y-4398010D01*
X4488027Y-4413097D01*
X4495952Y-4427423D01*
X4505452Y-4440783D01*
X4516323Y-4452975D01*
X4528515Y-4463846D01*
X4541875Y-4473346D01*
X4556201Y-4481271D01*
X4571288Y-4487519D01*
X4587036Y-4492040D01*
X4603140Y-4494784D01*
G37*
G36*
X5019497Y-4495698D02*
G01*
X5035854Y-4494784D01*
X5051958Y-4492040D01*
X5067706Y-4487519D01*
X5082794Y-4481271D01*
X5097119Y-4473346D01*
X5110480Y-4463846D01*
X5122672Y-4452975D01*
X5133543Y-4440783D01*
X5143042Y-4427423D01*
X5150967Y-4413097D01*
X5157216Y-4398010D01*
X5161737Y-4382262D01*
X5164480Y-4366158D01*
X5165394Y-4349800D01*
X5164480Y-4333443D01*
X5161737Y-4317339D01*
X5157216Y-4301591D01*
X5150967Y-4286504D01*
X5143042Y-4272178D01*
X5133543Y-4258818D01*
X5122672Y-4246626D01*
X5110480Y-4235754D01*
X5097119Y-4226255D01*
X5082794Y-4218330D01*
X5067706Y-4212082D01*
X5051958Y-4207560D01*
X5035854Y-4204817D01*
X5019497Y-4203903D01*
X5003139Y-4204817D01*
X4987036Y-4207560D01*
X4971288Y-4212082D01*
X4956200Y-4218330D01*
X4941874Y-4226255D01*
X4928514Y-4235754D01*
X4916322Y-4246626D01*
X4905451Y-4258818D01*
X4895951Y-4272178D01*
X4888026Y-4286504D01*
X4881778Y-4301591D01*
X4877257Y-4317339D01*
X4874514Y-4333443D01*
X4873599Y-4349800D01*
X4874514Y-4366158D01*
X4877257Y-4382262D01*
X4881778Y-4398010D01*
X4888026Y-4413097D01*
X4895951Y-4427423D01*
X4905451Y-4440783D01*
X4916322Y-4452975D01*
X4928514Y-4463846D01*
X4941874Y-4473346D01*
X4956200Y-4481271D01*
X4971288Y-4487519D01*
X4987036Y-4492040D01*
X5003139Y-4494784D01*
G37*
G36*
X3685844Y-4879543D02*
G01*
X3697122Y-4873345D01*
X3710482Y-4863846D01*
X3722674Y-4852974D01*
X3733546Y-4840782D01*
X3743045Y-4827422D01*
X3749243Y-4816144D01*
X3685844Y-4816144D01*
G37*
G36*
X3953154Y-4879543D02*
G01*
X3953154Y-4816144D01*
X3889756Y-4816144D01*
X3895953Y-4827422D01*
X3905453Y-4840782D01*
X3916324Y-4852974D01*
X3928516Y-4863846D01*
X3941876Y-4873345D01*
G37*
G36*
X3685844Y-4683455D02*
G01*
X3749243Y-4683455D01*
X3743045Y-4672177D01*
X3733546Y-4658817D01*
X3722674Y-4646625D01*
X3710482Y-4635754D01*
X3697122Y-4626254D01*
X3685844Y-4620056D01*
G37*
G36*
X3889756Y-4683455D02*
G01*
X3953154Y-4683455D01*
X3953154Y-4620056D01*
X3941876Y-4626254D01*
X3928516Y-4635754D01*
X3916324Y-4646625D01*
X3905453Y-4658817D01*
X3895953Y-4672177D01*
G37*
G36*
X7270750Y-4692650D02*
G01*
X7356043Y-4692650D01*
X7352792Y-4686046D01*
X7345375Y-4674971D01*
X7336586Y-4664913D01*
X7326528Y-4656124D01*
X7315453Y-4648708D01*
X7303465Y-4642764D01*
X7290816Y-4638497D01*
X7277709Y-4635906D01*
X7270750Y-4635449D01*
G37*
G36*
X7020356Y-4692650D02*
G01*
X7105650Y-4692650D01*
X7105650Y-4635449D01*
X7098690Y-4635906D01*
X7085584Y-4638497D01*
X7072934Y-4642764D01*
X7060946Y-4648708D01*
X7049871Y-4656124D01*
X7039813Y-4664913D01*
X7031024Y-4674971D01*
X7023608Y-4686046D01*
G37*
G36*
X7270750Y-4838750D02*
G01*
X7277709Y-4838293D01*
X7290816Y-4835702D01*
X7303465Y-4831435D01*
X7315453Y-4825492D01*
X7326528Y-4818075D01*
X7336586Y-4809286D01*
X7345375Y-4799228D01*
X7352792Y-4788154D01*
X7356043Y-4781550D01*
X7270750Y-4781550D01*
G37*
G36*
X7105650Y-4838750D02*
G01*
X7105650Y-4781550D01*
X7020356Y-4781550D01*
X7023608Y-4788154D01*
X7031024Y-4799228D01*
X7039813Y-4809286D01*
X7049871Y-4818075D01*
X7060946Y-4825492D01*
X7072934Y-4831435D01*
X7085584Y-4835702D01*
X7098690Y-4838293D01*
G37*

%LPD*%
G36*
X3171444Y-5131511D02*
G01*
X3167430Y-5130088D01*
X3164332Y-5127142D01*
X3162706Y-5123129D01*
X3161741Y-5117338D01*
X3157220Y-5101590D01*
X3150971Y-5086502D01*
X3143046Y-5072176D01*
X3133547Y-5058816D01*
X3122676Y-5046624D01*
X3110484Y-5035753D01*
X3097123Y-5026253D01*
X3082798Y-5018328D01*
X3067710Y-5012080D01*
X3051962Y-5007559D01*
X3035858Y-5004816D01*
X3019501Y-5003901D01*
X3003143Y-5004816D01*
X2987040Y-5007559D01*
X2971292Y-5012080D01*
X2956204Y-5018328D01*
X2941878Y-5026253D01*
X2928518Y-5035753D01*
X2920542Y-5042865D01*
X2917240Y-5044846D01*
X2913430Y-5045456D01*
X2909671Y-5044592D01*
X2906522Y-5042357D01*
X2904388Y-5039156D01*
X2903626Y-5035346D01*
X2903575Y-5028387D01*
X2904439Y-5024221D01*
X2906877Y-5020818D01*
X3040735Y-4898085D01*
X3043834Y-4895037D01*
X3046628Y-4891633D01*
X3048914Y-4888280D01*
X3051048Y-4884420D01*
X3052673Y-4880711D01*
X3054096Y-4876546D01*
X3055010Y-4872532D01*
X3055620Y-4868214D01*
X3055823Y-4863896D01*
X3055823Y-4635703D01*
X3055670Y-4631842D01*
X3055010Y-4627016D01*
X3054197Y-4623511D01*
X3052673Y-4618888D01*
X3051251Y-4615586D01*
X3048914Y-4611268D01*
X3046882Y-4608322D01*
X3043783Y-4604512D01*
X3041091Y-4601819D01*
X2868523Y-4440783D01*
X2866136Y-4437380D01*
X2865323Y-4433316D01*
X2865323Y-4409287D01*
X2866085Y-4405376D01*
X2868269Y-4402074D01*
X2871571Y-4399889D01*
X2875483Y-4399127D01*
X2879344Y-4399889D01*
X2882646Y-4402074D01*
X2884830Y-4405376D01*
X2888030Y-4413097D01*
X2895955Y-4427423D01*
X2905455Y-4440783D01*
X2916326Y-4452975D01*
X2928518Y-4463846D01*
X2941878Y-4473346D01*
X2956204Y-4481271D01*
X2971292Y-4487519D01*
X2987040Y-4492040D01*
X3003143Y-4494784D01*
X3019501Y-4495698D01*
X3035858Y-4494784D01*
X3051962Y-4492040D01*
X3067710Y-4487519D01*
X3082798Y-4481271D01*
X3097123Y-4473346D01*
X3110484Y-4463846D01*
X3122676Y-4452975D01*
X3133547Y-4440783D01*
X3143046Y-4427423D01*
X3150971Y-4413097D01*
X3153918Y-4405884D01*
X3156153Y-4402582D01*
X3159404Y-4400397D01*
X3163316Y-4399635D01*
X3167227Y-4400397D01*
X3170478Y-4402582D01*
X3172714Y-4405884D01*
X3173476Y-4409795D01*
X3173476Y-4455058D01*
X3174288Y-4463084D01*
X3176473Y-4470298D01*
X3180029Y-4476953D01*
X3185160Y-4483201D01*
X3318967Y-4617059D01*
X3321304Y-4620666D01*
X3321964Y-4624882D01*
X3320796Y-4628997D01*
X3318001Y-4632248D01*
X3314141Y-4634128D01*
X3309874Y-4634179D01*
X3305911Y-4632502D01*
X3297123Y-4626254D01*
X3285845Y-4620056D01*
X3285845Y-4683455D01*
X3349244Y-4683455D01*
X3343046Y-4672177D01*
X3336798Y-4663389D01*
X3335121Y-4659426D01*
X3335172Y-4655159D01*
X3337051Y-4651298D01*
X3340303Y-4648504D01*
X3344418Y-4647336D01*
X3348634Y-4647996D01*
X3352241Y-4650333D01*
X3379317Y-4677410D01*
X3381552Y-4680712D01*
X3382314Y-4684572D01*
X3382314Y-4812436D01*
X3381552Y-4816348D01*
X3379317Y-4819650D01*
X3358540Y-4840478D01*
X3355086Y-4842713D01*
X3351022Y-4843424D01*
X3347008Y-4842459D01*
X3343706Y-4839970D01*
X3341674Y-4836363D01*
X3341217Y-4832248D01*
X3342436Y-4828336D01*
X3349244Y-4816144D01*
X3285845Y-4816144D01*
X3285845Y-4879543D01*
X3298037Y-4872736D01*
X3301949Y-4871516D01*
X3306064Y-4871974D01*
X3309670Y-4874006D01*
X3312160Y-4877308D01*
X3313125Y-4881321D01*
X3312414Y-4885385D01*
X3310178Y-4888839D01*
X3194558Y-5004409D01*
X3189427Y-5010658D01*
X3185871Y-5017312D01*
X3183686Y-5024526D01*
X3182924Y-5032552D01*
X3182924Y-5121452D01*
X3182010Y-5125618D01*
X3179470Y-5129072D01*
X3175711Y-5131155D01*
G37*

%LPC*%
G36*
X3153156Y-4879543D02*
G01*
X3153156Y-4816144D01*
X3089757Y-4816144D01*
X3095955Y-4827422D01*
X3105454Y-4840782D01*
X3116326Y-4852974D01*
X3128518Y-4863846D01*
X3141878Y-4873345D01*
G37*
G36*
X3089757Y-4683455D02*
G01*
X3153156Y-4683455D01*
X3153156Y-4620056D01*
X3141878Y-4626254D01*
X3128518Y-4635754D01*
X3116326Y-4646625D01*
X3105454Y-4658817D01*
X3095955Y-4672177D01*
G37*

%LPD*%
D10*
X3416300Y-5943600D02*
G01*
X3419500Y-5940399D01*
X3419500Y-5149799D01*
X2594434Y-3467100D02*
G01*
X2619499Y-3492172D01*
X2619499Y-4349800D01*
X3004466Y-3467100D02*
G01*
X3019498Y-3482136D01*
X3019498Y-4349800D01*
X3414501Y-3467100D02*
G01*
X3419500Y-3472103D01*
X3419500Y-4349800D01*
X3824498Y-3467100D02*
G01*
X3819499Y-3472103D01*
X3819499Y-4349800D01*
X2628900Y-5943600D02*
G01*
X2619499Y-5934199D01*
X2619499Y-5149799D01*
X3022600Y-5943600D02*
G01*
X3019498Y-5940498D01*
X3019498Y-5149799D01*
X3810000Y-5943600D02*
G01*
X3819499Y-5934100D01*
X3819499Y-5149799D01*
X4203700Y-5943600D02*
G01*
X4219501Y-5927798D01*
X4219501Y-5149799D01*
X4597400Y-5943600D02*
G01*
X4619500Y-5921499D01*
X4619500Y-5149799D01*
X4991100Y-5943600D02*
G01*
X5019502Y-5915205D01*
X5019502Y-5149799D01*
D11*
X4267200Y-2019300D02*
G01*
X3810000Y-1562100D01*
X3810000Y-495300D01*
X3759200Y-495300D01*
D10*
X2219497Y-4349800D02*
G01*
X2219497Y-3502205D01*
X2184400Y-3467100D01*
D11*
X3048000Y-8636000D02*
G01*
X3124200Y-8636000D01*
D12*
X3048000Y-8382000D02*
G01*
X3048000Y-8277684D01*
X1473200Y-495300D02*
G01*
X1358900Y-609600D01*
X1358900Y-3492500D01*
X1778000Y-3911600D01*
X1346200Y-3702050D02*
G01*
X1092200Y-3403600D01*
X1092200Y-622300D01*
X1219200Y-495300D01*
X3022600Y-6908800D02*
G01*
X2870200Y-6756400D01*
X2857500Y-5003800D01*
X3009900Y-4864100D01*
X3009900Y-4635500D01*
X2819400Y-4457700D01*
X2819400Y-3073400D01*
X2404877Y-2658869D01*
X2404877Y-2509012D01*
X2108200Y-2212596D01*
X2108200Y-622300D01*
X1981200Y-495300D01*
X2628900Y-6908800D02*
G01*
X2451100Y-6731000D01*
X2451100Y-5005070D01*
X2603500Y-4852670D01*
X2603500Y-4635500D01*
X2442469Y-4474461D01*
X2442469Y-3487930D01*
X1600200Y-2645915D01*
X1600200Y-622300D01*
X1727200Y-495300D01*
D11*
X2235200Y-495300D02*
G01*
X2385641Y-645746D01*
X2385641Y-2332050D01*
X2460142Y-2406550D01*
X2460142Y-2543962D01*
X3212084Y-3295904D01*
X3212084Y-4455540D01*
X3420925Y-4664379D01*
X3420925Y-4832654D01*
X3221509Y-5032070D01*
X3221509Y-6714009D01*
X3416300Y-6908800D01*
X3810000Y-6908800D02*
G01*
X3262373Y-6361173D01*
X3262373Y-5077965D01*
X3461765Y-4878326D01*
X3461765Y-4607811D01*
X3271265Y-4417311D01*
X3271265Y-3077969D01*
X2616200Y-2286000D01*
X2616200Y-622300D01*
X2489200Y-495300D01*
D13*
X3759200Y-2019300D02*
G01*
X3759200Y-2246119D01*
X4000500Y-2413000D01*
X4292600Y-3086100D01*
X4457700Y-3568700D01*
X5346700Y-4229100D01*
X5346700Y-6769100D01*
D11*
X5842000Y-9271000D02*
G01*
X5842000Y-9194800D01*
X4991100Y-6908800D02*
G01*
X4405127Y-6322819D01*
X4405127Y-5048504D01*
X4631692Y-4821938D01*
X4622800Y-4635500D01*
X4419600Y-4470400D01*
X4394200Y-4229100D01*
X4071365Y-3969765D01*
X4071365Y-3274819D01*
X3708400Y-2819400D01*
X3632200Y-2273300D01*
X3390900Y-2184400D01*
X3251200Y-495300D01*
X2743200Y-495300D02*
G01*
X2870200Y-869695D01*
X2870200Y-2209800D01*
X3149600Y-2374900D01*
X3263900Y-2832100D01*
X3986027Y-3325619D01*
X3986027Y-4451095D01*
X4178300Y-4643376D01*
X4178300Y-4846320D01*
X4021584Y-5003292D01*
X4021584Y-6726684D01*
X4203700Y-6908800D01*
X2997200Y-495300D02*
G01*
X3124200Y-622300D01*
X3124200Y-2197100D01*
X3582156Y-2416553D01*
X3582156Y-2848861D01*
X4026915Y-3293361D01*
X4026915Y-4434080D01*
X4241800Y-4648962D01*
X4241800Y-4869687D01*
X4062473Y-5049012D01*
X4062473Y-6373873D01*
X4597400Y-6908800D01*
D14*
X5448300Y-2120900D02*
G01*
X5448300Y-1866900D01*
X5448300Y-1866900D01*
X5448300Y-2120900D02*
G01*
X6121400Y-2120900D01*
X7188200Y-3187700D01*
X7188200Y-4381500D01*
D10*
X4521200Y-495300D02*
G01*
X4508500Y-1041400D01*
X7480300Y-2324100D01*
X7480300Y-4800600D01*
X7289800Y-4991100D01*
X7188200Y-4991100D01*
X7188200Y-5245100D02*
G01*
X7124700Y-5245100D01*
X6680200Y-4800600D01*
X6680200Y-3708400D01*
X4267200Y-1295400D01*
X4267200Y-495300D01*
D13*
X3505200Y-495300D02*
G01*
X3696715Y-686562D01*
X3696715Y-1637792D01*
X3886200Y-1827529D01*
X3888742Y-2197100D01*
X4025900Y-2286000D01*
X4716015Y-2361437D01*
X4838700Y-2463800D01*
X4838700Y-3568700D01*
X5524500Y-3860800D01*
X5524500Y-8915400D01*
X5842000Y-9232900D01*
X5854700Y-9232900D01*
X5854700Y-8470900D02*
G01*
X6477000Y-7848600D01*
X6477000Y-3657600D01*
X4533900Y-1714500D01*
D12*
X3060700Y-8343900D02*
G01*
X3048000Y-8343900D01*
X2324100Y-8343900D01*
X1701800Y-7721600D01*
X1701800Y-4927600D01*
X1834642Y-4749800D01*
X2419604Y-4749800D01*
X3060700Y-8597900D02*
G01*
X3213100Y-8597900D01*
X3352800Y-8458200D01*
X3352800Y-7604000D01*
X2781300Y-6858000D01*
X2781300Y-4749800D01*
X2819400Y-4749800D01*
D15*
X7988300Y-1866900D02*
G01*
X7988300Y-2120900D01*
X7861300Y-2247900D01*
X7861300Y-6591300D01*
X7086600Y-7366000D01*
X6781800Y-7366000D01*
D16*
G01*
X7988300Y-2120900D03*
G01*
X7988300Y-1866900D03*
D17*
G01*
X7988300Y-977900D03*
G01*
X7988300Y-723900D03*
G01*
X5448300Y-723900D03*
G01*
X5448300Y-977900D03*
D16*
G01*
X5448300Y-1866900D03*
G01*
X5448300Y-2120900D03*
D18*
G01*
X2219502Y-4349800D03*
G01*
X2619502Y-4349800D03*
G01*
X3019501Y-4349800D03*
G01*
X3419500Y-4349800D03*
G01*
X3819499Y-4349800D03*
G01*
X4219498Y-4349800D03*
G01*
X4619497Y-4349800D03*
G01*
X5019497Y-4349800D03*
G01*
X2419502Y-4749800D03*
G01*
X2819501Y-4749800D03*
G01*
X3219500Y-4749800D03*
G01*
X3619500Y-4749800D03*
G01*
X4019499Y-4749800D03*
G01*
X4419498Y-4749800D03*
G01*
X4819497Y-4749800D03*
G01*
X2219502Y-5149799D03*
G01*
X2619502Y-5149799D03*
G01*
X3019501Y-5149799D03*
G01*
X3419500Y-5149799D03*
G01*
X3819499Y-5149799D03*
G01*
X4219498Y-5149799D03*
G01*
X4619497Y-5149799D03*
G01*
X5019497Y-5149799D03*
D19*
G01*
X6781800Y-7366000D03*
D20*
G01*
X6781800Y-9515983D03*
D21*
G01*
X4521200Y-495300D03*
D22*
G01*
X4267200Y-495300D03*
G01*
X4013200Y-495300D03*
G01*
X3759200Y-495300D03*
G01*
X3505200Y-495300D03*
G01*
X3251200Y-495300D03*
G01*
X2997200Y-495300D03*
G01*
X2743200Y-495300D03*
G01*
X2489200Y-495300D03*
G01*
X2235200Y-495300D03*
G01*
X1981200Y-495300D03*
G01*
X1727200Y-495300D03*
G01*
X4521200Y-2019300D03*
G01*
X4267200Y-2019300D03*
G01*
X4013200Y-2019300D03*
G01*
X3759200Y-2019300D03*
G01*
X3505200Y-2019300D03*
G01*
X3251200Y-2019300D03*
G01*
X2743200Y-2019300D03*
G01*
X2489200Y-2019300D03*
G01*
X1981200Y-2019300D03*
G01*
X1727200Y-2019300D03*
G01*
X2235200Y-2019300D03*
G01*
X2997200Y-2019300D03*
G01*
X1473200Y-495300D03*
G01*
X1219200Y-495300D03*
G01*
X965200Y-495300D03*
G01*
X1473200Y-2019300D03*
G01*
X1219200Y-2019300D03*
G01*
X965200Y-2019300D03*
D23*
G01*
X2184400Y-3467100D03*
G01*
X2184400Y-2501900D03*
G01*
X2594432Y-3467100D03*
G01*
X2594432Y-2501900D03*
G01*
X3004464Y-3467100D03*
G01*
X3004464Y-2501900D03*
G01*
X3414496Y-3467100D03*
G01*
X3414496Y-2501900D03*
G01*
X3824503Y-3467100D03*
G01*
X3824503Y-2501900D03*
G01*
X4234535Y-3467100D03*
G01*
X4234535Y-2501900D03*
G01*
X4644567Y-3467100D03*
G01*
X4644567Y-2501900D03*
G01*
X5054600Y-3467100D03*
G01*
X5054600Y-2501900D03*
G01*
X4991100Y-6908800D03*
G01*
X4991100Y-5943600D03*
G01*
X4597400Y-6908800D03*
G01*
X4597400Y-5943600D03*
G01*
X4203700Y-6908800D03*
G01*
X4203700Y-5943600D03*
G01*
X3810000Y-6908800D03*
G01*
X3810000Y-5943600D03*
G01*
X3416300Y-6908800D03*
G01*
X3416300Y-5943600D03*
G01*
X3022600Y-6908800D03*
G01*
X3022600Y-5943600D03*
G01*
X2628900Y-6908800D03*
G01*
X2628900Y-5943600D03*
D24*
G01*
X5854700Y-9232900D03*
D25*
G01*
X5854700Y-8978900D03*
G01*
X5854700Y-8724900D03*
G01*
X5854700Y-8470900D03*
G01*
X5854700Y-8216900D03*
G01*
X5854700Y-7962900D03*
G01*
X5854700Y-7708900D03*
D24*
G01*
X3060700Y-8597900D03*
G01*
X3060700Y-8343900D03*
D26*
G01*
X7188200Y-4737100D03*
G01*
X7188200Y-4991100D03*
G01*
X7188200Y-5245100D03*
G01*
X7188200Y-4483100D03*
D27*
G01*
X5346700Y-6769100D03*
G01*
X1778000Y-3911600D03*
G01*
X1346200Y-3701973D03*
G01*
X4533900Y-1714500D03*
M02*
