G04 Layer: BottomSolderMaskLayer*
G04 EasyEDA v6.5.12, 2022-08-14 18:20:48*
G04 2a177721641841d29097ea14f7d9b4fa,85f94b3334f644aba6dda46b10c31569,10*
G04 Gerber Generator version 0.2*
G04 Scale: 100 percent, Rotated: No, Reflected: No *
G04 Dimensions in millimeters *
G04 leading zeros omitted , absolute positions ,4 integer and 5 decimal *
%FSLAX45Y45*%
%MOMM*%

%AMMACRO1*1,1,$1,$2,$3*1,1,$1,$4,$5*1,1,$1,0-$2,0-$3*1,1,$1,0-$4,0-$5*20,1,$1,$2,$3,$4,$5,0*20,1,$1,$4,$5,0-$2,0-$3,0*20,1,$1,0-$2,0-$3,0-$4,0-$5,0*20,1,$1,0-$4,0-$5,$2,$3,0*4,1,4,$2,$3,$4,$5,0-$2,0-$3,0-$4,0-$5,$2,$3,0*%
%ADD10MACRO1,0.2032X1X-1X-1X-1*%
%ADD11MACRO1,0.2032X-1X1X1X1*%
%ADD12C,2.2032*%
%ADD13C,2.6032*%
%ADD14MACRO1,0.2032X1.2499X1.2499X1.2499X-1.2499*%
%ADD15C,2.7031*%
%ADD16MACRO1,0.2032X-0.754X0.754X0.754X0.754*%
%ADD17C,1.7112*%
%ADD18O,2.032X1.524*%
%ADD19MACRO1,0.2032X-0.762X0.762X0.762X0.762*%
%ADD20C,1.7272*%
%ADD21O,3.048X1.524*%

%LPD*%
D10*
G01*
X7988300Y-2120900D03*
D11*
G01*
X7988300Y-1866900D03*
D12*
G01*
X7988300Y-977900D03*
G01*
X7988300Y-723900D03*
G01*
X5448300Y-723900D03*
G01*
X5448300Y-977900D03*
D11*
G01*
X5448300Y-1866900D03*
G01*
X5448300Y-2120900D03*
D13*
G01*
X2219502Y-4349800D03*
G01*
X2619502Y-4349800D03*
G01*
X3019501Y-4349800D03*
G01*
X3419500Y-4349800D03*
G01*
X3819499Y-4349800D03*
G01*
X4219498Y-4349800D03*
G01*
X4619497Y-4349800D03*
G01*
X5019497Y-4349800D03*
G01*
X2419502Y-4749800D03*
G01*
X2819501Y-4749800D03*
G01*
X3219500Y-4749800D03*
G01*
X3619500Y-4749800D03*
G01*
X4019499Y-4749800D03*
G01*
X4419498Y-4749800D03*
G01*
X4819497Y-4749800D03*
G01*
X2219502Y-5149799D03*
G01*
X2619502Y-5149799D03*
G01*
X3019501Y-5149799D03*
G01*
X3419500Y-5149799D03*
G01*
X3819499Y-5149799D03*
G01*
X4219498Y-5149799D03*
G01*
X4619497Y-5149799D03*
G01*
X5019497Y-5149799D03*
D14*
G01*
X6781800Y-7366000D03*
D15*
G01*
X6781800Y-9515983D03*
D16*
G01*
X4521200Y-495300D03*
D17*
G01*
X4267200Y-495300D03*
G01*
X4013200Y-495300D03*
G01*
X3759200Y-495300D03*
G01*
X3505200Y-495300D03*
G01*
X3251200Y-495300D03*
G01*
X2997200Y-495300D03*
G01*
X2743200Y-495300D03*
G01*
X2489200Y-495300D03*
G01*
X2235200Y-495300D03*
G01*
X1981200Y-495300D03*
G01*
X1727200Y-495300D03*
G01*
X4521200Y-2019300D03*
G01*
X4267200Y-2019300D03*
G01*
X4013200Y-2019300D03*
G01*
X3759200Y-2019300D03*
G01*
X3505200Y-2019300D03*
G01*
X3251200Y-2019300D03*
G01*
X2743200Y-2019300D03*
G01*
X2489200Y-2019300D03*
G01*
X1981200Y-2019300D03*
G01*
X1727200Y-2019300D03*
G01*
X2235200Y-2019300D03*
G01*
X2997200Y-2019300D03*
G01*
X1473200Y-495300D03*
G01*
X1219200Y-495300D03*
G01*
X965200Y-495300D03*
G01*
X1473200Y-2019300D03*
G01*
X1219200Y-2019300D03*
G01*
X965200Y-2019300D03*
D18*
G01*
X2184400Y-3467100D03*
G01*
X2184400Y-2501900D03*
G01*
X2594432Y-3467100D03*
G01*
X2594432Y-2501900D03*
G01*
X3004464Y-3467100D03*
G01*
X3004464Y-2501900D03*
G01*
X3414496Y-3467100D03*
G01*
X3414496Y-2501900D03*
G01*
X3824503Y-3467100D03*
G01*
X3824503Y-2501900D03*
G01*
X4234535Y-3467100D03*
G01*
X4234535Y-2501900D03*
G01*
X4644567Y-3467100D03*
G01*
X4644567Y-2501900D03*
G01*
X5054600Y-3467100D03*
G01*
X5054600Y-2501900D03*
G01*
X4991100Y-6908800D03*
G01*
X4991100Y-5943600D03*
G01*
X4597400Y-6908800D03*
G01*
X4597400Y-5943600D03*
G01*
X4203700Y-6908800D03*
G01*
X4203700Y-5943600D03*
G01*
X3810000Y-6908800D03*
G01*
X3810000Y-5943600D03*
G01*
X3416300Y-6908800D03*
G01*
X3416300Y-5943600D03*
G01*
X3022600Y-6908800D03*
G01*
X3022600Y-5943600D03*
G01*
X2628900Y-6908800D03*
G01*
X2628900Y-5943600D03*
D19*
G01*
X5854700Y-9232900D03*
D20*
G01*
X5854700Y-8978900D03*
G01*
X5854700Y-8724900D03*
G01*
X5854700Y-8470900D03*
G01*
X5854700Y-8216900D03*
G01*
X5854700Y-7962900D03*
G01*
X5854700Y-7708900D03*
D19*
G01*
X3060700Y-8597900D03*
G01*
X3060700Y-8343900D03*
D21*
G01*
X7188200Y-4737100D03*
G01*
X7188200Y-4991100D03*
G01*
X7188200Y-5245100D03*
G01*
X7188200Y-4483100D03*
M02*
