G04 Layer: BottomLayer*
G04 EasyEDA v6.5.12, 2022-08-14 18:20:48*
G04 2a177721641841d29097ea14f7d9b4fa,85f94b3334f644aba6dda46b10c31569,10*
G04 Gerber Generator version 0.2*
G04 Scale: 100 percent, Rotated: No, Reflected: No *
G04 Dimensions in millimeters *
G04 leading zeros omitted , absolute positions ,4 integer and 5 decimal *
%FSLAX45Y45*%
%MOMM*%

%ADD10C,0.7000*%
%ADD11C,0.2540*%
%ADD12C,3.0000*%
%ADD13C,0.4000*%
%ADD14C,1.2000*%
%ADD15C,0.6000*%
%ADD16C,2.5000*%
%ADD17R,2.0000X2.0000*%
%ADD18C,2.0000*%
%ADD19C,2.4000*%
%ADD20R,2.4999X2.4999*%
%ADD21C,2.4999*%
%ADD22R,1.5080X1.5080*%
%ADD23C,1.5080*%
%ADD24O,2.032X1.524*%
%ADD25R,1.5240X1.5240*%
%ADD26C,1.5240*%
%ADD27O,3.048X1.524*%
%ADD28C,0.8000*%
%ADD29C,0.0133*%

%LPD*%
G36*
X8166100Y-9968992D02*
G01*
X36068Y-9965232D01*
X32156Y-9964420D01*
X28905Y-9962235D01*
X26670Y-9958933D01*
X25908Y-9955072D01*
X25908Y-36068D01*
X26670Y-32156D01*
X28905Y-28905D01*
X32156Y-26670D01*
X36068Y-25908D01*
X8193531Y-25908D01*
X8197443Y-26670D01*
X8200694Y-28905D01*
X8202930Y-32156D01*
X8203692Y-36068D01*
X8203692Y-9958832D01*
X8202930Y-9962743D01*
X8200694Y-9965994D01*
X8197443Y-9968230D01*
X8193531Y-9968992D01*
G37*

%LPC*%
G36*
X7980121Y-442518D02*
G01*
X7998206Y-441147D01*
X8015986Y-437896D01*
X8033410Y-432816D01*
X8050174Y-426008D01*
X8066125Y-417474D01*
X8081162Y-407365D01*
X8095081Y-395782D01*
X8107730Y-382828D01*
X8118957Y-368604D01*
X8128660Y-353314D01*
X8136788Y-337159D01*
X8143138Y-320192D01*
X8147761Y-302666D01*
X8150555Y-284784D01*
X8151469Y-266700D01*
X8150555Y-248615D01*
X8147761Y-230733D01*
X8143138Y-213207D01*
X8136788Y-196240D01*
X8128660Y-180086D01*
X8118957Y-164795D01*
X8107730Y-150571D01*
X8095081Y-137617D01*
X8081162Y-126034D01*
X8066125Y-115925D01*
X8050174Y-107391D01*
X8033410Y-100584D01*
X8015986Y-95504D01*
X7998206Y-92252D01*
X7980121Y-90881D01*
X7962036Y-91338D01*
X7944053Y-93675D01*
X7926425Y-97790D01*
X7909356Y-103784D01*
X7892948Y-111455D01*
X7877403Y-120751D01*
X7862925Y-131622D01*
X7849616Y-143916D01*
X7837678Y-157530D01*
X7827162Y-172313D01*
X7818272Y-188061D01*
X7811008Y-204673D01*
X7805521Y-221894D01*
X7801813Y-239623D01*
X7799933Y-257657D01*
X7799933Y-275742D01*
X7801813Y-293776D01*
X7805521Y-311505D01*
X7811008Y-328726D01*
X7818272Y-345338D01*
X7827162Y-361086D01*
X7837678Y-375869D01*
X7849616Y-389483D01*
X7862925Y-401777D01*
X7877403Y-412648D01*
X7892948Y-421944D01*
X7909356Y-429615D01*
X7926425Y-435609D01*
X7944053Y-439724D01*
X7962036Y-442061D01*
G37*
G36*
X309321Y-9853218D02*
G01*
X327406Y-9851847D01*
X345186Y-9848596D01*
X362610Y-9843516D01*
X379374Y-9836708D01*
X395325Y-9828174D01*
X410362Y-9818065D01*
X424281Y-9806482D01*
X436930Y-9793528D01*
X448157Y-9779304D01*
X457860Y-9764014D01*
X465988Y-9747859D01*
X472338Y-9730892D01*
X476961Y-9713366D01*
X479755Y-9695484D01*
X480669Y-9677400D01*
X479755Y-9659315D01*
X476961Y-9641433D01*
X472338Y-9623907D01*
X465988Y-9606940D01*
X457860Y-9590786D01*
X448157Y-9575495D01*
X436930Y-9561271D01*
X424281Y-9548317D01*
X410362Y-9536734D01*
X395325Y-9526625D01*
X379374Y-9518091D01*
X362610Y-9511284D01*
X345186Y-9506204D01*
X327406Y-9502952D01*
X309321Y-9501581D01*
X291236Y-9502038D01*
X273253Y-9504375D01*
X255625Y-9508490D01*
X238556Y-9514484D01*
X222148Y-9522155D01*
X206603Y-9531451D01*
X192125Y-9542322D01*
X178816Y-9554616D01*
X166878Y-9568230D01*
X156362Y-9583013D01*
X147472Y-9598761D01*
X140208Y-9615373D01*
X134721Y-9632594D01*
X131013Y-9650323D01*
X129133Y-9668357D01*
X129133Y-9686442D01*
X131013Y-9704476D01*
X134721Y-9722205D01*
X140208Y-9739426D01*
X147472Y-9756038D01*
X156362Y-9771786D01*
X166878Y-9786569D01*
X178816Y-9800183D01*
X192125Y-9812477D01*
X206603Y-9823348D01*
X222148Y-9832644D01*
X238556Y-9840315D01*
X255625Y-9846310D01*
X273253Y-9850424D01*
X291236Y-9852761D01*
G37*
G36*
X3102864Y-9667036D02*
G01*
X5791047Y-9663226D01*
X6780936Y-9667036D01*
X6798106Y-9666122D01*
X6814820Y-9663328D01*
X6831075Y-9658705D01*
X6846722Y-9652304D01*
X6861606Y-9644176D01*
X6875424Y-9634423D01*
X6888073Y-9623196D01*
X6899402Y-9610648D01*
X6909257Y-9596882D01*
X6917486Y-9582099D01*
X6924040Y-9566503D01*
X6928764Y-9550247D01*
X6931659Y-9533585D01*
X6932675Y-9516668D01*
X6931812Y-9499803D01*
X6929018Y-9483090D01*
X6924192Y-9466122D01*
X6917740Y-9450527D01*
X6909562Y-9435693D01*
X6899757Y-9421926D01*
X6888480Y-9409277D01*
X6875881Y-9398000D01*
X6862064Y-9388246D01*
X6847281Y-9380016D01*
X6831634Y-9373565D01*
X6815378Y-9368891D01*
X6798716Y-9366046D01*
X6781800Y-9365081D01*
X5791809Y-9361373D01*
X3169259Y-9365132D01*
X3165348Y-9364319D01*
X3162046Y-9362135D01*
X2000148Y-8200237D01*
X1997811Y-8196630D01*
X1997202Y-8192363D01*
X2191918Y-5442407D01*
X2192528Y-5439613D01*
X2193899Y-5437073D01*
X2340356Y-5240121D01*
X2348433Y-5227878D01*
X2351532Y-5224881D01*
X2355545Y-5223408D01*
X2359863Y-5223764D01*
X2363622Y-5225846D01*
X2366162Y-5229301D01*
X2367076Y-5233466D01*
X2367127Y-6948678D01*
X2368346Y-6957415D01*
X2371039Y-6965442D01*
X2375154Y-6972808D01*
X2380894Y-6979716D01*
X4413808Y-9012580D01*
X4420870Y-9017914D01*
X4428439Y-9021673D01*
X4436567Y-9023959D01*
X4445457Y-9024823D01*
X5757722Y-9024823D01*
X5761177Y-9025432D01*
X5764174Y-9027160D01*
X5766460Y-9029801D01*
X5770524Y-9036659D01*
X5779008Y-9047378D01*
X5788812Y-9056878D01*
X5799785Y-9064955D01*
X5811723Y-9071508D01*
X5824474Y-9076385D01*
X5837732Y-9079585D01*
X5851296Y-9080906D01*
X5864910Y-9080449D01*
X5878372Y-9078214D01*
X5891377Y-9074150D01*
X5903772Y-9068409D01*
X5915253Y-9061094D01*
X5925667Y-9052306D01*
X5934811Y-9042146D01*
X5942533Y-9030919D01*
X5948680Y-9018778D01*
X5953150Y-9005874D01*
X5955893Y-8992514D01*
X5956808Y-8978900D01*
X5955893Y-8965285D01*
X5953150Y-8951925D01*
X5948680Y-8939022D01*
X5942533Y-8926880D01*
X5934811Y-8915654D01*
X5925667Y-8905494D01*
X5915253Y-8896705D01*
X5903772Y-8889390D01*
X5891377Y-8883650D01*
X5878372Y-8879586D01*
X5864910Y-8877350D01*
X5851296Y-8876893D01*
X5837732Y-8878214D01*
X5824474Y-8881414D01*
X5811723Y-8886291D01*
X5799785Y-8892844D01*
X5788812Y-8900922D01*
X5779008Y-8910421D01*
X5770524Y-8921140D01*
X5766460Y-8927998D01*
X5764174Y-8930640D01*
X5761177Y-8932367D01*
X5757722Y-8932976D01*
X4468215Y-8932976D01*
X4464354Y-8932214D01*
X4461052Y-8930030D01*
X2548178Y-7017156D01*
X2545943Y-7013752D01*
X2545181Y-7009790D01*
X2546096Y-7005828D01*
X2548432Y-7002525D01*
X2551938Y-7000392D01*
X2555951Y-6999833D01*
X2559862Y-7000849D01*
X2564434Y-7003135D01*
X2577084Y-7007402D01*
X2590190Y-7009993D01*
X2603855Y-7010908D01*
X2653944Y-7010908D01*
X2667609Y-7009993D01*
X2680716Y-7007402D01*
X2693365Y-7003135D01*
X2705354Y-6997192D01*
X2716428Y-6989775D01*
X2726486Y-6980986D01*
X2735275Y-6970928D01*
X2742692Y-6959853D01*
X2748635Y-6947865D01*
X2752902Y-6935216D01*
X2755493Y-6922109D01*
X2756408Y-6908800D01*
X2755493Y-6895490D01*
X2752902Y-6882384D01*
X2748635Y-6869734D01*
X2742692Y-6857746D01*
X2735275Y-6846671D01*
X2726486Y-6836613D01*
X2716428Y-6827824D01*
X2705354Y-6820408D01*
X2693365Y-6814464D01*
X2680716Y-6810197D01*
X2667609Y-6807606D01*
X2653944Y-6806692D01*
X2603855Y-6806692D01*
X2590190Y-6807606D01*
X2577084Y-6810197D01*
X2564434Y-6814464D01*
X2552446Y-6820408D01*
X2541371Y-6827824D01*
X2531313Y-6836613D01*
X2522524Y-6846671D01*
X2515108Y-6857746D01*
X2509164Y-6869734D01*
X2504897Y-6882384D01*
X2502306Y-6895490D01*
X2501392Y-6908800D01*
X2502306Y-6922109D01*
X2504897Y-6935216D01*
X2509164Y-6947865D01*
X2511450Y-6952437D01*
X2512466Y-6956348D01*
X2511907Y-6960362D01*
X2509774Y-6963867D01*
X2506472Y-6966203D01*
X2502509Y-6967118D01*
X2498547Y-6966356D01*
X2495143Y-6964121D01*
X2461869Y-6930847D01*
X2459685Y-6927545D01*
X2458923Y-6923684D01*
X2458923Y-5190490D01*
X2459736Y-5186476D01*
X2462123Y-5183124D01*
X2465628Y-5180939D01*
X2469743Y-5180380D01*
X2473706Y-5181447D01*
X2476906Y-5184038D01*
X2478836Y-5187696D01*
X2481783Y-5198008D01*
X2488031Y-5213096D01*
X2495956Y-5227421D01*
X2505456Y-5240782D01*
X2516327Y-5252974D01*
X2528519Y-5263845D01*
X2541879Y-5273344D01*
X2556205Y-5281269D01*
X2571292Y-5287518D01*
X2587040Y-5292039D01*
X2603144Y-5294782D01*
X2619502Y-5295696D01*
X2635859Y-5294782D01*
X2651963Y-5292039D01*
X2667711Y-5287518D01*
X2682798Y-5281269D01*
X2697124Y-5273344D01*
X2710484Y-5263845D01*
X2722676Y-5252974D01*
X2733548Y-5240782D01*
X2742336Y-5228386D01*
X2745486Y-5225542D01*
X2749499Y-5224170D01*
X2753715Y-5224576D01*
X2757424Y-5226710D01*
X2759913Y-5230114D01*
X2760776Y-5234279D01*
X2760827Y-5424678D01*
X2762046Y-5433415D01*
X2764739Y-5441442D01*
X2768854Y-5448808D01*
X2774594Y-5455716D01*
X3176930Y-5858052D01*
X3179114Y-5861354D01*
X3179876Y-5865215D01*
X3179927Y-7101078D01*
X3181146Y-7109815D01*
X3183839Y-7117842D01*
X3187954Y-7125208D01*
X3193694Y-7132116D01*
X4820208Y-8758580D01*
X4827270Y-8763914D01*
X4834839Y-8767673D01*
X4842967Y-8769959D01*
X4851857Y-8770823D01*
X5757722Y-8770823D01*
X5761177Y-8771432D01*
X5764174Y-8773160D01*
X5766460Y-8775801D01*
X5770524Y-8782659D01*
X5779008Y-8793378D01*
X5788812Y-8802878D01*
X5799785Y-8810955D01*
X5811723Y-8817508D01*
X5824474Y-8822385D01*
X5837732Y-8825585D01*
X5851296Y-8826906D01*
X5864910Y-8826449D01*
X5878372Y-8824214D01*
X5891377Y-8820150D01*
X5903772Y-8814409D01*
X5915253Y-8807094D01*
X5925667Y-8798306D01*
X5934811Y-8788146D01*
X5942533Y-8776919D01*
X5948680Y-8764778D01*
X5953150Y-8751874D01*
X5955893Y-8738514D01*
X5956808Y-8724900D01*
X5955893Y-8711285D01*
X5953150Y-8697925D01*
X5948680Y-8685022D01*
X5942533Y-8672880D01*
X5934811Y-8661654D01*
X5925667Y-8651494D01*
X5915253Y-8642705D01*
X5903772Y-8635390D01*
X5891377Y-8629650D01*
X5878372Y-8625586D01*
X5864910Y-8623350D01*
X5851296Y-8622893D01*
X5837732Y-8624214D01*
X5824474Y-8627414D01*
X5811723Y-8632291D01*
X5799785Y-8638844D01*
X5788812Y-8646922D01*
X5779008Y-8656421D01*
X5770524Y-8667140D01*
X5766460Y-8673998D01*
X5764174Y-8676640D01*
X5761177Y-8678367D01*
X5757722Y-8678976D01*
X4874615Y-8678976D01*
X4870754Y-8678214D01*
X4867452Y-8676030D01*
X3274669Y-7083247D01*
X3272485Y-7079945D01*
X3271723Y-7076084D01*
X3271723Y-6934911D01*
X3272586Y-6930745D01*
X3275076Y-6927342D01*
X3278784Y-6925208D01*
X3283000Y-6924802D01*
X3287014Y-6926122D01*
X3290163Y-6929018D01*
X3291840Y-6932930D01*
X3292297Y-6935216D01*
X3296564Y-6947865D01*
X3302508Y-6959853D01*
X3309924Y-6970928D01*
X3318713Y-6980986D01*
X3328771Y-6989775D01*
X3339846Y-6997192D01*
X3351834Y-7003135D01*
X3364484Y-7007402D01*
X3377590Y-7009993D01*
X3391255Y-7010908D01*
X3441344Y-7010908D01*
X3455009Y-7009993D01*
X3468115Y-7007402D01*
X3480765Y-7003135D01*
X3492754Y-6997192D01*
X3503828Y-6989775D01*
X3513886Y-6980986D01*
X3522675Y-6970928D01*
X3530092Y-6959853D01*
X3536035Y-6947865D01*
X3540302Y-6935216D01*
X3542893Y-6922109D01*
X3543808Y-6908800D01*
X3542893Y-6895490D01*
X3540302Y-6882384D01*
X3536035Y-6869734D01*
X3530092Y-6857746D01*
X3522675Y-6846671D01*
X3513886Y-6836613D01*
X3503828Y-6827824D01*
X3492754Y-6820408D01*
X3480765Y-6814464D01*
X3468115Y-6810197D01*
X3455009Y-6807606D01*
X3441344Y-6806692D01*
X3391255Y-6806692D01*
X3377590Y-6807606D01*
X3364484Y-6810197D01*
X3351834Y-6814464D01*
X3339846Y-6820408D01*
X3328771Y-6827824D01*
X3318713Y-6836613D01*
X3309924Y-6846671D01*
X3302508Y-6857746D01*
X3296564Y-6869734D01*
X3292297Y-6882384D01*
X3291840Y-6884670D01*
X3290163Y-6888581D01*
X3287014Y-6891477D01*
X3283000Y-6892798D01*
X3278784Y-6892391D01*
X3275076Y-6890258D01*
X3272586Y-6886854D01*
X3271723Y-6882688D01*
X3271723Y-5969711D01*
X3272586Y-5965545D01*
X3275076Y-5962142D01*
X3278784Y-5960008D01*
X3283000Y-5959602D01*
X3287014Y-5960922D01*
X3290163Y-5963818D01*
X3291840Y-5967730D01*
X3292297Y-5970016D01*
X3296564Y-5982665D01*
X3302508Y-5994654D01*
X3309924Y-6005728D01*
X3318713Y-6015786D01*
X3328771Y-6024575D01*
X3339846Y-6031992D01*
X3351834Y-6037935D01*
X3364484Y-6042202D01*
X3377590Y-6044793D01*
X3391255Y-6045708D01*
X3441344Y-6045708D01*
X3455009Y-6044793D01*
X3468115Y-6042202D01*
X3480765Y-6037935D01*
X3492754Y-6031992D01*
X3503828Y-6024575D01*
X3513886Y-6015786D01*
X3522675Y-6005728D01*
X3530092Y-5994654D01*
X3536035Y-5982665D01*
X3540302Y-5970016D01*
X3542893Y-5956909D01*
X3543808Y-5943600D01*
X3542893Y-5930290D01*
X3540302Y-5917184D01*
X3536035Y-5904534D01*
X3530092Y-5892546D01*
X3522675Y-5881471D01*
X3513886Y-5871413D01*
X3503828Y-5862624D01*
X3492754Y-5855208D01*
X3480765Y-5849264D01*
X3468115Y-5844997D01*
X3455009Y-5842406D01*
X3441344Y-5841492D01*
X3391255Y-5841492D01*
X3377590Y-5842406D01*
X3364484Y-5844997D01*
X3351834Y-5849264D01*
X3339846Y-5855208D01*
X3328771Y-5862624D01*
X3318713Y-5871413D01*
X3309924Y-5881471D01*
X3302508Y-5892546D01*
X3296564Y-5904534D01*
X3292297Y-5917184D01*
X3291840Y-5919470D01*
X3290163Y-5923381D01*
X3287014Y-5926277D01*
X3283000Y-5927598D01*
X3278784Y-5927191D01*
X3275076Y-5925058D01*
X3272586Y-5921654D01*
X3271723Y-5917488D01*
X3271672Y-5840222D01*
X3270453Y-5831484D01*
X3267760Y-5823458D01*
X3263646Y-5816092D01*
X3257905Y-5809183D01*
X2855569Y-5406847D01*
X2853385Y-5403545D01*
X2852623Y-5399684D01*
X2852572Y-5040122D01*
X2851353Y-5031384D01*
X2848660Y-5023358D01*
X2844546Y-5015992D01*
X2838805Y-5009083D01*
X2677769Y-4848047D01*
X2675585Y-4844745D01*
X2674823Y-4840884D01*
X2674823Y-4828540D01*
X2675788Y-4824171D01*
X2678480Y-4820716D01*
X2682443Y-4818684D01*
X2686862Y-4818532D01*
X2690926Y-4820310D01*
X2693873Y-4823612D01*
X2695956Y-4827422D01*
X2705455Y-4840782D01*
X2716326Y-4852974D01*
X2728518Y-4863846D01*
X2741879Y-4873345D01*
X2756204Y-4881270D01*
X2771292Y-4887518D01*
X2787040Y-4892040D01*
X2803144Y-4894783D01*
X2819501Y-4895697D01*
X2835859Y-4894783D01*
X2851962Y-4892040D01*
X2867710Y-4887518D01*
X2882798Y-4881270D01*
X2897124Y-4873345D01*
X2910484Y-4863846D01*
X2922676Y-4852974D01*
X2933547Y-4840782D01*
X2943047Y-4827422D01*
X2950972Y-4813096D01*
X2957169Y-4798161D01*
X2959354Y-4794859D01*
X2962656Y-4792624D01*
X2966516Y-4791862D01*
X2970428Y-4792624D01*
X2973730Y-4794859D01*
X2975914Y-4798161D01*
X2976676Y-4802022D01*
X2976727Y-4878578D01*
X2977946Y-4887315D01*
X2980639Y-4895342D01*
X2984754Y-4902708D01*
X2990494Y-4909616D01*
X3075330Y-4994452D01*
X3077718Y-4998212D01*
X3078276Y-5002580D01*
X3076905Y-5006797D01*
X3073908Y-5010048D01*
X3069793Y-5011674D01*
X3065373Y-5011420D01*
X3051962Y-5007559D01*
X3035858Y-5004816D01*
X3019501Y-5003901D01*
X3003143Y-5004816D01*
X2987040Y-5007559D01*
X2971292Y-5012080D01*
X2956204Y-5018328D01*
X2941878Y-5026253D01*
X2928518Y-5035753D01*
X2916326Y-5046624D01*
X2905455Y-5058816D01*
X2895955Y-5072176D01*
X2888030Y-5086502D01*
X2881782Y-5101590D01*
X2877261Y-5117338D01*
X2874518Y-5133441D01*
X2873603Y-5149799D01*
X2874518Y-5166156D01*
X2877261Y-5182260D01*
X2881782Y-5198008D01*
X2888030Y-5213096D01*
X2895955Y-5227421D01*
X2905455Y-5240782D01*
X2916326Y-5252974D01*
X2928518Y-5263845D01*
X2941878Y-5273344D01*
X2956204Y-5281269D01*
X2971292Y-5287518D01*
X2987040Y-5292039D01*
X3003143Y-5294782D01*
X3019501Y-5295696D01*
X3035858Y-5294782D01*
X3051962Y-5292039D01*
X3067710Y-5287518D01*
X3082798Y-5281269D01*
X3097123Y-5273344D01*
X3110484Y-5263845D01*
X3122676Y-5252974D01*
X3133547Y-5240782D01*
X3143046Y-5227421D01*
X3148126Y-5218176D01*
X3151073Y-5214874D01*
X3155137Y-5213096D01*
X3159556Y-5213248D01*
X3163519Y-5215280D01*
X3166211Y-5218785D01*
X3167176Y-5223103D01*
X3167227Y-5348478D01*
X3168446Y-5357215D01*
X3171139Y-5365242D01*
X3175254Y-5372608D01*
X3180994Y-5379516D01*
X3570630Y-5769152D01*
X3572814Y-5772454D01*
X3573576Y-5776315D01*
X3573627Y-7012178D01*
X3574846Y-7020915D01*
X3577539Y-7028942D01*
X3581654Y-7036308D01*
X3587394Y-7043216D01*
X4794808Y-8250580D01*
X4801870Y-8255914D01*
X4809439Y-8259673D01*
X4817567Y-8261959D01*
X4826457Y-8262823D01*
X5757722Y-8262823D01*
X5761177Y-8263432D01*
X5764174Y-8265159D01*
X5766460Y-8267801D01*
X5770524Y-8274659D01*
X5779008Y-8285378D01*
X5788812Y-8294878D01*
X5799785Y-8302955D01*
X5811723Y-8309508D01*
X5824474Y-8314385D01*
X5837732Y-8317585D01*
X5851296Y-8318906D01*
X5864910Y-8318449D01*
X5878372Y-8316214D01*
X5891377Y-8312150D01*
X5903772Y-8306409D01*
X5915253Y-8299094D01*
X5925667Y-8290306D01*
X5934811Y-8280146D01*
X5942533Y-8268919D01*
X5948680Y-8256778D01*
X5953150Y-8243874D01*
X5955893Y-8230514D01*
X5956808Y-8216900D01*
X5955893Y-8203285D01*
X5953150Y-8189925D01*
X5948680Y-8177022D01*
X5942533Y-8164880D01*
X5934811Y-8153653D01*
X5925667Y-8143494D01*
X5915253Y-8134705D01*
X5903772Y-8127390D01*
X5891377Y-8121650D01*
X5878372Y-8117586D01*
X5864910Y-8115350D01*
X5851296Y-8114893D01*
X5837732Y-8116214D01*
X5824474Y-8119414D01*
X5811723Y-8124291D01*
X5799785Y-8130844D01*
X5788812Y-8138922D01*
X5779008Y-8148421D01*
X5770524Y-8159140D01*
X5766460Y-8165998D01*
X5764174Y-8168640D01*
X5761177Y-8170367D01*
X5757722Y-8170976D01*
X4849215Y-8170976D01*
X4845354Y-8170214D01*
X4842052Y-8168030D01*
X3668369Y-6994347D01*
X3666185Y-6991045D01*
X3665423Y-6987184D01*
X3665423Y-6934911D01*
X3666286Y-6930745D01*
X3668776Y-6927342D01*
X3672484Y-6925208D01*
X3676700Y-6924802D01*
X3680714Y-6926122D01*
X3683863Y-6929018D01*
X3685540Y-6932930D01*
X3685997Y-6935216D01*
X3690264Y-6947865D01*
X3696208Y-6959853D01*
X3703624Y-6970928D01*
X3712413Y-6980986D01*
X3722471Y-6989775D01*
X3733546Y-6997192D01*
X3745534Y-7003135D01*
X3758184Y-7007402D01*
X3771290Y-7009993D01*
X3784955Y-7010908D01*
X3835044Y-7010908D01*
X3848709Y-7009993D01*
X3861815Y-7007402D01*
X3874465Y-7003135D01*
X3886454Y-6997192D01*
X3897528Y-6989775D01*
X3907586Y-6980986D01*
X3916375Y-6970928D01*
X3923792Y-6959853D01*
X3929735Y-6947865D01*
X3934002Y-6935216D01*
X3936593Y-6922109D01*
X3937508Y-6908800D01*
X3936593Y-6895490D01*
X3934002Y-6882384D01*
X3929735Y-6869734D01*
X3923792Y-6857746D01*
X3916375Y-6846671D01*
X3907586Y-6836613D01*
X3897528Y-6827824D01*
X3886454Y-6820408D01*
X3874465Y-6814464D01*
X3861815Y-6810197D01*
X3848709Y-6807606D01*
X3835044Y-6806692D01*
X3784955Y-6806692D01*
X3771290Y-6807606D01*
X3758184Y-6810197D01*
X3745534Y-6814464D01*
X3733546Y-6820408D01*
X3722471Y-6827824D01*
X3712413Y-6836613D01*
X3703624Y-6846671D01*
X3696208Y-6857746D01*
X3690264Y-6869734D01*
X3685997Y-6882384D01*
X3685540Y-6884670D01*
X3683863Y-6888581D01*
X3680714Y-6891477D01*
X3676700Y-6892798D01*
X3672484Y-6892391D01*
X3668776Y-6890258D01*
X3666286Y-6886854D01*
X3665423Y-6882688D01*
X3665423Y-5969711D01*
X3666286Y-5965545D01*
X3668776Y-5962142D01*
X3672484Y-5960008D01*
X3676700Y-5959602D01*
X3680714Y-5960922D01*
X3683863Y-5963818D01*
X3685540Y-5967730D01*
X3685997Y-5970016D01*
X3690264Y-5982665D01*
X3696208Y-5994654D01*
X3703624Y-6005728D01*
X3712413Y-6015786D01*
X3722471Y-6024575D01*
X3733546Y-6031992D01*
X3745534Y-6037935D01*
X3758184Y-6042202D01*
X3771290Y-6044793D01*
X3784955Y-6045708D01*
X3835044Y-6045708D01*
X3848709Y-6044793D01*
X3861815Y-6042202D01*
X3874465Y-6037935D01*
X3886454Y-6031992D01*
X3897528Y-6024575D01*
X3907586Y-6015786D01*
X3916375Y-6005728D01*
X3923792Y-5994654D01*
X3929735Y-5982665D01*
X3934002Y-5970016D01*
X3936593Y-5956909D01*
X3937508Y-5943600D01*
X3936593Y-5930290D01*
X3934002Y-5917184D01*
X3929735Y-5904534D01*
X3923792Y-5892546D01*
X3916375Y-5881471D01*
X3907586Y-5871413D01*
X3897528Y-5862624D01*
X3886454Y-5855208D01*
X3874465Y-5849264D01*
X3861815Y-5844997D01*
X3848709Y-5842406D01*
X3835044Y-5841492D01*
X3784955Y-5841492D01*
X3771290Y-5842406D01*
X3758184Y-5844997D01*
X3745534Y-5849264D01*
X3733546Y-5855208D01*
X3722471Y-5862624D01*
X3712413Y-5871413D01*
X3703624Y-5881471D01*
X3696208Y-5892546D01*
X3690264Y-5904534D01*
X3685997Y-5917184D01*
X3685540Y-5919470D01*
X3683863Y-5923381D01*
X3680714Y-5926277D01*
X3676700Y-5927598D01*
X3672484Y-5927191D01*
X3668776Y-5925058D01*
X3666286Y-5921654D01*
X3665423Y-5917488D01*
X3665372Y-5751322D01*
X3664153Y-5742584D01*
X3661460Y-5734558D01*
X3657346Y-5727192D01*
X3651605Y-5720283D01*
X3261969Y-5330647D01*
X3259785Y-5327345D01*
X3259023Y-5323484D01*
X3259023Y-5190845D01*
X3259836Y-5186832D01*
X3262223Y-5183428D01*
X3265728Y-5181295D01*
X3269843Y-5180736D01*
X3273806Y-5181803D01*
X3277006Y-5184394D01*
X3278936Y-5188051D01*
X3281781Y-5198008D01*
X3288029Y-5213096D01*
X3295954Y-5227421D01*
X3305454Y-5240782D01*
X3316325Y-5252974D01*
X3328517Y-5263845D01*
X3341878Y-5273344D01*
X3356203Y-5281269D01*
X3371291Y-5287518D01*
X3387039Y-5292039D01*
X3403142Y-5294782D01*
X3419500Y-5295696D01*
X3435858Y-5294782D01*
X3451961Y-5292039D01*
X3467709Y-5287518D01*
X3482797Y-5281269D01*
X3497122Y-5273344D01*
X3510483Y-5263845D01*
X3522675Y-5252974D01*
X3533546Y-5240782D01*
X3543046Y-5227421D01*
X3550970Y-5213096D01*
X3557219Y-5198008D01*
X3561740Y-5182260D01*
X3564483Y-5166156D01*
X3565398Y-5149799D01*
X3564483Y-5133441D01*
X3561740Y-5117338D01*
X3557219Y-5101590D01*
X3550970Y-5086502D01*
X3543046Y-5072176D01*
X3533546Y-5058816D01*
X3522675Y-5046624D01*
X3510483Y-5035753D01*
X3497122Y-5026253D01*
X3482797Y-5018328D01*
X3467709Y-5012080D01*
X3451961Y-5007559D01*
X3435858Y-5004816D01*
X3419500Y-5003901D01*
X3403142Y-5004816D01*
X3387039Y-5007559D01*
X3371291Y-5012080D01*
X3356203Y-5018328D01*
X3341878Y-5026253D01*
X3328517Y-5035753D01*
X3316325Y-5046624D01*
X3305454Y-5058816D01*
X3295954Y-5072176D01*
X3288029Y-5086502D01*
X3281781Y-5101590D01*
X3278936Y-5111546D01*
X3277006Y-5115204D01*
X3273806Y-5117795D01*
X3269843Y-5118862D01*
X3265728Y-5118303D01*
X3262223Y-5116169D01*
X3259836Y-5112766D01*
X3259023Y-5108752D01*
X3258972Y-5065522D01*
X3257753Y-5056784D01*
X3255060Y-5048758D01*
X3250946Y-5041392D01*
X3245205Y-5034483D01*
X3071469Y-4860747D01*
X3069285Y-4857445D01*
X3068523Y-4853584D01*
X3068523Y-4817008D01*
X3069488Y-4812639D01*
X3070352Y-4811522D01*
X3069285Y-4809896D01*
X3068523Y-4805984D01*
X3068523Y-4693615D01*
X3069285Y-4689703D01*
X3070352Y-4688078D01*
X3069488Y-4686960D01*
X3068523Y-4682642D01*
X3068472Y-4671720D01*
X3067253Y-4663084D01*
X3064560Y-4655058D01*
X3060446Y-4647692D01*
X3054705Y-4640783D01*
X2868269Y-4454347D01*
X2866085Y-4451045D01*
X2865323Y-4447184D01*
X2865323Y-4409287D01*
X2866085Y-4405376D01*
X2868269Y-4402074D01*
X2871571Y-4399889D01*
X2875483Y-4399127D01*
X2879344Y-4399889D01*
X2882646Y-4402074D01*
X2884830Y-4405376D01*
X2888030Y-4413097D01*
X2895955Y-4427423D01*
X2905455Y-4440783D01*
X2916326Y-4452975D01*
X2928518Y-4463846D01*
X2941878Y-4473346D01*
X2956204Y-4481271D01*
X2971292Y-4487519D01*
X2987040Y-4492040D01*
X3003143Y-4494784D01*
X3019501Y-4495698D01*
X3035858Y-4494784D01*
X3051962Y-4492040D01*
X3067710Y-4487519D01*
X3082798Y-4481271D01*
X3097123Y-4473346D01*
X3110484Y-4463846D01*
X3122676Y-4452975D01*
X3133547Y-4440783D01*
X3143046Y-4427423D01*
X3150971Y-4413097D01*
X3157220Y-4398010D01*
X3161741Y-4382262D01*
X3164484Y-4366158D01*
X3165398Y-4349800D01*
X3164484Y-4333443D01*
X3161741Y-4317339D01*
X3157220Y-4301591D01*
X3150971Y-4286504D01*
X3143046Y-4272178D01*
X3133547Y-4258818D01*
X3122676Y-4246626D01*
X3110484Y-4235754D01*
X3097123Y-4226255D01*
X3082798Y-4218330D01*
X3067710Y-4212082D01*
X3051962Y-4207560D01*
X3035858Y-4204817D01*
X3019501Y-4203903D01*
X3003143Y-4204817D01*
X2987040Y-4207560D01*
X2971292Y-4212082D01*
X2956204Y-4218330D01*
X2941878Y-4226255D01*
X2928518Y-4235754D01*
X2916326Y-4246626D01*
X2905455Y-4258818D01*
X2895955Y-4272178D01*
X2888030Y-4286504D01*
X2884830Y-4294225D01*
X2882646Y-4297527D01*
X2879344Y-4299712D01*
X2875483Y-4300474D01*
X2871571Y-4299712D01*
X2868269Y-4297527D01*
X2866085Y-4294225D01*
X2865323Y-4290314D01*
X2865272Y-4100322D01*
X2864053Y-4091584D01*
X2861360Y-4083558D01*
X2857246Y-4076192D01*
X2851505Y-4069283D01*
X2660091Y-3877919D01*
X2653030Y-3872585D01*
X2645460Y-3868826D01*
X2637332Y-3866540D01*
X2628442Y-3865676D01*
X1829206Y-3865676D01*
X1825802Y-3865118D01*
X1822805Y-3863390D01*
X1815439Y-3857396D01*
X1806244Y-3852062D01*
X1796338Y-3848303D01*
X1785924Y-3846220D01*
X1775358Y-3845763D01*
X1764842Y-3847033D01*
X1754632Y-3850030D01*
X1745081Y-3854551D01*
X1736343Y-3860596D01*
X1728673Y-3867912D01*
X1722323Y-3876395D01*
X1717395Y-3885793D01*
X1714042Y-3895851D01*
X1712315Y-3906316D01*
X1712315Y-3916883D01*
X1714042Y-3927348D01*
X1717395Y-3937406D01*
X1722323Y-3946804D01*
X1728673Y-3955287D01*
X1736343Y-3962603D01*
X1745081Y-3968648D01*
X1754632Y-3973169D01*
X1764842Y-3976166D01*
X1775358Y-3977436D01*
X1785924Y-3976979D01*
X1796338Y-3974896D01*
X1806244Y-3971137D01*
X1815439Y-3965803D01*
X1822805Y-3959809D01*
X1825802Y-3958082D01*
X1829206Y-3957523D01*
X2605684Y-3957523D01*
X2609545Y-3958285D01*
X2612847Y-3960469D01*
X2770530Y-4118152D01*
X2772714Y-4121454D01*
X2773476Y-4125315D01*
X2773476Y-4289856D01*
X2772714Y-4293717D01*
X2770530Y-4297019D01*
X2767228Y-4299254D01*
X2763316Y-4300016D01*
X2759456Y-4299254D01*
X2756154Y-4297019D01*
X2753969Y-4293717D01*
X2750972Y-4286504D01*
X2743047Y-4272178D01*
X2733548Y-4258818D01*
X2722676Y-4246626D01*
X2710484Y-4235754D01*
X2697124Y-4226255D01*
X2682798Y-4218330D01*
X2667711Y-4212082D01*
X2651963Y-4207560D01*
X2635859Y-4204817D01*
X2619502Y-4203903D01*
X2603144Y-4204817D01*
X2587040Y-4207560D01*
X2571292Y-4212082D01*
X2556205Y-4218330D01*
X2541879Y-4226255D01*
X2528519Y-4235754D01*
X2516327Y-4246626D01*
X2505456Y-4258818D01*
X2502763Y-4262628D01*
X2499664Y-4265472D01*
X2495651Y-4266844D01*
X2491435Y-4266438D01*
X2487777Y-4264355D01*
X2485237Y-4261002D01*
X2484323Y-4256887D01*
X2484272Y-4252671D01*
X2483053Y-4243984D01*
X2480360Y-4235958D01*
X2476246Y-4228592D01*
X2470505Y-4221683D01*
X2329891Y-4081119D01*
X2322830Y-4075785D01*
X2315260Y-4072026D01*
X2307132Y-4069740D01*
X2298242Y-4068876D01*
X1782267Y-4068876D01*
X1778355Y-4068114D01*
X1775053Y-4065930D01*
X1414780Y-3705656D01*
X1412748Y-3702710D01*
X1411833Y-3699306D01*
X1411224Y-3691382D01*
X1408684Y-3681120D01*
X1404518Y-3671366D01*
X1398879Y-3662375D01*
X1391818Y-3654450D01*
X1383639Y-3647744D01*
X1374444Y-3642461D01*
X1364538Y-3638702D01*
X1354124Y-3636568D01*
X1343558Y-3636162D01*
X1333042Y-3637432D01*
X1322832Y-3640378D01*
X1313281Y-3644900D01*
X1304544Y-3650945D01*
X1296873Y-3658311D01*
X1290523Y-3666744D01*
X1285595Y-3676142D01*
X1282242Y-3686200D01*
X1280515Y-3696665D01*
X1280515Y-3707282D01*
X1282242Y-3717747D01*
X1285595Y-3727805D01*
X1290523Y-3737203D01*
X1296873Y-3745636D01*
X1304544Y-3753002D01*
X1313281Y-3759047D01*
X1322832Y-3763568D01*
X1333042Y-3766515D01*
X1344117Y-3767886D01*
X1347317Y-3768801D01*
X1350060Y-3770782D01*
X1727860Y-4148480D01*
X1734870Y-4153814D01*
X1742439Y-4157573D01*
X1750618Y-4159859D01*
X1759508Y-4160723D01*
X2275484Y-4160723D01*
X2279345Y-4161485D01*
X2282647Y-4163669D01*
X2389530Y-4270552D01*
X2391714Y-4273854D01*
X2392476Y-4277715D01*
X2392527Y-4484878D01*
X2393746Y-4493615D01*
X2396439Y-4501642D01*
X2400554Y-4509008D01*
X2406294Y-4515916D01*
X2490927Y-4600549D01*
X2493162Y-4603851D01*
X2493924Y-4607763D01*
X2493162Y-4611624D01*
X2490927Y-4614926D01*
X2487625Y-4617161D01*
X2483764Y-4617923D01*
X2479852Y-4617161D01*
X2467711Y-4612081D01*
X2451963Y-4607560D01*
X2435860Y-4604816D01*
X2419502Y-4603902D01*
X2403144Y-4604816D01*
X2387041Y-4607560D01*
X2371293Y-4612081D01*
X2356205Y-4618329D01*
X2341880Y-4626254D01*
X2328519Y-4635754D01*
X2316327Y-4646625D01*
X2305456Y-4658817D01*
X2295956Y-4672177D01*
X2288032Y-4686503D01*
X2281783Y-4701590D01*
X2277262Y-4717338D01*
X2274519Y-4733442D01*
X2273604Y-4749800D01*
X2274519Y-4766157D01*
X2277262Y-4782261D01*
X2281783Y-4798009D01*
X2288032Y-4813096D01*
X2295956Y-4827422D01*
X2305456Y-4840782D01*
X2316327Y-4852974D01*
X2328519Y-4863846D01*
X2341880Y-4873345D01*
X2356205Y-4881270D01*
X2371293Y-4887518D01*
X2387041Y-4892040D01*
X2403144Y-4894783D01*
X2419502Y-4895697D01*
X2435860Y-4894783D01*
X2451963Y-4892040D01*
X2467711Y-4887518D01*
X2482799Y-4881270D01*
X2497124Y-4873345D01*
X2510485Y-4863846D01*
X2522677Y-4852974D01*
X2533548Y-4840782D01*
X2543048Y-4827422D01*
X2550972Y-4813096D01*
X2557221Y-4798009D01*
X2561742Y-4782261D01*
X2562809Y-4775911D01*
X2564384Y-4771948D01*
X2567482Y-4769002D01*
X2571546Y-4767529D01*
X2575814Y-4767935D01*
X2579522Y-4770018D01*
X2582113Y-4773422D01*
X2582976Y-4777638D01*
X2583027Y-4865878D01*
X2584246Y-4874615D01*
X2586939Y-4882642D01*
X2591054Y-4890008D01*
X2596794Y-4896916D01*
X2711856Y-5011978D01*
X2714193Y-5015585D01*
X2714802Y-5019802D01*
X2713634Y-5023967D01*
X2710891Y-5027218D01*
X2707030Y-5029047D01*
X2702712Y-5029149D01*
X2698800Y-5027472D01*
X2697124Y-5026253D01*
X2682798Y-5018328D01*
X2667711Y-5012080D01*
X2651963Y-5007559D01*
X2635859Y-5004816D01*
X2619502Y-5003901D01*
X2603144Y-5004816D01*
X2587040Y-5007559D01*
X2571292Y-5012080D01*
X2556205Y-5018328D01*
X2541879Y-5026253D01*
X2528519Y-5035753D01*
X2516327Y-5046624D01*
X2505456Y-5058816D01*
X2495956Y-5072176D01*
X2488031Y-5086502D01*
X2481783Y-5101590D01*
X2478836Y-5111902D01*
X2476906Y-5115560D01*
X2473706Y-5118150D01*
X2469743Y-5119217D01*
X2465628Y-5118658D01*
X2462123Y-5116525D01*
X2459736Y-5113121D01*
X2458923Y-5109108D01*
X2458872Y-5085994D01*
X2457653Y-5077358D01*
X2454960Y-5069332D01*
X2450846Y-5061966D01*
X2445105Y-5055108D01*
X1014069Y-3624021D01*
X1011885Y-3620719D01*
X1011123Y-3616858D01*
X1011123Y-2115464D01*
X1011682Y-2112111D01*
X1013307Y-2109165D01*
X1015796Y-2106879D01*
X1025296Y-2100834D01*
X1035608Y-2092096D01*
X1044702Y-2082088D01*
X1052322Y-2070912D01*
X1058468Y-2058822D01*
X1062888Y-2046071D01*
X1065580Y-2032812D01*
X1066495Y-2019300D01*
X1065580Y-2005787D01*
X1062888Y-1992528D01*
X1058468Y-1979777D01*
X1052322Y-1967687D01*
X1044702Y-1956511D01*
X1035608Y-1946503D01*
X1025296Y-1937766D01*
X1013866Y-1930501D01*
X1001623Y-1924761D01*
X988669Y-1920798D01*
X975360Y-1918512D01*
X961796Y-1918055D01*
X948334Y-1919427D01*
X935177Y-1922576D01*
X922578Y-1927402D01*
X910691Y-1933905D01*
X899820Y-1941931D01*
X890066Y-1951380D01*
X881684Y-1961997D01*
X874776Y-1973630D01*
X869543Y-1986076D01*
X865936Y-1999132D01*
X864158Y-2012543D01*
X864158Y-2026056D01*
X865936Y-2039467D01*
X869543Y-2052523D01*
X874776Y-2064969D01*
X881684Y-2076602D01*
X890066Y-2087219D01*
X899820Y-2096668D01*
X910691Y-2104694D01*
X913993Y-2106472D01*
X916838Y-2108758D01*
X918667Y-2111857D01*
X919276Y-2115413D01*
X919327Y-3641851D01*
X920546Y-3650589D01*
X923239Y-3658615D01*
X927353Y-3665982D01*
X933094Y-3672890D01*
X1141374Y-3881170D01*
X1143762Y-3884929D01*
X1144270Y-3889349D01*
X1142847Y-3893616D01*
X1139799Y-3896817D01*
X1135583Y-3898392D01*
X1131163Y-3898036D01*
X1129639Y-3897579D01*
X1114704Y-3894836D01*
X1099515Y-3893921D01*
X1084326Y-3894836D01*
X1069390Y-3897579D01*
X1054862Y-3902100D01*
X1040993Y-3908348D01*
X1027988Y-3916222D01*
X1016050Y-3925570D01*
X1005281Y-3936339D01*
X995934Y-3948277D01*
X988060Y-3961282D01*
X981811Y-3975150D01*
X977290Y-3989679D01*
X974547Y-4004614D01*
X973632Y-4019804D01*
X974547Y-4034993D01*
X977290Y-4049928D01*
X981811Y-4064457D01*
X988060Y-4078325D01*
X995934Y-4091330D01*
X1005281Y-4103268D01*
X1016050Y-4114037D01*
X1027988Y-4123385D01*
X1040993Y-4131259D01*
X1054862Y-4137507D01*
X1069390Y-4142028D01*
X1084326Y-4144772D01*
X1099515Y-4145686D01*
X1114704Y-4144772D01*
X1129639Y-4142028D01*
X1144168Y-4137507D01*
X1158036Y-4131259D01*
X1171041Y-4123385D01*
X1182979Y-4114037D01*
X1193749Y-4103268D01*
X1203096Y-4091330D01*
X1210970Y-4078325D01*
X1217218Y-4064457D01*
X1221740Y-4049928D01*
X1224483Y-4034993D01*
X1225397Y-4019804D01*
X1224483Y-4004614D01*
X1221740Y-3989679D01*
X1221282Y-3988155D01*
X1220927Y-3983736D01*
X1222502Y-3979519D01*
X1225702Y-3976471D01*
X1229969Y-3975049D01*
X1234389Y-3975557D01*
X1238148Y-3977944D01*
X2242769Y-4982565D01*
X2245055Y-4986070D01*
X2245715Y-4990185D01*
X2244699Y-4994249D01*
X2242108Y-4997551D01*
X2238400Y-4999532D01*
X2234234Y-4999837D01*
X2231288Y-4999431D01*
X2214372Y-4999024D01*
X2197506Y-5000548D01*
X2180945Y-5003952D01*
X2164842Y-5009184D01*
X2149449Y-5016195D01*
X2134920Y-5024882D01*
X2121458Y-5035092D01*
X2109216Y-5046827D01*
X2098192Y-5060035D01*
X1923796Y-5294528D01*
X1914296Y-5308854D01*
X1906625Y-5323941D01*
X1900682Y-5339791D01*
X1896567Y-5356199D01*
X1894128Y-5374436D01*
X1690979Y-8244078D01*
X1690573Y-8255203D01*
X1690725Y-8261096D01*
X1691589Y-8272068D01*
X1692351Y-8277910D01*
X1694434Y-8288731D01*
X1695856Y-8294471D01*
X1699107Y-8304987D01*
X1701190Y-8310524D01*
X1705610Y-8320633D01*
X1708302Y-8325916D01*
X1713839Y-8335416D01*
X1717090Y-8340394D01*
X1723643Y-8349234D01*
X1727403Y-8353755D01*
X1734972Y-8361934D01*
X2995676Y-9622637D01*
X3008528Y-9634067D01*
X3022346Y-9643872D01*
X3037128Y-9652050D01*
X3052775Y-9658553D01*
X3069031Y-9663226D01*
X3085693Y-9666071D01*
G37*
G36*
X271221Y-442518D02*
G01*
X289306Y-441147D01*
X307086Y-437896D01*
X324510Y-432816D01*
X341274Y-426008D01*
X357225Y-417474D01*
X372262Y-407365D01*
X386181Y-395782D01*
X398830Y-382828D01*
X410057Y-368604D01*
X419760Y-353314D01*
X427888Y-337159D01*
X434238Y-320192D01*
X438861Y-302666D01*
X441655Y-284784D01*
X442569Y-266700D01*
X441655Y-248615D01*
X438861Y-230733D01*
X434238Y-213207D01*
X427888Y-196240D01*
X419760Y-180086D01*
X410057Y-164795D01*
X398830Y-150571D01*
X386181Y-137617D01*
X372262Y-126034D01*
X357225Y-115925D01*
X341274Y-107391D01*
X324510Y-100584D01*
X307086Y-95504D01*
X289306Y-92252D01*
X271221Y-90881D01*
X253136Y-91338D01*
X235153Y-93675D01*
X217525Y-97790D01*
X200456Y-103784D01*
X184048Y-111455D01*
X168503Y-120751D01*
X154025Y-131622D01*
X140716Y-143916D01*
X128778Y-157530D01*
X118262Y-172313D01*
X109372Y-188061D01*
X102108Y-204673D01*
X96621Y-221894D01*
X92913Y-239623D01*
X91033Y-257657D01*
X91033Y-275742D01*
X92913Y-293776D01*
X96621Y-311505D01*
X102108Y-328726D01*
X109372Y-345338D01*
X118262Y-361086D01*
X128778Y-375869D01*
X140716Y-389483D01*
X154025Y-401777D01*
X168503Y-412648D01*
X184048Y-421944D01*
X200456Y-429615D01*
X217525Y-435609D01*
X235153Y-439724D01*
X253136Y-442061D01*
G37*
G36*
X3668115Y-451256D02*
G01*
X3715156Y-451256D01*
X3715156Y-404215D01*
X3704691Y-409905D01*
X3693820Y-417931D01*
X3684066Y-427380D01*
X3675684Y-437997D01*
X3668776Y-449630D01*
G37*
G36*
X3803243Y-451256D02*
G01*
X3850182Y-451256D01*
X3846322Y-443687D01*
X3838701Y-432511D01*
X3829608Y-422503D01*
X3819296Y-413766D01*
X3807866Y-406501D01*
X3803243Y-404317D01*
G37*
G36*
X5779058Y-9335008D02*
G01*
X5930341Y-9335008D01*
X5936640Y-9334296D01*
X5942126Y-9332366D01*
X5947003Y-9329318D01*
X5951118Y-9325203D01*
X5954166Y-9320326D01*
X5956096Y-9314840D01*
X5956808Y-9308541D01*
X5956808Y-9157258D01*
X5956096Y-9150959D01*
X5954166Y-9145473D01*
X5951118Y-9140596D01*
X5947003Y-9136481D01*
X5942126Y-9133433D01*
X5936640Y-9131503D01*
X5930341Y-9130792D01*
X5779058Y-9130792D01*
X5772759Y-9131503D01*
X5767273Y-9133433D01*
X5762396Y-9136481D01*
X5758281Y-9140596D01*
X5755233Y-9145473D01*
X5753303Y-9150959D01*
X5752592Y-9157258D01*
X5752592Y-9308541D01*
X5753303Y-9314840D01*
X5755233Y-9320326D01*
X5758281Y-9325203D01*
X5762396Y-9329318D01*
X5767273Y-9332366D01*
X5772759Y-9334296D01*
G37*
G36*
X3803243Y-586282D02*
G01*
X3807866Y-584098D01*
X3819296Y-576834D01*
X3829608Y-568096D01*
X3838701Y-558088D01*
X3846322Y-546912D01*
X3850182Y-539343D01*
X3803243Y-539343D01*
G37*
G36*
X3715156Y-586384D02*
G01*
X3715156Y-539343D01*
X3668115Y-539343D01*
X3668776Y-540969D01*
X3675684Y-552602D01*
X3684066Y-563219D01*
X3693820Y-572668D01*
X3704691Y-580694D01*
G37*
G36*
X2993796Y-596544D02*
G01*
X3007360Y-596087D01*
X3020669Y-593801D01*
X3033623Y-589838D01*
X3045866Y-584098D01*
X3057296Y-576834D01*
X3067608Y-568096D01*
X3076702Y-558088D01*
X3084322Y-546912D01*
X3090468Y-534822D01*
X3094888Y-522071D01*
X3097580Y-508812D01*
X3098495Y-495300D01*
X3097580Y-481787D01*
X3094888Y-468528D01*
X3090468Y-455777D01*
X3084322Y-443687D01*
X3076702Y-432511D01*
X3067608Y-422503D01*
X3057296Y-413766D01*
X3045866Y-406501D01*
X3033623Y-400761D01*
X3020669Y-396798D01*
X3007360Y-394512D01*
X2993796Y-394055D01*
X2980334Y-395427D01*
X2967177Y-398576D01*
X2954578Y-403402D01*
X2942691Y-409905D01*
X2931820Y-417931D01*
X2922066Y-427380D01*
X2913684Y-437997D01*
X2906776Y-449630D01*
X2901543Y-462076D01*
X2897936Y-475132D01*
X2896158Y-488543D01*
X2896158Y-502056D01*
X2897936Y-515467D01*
X2901543Y-528523D01*
X2906776Y-540969D01*
X2913684Y-552602D01*
X2922066Y-563219D01*
X2931820Y-572668D01*
X2942691Y-580694D01*
X2954578Y-587197D01*
X2967177Y-592023D01*
X2980334Y-595172D01*
G37*
G36*
X2985058Y-8700008D02*
G01*
X3136341Y-8700008D01*
X3142640Y-8699296D01*
X3148126Y-8697366D01*
X3153003Y-8694318D01*
X3157118Y-8690203D01*
X3160166Y-8685326D01*
X3162096Y-8679840D01*
X3162808Y-8673541D01*
X3162808Y-8522258D01*
X3162096Y-8515959D01*
X3160166Y-8510473D01*
X3157118Y-8505596D01*
X3153003Y-8501481D01*
X3148126Y-8498433D01*
X3142640Y-8496503D01*
X3136341Y-8495792D01*
X2985058Y-8495792D01*
X2978759Y-8496503D01*
X2973273Y-8498433D01*
X2968396Y-8501481D01*
X2964281Y-8505596D01*
X2961233Y-8510473D01*
X2959303Y-8515959D01*
X2958592Y-8522258D01*
X2958592Y-8673541D01*
X2959303Y-8679840D01*
X2961233Y-8685326D01*
X2964281Y-8690203D01*
X2968396Y-8694318D01*
X2973273Y-8697366D01*
X2978759Y-8699296D01*
G37*
G36*
X2231796Y-596544D02*
G01*
X2245360Y-596087D01*
X2258669Y-593801D01*
X2271623Y-589838D01*
X2283866Y-584098D01*
X2295296Y-576834D01*
X2305608Y-568096D01*
X2314702Y-558088D01*
X2322322Y-546912D01*
X2328468Y-534822D01*
X2332888Y-522071D01*
X2335580Y-508812D01*
X2336495Y-495300D01*
X2335580Y-481787D01*
X2332888Y-468528D01*
X2328468Y-455777D01*
X2322322Y-443687D01*
X2314702Y-432511D01*
X2305608Y-422503D01*
X2295296Y-413766D01*
X2283866Y-406501D01*
X2271623Y-400761D01*
X2258669Y-396798D01*
X2245360Y-394512D01*
X2231796Y-394055D01*
X2218334Y-395427D01*
X2205177Y-398576D01*
X2192578Y-403402D01*
X2180691Y-409905D01*
X2169820Y-417931D01*
X2160066Y-427380D01*
X2151684Y-437997D01*
X2144776Y-449630D01*
X2139543Y-462076D01*
X2135936Y-475132D01*
X2134158Y-488543D01*
X2134158Y-502056D01*
X2135936Y-515467D01*
X2139543Y-528523D01*
X2144776Y-540969D01*
X2151684Y-552602D01*
X2160066Y-563219D01*
X2169820Y-572668D01*
X2180691Y-580694D01*
X2192578Y-587197D01*
X2205177Y-592023D01*
X2218334Y-595172D01*
G37*
G36*
X5851296Y-8572906D02*
G01*
X5864910Y-8572449D01*
X5878372Y-8570214D01*
X5891377Y-8566150D01*
X5903772Y-8560409D01*
X5915253Y-8553094D01*
X5925667Y-8544306D01*
X5934811Y-8534146D01*
X5942533Y-8522919D01*
X5948680Y-8510778D01*
X5953150Y-8497874D01*
X5955893Y-8484514D01*
X5956808Y-8470900D01*
X5955893Y-8457285D01*
X5953150Y-8443925D01*
X5948680Y-8431022D01*
X5942533Y-8418880D01*
X5934811Y-8407654D01*
X5925667Y-8397494D01*
X5915253Y-8388705D01*
X5903772Y-8381390D01*
X5891377Y-8375650D01*
X5878372Y-8371586D01*
X5864910Y-8369350D01*
X5851296Y-8368893D01*
X5837732Y-8370214D01*
X5824474Y-8373414D01*
X5811723Y-8378291D01*
X5799785Y-8384844D01*
X5788812Y-8392922D01*
X5779008Y-8402421D01*
X5770524Y-8413140D01*
X5763564Y-8424875D01*
X5758281Y-8437422D01*
X5754674Y-8450580D01*
X5752846Y-8464092D01*
X5752846Y-8477707D01*
X5754674Y-8491220D01*
X5758281Y-8504377D01*
X5763564Y-8516924D01*
X5770524Y-8528659D01*
X5779008Y-8539378D01*
X5788812Y-8548878D01*
X5799785Y-8556955D01*
X5811723Y-8563508D01*
X5824474Y-8568385D01*
X5837732Y-8571585D01*
G37*
G36*
X2985058Y-8446008D02*
G01*
X3136341Y-8446008D01*
X3142640Y-8445296D01*
X3148126Y-8443366D01*
X3153003Y-8440318D01*
X3157118Y-8436203D01*
X3160166Y-8431326D01*
X3162096Y-8425840D01*
X3162808Y-8419541D01*
X3162808Y-8268258D01*
X3162096Y-8261959D01*
X3160166Y-8256473D01*
X3157118Y-8251596D01*
X3153003Y-8247481D01*
X3148126Y-8244433D01*
X3142640Y-8242503D01*
X3136341Y-8241792D01*
X2985058Y-8241792D01*
X2978759Y-8242503D01*
X2973273Y-8244433D01*
X2968396Y-8247481D01*
X2964281Y-8251596D01*
X2961233Y-8256473D01*
X2959303Y-8261959D01*
X2958592Y-8268258D01*
X2958592Y-8419541D01*
X2959303Y-8425840D01*
X2961233Y-8431326D01*
X2964281Y-8436203D01*
X2968396Y-8440318D01*
X2973273Y-8443366D01*
X2978759Y-8445296D01*
G37*
G36*
X4263796Y-596544D02*
G01*
X4277360Y-596087D01*
X4290669Y-593801D01*
X4303623Y-589838D01*
X4315866Y-584098D01*
X4327296Y-576834D01*
X4337608Y-568096D01*
X4346702Y-558088D01*
X4354322Y-546912D01*
X4360468Y-534822D01*
X4364888Y-522071D01*
X4367580Y-508812D01*
X4368495Y-495300D01*
X4367580Y-481787D01*
X4364888Y-468528D01*
X4360468Y-455777D01*
X4354322Y-443687D01*
X4346702Y-432511D01*
X4337608Y-422503D01*
X4327296Y-413766D01*
X4315866Y-406501D01*
X4303623Y-400761D01*
X4290669Y-396798D01*
X4277360Y-394512D01*
X4263796Y-394055D01*
X4250334Y-395427D01*
X4237177Y-398576D01*
X4224578Y-403402D01*
X4212691Y-409905D01*
X4201820Y-417931D01*
X4192066Y-427380D01*
X4183684Y-437997D01*
X4176776Y-449630D01*
X4171543Y-462076D01*
X4167936Y-475132D01*
X4166158Y-488543D01*
X4166158Y-502056D01*
X4167936Y-515467D01*
X4171543Y-528523D01*
X4176776Y-540969D01*
X4183684Y-552602D01*
X4192066Y-563219D01*
X4201820Y-572668D01*
X4212691Y-580694D01*
X4224578Y-587197D01*
X4237177Y-592023D01*
X4250334Y-595172D01*
G37*
G36*
X3247796Y-596544D02*
G01*
X3261360Y-596087D01*
X3274669Y-593801D01*
X3287623Y-589838D01*
X3299866Y-584098D01*
X3311296Y-576834D01*
X3321608Y-568096D01*
X3330701Y-558088D01*
X3338322Y-546912D01*
X3344468Y-534822D01*
X3348888Y-522071D01*
X3351580Y-508812D01*
X3352495Y-495300D01*
X3351580Y-481787D01*
X3348888Y-468528D01*
X3344468Y-455777D01*
X3338322Y-443687D01*
X3330701Y-432511D01*
X3321608Y-422503D01*
X3311296Y-413766D01*
X3299866Y-406501D01*
X3287623Y-400761D01*
X3274669Y-396798D01*
X3261360Y-394512D01*
X3247796Y-394055D01*
X3234334Y-395427D01*
X3221177Y-398576D01*
X3208578Y-403402D01*
X3196691Y-409905D01*
X3185820Y-417931D01*
X3176066Y-427380D01*
X3167684Y-437997D01*
X3160776Y-449630D01*
X3155543Y-462076D01*
X3151936Y-475132D01*
X3150158Y-488543D01*
X3150158Y-502056D01*
X3151936Y-515467D01*
X3155543Y-528523D01*
X3160776Y-540969D01*
X3167684Y-552602D01*
X3176066Y-563219D01*
X3185820Y-572668D01*
X3196691Y-580694D01*
X3208578Y-587197D01*
X3221177Y-592023D01*
X3234334Y-595172D01*
G37*
G36*
X5810250Y-8054695D02*
G01*
X5810250Y-8007350D01*
X5762904Y-8007350D01*
X5763564Y-8008924D01*
X5770524Y-8020659D01*
X5779008Y-8031378D01*
X5788812Y-8040878D01*
X5799785Y-8048955D01*
G37*
G36*
X5899150Y-8054543D02*
G01*
X5903772Y-8052409D01*
X5915253Y-8045094D01*
X5925667Y-8036306D01*
X5934811Y-8026146D01*
X5942533Y-8014919D01*
X5946343Y-8007350D01*
X5899150Y-8007350D01*
G37*
G36*
X5899150Y-7918450D02*
G01*
X5946343Y-7918450D01*
X5942533Y-7910880D01*
X5934811Y-7899653D01*
X5925667Y-7889494D01*
X5915253Y-7880705D01*
X5903772Y-7873390D01*
X5899150Y-7871256D01*
G37*
G36*
X5762904Y-7918450D02*
G01*
X5810250Y-7918450D01*
X5810250Y-7871104D01*
X5799785Y-7876844D01*
X5788812Y-7884922D01*
X5779008Y-7894421D01*
X5770524Y-7905140D01*
X5763564Y-7916875D01*
G37*
G36*
X5851296Y-7810906D02*
G01*
X5864910Y-7810449D01*
X5878372Y-7808214D01*
X5891377Y-7804150D01*
X5903772Y-7798409D01*
X5915253Y-7791094D01*
X5925667Y-7782306D01*
X5934811Y-7772146D01*
X5942533Y-7760919D01*
X5948680Y-7748778D01*
X5953150Y-7735874D01*
X5955893Y-7722514D01*
X5956808Y-7708900D01*
X5955893Y-7695285D01*
X5953150Y-7681925D01*
X5948680Y-7669022D01*
X5942533Y-7656880D01*
X5934811Y-7645653D01*
X5925667Y-7635494D01*
X5915253Y-7626705D01*
X5903772Y-7619390D01*
X5891377Y-7613650D01*
X5878372Y-7609586D01*
X5864910Y-7607350D01*
X5851296Y-7606893D01*
X5838342Y-7608163D01*
X5833872Y-7607655D01*
X5830112Y-7605268D01*
X5405577Y-7180732D01*
X5403392Y-7177430D01*
X5402630Y-7173518D01*
X5402630Y-6806488D01*
X5402986Y-6803644D01*
X5405018Y-6799732D01*
X5409184Y-6789978D01*
X5411724Y-6779666D01*
X5412587Y-6769100D01*
X5411724Y-6758533D01*
X5409184Y-6748221D01*
X5405018Y-6738467D01*
X5399379Y-6729526D01*
X5392318Y-6721602D01*
X5384139Y-6714896D01*
X5374944Y-6709562D01*
X5365038Y-6705803D01*
X5354624Y-6703720D01*
X5344058Y-6703263D01*
X5333542Y-6704533D01*
X5323332Y-6707530D01*
X5313781Y-6712051D01*
X5305044Y-6718096D01*
X5297373Y-6725412D01*
X5291023Y-6733895D01*
X5286095Y-6743293D01*
X5282742Y-6753352D01*
X5281015Y-6763816D01*
X5281015Y-6774383D01*
X5282742Y-6784848D01*
X5286095Y-6794906D01*
X5289651Y-6801662D01*
X5290515Y-6803948D01*
X5290769Y-6806387D01*
X5290769Y-7200696D01*
X5291023Y-7205776D01*
X5291632Y-7210602D01*
X5292699Y-7215378D01*
X5294172Y-7220000D01*
X5296052Y-7224522D01*
X5298287Y-7228840D01*
X5300929Y-7232954D01*
X5303875Y-7236815D01*
X5307330Y-7240574D01*
X5751169Y-7684465D01*
X5752998Y-7686954D01*
X5754014Y-7689900D01*
X5754065Y-7692999D01*
X5752846Y-7702092D01*
X5752846Y-7715707D01*
X5754674Y-7729220D01*
X5758281Y-7742377D01*
X5763564Y-7754924D01*
X5770524Y-7766659D01*
X5779008Y-7777378D01*
X5788812Y-7786878D01*
X5799785Y-7794955D01*
X5811723Y-7801508D01*
X5824474Y-7806385D01*
X5837732Y-7809585D01*
G37*
G36*
X2485796Y-596544D02*
G01*
X2499360Y-596087D01*
X2512669Y-593801D01*
X2525623Y-589838D01*
X2537866Y-584098D01*
X2549296Y-576834D01*
X2559608Y-568096D01*
X2568702Y-558088D01*
X2576322Y-546912D01*
X2582468Y-534822D01*
X2586888Y-522071D01*
X2589580Y-508812D01*
X2590495Y-495300D01*
X2589580Y-481787D01*
X2586888Y-468528D01*
X2582468Y-455777D01*
X2576322Y-443687D01*
X2568702Y-432511D01*
X2559608Y-422503D01*
X2549296Y-413766D01*
X2537866Y-406501D01*
X2525623Y-400761D01*
X2512669Y-396798D01*
X2499360Y-394512D01*
X2485796Y-394055D01*
X2472334Y-395427D01*
X2459177Y-398576D01*
X2446578Y-403402D01*
X2434691Y-409905D01*
X2423820Y-417931D01*
X2414066Y-427380D01*
X2405684Y-437997D01*
X2398776Y-449630D01*
X2393543Y-462076D01*
X2389936Y-475132D01*
X2388158Y-488543D01*
X2388158Y-502056D01*
X2389936Y-515467D01*
X2393543Y-528523D01*
X2398776Y-540969D01*
X2405684Y-552602D01*
X2414066Y-563219D01*
X2423820Y-572668D01*
X2434691Y-580694D01*
X2446578Y-587197D01*
X2459177Y-592023D01*
X2472334Y-595172D01*
G37*
G36*
X6657390Y-7516926D02*
G01*
X6906209Y-7516926D01*
X6912559Y-7516164D01*
X6917994Y-7514285D01*
X6922922Y-7511186D01*
X6926986Y-7507122D01*
X6930085Y-7502194D01*
X6931964Y-7496759D01*
X6932726Y-7490409D01*
X6932726Y-7241590D01*
X6931964Y-7235240D01*
X6930085Y-7229805D01*
X6926986Y-7224877D01*
X6922922Y-7220813D01*
X6917994Y-7217714D01*
X6912559Y-7215835D01*
X6906209Y-7215124D01*
X6657390Y-7215124D01*
X6651040Y-7215835D01*
X6645605Y-7217714D01*
X6640677Y-7220813D01*
X6636613Y-7224877D01*
X6633514Y-7229805D01*
X6631635Y-7235240D01*
X6630924Y-7241590D01*
X6630924Y-7490409D01*
X6631635Y-7496759D01*
X6633514Y-7502194D01*
X6636613Y-7507122D01*
X6640677Y-7511186D01*
X6645605Y-7514285D01*
X6651040Y-7516164D01*
G37*
G36*
X2997555Y-7010908D02*
G01*
X3047644Y-7010908D01*
X3061309Y-7009993D01*
X3074416Y-7007402D01*
X3087065Y-7003135D01*
X3099054Y-6997192D01*
X3110128Y-6989775D01*
X3120186Y-6980986D01*
X3128975Y-6970928D01*
X3136392Y-6959853D01*
X3142335Y-6947865D01*
X3146602Y-6935216D01*
X3149193Y-6922109D01*
X3150108Y-6908800D01*
X3149193Y-6895490D01*
X3146602Y-6882384D01*
X3142335Y-6869734D01*
X3136392Y-6857746D01*
X3128975Y-6846671D01*
X3120186Y-6836613D01*
X3110128Y-6827824D01*
X3099054Y-6820408D01*
X3087065Y-6814464D01*
X3074416Y-6810197D01*
X3061309Y-6807606D01*
X3047644Y-6806692D01*
X2997555Y-6806692D01*
X2983890Y-6807606D01*
X2970784Y-6810197D01*
X2958134Y-6814464D01*
X2946146Y-6820408D01*
X2935071Y-6827824D01*
X2925013Y-6836613D01*
X2916224Y-6846671D01*
X2908808Y-6857746D01*
X2902864Y-6869734D01*
X2898597Y-6882384D01*
X2896006Y-6895490D01*
X2895092Y-6908800D01*
X2896006Y-6922109D01*
X2898597Y-6935216D01*
X2902864Y-6947865D01*
X2908808Y-6959853D01*
X2916224Y-6970928D01*
X2925013Y-6980986D01*
X2935071Y-6989775D01*
X2946146Y-6997192D01*
X2958134Y-7003135D01*
X2970784Y-7007402D01*
X2983890Y-7009993D01*
G37*
G36*
X4178655Y-7010908D02*
G01*
X4228744Y-7010908D01*
X4242409Y-7009993D01*
X4255516Y-7007402D01*
X4268165Y-7003135D01*
X4280154Y-6997192D01*
X4291228Y-6989775D01*
X4301286Y-6980986D01*
X4310075Y-6970928D01*
X4317492Y-6959853D01*
X4323435Y-6947865D01*
X4327702Y-6935216D01*
X4330293Y-6922109D01*
X4331208Y-6908800D01*
X4330293Y-6895490D01*
X4327702Y-6882384D01*
X4323435Y-6869734D01*
X4317492Y-6857746D01*
X4310075Y-6846671D01*
X4301286Y-6836613D01*
X4291228Y-6827824D01*
X4280154Y-6820408D01*
X4268165Y-6814464D01*
X4255516Y-6810197D01*
X4242409Y-6807606D01*
X4228744Y-6806692D01*
X4178655Y-6806692D01*
X4164990Y-6807606D01*
X4151884Y-6810197D01*
X4139234Y-6814464D01*
X4127246Y-6820408D01*
X4116171Y-6827824D01*
X4106113Y-6836613D01*
X4097324Y-6846671D01*
X4089908Y-6857746D01*
X4083964Y-6869734D01*
X4079697Y-6882384D01*
X4077106Y-6895490D01*
X4076192Y-6908800D01*
X4077106Y-6922109D01*
X4079697Y-6935216D01*
X4083964Y-6947865D01*
X4089908Y-6959853D01*
X4097324Y-6970928D01*
X4106113Y-6980986D01*
X4116171Y-6989775D01*
X4127246Y-6997192D01*
X4139234Y-7003135D01*
X4151884Y-7007402D01*
X4164990Y-7009993D01*
G37*
G36*
X4572355Y-7010908D02*
G01*
X4622444Y-7010908D01*
X4636109Y-7009993D01*
X4649216Y-7007402D01*
X4661865Y-7003135D01*
X4673854Y-6997192D01*
X4684928Y-6989775D01*
X4694986Y-6980986D01*
X4703775Y-6970928D01*
X4711192Y-6959853D01*
X4717135Y-6947865D01*
X4721402Y-6935216D01*
X4723993Y-6922109D01*
X4724908Y-6908800D01*
X4723993Y-6895490D01*
X4721402Y-6882384D01*
X4717135Y-6869734D01*
X4711192Y-6857746D01*
X4703775Y-6846671D01*
X4694986Y-6836613D01*
X4684928Y-6827824D01*
X4673854Y-6820408D01*
X4661865Y-6814464D01*
X4649216Y-6810197D01*
X4636109Y-6807606D01*
X4622444Y-6806692D01*
X4572355Y-6806692D01*
X4558690Y-6807606D01*
X4545584Y-6810197D01*
X4532934Y-6814464D01*
X4520946Y-6820408D01*
X4509871Y-6827824D01*
X4499813Y-6836613D01*
X4491024Y-6846671D01*
X4483608Y-6857746D01*
X4477664Y-6869734D01*
X4473397Y-6882384D01*
X4470806Y-6895490D01*
X4469892Y-6908800D01*
X4470806Y-6922109D01*
X4473397Y-6935216D01*
X4477664Y-6947865D01*
X4483608Y-6959853D01*
X4491024Y-6970928D01*
X4499813Y-6980986D01*
X4509871Y-6989775D01*
X4520946Y-6997192D01*
X4532934Y-7003135D01*
X4545584Y-7007402D01*
X4558690Y-7009993D01*
G37*
G36*
X4966055Y-7010908D02*
G01*
X5016144Y-7010908D01*
X5029809Y-7009993D01*
X5042916Y-7007402D01*
X5055565Y-7003135D01*
X5067554Y-6997192D01*
X5078628Y-6989775D01*
X5088686Y-6980986D01*
X5097475Y-6970928D01*
X5104892Y-6959853D01*
X5110835Y-6947865D01*
X5115102Y-6935216D01*
X5117693Y-6922109D01*
X5118608Y-6908800D01*
X5117693Y-6895490D01*
X5115102Y-6882384D01*
X5110835Y-6869734D01*
X5104892Y-6857746D01*
X5097475Y-6846671D01*
X5088686Y-6836613D01*
X5078628Y-6827824D01*
X5067554Y-6820408D01*
X5055565Y-6814464D01*
X5042916Y-6810197D01*
X5029809Y-6807606D01*
X5016144Y-6806692D01*
X4966055Y-6806692D01*
X4952390Y-6807606D01*
X4939284Y-6810197D01*
X4926634Y-6814464D01*
X4914646Y-6820408D01*
X4903571Y-6827824D01*
X4893513Y-6836613D01*
X4884724Y-6846671D01*
X4877308Y-6857746D01*
X4871364Y-6869734D01*
X4867097Y-6882384D01*
X4864506Y-6895490D01*
X4863592Y-6908800D01*
X4864506Y-6922109D01*
X4867097Y-6935216D01*
X4871364Y-6947865D01*
X4877308Y-6959853D01*
X4884724Y-6970928D01*
X4893513Y-6980986D01*
X4903571Y-6989775D01*
X4914646Y-6997192D01*
X4926634Y-7003135D01*
X4939284Y-7007402D01*
X4952390Y-7009993D01*
G37*
G36*
X2739796Y-596544D02*
G01*
X2753360Y-596087D01*
X2766669Y-593801D01*
X2779623Y-589838D01*
X2791866Y-584098D01*
X2803296Y-576834D01*
X2813608Y-568096D01*
X2822702Y-558088D01*
X2830322Y-546912D01*
X2836468Y-534822D01*
X2840888Y-522071D01*
X2843580Y-508812D01*
X2844495Y-495300D01*
X2843580Y-481787D01*
X2840888Y-468528D01*
X2836468Y-455777D01*
X2830322Y-443687D01*
X2822702Y-432511D01*
X2813608Y-422503D01*
X2803296Y-413766D01*
X2791866Y-406501D01*
X2779623Y-400761D01*
X2766669Y-396798D01*
X2753360Y-394512D01*
X2739796Y-394055D01*
X2726334Y-395427D01*
X2713177Y-398576D01*
X2700578Y-403402D01*
X2688691Y-409905D01*
X2677820Y-417931D01*
X2668066Y-427380D01*
X2659684Y-437997D01*
X2652776Y-449630D01*
X2647543Y-462076D01*
X2643936Y-475132D01*
X2642158Y-488543D01*
X2642158Y-502056D01*
X2643936Y-515467D01*
X2647543Y-528523D01*
X2652776Y-540969D01*
X2659684Y-552602D01*
X2668066Y-563219D01*
X2677820Y-572668D01*
X2688691Y-580694D01*
X2700578Y-587197D01*
X2713177Y-592023D01*
X2726334Y-595172D01*
G37*
G36*
X4009796Y-596544D02*
G01*
X4023360Y-596087D01*
X4036669Y-593801D01*
X4049623Y-589838D01*
X4061866Y-584098D01*
X4073296Y-576834D01*
X4083608Y-568096D01*
X4092701Y-558088D01*
X4100322Y-546912D01*
X4106468Y-534822D01*
X4110888Y-522071D01*
X4113580Y-508812D01*
X4114495Y-495300D01*
X4113580Y-481787D01*
X4110888Y-468528D01*
X4106468Y-455777D01*
X4100322Y-443687D01*
X4092701Y-432511D01*
X4083608Y-422503D01*
X4073296Y-413766D01*
X4061866Y-406501D01*
X4049623Y-400761D01*
X4036669Y-396798D01*
X4023360Y-394512D01*
X4009796Y-394055D01*
X3996334Y-395427D01*
X3983177Y-398576D01*
X3970578Y-403402D01*
X3958691Y-409905D01*
X3947820Y-417931D01*
X3938066Y-427380D01*
X3929684Y-437997D01*
X3922776Y-449630D01*
X3917543Y-462076D01*
X3913936Y-475132D01*
X3912158Y-488543D01*
X3912158Y-502056D01*
X3913936Y-515467D01*
X3917543Y-528523D01*
X3922776Y-540969D01*
X3929684Y-552602D01*
X3938066Y-563219D01*
X3947820Y-572668D01*
X3958691Y-580694D01*
X3970578Y-587197D01*
X3983177Y-592023D01*
X3996334Y-595172D01*
G37*
G36*
X3501796Y-596544D02*
G01*
X3515360Y-596087D01*
X3528669Y-593801D01*
X3541623Y-589838D01*
X3553866Y-584098D01*
X3565296Y-576834D01*
X3575608Y-568096D01*
X3584701Y-558088D01*
X3592322Y-546912D01*
X3598468Y-534822D01*
X3602888Y-522071D01*
X3605580Y-508812D01*
X3606495Y-495300D01*
X3605580Y-481787D01*
X3602888Y-468528D01*
X3598468Y-455777D01*
X3592322Y-443687D01*
X3584701Y-432511D01*
X3575608Y-422503D01*
X3565296Y-413766D01*
X3553866Y-406501D01*
X3541623Y-400761D01*
X3528669Y-396798D01*
X3515360Y-394512D01*
X3501796Y-394055D01*
X3488334Y-395427D01*
X3475177Y-398576D01*
X3462578Y-403402D01*
X3450691Y-409905D01*
X3439820Y-417931D01*
X3430066Y-427380D01*
X3421684Y-437997D01*
X3414776Y-449630D01*
X3409543Y-462076D01*
X3405936Y-475132D01*
X3404158Y-488543D01*
X3404158Y-502056D01*
X3405936Y-515467D01*
X3409543Y-528523D01*
X3414776Y-540969D01*
X3421684Y-552602D01*
X3430066Y-563219D01*
X3439820Y-572668D01*
X3450691Y-580694D01*
X3462578Y-587197D01*
X3475177Y-592023D01*
X3488334Y-595172D01*
G37*
G36*
X1977796Y-596544D02*
G01*
X1991360Y-596087D01*
X2004669Y-593801D01*
X2017623Y-589838D01*
X2029866Y-584098D01*
X2041296Y-576834D01*
X2051608Y-568096D01*
X2060702Y-558088D01*
X2068322Y-546912D01*
X2074468Y-534822D01*
X2078888Y-522071D01*
X2081580Y-508812D01*
X2082495Y-495300D01*
X2081580Y-481787D01*
X2078888Y-468528D01*
X2074468Y-455777D01*
X2068322Y-443687D01*
X2060702Y-432511D01*
X2051608Y-422503D01*
X2041296Y-413766D01*
X2029866Y-406501D01*
X2017623Y-400761D01*
X2004669Y-396798D01*
X1991360Y-394512D01*
X1977796Y-394055D01*
X1964334Y-395427D01*
X1951177Y-398576D01*
X1938578Y-403402D01*
X1926691Y-409905D01*
X1915820Y-417931D01*
X1906066Y-427380D01*
X1897684Y-437997D01*
X1890775Y-449630D01*
X1885543Y-462076D01*
X1881936Y-475132D01*
X1880158Y-488543D01*
X1880158Y-502056D01*
X1881936Y-515467D01*
X1885543Y-528523D01*
X1890775Y-540969D01*
X1897684Y-552602D01*
X1906066Y-563219D01*
X1915820Y-572668D01*
X1926691Y-580694D01*
X1938578Y-587197D01*
X1951177Y-592023D01*
X1964334Y-595172D01*
G37*
G36*
X1469796Y-596544D02*
G01*
X1483360Y-596087D01*
X1496669Y-593801D01*
X1509623Y-589838D01*
X1521866Y-584098D01*
X1533296Y-576834D01*
X1543608Y-568096D01*
X1552702Y-558088D01*
X1560322Y-546912D01*
X1566468Y-534822D01*
X1570888Y-522071D01*
X1573580Y-508812D01*
X1574495Y-495300D01*
X1573580Y-481787D01*
X1570888Y-468528D01*
X1566468Y-455777D01*
X1560322Y-443687D01*
X1552702Y-432511D01*
X1543608Y-422503D01*
X1533296Y-413766D01*
X1521866Y-406501D01*
X1509623Y-400761D01*
X1496669Y-396798D01*
X1483360Y-394512D01*
X1469796Y-394055D01*
X1456334Y-395427D01*
X1443177Y-398576D01*
X1430578Y-403402D01*
X1418691Y-409905D01*
X1407820Y-417931D01*
X1398066Y-427380D01*
X1389684Y-437997D01*
X1382776Y-449630D01*
X1377543Y-462076D01*
X1373936Y-475132D01*
X1372158Y-488543D01*
X1372158Y-502056D01*
X1373936Y-515467D01*
X1377543Y-528523D01*
X1382776Y-540969D01*
X1389684Y-552602D01*
X1398066Y-563219D01*
X1407820Y-572668D01*
X1418691Y-580694D01*
X1430578Y-587197D01*
X1443177Y-592023D01*
X1456334Y-595172D01*
G37*
G36*
X1215796Y-596544D02*
G01*
X1229360Y-596087D01*
X1242669Y-593801D01*
X1255623Y-589838D01*
X1267866Y-584098D01*
X1279296Y-576834D01*
X1289608Y-568096D01*
X1298702Y-558088D01*
X1306322Y-546912D01*
X1312468Y-534822D01*
X1316888Y-522071D01*
X1319580Y-508812D01*
X1320495Y-495300D01*
X1319580Y-481787D01*
X1316888Y-468528D01*
X1312468Y-455777D01*
X1306322Y-443687D01*
X1298702Y-432511D01*
X1289608Y-422503D01*
X1279296Y-413766D01*
X1267866Y-406501D01*
X1255623Y-400761D01*
X1242669Y-396798D01*
X1229360Y-394512D01*
X1215796Y-394055D01*
X1202334Y-395427D01*
X1189177Y-398576D01*
X1176578Y-403402D01*
X1164691Y-409905D01*
X1153820Y-417931D01*
X1144066Y-427380D01*
X1135684Y-437997D01*
X1128776Y-449630D01*
X1123543Y-462076D01*
X1119936Y-475132D01*
X1118158Y-488543D01*
X1118158Y-502056D01*
X1119936Y-515467D01*
X1123543Y-528523D01*
X1128776Y-540969D01*
X1135684Y-552602D01*
X1144066Y-563219D01*
X1153820Y-572668D01*
X1164691Y-580694D01*
X1176578Y-587197D01*
X1189177Y-592023D01*
X1202334Y-595172D01*
G37*
G36*
X2603855Y-6045708D02*
G01*
X2653944Y-6045708D01*
X2667609Y-6044793D01*
X2680716Y-6042202D01*
X2693365Y-6037935D01*
X2705354Y-6031992D01*
X2716428Y-6024575D01*
X2726486Y-6015786D01*
X2735275Y-6005728D01*
X2742692Y-5994654D01*
X2748635Y-5982665D01*
X2752902Y-5970016D01*
X2755493Y-5956909D01*
X2756408Y-5943600D01*
X2755493Y-5930290D01*
X2752902Y-5917184D01*
X2748635Y-5904534D01*
X2742692Y-5892546D01*
X2735275Y-5881471D01*
X2726486Y-5871413D01*
X2716428Y-5862624D01*
X2705354Y-5855208D01*
X2693365Y-5849264D01*
X2680716Y-5844997D01*
X2667609Y-5842406D01*
X2653944Y-5841492D01*
X2603855Y-5841492D01*
X2590190Y-5842406D01*
X2577084Y-5844997D01*
X2564434Y-5849264D01*
X2552446Y-5855208D01*
X2541371Y-5862624D01*
X2531313Y-5871413D01*
X2522524Y-5881471D01*
X2515108Y-5892546D01*
X2509164Y-5904534D01*
X2504897Y-5917184D01*
X2502306Y-5930290D01*
X2501392Y-5943600D01*
X2502306Y-5956909D01*
X2504897Y-5970016D01*
X2509164Y-5982665D01*
X2515108Y-5994654D01*
X2522524Y-6005728D01*
X2531313Y-6015786D01*
X2541371Y-6024575D01*
X2552446Y-6031992D01*
X2564434Y-6037935D01*
X2577084Y-6042202D01*
X2590190Y-6044793D01*
G37*
G36*
X2997555Y-6045708D02*
G01*
X3047644Y-6045708D01*
X3061309Y-6044793D01*
X3074416Y-6042202D01*
X3087065Y-6037935D01*
X3099054Y-6031992D01*
X3110128Y-6024575D01*
X3120186Y-6015786D01*
X3128975Y-6005728D01*
X3136392Y-5994654D01*
X3142335Y-5982665D01*
X3146602Y-5970016D01*
X3149193Y-5956909D01*
X3150108Y-5943600D01*
X3149193Y-5930290D01*
X3146602Y-5917184D01*
X3142335Y-5904534D01*
X3136392Y-5892546D01*
X3128975Y-5881471D01*
X3120186Y-5871413D01*
X3110128Y-5862624D01*
X3099054Y-5855208D01*
X3087065Y-5849264D01*
X3074416Y-5844997D01*
X3061309Y-5842406D01*
X3047644Y-5841492D01*
X2997555Y-5841492D01*
X2983890Y-5842406D01*
X2970784Y-5844997D01*
X2958134Y-5849264D01*
X2946146Y-5855208D01*
X2935071Y-5862624D01*
X2925013Y-5871413D01*
X2916224Y-5881471D01*
X2908808Y-5892546D01*
X2902864Y-5904534D01*
X2898597Y-5917184D01*
X2896006Y-5930290D01*
X2895092Y-5943600D01*
X2896006Y-5956909D01*
X2898597Y-5970016D01*
X2902864Y-5982665D01*
X2908808Y-5994654D01*
X2916224Y-6005728D01*
X2925013Y-6015786D01*
X2935071Y-6024575D01*
X2946146Y-6031992D01*
X2958134Y-6037935D01*
X2970784Y-6042202D01*
X2983890Y-6044793D01*
G37*
G36*
X4178655Y-6045708D02*
G01*
X4228744Y-6045708D01*
X4242409Y-6044793D01*
X4255516Y-6042202D01*
X4268165Y-6037935D01*
X4280154Y-6031992D01*
X4291228Y-6024575D01*
X4301286Y-6015786D01*
X4310075Y-6005728D01*
X4317492Y-5994654D01*
X4323435Y-5982665D01*
X4327702Y-5970016D01*
X4330293Y-5956909D01*
X4331208Y-5943600D01*
X4330293Y-5930290D01*
X4327702Y-5917184D01*
X4323435Y-5904534D01*
X4317492Y-5892546D01*
X4310075Y-5881471D01*
X4301286Y-5871413D01*
X4291228Y-5862624D01*
X4280154Y-5855208D01*
X4268165Y-5849264D01*
X4255516Y-5844997D01*
X4242409Y-5842406D01*
X4228744Y-5841492D01*
X4178655Y-5841492D01*
X4164990Y-5842406D01*
X4151884Y-5844997D01*
X4139234Y-5849264D01*
X4127246Y-5855208D01*
X4116171Y-5862624D01*
X4106113Y-5871413D01*
X4097324Y-5881471D01*
X4089908Y-5892546D01*
X4083964Y-5904534D01*
X4079697Y-5917184D01*
X4077106Y-5930290D01*
X4076192Y-5943600D01*
X4077106Y-5956909D01*
X4079697Y-5970016D01*
X4083964Y-5982665D01*
X4089908Y-5994654D01*
X4097324Y-6005728D01*
X4106113Y-6015786D01*
X4116171Y-6024575D01*
X4127246Y-6031992D01*
X4139234Y-6037935D01*
X4151884Y-6042202D01*
X4164990Y-6044793D01*
G37*
G36*
X4572355Y-6045708D02*
G01*
X4622444Y-6045708D01*
X4636109Y-6044793D01*
X4649216Y-6042202D01*
X4661865Y-6037935D01*
X4673854Y-6031992D01*
X4684928Y-6024575D01*
X4694986Y-6015786D01*
X4703775Y-6005728D01*
X4711192Y-5994654D01*
X4717135Y-5982665D01*
X4721402Y-5970016D01*
X4723993Y-5956909D01*
X4724908Y-5943600D01*
X4723993Y-5930290D01*
X4721402Y-5917184D01*
X4717135Y-5904534D01*
X4711192Y-5892546D01*
X4703775Y-5881471D01*
X4694986Y-5871413D01*
X4684928Y-5862624D01*
X4673854Y-5855208D01*
X4661865Y-5849264D01*
X4649216Y-5844997D01*
X4636109Y-5842406D01*
X4622444Y-5841492D01*
X4572355Y-5841492D01*
X4558690Y-5842406D01*
X4545584Y-5844997D01*
X4532934Y-5849264D01*
X4520946Y-5855208D01*
X4509871Y-5862624D01*
X4499813Y-5871413D01*
X4491024Y-5881471D01*
X4483608Y-5892546D01*
X4477664Y-5904534D01*
X4473397Y-5917184D01*
X4470806Y-5930290D01*
X4469892Y-5943600D01*
X4470806Y-5956909D01*
X4473397Y-5970016D01*
X4477664Y-5982665D01*
X4483608Y-5994654D01*
X4491024Y-6005728D01*
X4499813Y-6015786D01*
X4509871Y-6024575D01*
X4520946Y-6031992D01*
X4532934Y-6037935D01*
X4545584Y-6042202D01*
X4558690Y-6044793D01*
G37*
G36*
X4966055Y-6045708D02*
G01*
X5016144Y-6045708D01*
X5029809Y-6044793D01*
X5042916Y-6042202D01*
X5055565Y-6037935D01*
X5067554Y-6031992D01*
X5078628Y-6024575D01*
X5088686Y-6015786D01*
X5097475Y-6005728D01*
X5104892Y-5994654D01*
X5110835Y-5982665D01*
X5115102Y-5970016D01*
X5117693Y-5956909D01*
X5118608Y-5943600D01*
X5117693Y-5930290D01*
X5115102Y-5917184D01*
X5110835Y-5904534D01*
X5104892Y-5892546D01*
X5097475Y-5881471D01*
X5088686Y-5871413D01*
X5078628Y-5862624D01*
X5067554Y-5855208D01*
X5055565Y-5849264D01*
X5042916Y-5844997D01*
X5029809Y-5842406D01*
X5016144Y-5841492D01*
X4966055Y-5841492D01*
X4952390Y-5842406D01*
X4939284Y-5844997D01*
X4926634Y-5849264D01*
X4914646Y-5855208D01*
X4903571Y-5862624D01*
X4893513Y-5871413D01*
X4884724Y-5881471D01*
X4877308Y-5892546D01*
X4871364Y-5904534D01*
X4867097Y-5917184D01*
X4864506Y-5930290D01*
X4863592Y-5943600D01*
X4864506Y-5956909D01*
X4867097Y-5970016D01*
X4871364Y-5982665D01*
X4877308Y-5994654D01*
X4884724Y-6005728D01*
X4893513Y-6015786D01*
X4903571Y-6024575D01*
X4914646Y-6031992D01*
X4926634Y-6037935D01*
X4939284Y-6042202D01*
X4952390Y-6044793D01*
G37*
G36*
X1723796Y-596544D02*
G01*
X1737360Y-596087D01*
X1750669Y-593801D01*
X1763623Y-589838D01*
X1775866Y-584098D01*
X1787296Y-576834D01*
X1797608Y-568096D01*
X1806702Y-558088D01*
X1814322Y-546912D01*
X1820468Y-534822D01*
X1824888Y-522071D01*
X1827580Y-508812D01*
X1828495Y-495300D01*
X1827580Y-481787D01*
X1824888Y-468528D01*
X1820468Y-455777D01*
X1814322Y-443687D01*
X1806702Y-432511D01*
X1797608Y-422503D01*
X1787296Y-413766D01*
X1775866Y-406501D01*
X1763623Y-400761D01*
X1750669Y-396798D01*
X1737360Y-394512D01*
X1723796Y-394055D01*
X1710334Y-395427D01*
X1697177Y-398576D01*
X1684578Y-403402D01*
X1672691Y-409905D01*
X1661820Y-417931D01*
X1652066Y-427380D01*
X1643684Y-437997D01*
X1636776Y-449630D01*
X1631543Y-462076D01*
X1627936Y-475132D01*
X1626158Y-488543D01*
X1626158Y-502056D01*
X1627936Y-515467D01*
X1631543Y-528523D01*
X1636776Y-540969D01*
X1643684Y-552602D01*
X1652066Y-563219D01*
X1661820Y-572668D01*
X1672691Y-580694D01*
X1684578Y-587197D01*
X1697177Y-592023D01*
X1710334Y-595172D01*
G37*
G36*
X4446371Y-596595D02*
G01*
X4596028Y-596595D01*
X4602327Y-595884D01*
X4607814Y-594004D01*
X4612690Y-590905D01*
X4616805Y-586790D01*
X4619904Y-581914D01*
X4621784Y-576427D01*
X4622495Y-570128D01*
X4622495Y-420471D01*
X4621784Y-414172D01*
X4619904Y-408686D01*
X4616805Y-403809D01*
X4612690Y-399694D01*
X4607814Y-396595D01*
X4602327Y-394716D01*
X4596028Y-394004D01*
X4446371Y-394004D01*
X4440072Y-394716D01*
X4434586Y-396595D01*
X4429709Y-399694D01*
X4425594Y-403809D01*
X4422495Y-408686D01*
X4420616Y-414172D01*
X4419904Y-420471D01*
X4419904Y-570128D01*
X4420616Y-576427D01*
X4422495Y-581914D01*
X4425594Y-586790D01*
X4429709Y-590905D01*
X4434586Y-594004D01*
X4440072Y-595884D01*
G37*
G36*
X5989523Y-5955690D02*
G01*
X6004661Y-5954776D01*
X6019647Y-5952032D01*
X6034125Y-5947511D01*
X6047994Y-5941263D01*
X6060998Y-5933389D01*
X6072987Y-5924042D01*
X6083706Y-5913272D01*
X6093104Y-5901334D01*
X6100978Y-5888329D01*
X6107226Y-5874461D01*
X6111748Y-5859932D01*
X6114491Y-5844997D01*
X6115405Y-5829808D01*
X6114491Y-5814618D01*
X6111748Y-5799683D01*
X6107226Y-5785154D01*
X6100978Y-5771286D01*
X6093104Y-5758281D01*
X6083706Y-5746343D01*
X6072987Y-5735574D01*
X6060998Y-5726226D01*
X6047994Y-5718352D01*
X6034125Y-5712104D01*
X6019647Y-5707583D01*
X6004661Y-5704840D01*
X5989523Y-5703925D01*
X5974334Y-5704840D01*
X5959348Y-5707583D01*
X5944870Y-5712104D01*
X5931001Y-5718352D01*
X5917996Y-5726226D01*
X5906008Y-5735574D01*
X5895289Y-5746343D01*
X5885891Y-5758281D01*
X5878017Y-5771286D01*
X5871768Y-5785154D01*
X5867247Y-5799683D01*
X5864504Y-5814618D01*
X5863590Y-5829808D01*
X5864504Y-5844997D01*
X5867247Y-5859932D01*
X5871768Y-5874461D01*
X5878017Y-5888329D01*
X5885891Y-5901334D01*
X5895289Y-5913272D01*
X5906008Y-5924042D01*
X5917996Y-5933389D01*
X5931001Y-5941263D01*
X5944870Y-5947511D01*
X5959348Y-5952032D01*
X5974334Y-5954776D01*
G37*
G36*
X1249527Y-5955690D02*
G01*
X1264666Y-5954776D01*
X1279652Y-5952032D01*
X1294130Y-5947511D01*
X1307998Y-5941263D01*
X1321003Y-5933389D01*
X1332992Y-5924042D01*
X1343710Y-5913272D01*
X1353108Y-5901334D01*
X1360982Y-5888329D01*
X1367231Y-5874461D01*
X1371752Y-5859932D01*
X1374495Y-5844997D01*
X1375410Y-5829808D01*
X1374495Y-5814618D01*
X1371752Y-5799683D01*
X1367231Y-5785154D01*
X1360982Y-5771286D01*
X1353108Y-5758281D01*
X1343710Y-5746343D01*
X1332992Y-5735574D01*
X1321003Y-5726226D01*
X1307998Y-5718352D01*
X1294130Y-5712104D01*
X1279652Y-5707583D01*
X1264666Y-5704840D01*
X1249527Y-5703925D01*
X1234338Y-5704840D01*
X1219352Y-5707583D01*
X1204874Y-5712104D01*
X1191006Y-5718352D01*
X1178001Y-5726226D01*
X1166012Y-5735574D01*
X1155293Y-5746343D01*
X1145895Y-5758281D01*
X1138021Y-5771286D01*
X1131773Y-5785154D01*
X1127252Y-5799683D01*
X1124508Y-5814618D01*
X1123594Y-5829808D01*
X1124508Y-5844997D01*
X1127252Y-5859932D01*
X1131773Y-5874461D01*
X1138021Y-5888329D01*
X1145895Y-5901334D01*
X1155293Y-5913272D01*
X1166012Y-5924042D01*
X1178001Y-5933389D01*
X1191006Y-5941263D01*
X1204874Y-5947511D01*
X1219352Y-5952032D01*
X1234338Y-5954776D01*
G37*
G36*
X7875879Y-667562D02*
G01*
X7931962Y-667562D01*
X7931962Y-611479D01*
X7929778Y-612444D01*
X7916773Y-620268D01*
X7904835Y-629666D01*
X7894066Y-640435D01*
X7884718Y-652373D01*
X7876844Y-665378D01*
G37*
G36*
X8044637Y-667562D02*
G01*
X8100720Y-667562D01*
X8099755Y-665378D01*
X8091881Y-652373D01*
X8082534Y-640435D01*
X8071764Y-629666D01*
X8059826Y-620268D01*
X8046821Y-612444D01*
X8044637Y-611479D01*
G37*
G36*
X7112355Y-5347208D02*
G01*
X7264044Y-5347208D01*
X7277709Y-5346293D01*
X7290816Y-5343702D01*
X7303465Y-5339435D01*
X7315453Y-5333492D01*
X7326528Y-5326075D01*
X7336586Y-5317286D01*
X7345375Y-5307228D01*
X7352792Y-5296154D01*
X7358735Y-5284165D01*
X7363002Y-5271516D01*
X7365593Y-5258409D01*
X7366508Y-5245100D01*
X7365593Y-5231790D01*
X7363002Y-5218684D01*
X7358735Y-5206034D01*
X7352792Y-5194046D01*
X7345375Y-5182971D01*
X7336586Y-5172913D01*
X7326528Y-5164124D01*
X7315453Y-5156708D01*
X7303465Y-5150764D01*
X7290816Y-5146497D01*
X7277709Y-5143906D01*
X7264044Y-5142992D01*
X7112355Y-5142992D01*
X7098690Y-5143906D01*
X7085584Y-5146497D01*
X7072934Y-5150764D01*
X7060946Y-5156708D01*
X7049871Y-5164124D01*
X7039813Y-5172913D01*
X7031024Y-5182971D01*
X7023608Y-5194046D01*
X7017664Y-5206034D01*
X7013397Y-5218684D01*
X7010806Y-5231790D01*
X7009892Y-5245100D01*
X7010806Y-5258409D01*
X7013397Y-5271516D01*
X7017664Y-5284165D01*
X7023608Y-5296154D01*
X7031024Y-5307228D01*
X7039813Y-5317286D01*
X7049871Y-5326075D01*
X7060946Y-5333492D01*
X7072934Y-5339435D01*
X7085584Y-5343702D01*
X7098690Y-5346293D01*
G37*
G36*
X3819499Y-5295696D02*
G01*
X3835857Y-5294782D01*
X3851960Y-5292039D01*
X3867708Y-5287518D01*
X3882796Y-5281269D01*
X3897122Y-5273344D01*
X3910482Y-5263845D01*
X3922674Y-5252974D01*
X3933545Y-5240782D01*
X3943045Y-5227421D01*
X3950970Y-5213096D01*
X3957218Y-5198008D01*
X3961739Y-5182260D01*
X3964482Y-5166156D01*
X3965397Y-5149799D01*
X3964482Y-5133441D01*
X3961739Y-5117338D01*
X3957218Y-5101590D01*
X3950970Y-5086502D01*
X3943045Y-5072176D01*
X3933545Y-5058816D01*
X3922674Y-5046624D01*
X3910482Y-5035753D01*
X3897122Y-5026253D01*
X3882796Y-5018328D01*
X3867708Y-5012080D01*
X3851960Y-5007559D01*
X3835857Y-5004816D01*
X3819499Y-5003901D01*
X3803142Y-5004816D01*
X3787038Y-5007559D01*
X3771290Y-5012080D01*
X3756202Y-5018328D01*
X3741877Y-5026253D01*
X3728516Y-5035753D01*
X3716324Y-5046624D01*
X3705453Y-5058816D01*
X3695954Y-5072176D01*
X3688029Y-5086502D01*
X3681780Y-5101590D01*
X3677259Y-5117338D01*
X3674516Y-5133441D01*
X3673601Y-5149799D01*
X3674516Y-5166156D01*
X3677259Y-5182260D01*
X3681780Y-5198008D01*
X3688029Y-5213096D01*
X3695954Y-5227421D01*
X3705453Y-5240782D01*
X3716324Y-5252974D01*
X3728516Y-5263845D01*
X3741877Y-5273344D01*
X3756202Y-5281269D01*
X3771290Y-5287518D01*
X3787038Y-5292039D01*
X3803142Y-5294782D01*
G37*
G36*
X4619498Y-5295696D02*
G01*
X4635855Y-5294782D01*
X4651959Y-5292039D01*
X4667707Y-5287518D01*
X4682794Y-5281269D01*
X4697120Y-5273344D01*
X4710480Y-5263845D01*
X4722672Y-5252974D01*
X4733544Y-5240782D01*
X4743043Y-5227421D01*
X4750968Y-5213096D01*
X4757216Y-5198008D01*
X4761738Y-5182260D01*
X4764481Y-5166156D01*
X4765395Y-5149799D01*
X4764481Y-5133441D01*
X4761738Y-5117338D01*
X4757216Y-5101590D01*
X4750968Y-5086502D01*
X4743043Y-5072176D01*
X4733544Y-5058816D01*
X4722672Y-5046624D01*
X4710480Y-5035753D01*
X4697120Y-5026253D01*
X4682794Y-5018328D01*
X4667707Y-5012080D01*
X4651959Y-5007559D01*
X4635855Y-5004816D01*
X4619498Y-5003901D01*
X4603140Y-5004816D01*
X4587036Y-5007559D01*
X4571288Y-5012080D01*
X4556201Y-5018328D01*
X4541875Y-5026253D01*
X4528515Y-5035753D01*
X4516323Y-5046624D01*
X4505452Y-5058816D01*
X4495952Y-5072176D01*
X4488027Y-5086502D01*
X4481779Y-5101590D01*
X4477258Y-5117338D01*
X4474514Y-5133441D01*
X4473600Y-5149799D01*
X4474514Y-5166156D01*
X4477258Y-5182260D01*
X4481779Y-5198008D01*
X4488027Y-5213096D01*
X4495952Y-5227421D01*
X4505452Y-5240782D01*
X4516323Y-5252974D01*
X4528515Y-5263845D01*
X4541875Y-5273344D01*
X4556201Y-5281269D01*
X4571288Y-5287518D01*
X4587036Y-5292039D01*
X4603140Y-5294782D01*
G37*
G36*
X4219498Y-5295696D02*
G01*
X4235856Y-5294782D01*
X4251960Y-5292039D01*
X4267708Y-5287518D01*
X4282795Y-5281269D01*
X4297121Y-5273344D01*
X4310481Y-5263845D01*
X4322673Y-5252974D01*
X4333544Y-5240782D01*
X4343044Y-5227421D01*
X4350969Y-5213096D01*
X4357217Y-5198008D01*
X4361738Y-5182260D01*
X4364482Y-5166156D01*
X4365396Y-5149799D01*
X4364482Y-5133441D01*
X4361738Y-5117338D01*
X4357217Y-5101590D01*
X4350969Y-5086502D01*
X4343044Y-5072176D01*
X4333544Y-5058816D01*
X4322673Y-5046624D01*
X4310481Y-5035753D01*
X4297121Y-5026253D01*
X4282795Y-5018328D01*
X4267708Y-5012080D01*
X4251960Y-5007559D01*
X4235856Y-5004816D01*
X4219498Y-5003901D01*
X4203141Y-5004816D01*
X4187037Y-5007559D01*
X4171289Y-5012080D01*
X4156201Y-5018328D01*
X4141876Y-5026253D01*
X4128515Y-5035753D01*
X4116324Y-5046624D01*
X4105452Y-5058816D01*
X4095953Y-5072176D01*
X4088028Y-5086502D01*
X4081779Y-5101590D01*
X4077258Y-5117338D01*
X4074515Y-5133441D01*
X4073601Y-5149799D01*
X4074515Y-5166156D01*
X4077258Y-5182260D01*
X4081779Y-5198008D01*
X4088028Y-5213096D01*
X4095953Y-5227421D01*
X4105452Y-5240782D01*
X4116324Y-5252974D01*
X4128515Y-5263845D01*
X4141876Y-5273344D01*
X4156201Y-5281269D01*
X4171289Y-5287518D01*
X4187037Y-5292039D01*
X4203141Y-5294782D01*
G37*
G36*
X5019497Y-5295696D02*
G01*
X5035854Y-5294782D01*
X5051958Y-5292039D01*
X5067706Y-5287518D01*
X5082794Y-5281269D01*
X5097119Y-5273344D01*
X5110480Y-5263845D01*
X5122672Y-5252974D01*
X5133543Y-5240782D01*
X5143042Y-5227421D01*
X5150967Y-5213096D01*
X5157216Y-5198008D01*
X5161737Y-5182260D01*
X5164480Y-5166156D01*
X5165394Y-5149799D01*
X5164480Y-5133441D01*
X5161737Y-5117338D01*
X5157216Y-5101590D01*
X5150967Y-5086502D01*
X5143042Y-5072176D01*
X5133543Y-5058816D01*
X5122672Y-5046624D01*
X5110480Y-5035753D01*
X5097119Y-5026253D01*
X5082794Y-5018328D01*
X5067706Y-5012080D01*
X5051958Y-5007559D01*
X5035854Y-5004816D01*
X5019497Y-5003901D01*
X5003139Y-5004816D01*
X4987036Y-5007559D01*
X4971288Y-5012080D01*
X4956200Y-5018328D01*
X4941874Y-5026253D01*
X4928514Y-5035753D01*
X4916322Y-5046624D01*
X4905451Y-5058816D01*
X4895951Y-5072176D01*
X4888026Y-5086502D01*
X4881778Y-5101590D01*
X4877257Y-5117338D01*
X4874514Y-5133441D01*
X4873599Y-5149799D01*
X4874514Y-5166156D01*
X4877257Y-5182260D01*
X4881778Y-5198008D01*
X4888026Y-5213096D01*
X4895951Y-5227421D01*
X4905451Y-5240782D01*
X4916322Y-5252974D01*
X4928514Y-5263845D01*
X4941874Y-5273344D01*
X4956200Y-5281269D01*
X4971288Y-5287518D01*
X4987036Y-5292039D01*
X5003139Y-5294782D01*
G37*
G36*
X5335879Y-667562D02*
G01*
X5391962Y-667562D01*
X5391962Y-611479D01*
X5389778Y-612444D01*
X5376773Y-620268D01*
X5364835Y-629666D01*
X5354066Y-640435D01*
X5344668Y-652373D01*
X5336844Y-665378D01*
G37*
G36*
X5504637Y-667562D02*
G01*
X5560720Y-667562D01*
X5559755Y-665378D01*
X5551881Y-652373D01*
X5542534Y-640435D01*
X5531764Y-629666D01*
X5519826Y-620268D01*
X5506821Y-612444D01*
X5504637Y-611479D01*
G37*
G36*
X5391962Y-836320D02*
G01*
X5391962Y-780237D01*
X5335879Y-780237D01*
X5336844Y-782421D01*
X5344668Y-795426D01*
X5354066Y-807364D01*
X5364835Y-818134D01*
X5376773Y-827481D01*
X5389778Y-835355D01*
G37*
G36*
X7931962Y-836320D02*
G01*
X7931962Y-780237D01*
X7875879Y-780237D01*
X7876844Y-782421D01*
X7884718Y-795426D01*
X7894066Y-807364D01*
X7904835Y-818134D01*
X7916773Y-827481D01*
X7929778Y-835355D01*
G37*
G36*
X8044637Y-836320D02*
G01*
X8046821Y-835355D01*
X8059826Y-827481D01*
X8071764Y-818134D01*
X8082534Y-807364D01*
X8091881Y-795426D01*
X8099755Y-782421D01*
X8100720Y-780237D01*
X8044637Y-780237D01*
G37*
G36*
X7112355Y-5093208D02*
G01*
X7264044Y-5093208D01*
X7277709Y-5092293D01*
X7290816Y-5089702D01*
X7303465Y-5085435D01*
X7315453Y-5079492D01*
X7326528Y-5072075D01*
X7336586Y-5063286D01*
X7345375Y-5053228D01*
X7352792Y-5042154D01*
X7358735Y-5030165D01*
X7363002Y-5017516D01*
X7365593Y-5004409D01*
X7366508Y-4991100D01*
X7365593Y-4977790D01*
X7363002Y-4964684D01*
X7358735Y-4952034D01*
X7352792Y-4940046D01*
X7345375Y-4928971D01*
X7336586Y-4918913D01*
X7326528Y-4910124D01*
X7315453Y-4902708D01*
X7303465Y-4896764D01*
X7290816Y-4892497D01*
X7277709Y-4889906D01*
X7264044Y-4888992D01*
X7112355Y-4888992D01*
X7098690Y-4889906D01*
X7085584Y-4892497D01*
X7072934Y-4896764D01*
X7060946Y-4902708D01*
X7049871Y-4910124D01*
X7039813Y-4918913D01*
X7031024Y-4928971D01*
X7023608Y-4940046D01*
X7017664Y-4952034D01*
X7013397Y-4964684D01*
X7010806Y-4977790D01*
X7009892Y-4991100D01*
X7010806Y-5004409D01*
X7013397Y-5017516D01*
X7017664Y-5030165D01*
X7023608Y-5042154D01*
X7031024Y-5053228D01*
X7039813Y-5063286D01*
X7049871Y-5072075D01*
X7060946Y-5079492D01*
X7072934Y-5085435D01*
X7085584Y-5089702D01*
X7098690Y-5092293D01*
G37*
G36*
X5504637Y-836320D02*
G01*
X5506821Y-835355D01*
X5519826Y-827481D01*
X5531764Y-818134D01*
X5542534Y-807364D01*
X5551881Y-795426D01*
X5559755Y-782421D01*
X5560720Y-780237D01*
X5504637Y-780237D01*
G37*
G36*
X8044637Y-921562D02*
G01*
X8100720Y-921562D01*
X8099755Y-919378D01*
X8091881Y-906373D01*
X8082534Y-894435D01*
X8071764Y-883666D01*
X8059826Y-874268D01*
X8046821Y-866444D01*
X8044637Y-865479D01*
G37*
G36*
X5504637Y-921562D02*
G01*
X5560720Y-921562D01*
X5559755Y-919378D01*
X5551881Y-906373D01*
X5542534Y-894435D01*
X5531764Y-883666D01*
X5519826Y-874268D01*
X5506821Y-866444D01*
X5504637Y-865479D01*
G37*
G36*
X4419752Y-4925720D02*
G01*
X4819396Y-4925720D01*
X4827727Y-4925517D01*
X4837328Y-4924806D01*
X4845608Y-4923739D01*
X6634175Y-4656378D01*
X7075576Y-4579620D01*
X7078116Y-4579518D01*
X7080605Y-4580026D01*
X7085584Y-4581702D01*
X7098690Y-4584293D01*
X7112355Y-4585208D01*
X7264044Y-4585208D01*
X7277709Y-4584293D01*
X7290816Y-4581702D01*
X7303465Y-4577435D01*
X7315453Y-4571492D01*
X7326528Y-4564075D01*
X7336586Y-4555286D01*
X7345375Y-4545228D01*
X7352792Y-4534154D01*
X7358735Y-4522165D01*
X7363002Y-4509516D01*
X7365593Y-4496409D01*
X7366508Y-4483100D01*
X7365593Y-4469790D01*
X7363002Y-4456684D01*
X7358735Y-4444034D01*
X7356906Y-4440377D01*
X7355890Y-4436516D01*
X7356449Y-4432554D01*
X7357059Y-4430776D01*
X7361174Y-4413402D01*
X7363510Y-4395774D01*
X7364069Y-4377944D01*
X7362799Y-4360164D01*
X7359751Y-4342638D01*
X7354925Y-4325467D01*
X7348423Y-4308906D01*
X7340244Y-4293057D01*
X7330490Y-4278122D01*
X7319314Y-4264253D01*
X7306767Y-4251604D01*
X7293051Y-4240276D01*
X7278217Y-4230370D01*
X7262469Y-4222038D01*
X7245959Y-4215333D01*
X7228840Y-4210354D01*
X7211314Y-4207154D01*
X7193584Y-4205681D01*
X7175753Y-4206036D01*
X7157821Y-4208221D01*
X6575806Y-4309465D01*
X4805680Y-4573879D01*
X4419752Y-4573879D01*
X4401718Y-4574794D01*
X4384090Y-4577486D01*
X4366869Y-4581956D01*
X4350156Y-4588154D01*
X4334154Y-4596028D01*
X4319016Y-4605426D01*
X4304944Y-4616348D01*
X4291990Y-4628591D01*
X4280408Y-4642154D01*
X4270248Y-4656734D01*
X4261561Y-4672330D01*
X4254550Y-4688687D01*
X4249216Y-4705705D01*
X4245610Y-4723180D01*
X4243832Y-4740910D01*
X4243832Y-4758690D01*
X4245610Y-4776419D01*
X4249216Y-4793894D01*
X4254550Y-4810912D01*
X4261561Y-4827270D01*
X4270248Y-4842865D01*
X4280408Y-4857445D01*
X4291990Y-4871008D01*
X4304944Y-4883251D01*
X4319016Y-4894173D01*
X4334154Y-4903571D01*
X4350156Y-4911445D01*
X4366869Y-4917643D01*
X4384090Y-4922113D01*
X4401718Y-4924806D01*
G37*
G36*
X7875879Y-921562D02*
G01*
X7931962Y-921562D01*
X7931962Y-865479D01*
X7929778Y-866444D01*
X7916773Y-874268D01*
X7904835Y-883666D01*
X7894066Y-894435D01*
X7884718Y-906373D01*
X7876844Y-919378D01*
G37*
G36*
X5335879Y-921562D02*
G01*
X5391962Y-921562D01*
X5391962Y-865479D01*
X5389778Y-866444D01*
X5376773Y-874268D01*
X5364835Y-883666D01*
X5354066Y-894435D01*
X5344668Y-906373D01*
X5336844Y-919378D01*
G37*
G36*
X3153156Y-4879543D02*
G01*
X3153156Y-4816144D01*
X3089808Y-4816144D01*
X3095955Y-4827422D01*
X3105454Y-4840782D01*
X3116326Y-4852974D01*
X3128518Y-4863846D01*
X3141878Y-4873345D01*
G37*
G36*
X3953154Y-4879543D02*
G01*
X3953154Y-4816144D01*
X3889756Y-4816144D01*
X3895953Y-4827422D01*
X3905453Y-4840782D01*
X3916324Y-4852974D01*
X3928516Y-4863846D01*
X3941876Y-4873345D01*
G37*
G36*
X3553155Y-4879543D02*
G01*
X3553155Y-4816144D01*
X3489756Y-4816144D01*
X3495954Y-4827422D01*
X3505454Y-4840782D01*
X3516325Y-4852974D01*
X3528517Y-4863846D01*
X3541877Y-4873345D01*
G37*
G36*
X3285845Y-4879543D02*
G01*
X3297123Y-4873345D01*
X3310483Y-4863846D01*
X3322675Y-4852974D01*
X3333546Y-4840782D01*
X3343046Y-4827422D01*
X3349244Y-4816144D01*
X3285845Y-4816144D01*
G37*
G36*
X3685844Y-4879543D02*
G01*
X3697122Y-4873345D01*
X3710482Y-4863846D01*
X3722674Y-4852974D01*
X3733546Y-4840782D01*
X3743045Y-4827422D01*
X3749243Y-4816144D01*
X3685844Y-4816144D01*
G37*
G36*
X4085844Y-4879543D02*
G01*
X4097121Y-4873345D01*
X4110482Y-4863846D01*
X4122674Y-4852974D01*
X4133545Y-4840782D01*
X4143044Y-4827422D01*
X4149242Y-4816144D01*
X4085844Y-4816144D01*
G37*
G36*
X7270750Y-4838750D02*
G01*
X7277709Y-4838293D01*
X7290816Y-4835702D01*
X7303465Y-4831435D01*
X7315453Y-4825492D01*
X7326528Y-4818075D01*
X7336586Y-4809286D01*
X7345375Y-4799228D01*
X7352792Y-4788154D01*
X7356043Y-4781550D01*
X7270750Y-4781550D01*
G37*
G36*
X7105650Y-4838750D02*
G01*
X7105650Y-4781550D01*
X7020356Y-4781550D01*
X7023608Y-4788154D01*
X7031024Y-4799228D01*
X7039813Y-4809286D01*
X7049871Y-4818075D01*
X7060946Y-4825492D01*
X7072934Y-4831435D01*
X7085584Y-4835702D01*
X7098690Y-4838293D01*
G37*
G36*
X7020356Y-4692650D02*
G01*
X7105650Y-4692650D01*
X7105650Y-4635449D01*
X7098690Y-4635906D01*
X7085584Y-4638497D01*
X7072934Y-4642764D01*
X7060946Y-4648708D01*
X7049871Y-4656124D01*
X7039813Y-4664913D01*
X7031024Y-4674971D01*
X7023608Y-4686046D01*
G37*
G36*
X7270750Y-4692650D02*
G01*
X7356043Y-4692650D01*
X7352792Y-4686046D01*
X7345375Y-4674971D01*
X7336586Y-4664913D01*
X7326528Y-4656124D01*
X7315453Y-4648708D01*
X7303465Y-4642764D01*
X7290816Y-4638497D01*
X7277709Y-4635906D01*
X7270750Y-4635449D01*
G37*
G36*
X3089808Y-4683455D02*
G01*
X3153156Y-4683455D01*
X3153156Y-4620056D01*
X3141878Y-4626254D01*
X3128518Y-4635754D01*
X3116326Y-4646625D01*
X3105454Y-4658817D01*
X3095955Y-4672177D01*
G37*
G36*
X3489756Y-4683455D02*
G01*
X3553155Y-4683455D01*
X3553155Y-4620056D01*
X3541877Y-4626254D01*
X3528517Y-4635754D01*
X3516325Y-4646625D01*
X3505454Y-4658817D01*
X3495954Y-4672177D01*
G37*
G36*
X3889756Y-4683455D02*
G01*
X3953154Y-4683455D01*
X3953154Y-4620056D01*
X3941876Y-4626254D01*
X3928516Y-4635754D01*
X3916324Y-4646625D01*
X3905453Y-4658817D01*
X3895953Y-4672177D01*
G37*
G36*
X3285845Y-4683455D02*
G01*
X3349244Y-4683455D01*
X3343046Y-4672177D01*
X3333546Y-4658817D01*
X3322675Y-4646625D01*
X3310483Y-4635754D01*
X3297123Y-4626254D01*
X3285845Y-4620056D01*
G37*
G36*
X3685844Y-4683455D02*
G01*
X3749243Y-4683455D01*
X3743045Y-4672177D01*
X3733546Y-4658817D01*
X3722674Y-4646625D01*
X3710482Y-4635754D01*
X3697122Y-4626254D01*
X3685844Y-4620056D01*
G37*
G36*
X4085844Y-4683455D02*
G01*
X4149242Y-4683455D01*
X4143044Y-4672177D01*
X4133545Y-4658817D01*
X4122674Y-4646625D01*
X4110482Y-4635754D01*
X4097121Y-4626254D01*
X4085844Y-4620056D01*
G37*
G36*
X7931962Y-1090320D02*
G01*
X7931962Y-1034237D01*
X7875879Y-1034237D01*
X7876844Y-1036421D01*
X7884718Y-1049426D01*
X7894066Y-1061364D01*
X7904835Y-1072134D01*
X7916773Y-1081481D01*
X7929778Y-1089355D01*
G37*
G36*
X5391962Y-1090320D02*
G01*
X5391962Y-1034237D01*
X5335879Y-1034237D01*
X5336844Y-1036421D01*
X5344668Y-1049426D01*
X5354066Y-1061364D01*
X5364835Y-1072134D01*
X5376773Y-1081481D01*
X5389778Y-1089355D01*
G37*
G36*
X2219502Y-4495698D02*
G01*
X2235860Y-4494784D01*
X2251964Y-4492040D01*
X2267712Y-4487519D01*
X2282799Y-4481271D01*
X2297125Y-4473346D01*
X2310485Y-4463846D01*
X2322677Y-4452975D01*
X2333548Y-4440783D01*
X2343048Y-4427423D01*
X2350973Y-4413097D01*
X2357221Y-4398010D01*
X2361742Y-4382262D01*
X2364486Y-4366158D01*
X2365400Y-4349800D01*
X2364486Y-4333443D01*
X2361742Y-4317339D01*
X2357221Y-4301591D01*
X2350973Y-4286504D01*
X2343048Y-4272178D01*
X2333548Y-4258818D01*
X2322677Y-4246626D01*
X2310485Y-4235754D01*
X2297125Y-4226255D01*
X2282799Y-4218330D01*
X2267712Y-4212082D01*
X2251964Y-4207560D01*
X2235860Y-4204817D01*
X2219502Y-4203903D01*
X2203145Y-4204817D01*
X2187041Y-4207560D01*
X2171293Y-4212082D01*
X2156206Y-4218330D01*
X2141880Y-4226255D01*
X2128520Y-4235754D01*
X2116328Y-4246626D01*
X2105456Y-4258818D01*
X2095957Y-4272178D01*
X2088032Y-4286504D01*
X2081784Y-4301591D01*
X2077262Y-4317339D01*
X2074519Y-4333443D01*
X2073605Y-4349800D01*
X2074519Y-4366158D01*
X2077262Y-4382262D01*
X2081784Y-4398010D01*
X2088032Y-4413097D01*
X2095957Y-4427423D01*
X2105456Y-4440783D01*
X2116328Y-4452975D01*
X2128520Y-4463846D01*
X2141880Y-4473346D01*
X2156206Y-4481271D01*
X2171293Y-4487519D01*
X2187041Y-4492040D01*
X2203145Y-4494784D01*
G37*
G36*
X3419500Y-4495698D02*
G01*
X3435858Y-4494784D01*
X3451961Y-4492040D01*
X3467709Y-4487519D01*
X3482797Y-4481271D01*
X3497122Y-4473346D01*
X3510483Y-4463846D01*
X3522675Y-4452975D01*
X3533546Y-4440783D01*
X3543046Y-4427423D01*
X3550970Y-4413097D01*
X3557219Y-4398010D01*
X3561740Y-4382262D01*
X3564483Y-4366158D01*
X3565398Y-4349800D01*
X3564483Y-4333443D01*
X3561740Y-4317339D01*
X3557219Y-4301591D01*
X3550970Y-4286504D01*
X3543046Y-4272178D01*
X3533546Y-4258818D01*
X3522675Y-4246626D01*
X3510483Y-4235754D01*
X3497122Y-4226255D01*
X3482797Y-4218330D01*
X3467709Y-4212082D01*
X3451961Y-4207560D01*
X3435858Y-4204817D01*
X3419500Y-4203903D01*
X3403142Y-4204817D01*
X3387039Y-4207560D01*
X3371291Y-4212082D01*
X3356203Y-4218330D01*
X3341878Y-4226255D01*
X3328517Y-4235754D01*
X3316325Y-4246626D01*
X3305454Y-4258818D01*
X3295954Y-4272178D01*
X3288029Y-4286504D01*
X3281781Y-4301591D01*
X3277260Y-4317339D01*
X3274517Y-4333443D01*
X3273602Y-4349800D01*
X3274517Y-4366158D01*
X3277260Y-4382262D01*
X3281781Y-4398010D01*
X3288029Y-4413097D01*
X3295954Y-4427423D01*
X3305454Y-4440783D01*
X3316325Y-4452975D01*
X3328517Y-4463846D01*
X3341878Y-4473346D01*
X3356203Y-4481271D01*
X3371291Y-4487519D01*
X3387039Y-4492040D01*
X3403142Y-4494784D01*
G37*
G36*
X3819499Y-4495698D02*
G01*
X3835857Y-4494784D01*
X3851960Y-4492040D01*
X3867708Y-4487519D01*
X3882796Y-4481271D01*
X3897122Y-4473346D01*
X3910482Y-4463846D01*
X3922674Y-4452975D01*
X3933545Y-4440783D01*
X3943045Y-4427423D01*
X3950970Y-4413097D01*
X3957218Y-4398010D01*
X3961739Y-4382262D01*
X3964482Y-4366158D01*
X3965397Y-4349800D01*
X3964482Y-4333443D01*
X3961739Y-4317339D01*
X3957218Y-4301591D01*
X3950970Y-4286504D01*
X3943045Y-4272178D01*
X3933545Y-4258818D01*
X3922674Y-4246626D01*
X3910482Y-4235754D01*
X3897122Y-4226255D01*
X3882796Y-4218330D01*
X3867708Y-4212082D01*
X3851960Y-4207560D01*
X3835857Y-4204817D01*
X3819499Y-4203903D01*
X3803142Y-4204817D01*
X3787038Y-4207560D01*
X3771290Y-4212082D01*
X3756202Y-4218330D01*
X3741877Y-4226255D01*
X3728516Y-4235754D01*
X3716324Y-4246626D01*
X3705453Y-4258818D01*
X3695954Y-4272178D01*
X3688029Y-4286504D01*
X3681780Y-4301591D01*
X3677259Y-4317339D01*
X3674516Y-4333443D01*
X3673601Y-4349800D01*
X3674516Y-4366158D01*
X3677259Y-4382262D01*
X3681780Y-4398010D01*
X3688029Y-4413097D01*
X3695954Y-4427423D01*
X3705453Y-4440783D01*
X3716324Y-4452975D01*
X3728516Y-4463846D01*
X3741877Y-4473346D01*
X3756202Y-4481271D01*
X3771290Y-4487519D01*
X3787038Y-4492040D01*
X3803142Y-4494784D01*
G37*
G36*
X4219498Y-4495698D02*
G01*
X4235856Y-4494784D01*
X4251960Y-4492040D01*
X4267708Y-4487519D01*
X4282795Y-4481271D01*
X4297121Y-4473346D01*
X4310481Y-4463846D01*
X4322673Y-4452975D01*
X4333544Y-4440783D01*
X4343044Y-4427423D01*
X4350969Y-4413097D01*
X4357217Y-4398010D01*
X4361738Y-4382262D01*
X4364482Y-4366158D01*
X4365396Y-4349800D01*
X4364482Y-4333443D01*
X4361738Y-4317339D01*
X4357217Y-4301591D01*
X4350969Y-4286504D01*
X4343044Y-4272178D01*
X4333544Y-4258818D01*
X4322673Y-4246626D01*
X4310481Y-4235754D01*
X4297121Y-4226255D01*
X4285640Y-4219956D01*
X4282846Y-4217670D01*
X4281068Y-4214571D01*
X4280408Y-4211015D01*
X4280408Y-3574999D01*
X4281271Y-3570935D01*
X4283710Y-3567531D01*
X4287316Y-3565398D01*
X4299000Y-3561435D01*
X4310989Y-3555492D01*
X4322114Y-3548075D01*
X4332122Y-3539286D01*
X4340910Y-3529228D01*
X4348327Y-3518154D01*
X4354271Y-3506165D01*
X4358538Y-3493515D01*
X4361180Y-3480409D01*
X4362043Y-3467100D01*
X4361180Y-3453790D01*
X4358538Y-3440684D01*
X4354271Y-3428034D01*
X4348327Y-3416046D01*
X4340910Y-3404971D01*
X4332122Y-3394913D01*
X4322114Y-3386124D01*
X4310989Y-3378708D01*
X4299000Y-3372764D01*
X4286351Y-3368497D01*
X4273245Y-3365906D01*
X4259630Y-3364992D01*
X4209491Y-3364992D01*
X4195826Y-3365906D01*
X4182719Y-3368497D01*
X4170070Y-3372764D01*
X4158081Y-3378708D01*
X4147007Y-3386124D01*
X4136948Y-3394913D01*
X4128160Y-3404971D01*
X4120743Y-3416046D01*
X4114850Y-3428034D01*
X4110532Y-3440684D01*
X4107942Y-3453790D01*
X4107078Y-3467100D01*
X4107942Y-3480409D01*
X4110532Y-3493515D01*
X4114850Y-3506165D01*
X4120743Y-3518154D01*
X4128160Y-3529228D01*
X4136948Y-3539286D01*
X4147007Y-3548075D01*
X4154068Y-3552799D01*
X4156506Y-3555085D01*
X4158030Y-3557981D01*
X4158589Y-3561283D01*
X4158589Y-4211015D01*
X4157979Y-4214571D01*
X4156151Y-4217670D01*
X4153357Y-4219905D01*
X4141876Y-4226255D01*
X4128515Y-4235754D01*
X4116324Y-4246626D01*
X4105452Y-4258818D01*
X4095953Y-4272178D01*
X4088028Y-4286504D01*
X4081779Y-4301591D01*
X4077258Y-4317339D01*
X4074515Y-4333443D01*
X4073601Y-4349800D01*
X4074515Y-4366158D01*
X4077258Y-4382262D01*
X4081779Y-4398010D01*
X4088028Y-4413097D01*
X4095953Y-4427423D01*
X4105452Y-4440783D01*
X4116324Y-4452975D01*
X4128515Y-4463846D01*
X4141876Y-4473346D01*
X4156201Y-4481271D01*
X4171289Y-4487519D01*
X4187037Y-4492040D01*
X4203141Y-4494784D01*
G37*
G36*
X4619498Y-4495698D02*
G01*
X4635855Y-4494784D01*
X4651959Y-4492040D01*
X4667707Y-4487519D01*
X4682794Y-4481271D01*
X4697120Y-4473346D01*
X4710480Y-4463846D01*
X4722672Y-4452975D01*
X4733544Y-4440783D01*
X4743043Y-4427423D01*
X4750968Y-4413097D01*
X4757216Y-4398010D01*
X4761738Y-4382262D01*
X4764481Y-4366158D01*
X4765395Y-4349800D01*
X4764481Y-4333443D01*
X4761738Y-4317339D01*
X4757216Y-4301591D01*
X4750968Y-4286504D01*
X4743043Y-4272178D01*
X4733544Y-4258818D01*
X4722672Y-4246626D01*
X4710480Y-4235754D01*
X4697120Y-4226255D01*
X4685639Y-4219956D01*
X4682845Y-4217670D01*
X4681067Y-4214571D01*
X4680407Y-4211015D01*
X4680407Y-3577234D01*
X4681016Y-3573779D01*
X4682693Y-3570782D01*
X4685334Y-3568496D01*
X4688586Y-3567277D01*
X4696409Y-3565702D01*
X4709058Y-3561435D01*
X4720996Y-3555492D01*
X4732121Y-3548075D01*
X4742180Y-3539286D01*
X4750968Y-3529228D01*
X4758385Y-3518154D01*
X4764278Y-3506165D01*
X4768596Y-3493515D01*
X4771186Y-3480409D01*
X4772050Y-3467100D01*
X4771186Y-3453790D01*
X4768596Y-3440684D01*
X4764278Y-3428034D01*
X4758385Y-3416046D01*
X4750968Y-3404971D01*
X4742180Y-3394913D01*
X4732121Y-3386124D01*
X4720996Y-3378708D01*
X4709058Y-3372764D01*
X4696409Y-3368497D01*
X4683302Y-3365906D01*
X4669637Y-3364992D01*
X4619498Y-3364992D01*
X4605832Y-3365906D01*
X4592726Y-3368497D01*
X4580128Y-3372764D01*
X4568139Y-3378708D01*
X4557014Y-3386124D01*
X4547006Y-3394913D01*
X4538167Y-3404971D01*
X4530750Y-3416046D01*
X4524857Y-3428034D01*
X4520539Y-3440684D01*
X4517948Y-3453790D01*
X4517085Y-3467100D01*
X4517948Y-3480409D01*
X4520539Y-3493515D01*
X4524857Y-3506165D01*
X4530750Y-3518154D01*
X4538167Y-3529228D01*
X4547006Y-3539286D01*
X4555134Y-3546449D01*
X4557674Y-3549853D01*
X4558588Y-3554069D01*
X4558588Y-4211015D01*
X4557979Y-4214571D01*
X4556150Y-4217670D01*
X4553356Y-4219905D01*
X4541875Y-4226255D01*
X4528515Y-4235754D01*
X4516323Y-4246626D01*
X4505452Y-4258818D01*
X4495952Y-4272178D01*
X4488027Y-4286504D01*
X4481779Y-4301591D01*
X4477258Y-4317339D01*
X4474514Y-4333443D01*
X4473600Y-4349800D01*
X4474514Y-4366158D01*
X4477258Y-4382262D01*
X4481779Y-4398010D01*
X4488027Y-4413097D01*
X4495952Y-4427423D01*
X4505452Y-4440783D01*
X4516323Y-4452975D01*
X4528515Y-4463846D01*
X4541875Y-4473346D01*
X4556201Y-4481271D01*
X4571288Y-4487519D01*
X4587036Y-4492040D01*
X4603140Y-4494784D01*
G37*
G36*
X7942021Y-9904018D02*
G01*
X7960106Y-9902647D01*
X7977886Y-9899396D01*
X7995310Y-9894316D01*
X8012074Y-9887508D01*
X8028025Y-9878974D01*
X8043062Y-9868865D01*
X8056981Y-9857282D01*
X8069630Y-9844328D01*
X8080857Y-9830104D01*
X8090560Y-9814814D01*
X8098688Y-9798659D01*
X8105038Y-9781692D01*
X8109661Y-9764166D01*
X8112455Y-9746284D01*
X8113369Y-9728200D01*
X8112455Y-9710115D01*
X8109661Y-9692233D01*
X8105038Y-9674707D01*
X8098688Y-9657740D01*
X8090560Y-9641586D01*
X8080857Y-9626295D01*
X8069630Y-9612071D01*
X8056981Y-9599117D01*
X8043062Y-9587534D01*
X8028025Y-9577425D01*
X8012074Y-9568891D01*
X7995310Y-9562084D01*
X7977886Y-9557004D01*
X7960106Y-9553752D01*
X7942021Y-9552381D01*
X7923936Y-9552838D01*
X7905953Y-9555175D01*
X7888325Y-9559290D01*
X7871256Y-9565284D01*
X7854848Y-9572955D01*
X7839303Y-9582251D01*
X7824825Y-9593122D01*
X7811516Y-9605416D01*
X7799578Y-9619030D01*
X7789062Y-9633813D01*
X7780172Y-9649561D01*
X7772908Y-9666173D01*
X7767421Y-9683394D01*
X7763713Y-9701123D01*
X7761833Y-9719157D01*
X7761833Y-9737242D01*
X7763713Y-9755276D01*
X7767421Y-9773005D01*
X7772908Y-9790226D01*
X7780172Y-9806838D01*
X7789062Y-9822586D01*
X7799578Y-9837369D01*
X7811516Y-9850983D01*
X7824825Y-9863277D01*
X7839303Y-9874148D01*
X7854848Y-9883444D01*
X7871256Y-9891115D01*
X7888325Y-9897110D01*
X7905953Y-9901224D01*
X7923936Y-9903561D01*
G37*
G36*
X8044637Y-1090320D02*
G01*
X8046821Y-1089355D01*
X8059826Y-1081481D01*
X8071764Y-1072134D01*
X8082534Y-1061364D01*
X8091881Y-1049426D01*
X8099755Y-1036421D01*
X8100720Y-1034237D01*
X8044637Y-1034237D01*
G37*
G36*
X5504637Y-1090320D02*
G01*
X5506821Y-1089355D01*
X5519826Y-1081481D01*
X5531764Y-1072134D01*
X5542534Y-1061364D01*
X5551881Y-1049426D01*
X5559755Y-1036421D01*
X5560720Y-1034237D01*
X5504637Y-1034237D01*
G37*
G36*
X4531258Y-1780336D02*
G01*
X4541824Y-1779879D01*
X4552238Y-1777796D01*
X4562144Y-1774037D01*
X4571339Y-1768703D01*
X4579518Y-1761998D01*
X4586579Y-1754073D01*
X4592218Y-1745132D01*
X4596384Y-1735378D01*
X4598924Y-1725066D01*
X4599787Y-1714500D01*
X4598924Y-1703933D01*
X4596384Y-1693621D01*
X4592218Y-1683867D01*
X4586579Y-1674926D01*
X4579518Y-1667002D01*
X4571339Y-1660296D01*
X4562144Y-1654962D01*
X4552238Y-1651203D01*
X4545584Y-1649882D01*
X4543196Y-1649069D01*
X4541113Y-1647698D01*
X4111498Y-1289761D01*
X4103065Y-1284224D01*
X4094073Y-1280414D01*
X4084167Y-1278077D01*
X3995978Y-1265478D01*
X3989070Y-1264920D01*
X1755038Y-1202131D01*
X1751330Y-1201318D01*
X1748129Y-1199184D01*
X1068120Y-519176D01*
X1066190Y-516432D01*
X1065225Y-513283D01*
X1066495Y-495300D01*
X1065580Y-481787D01*
X1062888Y-468528D01*
X1058468Y-455777D01*
X1052322Y-443687D01*
X1044702Y-432511D01*
X1035608Y-422503D01*
X1025296Y-413766D01*
X1013866Y-406501D01*
X1001623Y-400761D01*
X988669Y-396798D01*
X975360Y-394512D01*
X961796Y-394055D01*
X948334Y-395427D01*
X935177Y-398576D01*
X922578Y-403402D01*
X910691Y-409905D01*
X899820Y-417931D01*
X890066Y-427380D01*
X881684Y-437997D01*
X874776Y-449630D01*
X869543Y-462076D01*
X865936Y-475132D01*
X864158Y-488543D01*
X864158Y-502056D01*
X865936Y-515467D01*
X869543Y-528523D01*
X874776Y-540969D01*
X881684Y-552602D01*
X890066Y-563219D01*
X899820Y-572668D01*
X910691Y-580694D01*
X922578Y-587197D01*
X935177Y-592023D01*
X948334Y-595172D01*
X961796Y-596544D01*
X975360Y-596087D01*
X980084Y-595274D01*
X983284Y-595274D01*
X986332Y-596239D01*
X988923Y-598119D01*
X1689963Y-1299006D01*
X1695246Y-1303172D01*
X1697786Y-1304848D01*
X1703730Y-1307998D01*
X1706473Y-1309217D01*
X1712874Y-1311351D01*
X1715820Y-1312011D01*
X1722475Y-1312976D01*
X3982465Y-1376578D01*
X4050233Y-1386179D01*
X4052925Y-1386992D01*
X4055313Y-1388465D01*
X4469434Y-1733550D01*
X4471314Y-1735632D01*
X4473295Y-1740306D01*
X4478223Y-1749704D01*
X4484573Y-1758188D01*
X4492244Y-1765503D01*
X4500981Y-1771548D01*
X4510532Y-1776069D01*
X4520742Y-1779066D01*
G37*
G36*
X4176115Y-1975256D02*
G01*
X4223156Y-1975256D01*
X4223156Y-1928215D01*
X4212691Y-1933905D01*
X4201820Y-1941931D01*
X4192066Y-1951380D01*
X4183684Y-1961997D01*
X4176776Y-1973630D01*
G37*
G36*
X6139484Y-4145686D02*
G01*
X6154674Y-4144772D01*
X6169609Y-4142028D01*
X6184138Y-4137507D01*
X6198006Y-4131259D01*
X6211011Y-4123385D01*
X6222949Y-4114037D01*
X6233718Y-4103268D01*
X6243066Y-4091330D01*
X6250940Y-4078325D01*
X6257188Y-4064457D01*
X6261709Y-4049928D01*
X6264452Y-4034993D01*
X6265367Y-4019804D01*
X6264452Y-4004614D01*
X6261709Y-3989679D01*
X6257188Y-3975150D01*
X6250940Y-3961282D01*
X6243066Y-3948277D01*
X6233718Y-3936339D01*
X6222949Y-3925570D01*
X6211011Y-3916222D01*
X6198006Y-3908348D01*
X6184138Y-3902100D01*
X6169609Y-3897579D01*
X6154674Y-3894836D01*
X6139484Y-3893921D01*
X6124295Y-3894836D01*
X6109360Y-3897579D01*
X6094831Y-3902100D01*
X6080963Y-3908348D01*
X6067958Y-3916222D01*
X6056020Y-3925570D01*
X6045250Y-3936339D01*
X6035903Y-3948277D01*
X6028029Y-3961282D01*
X6021781Y-3975150D01*
X6017260Y-3989679D01*
X6014516Y-4004614D01*
X6013602Y-4019804D01*
X6014516Y-4034993D01*
X6017260Y-4049928D01*
X6021781Y-4064457D01*
X6028029Y-4078325D01*
X6035903Y-4091330D01*
X6045250Y-4103268D01*
X6056020Y-4114037D01*
X6067958Y-4123385D01*
X6080963Y-4131259D01*
X6094831Y-4137507D01*
X6109360Y-4142028D01*
X6124295Y-4144772D01*
G37*
G36*
X4311243Y-1975256D02*
G01*
X4358182Y-1975256D01*
X4354322Y-1967687D01*
X4346702Y-1956511D01*
X4337608Y-1946503D01*
X4327296Y-1937766D01*
X4315866Y-1930501D01*
X4311243Y-1928317D01*
G37*
G36*
X4311243Y-2110282D02*
G01*
X4315866Y-2108098D01*
X4327296Y-2100834D01*
X4337608Y-2092096D01*
X4346702Y-2082088D01*
X4354322Y-2070912D01*
X4358182Y-2063343D01*
X4311243Y-2063343D01*
G37*
G36*
X4223156Y-2110384D02*
G01*
X4223156Y-2063343D01*
X4176115Y-2063343D01*
X4176776Y-2064969D01*
X4183684Y-2076602D01*
X4192066Y-2087219D01*
X4201820Y-2096668D01*
X4212691Y-2104694D01*
G37*
G36*
X2159355Y-3569208D02*
G01*
X2209444Y-3569208D01*
X2223109Y-3568293D01*
X2236216Y-3565702D01*
X2248865Y-3561435D01*
X2260854Y-3555492D01*
X2271928Y-3548075D01*
X2281986Y-3539286D01*
X2290775Y-3529228D01*
X2298192Y-3518154D01*
X2304135Y-3506165D01*
X2308402Y-3493515D01*
X2310993Y-3480409D01*
X2311908Y-3467100D01*
X2310993Y-3453790D01*
X2308402Y-3440684D01*
X2304135Y-3428034D01*
X2298192Y-3416046D01*
X2290775Y-3404971D01*
X2281986Y-3394913D01*
X2271928Y-3386124D01*
X2260854Y-3378708D01*
X2248865Y-3372764D01*
X2236216Y-3368497D01*
X2223109Y-3365906D01*
X2209444Y-3364992D01*
X2159355Y-3364992D01*
X2145690Y-3365906D01*
X2132584Y-3368497D01*
X2119934Y-3372764D01*
X2107946Y-3378708D01*
X2096871Y-3386124D01*
X2086813Y-3394913D01*
X2078024Y-3404971D01*
X2070607Y-3416046D01*
X2064664Y-3428034D01*
X2060397Y-3440684D01*
X2057806Y-3453790D01*
X2056892Y-3467100D01*
X2057806Y-3480409D01*
X2060397Y-3493515D01*
X2064664Y-3506165D01*
X2070607Y-3518154D01*
X2078024Y-3529228D01*
X2086813Y-3539286D01*
X2096871Y-3548075D01*
X2107946Y-3555492D01*
X2119934Y-3561435D01*
X2132584Y-3565702D01*
X2145690Y-3568293D01*
G37*
G36*
X3389426Y-3569208D02*
G01*
X3439566Y-3569208D01*
X3453231Y-3568293D01*
X3466287Y-3565702D01*
X3478936Y-3561435D01*
X3490925Y-3555492D01*
X3502050Y-3548075D01*
X3512058Y-3539286D01*
X3520897Y-3529228D01*
X3528314Y-3518154D01*
X3534206Y-3506165D01*
X3538474Y-3493515D01*
X3541115Y-3480409D01*
X3541979Y-3467100D01*
X3541115Y-3453790D01*
X3538474Y-3440684D01*
X3534206Y-3428034D01*
X3528314Y-3416046D01*
X3520897Y-3404971D01*
X3512058Y-3394913D01*
X3502050Y-3386124D01*
X3490925Y-3378708D01*
X3478936Y-3372764D01*
X3466287Y-3368497D01*
X3453231Y-3365906D01*
X3439566Y-3364992D01*
X3389426Y-3364992D01*
X3375761Y-3365906D01*
X3362655Y-3368497D01*
X3350006Y-3372764D01*
X3338068Y-3378708D01*
X3326942Y-3386124D01*
X3316884Y-3394913D01*
X3308096Y-3404971D01*
X3300679Y-3416046D01*
X3294786Y-3428034D01*
X3290468Y-3440684D01*
X3287877Y-3453790D01*
X3287014Y-3467100D01*
X3287877Y-3480409D01*
X3290468Y-3493515D01*
X3294786Y-3506165D01*
X3300679Y-3518154D01*
X3308096Y-3529228D01*
X3316884Y-3539286D01*
X3326942Y-3548075D01*
X3338068Y-3555492D01*
X3350006Y-3561435D01*
X3362655Y-3565702D01*
X3375761Y-3568293D01*
G37*
G36*
X2979369Y-3569208D02*
G01*
X3029508Y-3569208D01*
X3043174Y-3568293D01*
X3056280Y-3565702D01*
X3068929Y-3561435D01*
X3080918Y-3555492D01*
X3091992Y-3548075D01*
X3102051Y-3539286D01*
X3110839Y-3529228D01*
X3118256Y-3518154D01*
X3124149Y-3506165D01*
X3128467Y-3493515D01*
X3131058Y-3480409D01*
X3131921Y-3467100D01*
X3131058Y-3453790D01*
X3128467Y-3440684D01*
X3124149Y-3428034D01*
X3118256Y-3416046D01*
X3110839Y-3404971D01*
X3102051Y-3394913D01*
X3091992Y-3386124D01*
X3080918Y-3378708D01*
X3068929Y-3372764D01*
X3056280Y-3368497D01*
X3043174Y-3365906D01*
X3029508Y-3364992D01*
X2979369Y-3364992D01*
X2965754Y-3365906D01*
X2952648Y-3368497D01*
X2939999Y-3372764D01*
X2928010Y-3378708D01*
X2916936Y-3386124D01*
X2906877Y-3394913D01*
X2898089Y-3404971D01*
X2890672Y-3416046D01*
X2884728Y-3428034D01*
X2880461Y-3440684D01*
X2877820Y-3453790D01*
X2876956Y-3467100D01*
X2877820Y-3480409D01*
X2880461Y-3493515D01*
X2884728Y-3506165D01*
X2890672Y-3518154D01*
X2898089Y-3529228D01*
X2906877Y-3539286D01*
X2916936Y-3548075D01*
X2928010Y-3555492D01*
X2939999Y-3561435D01*
X2952648Y-3565702D01*
X2965754Y-3568293D01*
G37*
G36*
X2569362Y-3569208D02*
G01*
X2619502Y-3569208D01*
X2633167Y-3568293D01*
X2646273Y-3565702D01*
X2658872Y-3561435D01*
X2670860Y-3555492D01*
X2681986Y-3548075D01*
X2691993Y-3539286D01*
X2700832Y-3529228D01*
X2708249Y-3518154D01*
X2714142Y-3506165D01*
X2718460Y-3493515D01*
X2721051Y-3480409D01*
X2721914Y-3467100D01*
X2721051Y-3453790D01*
X2718460Y-3440684D01*
X2714142Y-3428034D01*
X2708249Y-3416046D01*
X2700832Y-3404971D01*
X2691993Y-3394913D01*
X2681986Y-3386124D01*
X2670860Y-3378708D01*
X2658872Y-3372764D01*
X2646273Y-3368497D01*
X2633167Y-3365906D01*
X2619502Y-3364992D01*
X2569362Y-3364992D01*
X2555697Y-3365906D01*
X2542590Y-3368497D01*
X2529941Y-3372764D01*
X2518003Y-3378708D01*
X2506878Y-3386124D01*
X2496820Y-3394913D01*
X2488031Y-3404971D01*
X2480614Y-3416046D01*
X2474722Y-3428034D01*
X2470404Y-3440684D01*
X2467813Y-3453790D01*
X2466949Y-3467100D01*
X2467813Y-3480409D01*
X2470404Y-3493515D01*
X2474722Y-3506165D01*
X2480614Y-3518154D01*
X2488031Y-3529228D01*
X2496820Y-3539286D01*
X2506878Y-3548075D01*
X2518003Y-3555492D01*
X2529941Y-3561435D01*
X2542590Y-3565702D01*
X2555697Y-3568293D01*
G37*
G36*
X3799433Y-3569208D02*
G01*
X3849573Y-3569208D01*
X3863238Y-3568293D01*
X3876344Y-3565702D01*
X3888994Y-3561435D01*
X3900932Y-3555492D01*
X3912057Y-3548075D01*
X3922115Y-3539286D01*
X3930904Y-3529228D01*
X3938320Y-3518154D01*
X3944213Y-3506165D01*
X3948531Y-3493515D01*
X3951122Y-3480409D01*
X3951986Y-3467100D01*
X3951122Y-3453790D01*
X3948531Y-3440684D01*
X3944213Y-3428034D01*
X3938320Y-3416046D01*
X3930904Y-3404971D01*
X3922115Y-3394913D01*
X3912057Y-3386124D01*
X3900932Y-3378708D01*
X3888994Y-3372764D01*
X3876344Y-3368497D01*
X3863238Y-3365906D01*
X3849573Y-3364992D01*
X3799433Y-3364992D01*
X3785768Y-3365906D01*
X3772712Y-3368497D01*
X3760063Y-3372764D01*
X3748074Y-3378708D01*
X3736949Y-3386124D01*
X3726942Y-3394913D01*
X3718102Y-3404971D01*
X3710686Y-3416046D01*
X3704793Y-3428034D01*
X3700526Y-3440684D01*
X3697884Y-3453790D01*
X3697020Y-3467100D01*
X3697884Y-3480409D01*
X3700526Y-3493515D01*
X3704793Y-3506165D01*
X3710686Y-3518154D01*
X3718102Y-3529228D01*
X3726942Y-3539286D01*
X3736949Y-3548075D01*
X3748074Y-3555492D01*
X3760063Y-3561435D01*
X3772712Y-3565702D01*
X3785768Y-3568293D01*
G37*
G36*
X2159355Y-2604008D02*
G01*
X2209444Y-2604008D01*
X2223109Y-2603093D01*
X2236216Y-2600502D01*
X2248865Y-2596235D01*
X2260854Y-2590292D01*
X2271928Y-2582875D01*
X2281986Y-2574086D01*
X2290775Y-2564028D01*
X2298192Y-2552954D01*
X2304135Y-2540965D01*
X2308402Y-2528316D01*
X2310993Y-2515209D01*
X2311908Y-2501900D01*
X2310993Y-2488590D01*
X2308402Y-2475484D01*
X2304135Y-2462834D01*
X2297684Y-2449880D01*
X2296617Y-2445969D01*
X2297176Y-2441956D01*
X2299309Y-2438450D01*
X2302611Y-2436114D01*
X2306574Y-2435199D01*
X2310536Y-2435961D01*
X2313940Y-2438196D01*
X2420518Y-2544724D01*
X2426563Y-2550109D01*
X2434996Y-2555544D01*
X2436876Y-2556510D01*
X2446223Y-2560218D01*
X2453995Y-2561996D01*
X2456078Y-2562301D01*
X2464104Y-2562809D01*
X2482342Y-2562809D01*
X2486558Y-2563723D01*
X2490012Y-2566263D01*
X2496820Y-2574086D01*
X2506878Y-2582875D01*
X2518003Y-2590292D01*
X2529941Y-2596235D01*
X2542590Y-2600502D01*
X2555697Y-2603093D01*
X2569362Y-2604008D01*
X2619502Y-2604008D01*
X2633167Y-2603093D01*
X2646273Y-2600502D01*
X2658872Y-2596235D01*
X2670860Y-2590292D01*
X2681986Y-2582875D01*
X2691993Y-2574086D01*
X2700832Y-2564028D01*
X2708249Y-2552954D01*
X2714142Y-2540965D01*
X2718460Y-2528316D01*
X2721051Y-2515209D01*
X2721914Y-2501900D01*
X2721051Y-2488590D01*
X2719425Y-2480462D01*
X2719476Y-2476195D01*
X2721356Y-2472283D01*
X2724607Y-2469540D01*
X2728722Y-2468372D01*
X2732989Y-2468981D01*
X2736596Y-2471318D01*
X2800908Y-2535580D01*
X2807970Y-2540914D01*
X2815539Y-2544673D01*
X2823667Y-2546959D01*
X2832557Y-2547823D01*
X2881782Y-2547823D01*
X2885084Y-2548331D01*
X2887980Y-2549906D01*
X2890266Y-2552344D01*
X2898089Y-2564028D01*
X2906877Y-2574086D01*
X2916936Y-2582875D01*
X2928010Y-2590292D01*
X2939999Y-2596235D01*
X2952648Y-2600502D01*
X2965754Y-2603093D01*
X2979369Y-2604008D01*
X3029508Y-2604008D01*
X3043174Y-2603093D01*
X3056280Y-2600502D01*
X3068929Y-2596235D01*
X3080918Y-2590292D01*
X3091992Y-2582875D01*
X3102051Y-2574086D01*
X3110839Y-2564028D01*
X3118256Y-2552954D01*
X3124149Y-2540965D01*
X3128467Y-2528316D01*
X3129737Y-2521966D01*
X3131464Y-2518003D01*
X3134715Y-2515108D01*
X3138881Y-2513838D01*
X3143199Y-2514447D01*
X3146856Y-2516784D01*
X3165754Y-2535580D01*
X3172764Y-2540914D01*
X3180334Y-2544673D01*
X3188512Y-2546959D01*
X3197402Y-2547823D01*
X3291840Y-2547823D01*
X3295091Y-2548331D01*
X3298037Y-2549906D01*
X3300272Y-2552344D01*
X3308096Y-2564028D01*
X3316884Y-2574086D01*
X3326942Y-2582875D01*
X3338068Y-2590292D01*
X3350006Y-2596235D01*
X3362655Y-2600502D01*
X3375761Y-2603093D01*
X3389426Y-2604008D01*
X3439566Y-2604008D01*
X3453231Y-2603093D01*
X3466287Y-2600502D01*
X3478936Y-2596235D01*
X3490925Y-2590292D01*
X3502050Y-2582875D01*
X3512058Y-2574086D01*
X3520897Y-2564028D01*
X3528314Y-2552954D01*
X3534206Y-2540965D01*
X3538474Y-2528316D01*
X3541115Y-2515209D01*
X3541979Y-2501900D01*
X3541115Y-2488590D01*
X3538474Y-2475484D01*
X3534206Y-2462834D01*
X3528314Y-2450846D01*
X3527247Y-2449322D01*
X3525672Y-2445258D01*
X3525926Y-2440889D01*
X3528009Y-2437079D01*
X3531463Y-2434437D01*
X3535730Y-2433523D01*
X3686962Y-2433523D01*
X3690823Y-2434285D01*
X3694125Y-2436469D01*
X3704844Y-2447188D01*
X3707129Y-2450693D01*
X3707790Y-2454808D01*
X3706774Y-2458872D01*
X3704793Y-2462834D01*
X3700526Y-2475484D01*
X3697884Y-2488590D01*
X3697020Y-2501900D01*
X3697884Y-2515209D01*
X3700526Y-2528316D01*
X3704793Y-2540965D01*
X3710686Y-2552954D01*
X3718102Y-2564028D01*
X3726942Y-2574086D01*
X3736949Y-2582875D01*
X3748074Y-2590292D01*
X3760063Y-2596235D01*
X3772712Y-2600502D01*
X3785768Y-2603093D01*
X3799433Y-2604008D01*
X3849573Y-2604008D01*
X3863238Y-2603093D01*
X3876344Y-2600502D01*
X3888994Y-2596235D01*
X3900932Y-2590292D01*
X3912057Y-2582875D01*
X3922115Y-2574086D01*
X3930904Y-2564028D01*
X3938320Y-2552954D01*
X3944213Y-2540965D01*
X3948531Y-2528316D01*
X3951122Y-2515209D01*
X3951986Y-2501900D01*
X3951122Y-2488590D01*
X3948531Y-2475484D01*
X3944213Y-2462834D01*
X3938320Y-2450846D01*
X3930904Y-2439771D01*
X3922115Y-2429713D01*
X3912057Y-2420924D01*
X3900932Y-2413508D01*
X3888994Y-2407564D01*
X3876344Y-2403297D01*
X3863238Y-2400706D01*
X3849573Y-2399792D01*
X3799433Y-2399792D01*
X3792626Y-2400249D01*
X3788410Y-2399588D01*
X3784803Y-2397302D01*
X3774846Y-2387346D01*
X3772662Y-2384044D01*
X3771849Y-2380183D01*
X3772662Y-2376271D01*
X3774846Y-2372969D01*
X3778148Y-2370785D01*
X3782009Y-2370023D01*
X4033418Y-2370023D01*
X4037279Y-2370785D01*
X4040581Y-2372969D01*
X4114850Y-2447239D01*
X4117136Y-2450744D01*
X4117797Y-2454859D01*
X4116781Y-2458923D01*
X4114850Y-2462834D01*
X4110532Y-2475484D01*
X4107942Y-2488590D01*
X4107078Y-2501900D01*
X4107942Y-2515209D01*
X4110532Y-2528316D01*
X4114850Y-2540965D01*
X4120743Y-2552954D01*
X4128160Y-2564028D01*
X4136948Y-2574086D01*
X4147007Y-2582875D01*
X4158081Y-2590292D01*
X4170070Y-2596235D01*
X4182719Y-2600502D01*
X4195826Y-2603093D01*
X4209491Y-2604008D01*
X4259630Y-2604008D01*
X4273245Y-2603093D01*
X4286351Y-2600502D01*
X4299000Y-2596235D01*
X4310989Y-2590292D01*
X4322114Y-2582875D01*
X4332122Y-2574086D01*
X4340910Y-2564028D01*
X4348327Y-2552954D01*
X4354271Y-2540965D01*
X4358538Y-2528316D01*
X4361180Y-2515209D01*
X4362043Y-2501900D01*
X4361180Y-2488590D01*
X4358538Y-2475484D01*
X4354271Y-2462834D01*
X4348327Y-2450846D01*
X4340910Y-2439771D01*
X4332122Y-2429713D01*
X4322114Y-2420924D01*
X4310989Y-2413508D01*
X4299000Y-2407564D01*
X4286351Y-2403297D01*
X4273245Y-2400706D01*
X4259630Y-2399792D01*
X4209491Y-2399792D01*
X4202582Y-2400249D01*
X4198366Y-2399588D01*
X4194759Y-2397302D01*
X4121302Y-2323846D01*
X4119118Y-2320544D01*
X4118356Y-2316683D01*
X4119118Y-2312771D01*
X4121302Y-2309469D01*
X4124604Y-2307285D01*
X4128515Y-2306523D01*
X4380128Y-2306523D01*
X4383989Y-2307285D01*
X4387291Y-2309469D01*
X4524908Y-2447086D01*
X4527194Y-2450592D01*
X4527905Y-2454757D01*
X4526838Y-2458770D01*
X4524857Y-2462834D01*
X4520539Y-2475484D01*
X4517948Y-2488590D01*
X4517085Y-2501900D01*
X4517948Y-2515209D01*
X4520539Y-2528316D01*
X4524857Y-2540965D01*
X4530750Y-2552954D01*
X4538167Y-2564028D01*
X4547006Y-2574086D01*
X4557014Y-2582875D01*
X4568139Y-2590292D01*
X4580128Y-2596235D01*
X4592726Y-2600502D01*
X4605832Y-2603093D01*
X4619498Y-2604008D01*
X4669637Y-2604008D01*
X4683302Y-2603093D01*
X4696409Y-2600502D01*
X4709058Y-2596235D01*
X4720996Y-2590292D01*
X4732121Y-2582875D01*
X4742180Y-2574086D01*
X4750968Y-2564028D01*
X4758385Y-2552954D01*
X4764278Y-2540965D01*
X4768596Y-2528316D01*
X4771186Y-2515209D01*
X4772050Y-2501900D01*
X4771186Y-2488590D01*
X4768596Y-2475484D01*
X4764278Y-2462834D01*
X4758385Y-2450846D01*
X4750968Y-2439771D01*
X4742180Y-2429713D01*
X4732121Y-2420924D01*
X4720996Y-2413508D01*
X4709058Y-2407564D01*
X4696409Y-2403297D01*
X4683302Y-2400706D01*
X4669637Y-2399792D01*
X4619498Y-2399792D01*
X4612792Y-2400249D01*
X4608525Y-2399588D01*
X4604918Y-2397302D01*
X4468012Y-2260346D01*
X4465828Y-2257044D01*
X4465066Y-2253183D01*
X4465828Y-2249271D01*
X4468012Y-2245969D01*
X4471314Y-2243785D01*
X4475226Y-2243023D01*
X4726584Y-2243023D01*
X4730445Y-2243785D01*
X4733747Y-2245969D01*
X4934915Y-2447137D01*
X4937201Y-2450642D01*
X4937912Y-2454757D01*
X4936845Y-2458821D01*
X4934864Y-2462834D01*
X4930597Y-2475484D01*
X4928006Y-2488590D01*
X4927092Y-2501900D01*
X4928006Y-2515209D01*
X4930597Y-2528316D01*
X4934864Y-2540965D01*
X4940808Y-2552954D01*
X4948224Y-2564028D01*
X4957013Y-2574086D01*
X4967071Y-2582875D01*
X4978146Y-2590292D01*
X4990134Y-2596235D01*
X5002784Y-2600502D01*
X5015890Y-2603093D01*
X5029555Y-2604008D01*
X5079644Y-2604008D01*
X5093309Y-2603093D01*
X5106416Y-2600502D01*
X5119065Y-2596235D01*
X5131054Y-2590292D01*
X5142128Y-2582875D01*
X5152186Y-2574086D01*
X5160975Y-2564028D01*
X5168392Y-2552954D01*
X5174335Y-2540965D01*
X5178602Y-2528316D01*
X5181193Y-2515209D01*
X5182108Y-2501900D01*
X5181193Y-2488590D01*
X5178602Y-2475484D01*
X5174335Y-2462834D01*
X5168392Y-2450846D01*
X5160975Y-2439771D01*
X5152186Y-2429713D01*
X5142128Y-2420924D01*
X5131054Y-2413508D01*
X5119065Y-2407564D01*
X5106416Y-2403297D01*
X5093309Y-2400706D01*
X5079644Y-2399792D01*
X5029555Y-2399792D01*
X5022748Y-2400249D01*
X5018532Y-2399588D01*
X5014925Y-2397302D01*
X4780991Y-2163419D01*
X4773930Y-2158085D01*
X4766360Y-2154326D01*
X4758232Y-2152040D01*
X4749342Y-2151176D01*
X3706215Y-2151176D01*
X3702354Y-2150414D01*
X3699052Y-2148230D01*
X3605733Y-2054910D01*
X3603802Y-2052218D01*
X3602837Y-2049018D01*
X3602939Y-2045716D01*
X3605580Y-2032812D01*
X3606495Y-2019300D01*
X3605580Y-2005787D01*
X3602888Y-1992528D01*
X3598468Y-1979777D01*
X3592322Y-1967687D01*
X3584701Y-1956511D01*
X3575608Y-1946503D01*
X3565296Y-1937766D01*
X3553866Y-1930501D01*
X3541623Y-1924761D01*
X3528669Y-1920798D01*
X3515360Y-1918512D01*
X3501796Y-1918055D01*
X3488334Y-1919427D01*
X3475177Y-1922576D01*
X3462578Y-1927402D01*
X3450691Y-1933905D01*
X3439820Y-1941931D01*
X3430066Y-1951380D01*
X3421684Y-1961997D01*
X3414776Y-1973630D01*
X3409543Y-1986076D01*
X3405936Y-1999132D01*
X3404158Y-2012543D01*
X3404158Y-2026056D01*
X3405936Y-2039467D01*
X3409543Y-2052523D01*
X3414776Y-2064969D01*
X3421684Y-2076602D01*
X3430066Y-2087219D01*
X3439820Y-2096668D01*
X3450691Y-2104694D01*
X3462578Y-2111197D01*
X3475177Y-2116023D01*
X3488334Y-2119172D01*
X3501796Y-2120544D01*
X3515360Y-2120087D01*
X3534156Y-2116785D01*
X3537712Y-2117699D01*
X3540760Y-2119782D01*
X3618331Y-2197354D01*
X3620515Y-2200656D01*
X3621278Y-2204516D01*
X3620515Y-2208428D01*
X3618331Y-2211730D01*
X3615029Y-2213914D01*
X3611118Y-2214676D01*
X3515715Y-2214676D01*
X3511854Y-2213914D01*
X3508552Y-2211730D01*
X3351733Y-2054910D01*
X3349802Y-2052218D01*
X3348837Y-2049018D01*
X3348939Y-2045716D01*
X3351580Y-2032812D01*
X3352495Y-2019300D01*
X3351580Y-2005787D01*
X3348888Y-1992528D01*
X3344468Y-1979777D01*
X3338322Y-1967687D01*
X3330701Y-1956511D01*
X3321608Y-1946503D01*
X3311296Y-1937766D01*
X3299866Y-1930501D01*
X3287623Y-1924761D01*
X3274669Y-1920798D01*
X3261360Y-1918512D01*
X3247796Y-1918055D01*
X3234334Y-1919427D01*
X3221177Y-1922576D01*
X3208578Y-1927402D01*
X3196691Y-1933905D01*
X3185820Y-1941931D01*
X3176066Y-1951380D01*
X3167684Y-1961997D01*
X3160776Y-1973630D01*
X3155543Y-1986076D01*
X3151936Y-1999132D01*
X3150158Y-2012543D01*
X3150158Y-2026056D01*
X3151936Y-2039467D01*
X3155543Y-2052523D01*
X3160776Y-2064969D01*
X3167684Y-2076602D01*
X3176066Y-2087219D01*
X3185820Y-2096668D01*
X3196691Y-2104694D01*
X3208578Y-2111197D01*
X3221177Y-2116023D01*
X3234334Y-2119172D01*
X3247796Y-2120544D01*
X3261360Y-2120087D01*
X3280156Y-2116785D01*
X3283712Y-2117699D01*
X3286760Y-2119782D01*
X3427831Y-2260854D01*
X3430015Y-2264156D01*
X3430778Y-2268016D01*
X3430015Y-2271928D01*
X3427831Y-2275230D01*
X3424529Y-2277414D01*
X3420618Y-2278176D01*
X3325215Y-2278176D01*
X3321354Y-2277414D01*
X3318052Y-2275230D01*
X3097733Y-2054910D01*
X3095802Y-2052218D01*
X3094837Y-2049018D01*
X3094939Y-2045716D01*
X3097580Y-2032812D01*
X3098495Y-2019300D01*
X3097580Y-2005787D01*
X3094888Y-1992528D01*
X3090468Y-1979777D01*
X3084322Y-1967687D01*
X3076702Y-1956511D01*
X3067608Y-1946503D01*
X3057296Y-1937766D01*
X3045866Y-1930501D01*
X3033623Y-1924761D01*
X3020669Y-1920798D01*
X3007360Y-1918512D01*
X2993796Y-1918055D01*
X2980334Y-1919427D01*
X2967177Y-1922576D01*
X2954578Y-1927402D01*
X2942691Y-1933905D01*
X2931820Y-1941931D01*
X2922066Y-1951380D01*
X2913684Y-1961997D01*
X2906776Y-1973630D01*
X2901543Y-1986076D01*
X2897936Y-1999132D01*
X2896158Y-2012543D01*
X2896158Y-2026056D01*
X2897174Y-2033828D01*
X2896819Y-2038146D01*
X2894685Y-2041906D01*
X2891180Y-2044496D01*
X2886913Y-2045309D01*
X2882696Y-2044344D01*
X2879293Y-2041652D01*
X2843276Y-1998218D01*
X2841904Y-1996135D01*
X2840888Y-1992528D01*
X2836468Y-1979777D01*
X2830322Y-1967687D01*
X2822702Y-1956511D01*
X2813608Y-1946503D01*
X2803296Y-1937766D01*
X2791866Y-1930501D01*
X2779623Y-1924761D01*
X2766669Y-1920798D01*
X2753360Y-1918512D01*
X2739796Y-1918055D01*
X2726334Y-1919427D01*
X2713177Y-1922576D01*
X2700578Y-1927402D01*
X2688691Y-1933905D01*
X2677820Y-1941931D01*
X2668066Y-1951380D01*
X2659684Y-1961997D01*
X2652776Y-1973630D01*
X2647543Y-1986076D01*
X2643936Y-1999132D01*
X2642158Y-2012543D01*
X2642158Y-2026056D01*
X2643936Y-2039467D01*
X2647543Y-2052523D01*
X2652776Y-2064969D01*
X2659684Y-2076602D01*
X2668066Y-2087219D01*
X2677820Y-2096668D01*
X2688691Y-2104694D01*
X2700578Y-2111197D01*
X2713177Y-2116023D01*
X2726334Y-2119172D01*
X2739796Y-2120544D01*
X2753360Y-2120087D01*
X2766669Y-2117801D01*
X2779623Y-2113838D01*
X2791866Y-2108098D01*
X2799537Y-2103221D01*
X2802890Y-2101850D01*
X2806547Y-2101748D01*
X2810002Y-2102967D01*
X2812796Y-2105304D01*
X2923438Y-2238756D01*
X2929788Y-2245055D01*
X2936748Y-2249830D01*
X2944520Y-2253284D01*
X2952851Y-2255266D01*
X2959455Y-2255723D01*
X3037179Y-2255723D01*
X3041091Y-2256485D01*
X3044444Y-2258771D01*
X3078175Y-2293112D01*
X3080359Y-2296515D01*
X3081070Y-2300528D01*
X3080156Y-2304491D01*
X3077768Y-2307742D01*
X3074314Y-2309825D01*
X3070301Y-2310384D01*
X3066389Y-2309368D01*
X3061055Y-2306675D01*
X3052876Y-2304389D01*
X3043986Y-2303526D01*
X2842564Y-2303526D01*
X2838704Y-2302764D01*
X2835402Y-2300579D01*
X2589733Y-2054910D01*
X2587802Y-2052218D01*
X2586837Y-2049018D01*
X2586939Y-2045716D01*
X2589580Y-2032812D01*
X2590495Y-2019300D01*
X2589580Y-2005787D01*
X2586888Y-1992528D01*
X2582468Y-1979777D01*
X2576322Y-1967687D01*
X2568702Y-1956511D01*
X2559608Y-1946503D01*
X2549296Y-1937766D01*
X2537866Y-1930501D01*
X2525623Y-1924761D01*
X2512669Y-1920798D01*
X2499360Y-1918512D01*
X2485796Y-1918055D01*
X2472334Y-1919427D01*
X2459177Y-1922576D01*
X2446578Y-1927402D01*
X2434691Y-1933905D01*
X2423820Y-1941931D01*
X2414066Y-1951380D01*
X2405684Y-1961997D01*
X2398776Y-1973630D01*
X2393543Y-1986076D01*
X2389936Y-1999132D01*
X2388158Y-2012543D01*
X2388158Y-2026056D01*
X2389936Y-2039467D01*
X2393543Y-2052523D01*
X2398776Y-2064969D01*
X2403602Y-2073097D01*
X2404973Y-2077161D01*
X2404567Y-2081377D01*
X2402433Y-2085035D01*
X2399030Y-2087575D01*
X2394864Y-2088438D01*
X2373477Y-2088438D01*
X2369616Y-2087676D01*
X2366314Y-2085492D01*
X2335733Y-2054910D01*
X2333802Y-2052218D01*
X2332837Y-2049018D01*
X2332939Y-2045716D01*
X2335580Y-2032812D01*
X2336495Y-2019300D01*
X2335580Y-2005787D01*
X2332888Y-1992528D01*
X2328468Y-1979777D01*
X2322322Y-1967687D01*
X2314702Y-1956511D01*
X2305608Y-1946503D01*
X2295296Y-1937766D01*
X2283866Y-1930501D01*
X2271623Y-1924761D01*
X2258669Y-1920798D01*
X2245360Y-1918512D01*
X2231796Y-1918055D01*
X2218334Y-1919427D01*
X2205177Y-1922576D01*
X2192578Y-1927402D01*
X2180691Y-1933905D01*
X2169820Y-1941931D01*
X2160066Y-1951380D01*
X2151684Y-1961997D01*
X2144776Y-1973630D01*
X2139543Y-1986076D01*
X2135936Y-1999132D01*
X2134158Y-2012543D01*
X2134158Y-2026056D01*
X2135936Y-2039467D01*
X2139543Y-2052523D01*
X2144776Y-2064969D01*
X2149856Y-2073554D01*
X2151227Y-2077516D01*
X2150872Y-2081631D01*
X2148890Y-2085289D01*
X2145588Y-2087880D01*
X2141575Y-2088896D01*
X2137460Y-2088184D01*
X2133955Y-2085898D01*
X2084781Y-2036775D01*
X2082444Y-2033168D01*
X2081834Y-2028901D01*
X2082495Y-2019300D01*
X2081580Y-2005787D01*
X2078888Y-1992528D01*
X2074468Y-1979777D01*
X2068322Y-1967687D01*
X2060702Y-1956511D01*
X2051608Y-1946503D01*
X2041296Y-1937766D01*
X2029866Y-1930501D01*
X2017623Y-1924761D01*
X2004669Y-1920798D01*
X1991360Y-1918512D01*
X1977796Y-1918055D01*
X1964334Y-1919427D01*
X1951177Y-1922576D01*
X1938578Y-1927402D01*
X1926691Y-1933905D01*
X1915820Y-1941931D01*
X1906066Y-1951380D01*
X1897684Y-1961997D01*
X1890775Y-1973630D01*
X1885543Y-1986076D01*
X1881936Y-1999132D01*
X1880158Y-2012543D01*
X1880158Y-2026056D01*
X1881936Y-2039467D01*
X1885543Y-2052523D01*
X1890775Y-2064969D01*
X1897684Y-2076602D01*
X1906066Y-2087219D01*
X1915820Y-2096668D01*
X1926691Y-2104694D01*
X1938578Y-2111197D01*
X1951177Y-2116023D01*
X1964334Y-2119172D01*
X1977796Y-2120544D01*
X1991309Y-2120087D01*
X1995373Y-2120798D01*
X1998827Y-2123033D01*
X2273503Y-2397760D01*
X2275738Y-2401163D01*
X2276500Y-2405126D01*
X2275586Y-2409088D01*
X2273249Y-2412390D01*
X2269744Y-2414524D01*
X2265730Y-2415082D01*
X2261819Y-2414016D01*
X2248865Y-2407564D01*
X2236216Y-2403297D01*
X2223109Y-2400706D01*
X2209444Y-2399792D01*
X2172614Y-2399792D01*
X2168753Y-2399030D01*
X2165451Y-2396794D01*
X1826768Y-2058111D01*
X1824634Y-2055012D01*
X1823770Y-2051354D01*
X1827580Y-2032812D01*
X1828495Y-2019300D01*
X1827580Y-2005787D01*
X1824888Y-1992528D01*
X1820468Y-1979777D01*
X1814322Y-1967687D01*
X1806702Y-1956511D01*
X1797608Y-1946503D01*
X1787296Y-1937766D01*
X1775866Y-1930501D01*
X1763623Y-1924761D01*
X1750669Y-1920798D01*
X1737360Y-1918512D01*
X1723796Y-1918055D01*
X1710334Y-1919427D01*
X1697177Y-1922576D01*
X1684578Y-1927402D01*
X1672691Y-1933905D01*
X1661820Y-1941931D01*
X1652066Y-1951380D01*
X1643684Y-1961997D01*
X1636776Y-1973630D01*
X1631543Y-1986076D01*
X1627936Y-1999132D01*
X1626158Y-2012543D01*
X1626158Y-2026056D01*
X1627936Y-2039467D01*
X1631543Y-2052523D01*
X1636776Y-2064969D01*
X1643684Y-2076602D01*
X1652066Y-2087219D01*
X1661820Y-2096668D01*
X1672691Y-2104694D01*
X1684578Y-2111197D01*
X1697177Y-2116023D01*
X1715871Y-2120341D01*
X1718665Y-2122322D01*
X2058822Y-2462479D01*
X2060956Y-2465578D01*
X2061768Y-2469184D01*
X2061260Y-2472893D01*
X2060397Y-2475484D01*
X2057806Y-2488590D01*
X2056892Y-2501900D01*
X2057806Y-2515209D01*
X2060397Y-2528316D01*
X2064664Y-2540965D01*
X2070607Y-2552954D01*
X2078024Y-2564028D01*
X2086813Y-2574086D01*
X2096871Y-2582875D01*
X2107946Y-2590292D01*
X2119934Y-2596235D01*
X2132584Y-2600502D01*
X2145690Y-2603093D01*
G37*
G36*
X4009796Y-2120544D02*
G01*
X4023360Y-2120087D01*
X4036669Y-2117801D01*
X4049623Y-2113838D01*
X4061866Y-2108098D01*
X4073296Y-2100834D01*
X4083608Y-2092096D01*
X4092701Y-2082088D01*
X4100322Y-2070912D01*
X4106468Y-2058822D01*
X4110888Y-2046071D01*
X4113580Y-2032812D01*
X4114495Y-2019300D01*
X4113580Y-2005787D01*
X4110888Y-1992528D01*
X4106468Y-1979777D01*
X4100322Y-1967687D01*
X4092701Y-1956511D01*
X4083608Y-1946503D01*
X4073296Y-1937766D01*
X4061866Y-1930501D01*
X4049623Y-1924761D01*
X4036669Y-1920798D01*
X4023360Y-1918512D01*
X4009796Y-1918055D01*
X3996334Y-1919427D01*
X3983177Y-1922576D01*
X3970578Y-1927402D01*
X3958691Y-1933905D01*
X3947820Y-1941931D01*
X3938066Y-1951380D01*
X3929684Y-1961997D01*
X3922776Y-1973630D01*
X3917543Y-1986076D01*
X3913936Y-1999132D01*
X3912158Y-2012543D01*
X3912158Y-2026056D01*
X3913936Y-2039467D01*
X3917543Y-2052523D01*
X3922776Y-2064969D01*
X3929684Y-2076602D01*
X3938066Y-2087219D01*
X3947820Y-2096668D01*
X3958691Y-2104694D01*
X3970578Y-2111197D01*
X3983177Y-2116023D01*
X3996334Y-2119172D01*
G37*
G36*
X3755796Y-2120544D02*
G01*
X3769360Y-2120087D01*
X3782669Y-2117801D01*
X3795623Y-2113838D01*
X3807866Y-2108098D01*
X3819296Y-2100834D01*
X3829608Y-2092096D01*
X3838701Y-2082088D01*
X3846322Y-2070912D01*
X3852468Y-2058822D01*
X3856888Y-2046071D01*
X3859580Y-2032812D01*
X3860495Y-2019300D01*
X3859580Y-2005787D01*
X3856888Y-1992528D01*
X3852468Y-1979777D01*
X3846322Y-1967687D01*
X3838701Y-1956511D01*
X3829608Y-1946503D01*
X3819296Y-1937766D01*
X3807866Y-1930501D01*
X3795623Y-1924761D01*
X3782669Y-1920798D01*
X3769360Y-1918512D01*
X3755796Y-1918055D01*
X3742334Y-1919427D01*
X3729177Y-1922576D01*
X3716578Y-1927402D01*
X3704691Y-1933905D01*
X3693820Y-1941931D01*
X3684066Y-1951380D01*
X3675684Y-1961997D01*
X3668776Y-1973630D01*
X3663543Y-1986076D01*
X3659936Y-1999132D01*
X3658158Y-2012543D01*
X3658158Y-2026056D01*
X3659936Y-2039467D01*
X3663543Y-2052523D01*
X3668776Y-2064969D01*
X3675684Y-2076602D01*
X3684066Y-2087219D01*
X3693820Y-2096668D01*
X3704691Y-2104694D01*
X3716578Y-2111197D01*
X3729177Y-2116023D01*
X3742334Y-2119172D01*
G37*
G36*
X1215796Y-2120544D02*
G01*
X1229360Y-2120087D01*
X1242669Y-2117801D01*
X1255623Y-2113838D01*
X1267866Y-2108098D01*
X1279296Y-2100834D01*
X1289608Y-2092096D01*
X1298702Y-2082088D01*
X1306322Y-2070912D01*
X1312468Y-2058822D01*
X1316888Y-2046071D01*
X1319580Y-2032812D01*
X1320495Y-2019300D01*
X1319580Y-2005787D01*
X1316888Y-1992528D01*
X1312468Y-1979777D01*
X1306322Y-1967687D01*
X1298702Y-1956511D01*
X1289608Y-1946503D01*
X1279296Y-1937766D01*
X1267866Y-1930501D01*
X1255623Y-1924761D01*
X1242669Y-1920798D01*
X1229360Y-1918512D01*
X1215796Y-1918055D01*
X1202334Y-1919427D01*
X1189177Y-1922576D01*
X1176578Y-1927402D01*
X1164691Y-1933905D01*
X1153820Y-1941931D01*
X1144066Y-1951380D01*
X1135684Y-1961997D01*
X1128776Y-1973630D01*
X1123543Y-1986076D01*
X1119936Y-1999132D01*
X1118158Y-2012543D01*
X1118158Y-2026056D01*
X1119936Y-2039467D01*
X1123543Y-2052523D01*
X1128776Y-2064969D01*
X1135684Y-2076602D01*
X1144066Y-2087219D01*
X1153820Y-2096668D01*
X1164691Y-2104694D01*
X1176578Y-2111197D01*
X1189177Y-2116023D01*
X1202334Y-2119172D01*
G37*
G36*
X1469796Y-2120544D02*
G01*
X1483360Y-2120087D01*
X1496669Y-2117801D01*
X1509623Y-2113838D01*
X1521866Y-2108098D01*
X1533296Y-2100834D01*
X1543608Y-2092096D01*
X1552702Y-2082088D01*
X1560322Y-2070912D01*
X1566468Y-2058822D01*
X1570888Y-2046071D01*
X1573580Y-2032812D01*
X1574495Y-2019300D01*
X1573580Y-2005787D01*
X1570888Y-1992528D01*
X1566468Y-1979777D01*
X1560322Y-1967687D01*
X1552702Y-1956511D01*
X1543608Y-1946503D01*
X1533296Y-1937766D01*
X1521866Y-1930501D01*
X1509623Y-1924761D01*
X1496669Y-1920798D01*
X1483360Y-1918512D01*
X1469796Y-1918055D01*
X1456334Y-1919427D01*
X1443177Y-1922576D01*
X1430578Y-1927402D01*
X1418691Y-1933905D01*
X1407820Y-1941931D01*
X1398066Y-1951380D01*
X1389684Y-1961997D01*
X1382776Y-1973630D01*
X1377543Y-1986076D01*
X1373936Y-1999132D01*
X1372158Y-2012543D01*
X1372158Y-2026056D01*
X1373936Y-2039467D01*
X1377543Y-2052523D01*
X1382776Y-2064969D01*
X1389684Y-2076602D01*
X1398066Y-2087219D01*
X1407820Y-2096668D01*
X1418691Y-2104694D01*
X1430578Y-2111197D01*
X1443177Y-2116023D01*
X1456334Y-2119172D01*
G37*
G36*
X7888884Y-2246833D02*
G01*
X8087715Y-2246833D01*
X8094065Y-2246071D01*
X8099501Y-2244191D01*
X8104428Y-2241092D01*
X8108492Y-2237028D01*
X8111591Y-2232101D01*
X8113471Y-2226665D01*
X8114233Y-2220315D01*
X8114233Y-2021484D01*
X8113471Y-2015134D01*
X8111591Y-2009698D01*
X8108492Y-2004771D01*
X8104784Y-2001062D01*
X8102600Y-1997811D01*
X8101838Y-1993900D01*
X8102600Y-1989988D01*
X8104784Y-1986737D01*
X8108492Y-1983028D01*
X8111591Y-1978101D01*
X8113471Y-1972665D01*
X8114233Y-1966315D01*
X8114233Y-1767484D01*
X8113471Y-1761134D01*
X8111591Y-1755698D01*
X8108492Y-1750771D01*
X8104428Y-1746707D01*
X8099501Y-1743608D01*
X8094065Y-1741728D01*
X8087715Y-1741017D01*
X7966862Y-1741017D01*
X7963662Y-1740458D01*
X7960766Y-1738985D01*
X7564932Y-1442618D01*
X7559751Y-1439011D01*
X7554468Y-1435912D01*
X7548981Y-1433169D01*
X7543342Y-1430832D01*
X7537500Y-1428902D01*
X7531608Y-1427378D01*
X7525562Y-1426260D01*
X7519466Y-1425600D01*
X7513116Y-1425397D01*
X5334203Y-1425397D01*
X5327853Y-1425600D01*
X5321757Y-1426260D01*
X5315762Y-1427378D01*
X5309819Y-1428902D01*
X5303977Y-1430832D01*
X5298338Y-1433169D01*
X5292852Y-1435912D01*
X5287568Y-1439011D01*
X5282539Y-1442516D01*
X5277764Y-1446377D01*
X5273141Y-1450695D01*
X4793386Y-1930400D01*
X4790084Y-1932635D01*
X4786223Y-1933397D01*
X4577384Y-1933397D01*
X4574540Y-1932990D01*
X4569866Y-1930501D01*
X4557623Y-1924761D01*
X4544669Y-1920798D01*
X4531360Y-1918512D01*
X4517796Y-1918055D01*
X4504334Y-1919427D01*
X4491177Y-1922576D01*
X4478578Y-1927402D01*
X4466691Y-1933905D01*
X4455820Y-1941931D01*
X4446066Y-1951380D01*
X4437684Y-1961997D01*
X4430776Y-1973630D01*
X4425543Y-1986076D01*
X4421936Y-1999132D01*
X4420158Y-2012543D01*
X4420158Y-2026056D01*
X4421936Y-2039467D01*
X4425543Y-2052523D01*
X4430776Y-2064969D01*
X4437684Y-2076602D01*
X4446066Y-2087219D01*
X4455820Y-2096668D01*
X4466691Y-2104694D01*
X4478578Y-2111197D01*
X4491177Y-2116023D01*
X4504334Y-2119172D01*
X4517796Y-2120544D01*
X4531360Y-2120087D01*
X4544669Y-2117801D01*
X4557623Y-2113838D01*
X4569866Y-2108098D01*
X4574540Y-2105609D01*
X4577384Y-2105202D01*
X4825796Y-2105202D01*
X4832146Y-2104999D01*
X4838242Y-2104339D01*
X4844237Y-2103221D01*
X4850180Y-2101697D01*
X4856022Y-2099767D01*
X4861661Y-2097430D01*
X4867148Y-2094687D01*
X4872431Y-2091588D01*
X4877460Y-2088083D01*
X4882235Y-2084222D01*
X4886858Y-2079904D01*
X5366613Y-1600200D01*
X5369915Y-1597964D01*
X5373776Y-1597202D01*
X7481366Y-1597202D01*
X7484567Y-1597710D01*
X7487412Y-1599234D01*
X7858302Y-1876907D01*
X7860487Y-1879142D01*
X7861909Y-1881936D01*
X7862417Y-1885035D01*
X7862417Y-1966315D01*
X7863128Y-1972665D01*
X7865008Y-1978101D01*
X7868107Y-1983028D01*
X7871815Y-1986737D01*
X7874000Y-1989988D01*
X7874762Y-1993900D01*
X7874000Y-1997811D01*
X7871815Y-2001062D01*
X7868107Y-2004771D01*
X7865008Y-2009698D01*
X7863128Y-2015134D01*
X7862417Y-2021484D01*
X7862417Y-2220315D01*
X7863128Y-2226665D01*
X7865008Y-2232101D01*
X7868107Y-2237028D01*
X7872171Y-2241092D01*
X7877098Y-2244191D01*
X7882534Y-2246071D01*
G37*
G36*
X5348884Y-2246833D02*
G01*
X5547715Y-2246833D01*
X5554065Y-2246071D01*
X5559501Y-2244191D01*
X5564428Y-2241092D01*
X5568492Y-2237028D01*
X5571591Y-2232101D01*
X5573471Y-2226665D01*
X5574182Y-2220315D01*
X5574182Y-2021484D01*
X5573471Y-2015134D01*
X5571591Y-2009698D01*
X5568492Y-2004771D01*
X5564784Y-2001062D01*
X5562600Y-1997811D01*
X5561838Y-1993900D01*
X5562600Y-1989988D01*
X5564784Y-1986737D01*
X5568492Y-1983028D01*
X5571591Y-1978101D01*
X5573471Y-1972665D01*
X5574182Y-1966315D01*
X5574182Y-1767484D01*
X5573471Y-1761134D01*
X5571591Y-1755698D01*
X5568492Y-1750771D01*
X5564428Y-1746707D01*
X5559501Y-1743608D01*
X5554065Y-1741728D01*
X5547715Y-1741017D01*
X5348884Y-1741017D01*
X5342534Y-1741728D01*
X5337098Y-1743608D01*
X5332171Y-1746707D01*
X5328107Y-1750771D01*
X5325008Y-1755698D01*
X5323078Y-1761134D01*
X5322366Y-1767484D01*
X5322366Y-1966315D01*
X5323078Y-1972665D01*
X5325008Y-1978101D01*
X5328107Y-1983028D01*
X5331815Y-1986737D01*
X5334000Y-1989988D01*
X5334762Y-1993900D01*
X5334000Y-1997811D01*
X5331815Y-2001062D01*
X5328107Y-2004771D01*
X5325008Y-2009698D01*
X5323078Y-2015134D01*
X5322366Y-2021484D01*
X5322366Y-2220315D01*
X5323078Y-2226665D01*
X5325008Y-2232101D01*
X5328107Y-2237028D01*
X5332171Y-2241092D01*
X5337098Y-2244191D01*
X5342534Y-2246071D01*
G37*
G36*
X5019497Y-4495698D02*
G01*
X5035854Y-4494784D01*
X5051958Y-4492040D01*
X5067706Y-4487519D01*
X5082794Y-4481271D01*
X5097119Y-4473346D01*
X5110480Y-4463846D01*
X5122672Y-4452975D01*
X5133543Y-4440783D01*
X5143042Y-4427423D01*
X5150967Y-4413097D01*
X5157216Y-4398010D01*
X5161737Y-4382262D01*
X5164480Y-4366158D01*
X5165394Y-4349800D01*
X5164480Y-4333443D01*
X5161737Y-4317339D01*
X5157216Y-4301591D01*
X5150967Y-4286504D01*
X5143042Y-4272178D01*
X5133543Y-4258818D01*
X5122672Y-4246626D01*
X5110480Y-4235754D01*
X5097119Y-4226255D01*
X5085638Y-4219956D01*
X5082844Y-4217670D01*
X5081066Y-4214571D01*
X5080406Y-4211066D01*
X5080406Y-3578656D01*
X5081117Y-3574948D01*
X5083149Y-3571748D01*
X5086248Y-3569512D01*
X5089906Y-3568547D01*
X5093309Y-3568293D01*
X5106416Y-3565702D01*
X5119065Y-3561435D01*
X5131054Y-3555492D01*
X5142128Y-3548075D01*
X5152186Y-3539286D01*
X5160975Y-3529228D01*
X5168392Y-3518154D01*
X5174335Y-3506165D01*
X5178602Y-3493515D01*
X5181193Y-3480409D01*
X5182108Y-3467100D01*
X5181193Y-3453790D01*
X5178602Y-3440684D01*
X5174335Y-3428034D01*
X5168392Y-3416046D01*
X5160975Y-3404971D01*
X5152186Y-3394913D01*
X5142128Y-3386124D01*
X5131054Y-3378708D01*
X5119065Y-3372764D01*
X5106416Y-3368497D01*
X5093309Y-3365906D01*
X5079644Y-3364992D01*
X5029555Y-3364992D01*
X5015890Y-3365906D01*
X5002784Y-3368497D01*
X4990134Y-3372764D01*
X4978146Y-3378708D01*
X4967071Y-3386124D01*
X4957013Y-3394913D01*
X4948224Y-3404971D01*
X4940808Y-3416046D01*
X4934864Y-3428034D01*
X4930597Y-3440684D01*
X4928006Y-3453790D01*
X4927092Y-3467100D01*
X4928006Y-3480409D01*
X4930597Y-3493515D01*
X4934864Y-3506165D01*
X4940808Y-3518154D01*
X4948224Y-3529228D01*
X4956048Y-3538220D01*
X4957927Y-3541318D01*
X4958588Y-3544925D01*
X4958588Y-4211015D01*
X4957978Y-4214571D01*
X4956149Y-4217670D01*
X4953355Y-4219905D01*
X4941874Y-4226255D01*
X4928514Y-4235754D01*
X4916322Y-4246626D01*
X4905451Y-4258818D01*
X4895951Y-4272178D01*
X4888026Y-4286504D01*
X4881778Y-4301591D01*
X4877257Y-4317339D01*
X4874514Y-4333443D01*
X4873599Y-4349800D01*
X4874514Y-4366158D01*
X4877257Y-4382262D01*
X4881778Y-4398010D01*
X4888026Y-4413097D01*
X4895951Y-4427423D01*
X4905451Y-4440783D01*
X4916322Y-4452975D01*
X4928514Y-4463846D01*
X4941874Y-4473346D01*
X4956200Y-4481271D01*
X4971288Y-4487519D01*
X4987036Y-4492040D01*
X5003139Y-4494784D01*
G37*

%LPD*%
D10*
X4644565Y-3467100D02*
G01*
X4619500Y-3492172D01*
X4619500Y-4349800D01*
X5054600Y-3467100D02*
G01*
X5019502Y-3502205D01*
X5019502Y-4349800D01*
D11*
X3219500Y-4749800D02*
G01*
X3619500Y-4749800D01*
X3619500Y-4749800D02*
G01*
X4019499Y-4749800D01*
D12*
X4819500Y-4749800D02*
G01*
X4419500Y-4749800D01*
D10*
X2184400Y-2501900D02*
G01*
X1727200Y-2044700D01*
X1727200Y-2019300D01*
X2594434Y-2501900D02*
G01*
X2463800Y-2501900D01*
X1981200Y-2019300D01*
D13*
X5054600Y-2501900D02*
G01*
X4749800Y-2197100D01*
X3683000Y-2197100D01*
X3505200Y-2019300D01*
X4644641Y-2501900D02*
G01*
X4403341Y-2260600D01*
X3492500Y-2260600D01*
X3251200Y-2019300D01*
X4234434Y-2501900D02*
G01*
X4056634Y-2324100D01*
X3302000Y-2324100D01*
X2997200Y-2019300D01*
X3004565Y-2501900D02*
G01*
X2832100Y-2501900D01*
X2464556Y-2134362D01*
X2350256Y-2134362D01*
X2235200Y-2019300D01*
X3414501Y-2501900D02*
G01*
X3196915Y-2501900D01*
X3044464Y-2349449D01*
X2819349Y-2349449D01*
X2489200Y-2019300D01*
X3824472Y-2501900D02*
G01*
X3710172Y-2387600D01*
X3235200Y-2387600D01*
X3060700Y-2209800D01*
X2959100Y-2209800D01*
X2801106Y-2019300D01*
X2743200Y-2019300D01*
D12*
X7188200Y-4381500D02*
G01*
X6604000Y-4483100D01*
X4819500Y-4749800D01*
D11*
X7188200Y-4737100D02*
G01*
X7099300Y-4737100D01*
X6858000Y-4978400D01*
X4248150Y-4978400D01*
X4019550Y-4749800D01*
D10*
X4234533Y-3467100D02*
G01*
X4219501Y-3482136D01*
X4219501Y-4349800D01*
D14*
X4521200Y-2019300D02*
G01*
X4826000Y-2019300D01*
X5334000Y-1511300D01*
X7513320Y-1511300D01*
X7988300Y-1866900D01*
D15*
X4533900Y-1714500D02*
G01*
X4076700Y-1333500D01*
X3987800Y-1320800D01*
X1727200Y-1257300D01*
X965200Y-495300D01*
X5854700Y-7708900D02*
G01*
X5346700Y-7200900D01*
X5346700Y-6769100D01*
D16*
X6781800Y-9516110D02*
G01*
X5791200Y-9512300D01*
X3102609Y-9516110D01*
X1841500Y-8255000D01*
X2044700Y-5384800D01*
X2219452Y-5149850D01*
D13*
X5842000Y-8001000D02*
G01*
X5842000Y-7975600D01*
X5854700Y-7962900D01*
X6515100Y-7302500D01*
X6515100Y-7200900D01*
X7112000Y-6553200D01*
X7124700Y-6553200D01*
X7797800Y-5880100D01*
X7797800Y-5257800D01*
X7277100Y-4737100D01*
X7188200Y-4737100D01*
X5842000Y-8255000D02*
G01*
X5842000Y-8229600D01*
X5854700Y-8216900D01*
X4826000Y-8216900D01*
X3619500Y-7010400D01*
X3619500Y-5753100D01*
X3213100Y-5346700D01*
X3213100Y-5067300D01*
X3022600Y-4876800D01*
X3022600Y-4673600D01*
X2819400Y-4470400D01*
X2819400Y-4102100D01*
X2628900Y-3911600D01*
X1778000Y-3911600D01*
X5842000Y-8763000D02*
G01*
X5842000Y-8737600D01*
X5854700Y-8724900D01*
X4851400Y-8724900D01*
X3225800Y-7099300D01*
X3225800Y-5842000D01*
X2806700Y-5422900D01*
X2806700Y-5041900D01*
X2628900Y-4864100D01*
X2628900Y-4673600D01*
X2438400Y-4483100D01*
X2438400Y-4254500D01*
X2298700Y-4114800D01*
X1759023Y-4114800D01*
X1346200Y-3701976D01*
X965200Y-2019300D02*
G01*
X965200Y-3640076D01*
X2413000Y-5087876D01*
X2413000Y-6946900D01*
X4445000Y-8978900D01*
X5854700Y-8978900D01*
X5842000Y-8991600D01*
X5842000Y-9017000D01*
D17*
G01*
X7988300Y-2120900D03*
G01*
X7988300Y-1866900D03*
D18*
G01*
X7988300Y-977900D03*
G01*
X7988300Y-723900D03*
G01*
X5448300Y-723900D03*
G01*
X5448300Y-977900D03*
D17*
G01*
X5448300Y-1866900D03*
G01*
X5448300Y-2120900D03*
D19*
G01*
X2219502Y-4349800D03*
G01*
X2619502Y-4349800D03*
G01*
X3019501Y-4349800D03*
G01*
X3419500Y-4349800D03*
G01*
X3819499Y-4349800D03*
G01*
X4219498Y-4349800D03*
G01*
X4619497Y-4349800D03*
G01*
X5019497Y-4349800D03*
G01*
X2419502Y-4749800D03*
G01*
X2819501Y-4749800D03*
G01*
X3219500Y-4749800D03*
G01*
X3619500Y-4749800D03*
G01*
X4019499Y-4749800D03*
G01*
X4419498Y-4749800D03*
G01*
X4819497Y-4749800D03*
G01*
X2219502Y-5149799D03*
G01*
X2619502Y-5149799D03*
G01*
X3019501Y-5149799D03*
G01*
X3419500Y-5149799D03*
G01*
X3819499Y-5149799D03*
G01*
X4219498Y-5149799D03*
G01*
X4619497Y-5149799D03*
G01*
X5019497Y-5149799D03*
D20*
G01*
X6781800Y-7366000D03*
D21*
G01*
X6781800Y-9515983D03*
D22*
G01*
X4521200Y-495300D03*
D23*
G01*
X4267200Y-495300D03*
G01*
X4013200Y-495300D03*
G01*
X3759200Y-495300D03*
G01*
X3505200Y-495300D03*
G01*
X3251200Y-495300D03*
G01*
X2997200Y-495300D03*
G01*
X2743200Y-495300D03*
G01*
X2489200Y-495300D03*
G01*
X2235200Y-495300D03*
G01*
X1981200Y-495300D03*
G01*
X1727200Y-495300D03*
G01*
X4521200Y-2019300D03*
G01*
X4267200Y-2019300D03*
G01*
X4013200Y-2019300D03*
G01*
X3759200Y-2019300D03*
G01*
X3505200Y-2019300D03*
G01*
X3251200Y-2019300D03*
G01*
X2743200Y-2019300D03*
G01*
X2489200Y-2019300D03*
G01*
X1981200Y-2019300D03*
G01*
X1727200Y-2019300D03*
G01*
X2235200Y-2019300D03*
G01*
X2997200Y-2019300D03*
G01*
X1473200Y-495300D03*
G01*
X1219200Y-495300D03*
G01*
X965200Y-495300D03*
G01*
X1473200Y-2019300D03*
G01*
X1219200Y-2019300D03*
G01*
X965200Y-2019300D03*
D24*
G01*
X2184400Y-3467100D03*
G01*
X2184400Y-2501900D03*
G01*
X2594432Y-3467100D03*
G01*
X2594432Y-2501900D03*
G01*
X3004464Y-3467100D03*
G01*
X3004464Y-2501900D03*
G01*
X3414496Y-3467100D03*
G01*
X3414496Y-2501900D03*
G01*
X3824503Y-3467100D03*
G01*
X3824503Y-2501900D03*
G01*
X4234535Y-3467100D03*
G01*
X4234535Y-2501900D03*
G01*
X4644567Y-3467100D03*
G01*
X4644567Y-2501900D03*
G01*
X5054600Y-3467100D03*
G01*
X5054600Y-2501900D03*
G01*
X4991100Y-6908800D03*
G01*
X4991100Y-5943600D03*
G01*
X4597400Y-6908800D03*
G01*
X4597400Y-5943600D03*
G01*
X4203700Y-6908800D03*
G01*
X4203700Y-5943600D03*
G01*
X3810000Y-6908800D03*
G01*
X3810000Y-5943600D03*
G01*
X3416300Y-6908800D03*
G01*
X3416300Y-5943600D03*
G01*
X3022600Y-6908800D03*
G01*
X3022600Y-5943600D03*
G01*
X2628900Y-6908800D03*
G01*
X2628900Y-5943600D03*
D25*
G01*
X5854700Y-9232900D03*
D26*
G01*
X5854700Y-8978900D03*
G01*
X5854700Y-8724900D03*
G01*
X5854700Y-8470900D03*
G01*
X5854700Y-8216900D03*
G01*
X5854700Y-7962900D03*
G01*
X5854700Y-7708900D03*
D25*
G01*
X3060700Y-8597900D03*
G01*
X3060700Y-8343900D03*
D27*
G01*
X7188200Y-4737100D03*
G01*
X7188200Y-4991100D03*
G01*
X7188200Y-5245100D03*
G01*
X7188200Y-4483100D03*
D28*
G01*
X5346700Y-6769100D03*
G01*
X1778000Y-3911600D03*
G01*
X1346200Y-3701973D03*
G01*
X4533900Y-1714500D03*
M02*
